%TF.GenerationSoftware,KiCad,Pcbnew,9.0.1*%
%TF.CreationDate,2025-04-18T18:53:21-04:00*%
%TF.ProjectId,attinyx14_dev,61747469-6e79-4783-9134-5f6465762e6b,rev?*%
%TF.SameCoordinates,Original*%
%TF.FileFunction,Copper,L2,Bot*%
%TF.FilePolarity,Positive*%
%FSLAX46Y46*%
G04 Gerber Fmt 4.6, Leading zero omitted, Abs format (unit mm)*
G04 Created by KiCad (PCBNEW 9.0.1) date 2025-04-18 18:53:21*
%MOMM*%
%LPD*%
G01*
G04 APERTURE LIST*
%TA.AperFunction,ComponentPad*%
%ADD10R,1.700000X1.700000*%
%TD*%
%TA.AperFunction,ComponentPad*%
%ADD11C,1.700000*%
%TD*%
%TA.AperFunction,ComponentPad*%
%ADD12O,1.000000X2.100000*%
%TD*%
%TA.AperFunction,ComponentPad*%
%ADD13O,1.000000X1.800000*%
%TD*%
%TA.AperFunction,ViaPad*%
%ADD14C,0.720000*%
%TD*%
%TA.AperFunction,ViaPad*%
%ADD15C,0.800000*%
%TD*%
%TA.AperFunction,ViaPad*%
%ADD16C,0.520000*%
%TD*%
%TA.AperFunction,ViaPad*%
%ADD17C,0.450000*%
%TD*%
%TA.AperFunction,Conductor*%
%ADD18C,0.300000*%
%TD*%
%TA.AperFunction,Conductor*%
%ADD19C,0.500000*%
%TD*%
%TA.AperFunction,Conductor*%
%ADD20C,0.200000*%
%TD*%
G04 APERTURE END LIST*
D10*
%TO.P,J4,1,Pin_1*%
%TO.N,+5VA*%
X5955000Y-30875000D03*
D11*
%TO.P,J4,2,Pin_2*%
%TO.N,+5V*%
X5955000Y-28335000D03*
%TO.P,J4,3,Pin_3*%
%TO.N,/PB3*%
X8495000Y-30875000D03*
%TO.P,J4,4,Pin_4*%
%TO.N,/TX*%
X8495000Y-28335000D03*
%TO.P,J4,5,Pin_5*%
%TO.N,/PB2*%
X11035000Y-30875000D03*
%TO.P,J4,6,Pin_6*%
%TO.N,/RX*%
X11035000Y-28335000D03*
%TO.P,J4,7,Pin_7*%
%TO.N,/PA0*%
X13575000Y-30875000D03*
%TO.P,J4,8,Pin_8*%
%TO.N,/UPDI*%
X13575000Y-28335000D03*
%TO.P,J4,9,Pin_9*%
%TO.N,/PA3*%
X16115000Y-30875000D03*
%TO.P,J4,10,Pin_10*%
%TO.N,/LED*%
X16115000Y-28335000D03*
%TO.P,J4,11,Pin_11*%
%TO.N,GND1*%
X18655000Y-30875000D03*
%TO.P,J4,12,Pin_12*%
%TO.N,GND*%
X18655000Y-28335000D03*
%TD*%
D12*
%TO.P,J1,S1,SHIELD*%
%TO.N,GND*%
X16620000Y-7025000D03*
D13*
X16620000Y-2825000D03*
D12*
X7980000Y-7025000D03*
D13*
X7980000Y-2825000D03*
%TD*%
D10*
%TO.P,J3,1,Pin_1*%
%TO.N,GND1*%
X16110000Y-47160000D03*
D11*
%TO.P,J3,2,Pin_2*%
%TO.N,/PA3*%
X16110000Y-49700000D03*
%TO.P,J3,3,Pin_3*%
%TO.N,/PA2*%
X16110000Y-52240000D03*
%TO.P,J3,4,Pin_4*%
%TO.N,/PA1*%
X16110000Y-54780000D03*
%TO.P,J3,5,Pin_5*%
%TO.N,/PA0*%
X16110000Y-57320000D03*
%TO.P,J3,6,Pin_6*%
%TO.N,/PB0*%
X16110000Y-59860000D03*
%TO.P,J3,7,Pin_7*%
%TO.N,/PB1*%
X16110000Y-62400000D03*
%TD*%
D10*
%TO.P,J6,1,Pin_1*%
%TO.N,GND1*%
X21190000Y-34460000D03*
D11*
%TO.P,J6,2,Pin_2*%
X21190000Y-37000000D03*
%TD*%
D10*
%TO.P,J2,1,Pin_1*%
%TO.N,+5VA*%
X8490000Y-47160000D03*
D11*
%TO.P,J2,2,Pin_2*%
%TO.N,/PA4*%
X8490000Y-49700000D03*
%TO.P,J2,3,Pin_3*%
%TO.N,/PA5*%
X8490000Y-52240000D03*
%TO.P,J2,4,Pin_4*%
%TO.N,/PA6*%
X8490000Y-54780000D03*
%TO.P,J2,5,Pin_5*%
%TO.N,/PA7*%
X8490000Y-57320000D03*
%TO.P,J2,6,Pin_6*%
%TO.N,/PB3*%
X8490000Y-59860000D03*
%TO.P,J2,7,Pin_7*%
%TO.N,/PB2*%
X8490000Y-62400000D03*
%TD*%
D10*
%TO.P,J5,1,Pin_1*%
%TO.N,GND1*%
X3410000Y-34460000D03*
D11*
%TO.P,J5,2,Pin_2*%
X3410000Y-37000000D03*
%TD*%
D14*
%TO.N,GND*%
X13650000Y-22880000D03*
D15*
X12310000Y-17437500D03*
X11310000Y-17437500D03*
D14*
X5230000Y-15300000D03*
X8600000Y-8870000D03*
X5230000Y-13580000D03*
X19420000Y-21050000D03*
X3200000Y-10690000D03*
X15500000Y-13020000D03*
D15*
X13310000Y-17437500D03*
D14*
X15500000Y-14740000D03*
X15510000Y-11320000D03*
X16000000Y-8870000D03*
%TO.N,GND1*%
X7370000Y-37700000D03*
X16460000Y-35000000D03*
D16*
%TO.N,/TX*%
X9610000Y-22970000D03*
X9610000Y-21310000D03*
%TO.N,/RX*%
X10310000Y-21310000D03*
X10310000Y-22970000D03*
D14*
%TO.N,Net-(F1-Pad1)*%
X9910000Y-8960000D03*
X14700000Y-8960000D03*
D16*
%TO.N,/UD+*%
X11540205Y-13109795D03*
X14310000Y-13480000D03*
D17*
%TO.N,/PA4*%
X11282035Y-40410000D03*
X10865000Y-43400000D03*
%TD*%
D18*
%TO.N,/TX*%
X9610000Y-21310000D02*
X9610000Y-22970000D01*
%TO.N,/RX*%
X10310000Y-21310000D02*
X10310000Y-22970000D01*
D19*
%TO.N,Net-(F1-Pad1)*%
X9910000Y-8960000D02*
X14700000Y-8960000D01*
D20*
%TO.N,/UD+*%
X11540205Y-13109795D02*
X13939795Y-13109795D01*
X13939795Y-13109795D02*
X14310000Y-13480000D01*
D18*
%TO.N,/PA4*%
X10865000Y-43400000D02*
X10865000Y-40815000D01*
X10865000Y-40815000D02*
X11270000Y-40410000D01*
X11270000Y-40410000D02*
X11282035Y-40410000D01*
%TD*%
%TA.AperFunction,Conductor*%
%TO.N,GND*%
G36*
X7818196Y-1220184D02*
G01*
X7863951Y-1272988D01*
X7873895Y-1342146D01*
X7844870Y-1405702D01*
X7786092Y-1443476D01*
X7775348Y-1446116D01*
X7688318Y-1463427D01*
X7688306Y-1463430D01*
X7506328Y-1538807D01*
X7506315Y-1538814D01*
X7342537Y-1648248D01*
X7342533Y-1648251D01*
X7203251Y-1787533D01*
X7203248Y-1787537D01*
X7093814Y-1951315D01*
X7093807Y-1951328D01*
X7018430Y-2133306D01*
X7018427Y-2133318D01*
X6980000Y-2326504D01*
X6980000Y-2575000D01*
X7680000Y-2575000D01*
X7680000Y-3075000D01*
X6980000Y-3075000D01*
X6980000Y-3323495D01*
X7018427Y-3516681D01*
X7018430Y-3516693D01*
X7093807Y-3698671D01*
X7093814Y-3698684D01*
X7203248Y-3862462D01*
X7203251Y-3862466D01*
X7342533Y-4001748D01*
X7342537Y-4001751D01*
X7506315Y-4111185D01*
X7506328Y-4111192D01*
X7688308Y-4186569D01*
X7730000Y-4194862D01*
X7730000Y-3391988D01*
X7739940Y-3409205D01*
X7795795Y-3465060D01*
X7864204Y-3504556D01*
X7940504Y-3525000D01*
X8019496Y-3525000D01*
X8095796Y-3504556D01*
X8164205Y-3465060D01*
X8220060Y-3409205D01*
X8230000Y-3391988D01*
X8230000Y-4194862D01*
X8271690Y-4186569D01*
X8271692Y-4186569D01*
X8453671Y-4111192D01*
X8453684Y-4111185D01*
X8617462Y-4001751D01*
X8617466Y-4001748D01*
X8756748Y-3862466D01*
X8756751Y-3862462D01*
X8866185Y-3698684D01*
X8866192Y-3698671D01*
X8941569Y-3516693D01*
X8941572Y-3516681D01*
X8979999Y-3323495D01*
X8980000Y-3323492D01*
X8980000Y-3075000D01*
X8280000Y-3075000D01*
X8280000Y-2575000D01*
X8980000Y-2575000D01*
X8980000Y-2326508D01*
X8979999Y-2326504D01*
X8941572Y-2133318D01*
X8941569Y-2133306D01*
X8866192Y-1951328D01*
X8866185Y-1951315D01*
X8756751Y-1787537D01*
X8756748Y-1787533D01*
X8617466Y-1648251D01*
X8617462Y-1648248D01*
X8453684Y-1538814D01*
X8453671Y-1538807D01*
X8271693Y-1463430D01*
X8271681Y-1463427D01*
X8184652Y-1446116D01*
X8122741Y-1413732D01*
X8088167Y-1353016D01*
X8091906Y-1283246D01*
X8132772Y-1226574D01*
X8197790Y-1200993D01*
X8208843Y-1200499D01*
X16391157Y-1200499D01*
X16458196Y-1220184D01*
X16503951Y-1272988D01*
X16513895Y-1342146D01*
X16484870Y-1405702D01*
X16426092Y-1443476D01*
X16415348Y-1446116D01*
X16328318Y-1463427D01*
X16328306Y-1463430D01*
X16146328Y-1538807D01*
X16146315Y-1538814D01*
X15982537Y-1648248D01*
X15982533Y-1648251D01*
X15843251Y-1787533D01*
X15843248Y-1787537D01*
X15733814Y-1951315D01*
X15733807Y-1951328D01*
X15658430Y-2133306D01*
X15658427Y-2133318D01*
X15620000Y-2326504D01*
X15620000Y-2575000D01*
X16320000Y-2575000D01*
X16320000Y-3075000D01*
X15620000Y-3075000D01*
X15620000Y-3323495D01*
X15658427Y-3516681D01*
X15658430Y-3516693D01*
X15733807Y-3698671D01*
X15733814Y-3698684D01*
X15843248Y-3862462D01*
X15843251Y-3862466D01*
X15982533Y-4001748D01*
X15982537Y-4001751D01*
X16146315Y-4111185D01*
X16146328Y-4111192D01*
X16328308Y-4186569D01*
X16370000Y-4194862D01*
X16370000Y-3391988D01*
X16379940Y-3409205D01*
X16435795Y-3465060D01*
X16504204Y-3504556D01*
X16580504Y-3525000D01*
X16659496Y-3525000D01*
X16735796Y-3504556D01*
X16804205Y-3465060D01*
X16860060Y-3409205D01*
X16870000Y-3391988D01*
X16870000Y-4194862D01*
X16911690Y-4186569D01*
X16911692Y-4186569D01*
X17093671Y-4111192D01*
X17093684Y-4111185D01*
X17257462Y-4001751D01*
X17257466Y-4001748D01*
X17381241Y-3877973D01*
X19049500Y-3877973D01*
X19049500Y-4122026D01*
X19087678Y-4363072D01*
X19163097Y-4595187D01*
X19273896Y-4812642D01*
X19417339Y-5010076D01*
X19417343Y-5010081D01*
X19589918Y-5182656D01*
X19589923Y-5182660D01*
X19762136Y-5307779D01*
X19787361Y-5326106D01*
X20004815Y-5436904D01*
X20236924Y-5512321D01*
X20477973Y-5550500D01*
X20477974Y-5550500D01*
X20722026Y-5550500D01*
X20722027Y-5550500D01*
X20963076Y-5512321D01*
X21195185Y-5436904D01*
X21412639Y-5326106D01*
X21610083Y-5182655D01*
X21782655Y-5010083D01*
X21926106Y-4812639D01*
X22036904Y-4595185D01*
X22112321Y-4363076D01*
X22150500Y-4122027D01*
X22150500Y-3877973D01*
X22112321Y-3636924D01*
X22036904Y-3404815D01*
X21926106Y-3187361D01*
X21860109Y-3096523D01*
X21782660Y-2989923D01*
X21782656Y-2989918D01*
X21610081Y-2817343D01*
X21610076Y-2817339D01*
X21412642Y-2673896D01*
X21412641Y-2673895D01*
X21412639Y-2673894D01*
X21195185Y-2563096D01*
X20963076Y-2487679D01*
X20963074Y-2487678D01*
X20963072Y-2487678D01*
X20794769Y-2461021D01*
X20722027Y-2449500D01*
X20477973Y-2449500D01*
X20422093Y-2458350D01*
X20236927Y-2487678D01*
X20004812Y-2563097D01*
X19787357Y-2673896D01*
X19589923Y-2817339D01*
X19589918Y-2817343D01*
X19417343Y-2989918D01*
X19417339Y-2989923D01*
X19273896Y-3187357D01*
X19163097Y-3404812D01*
X19087678Y-3636927D01*
X19049500Y-3877973D01*
X17381241Y-3877973D01*
X17396748Y-3862466D01*
X17396751Y-3862462D01*
X17435675Y-3804210D01*
X17506185Y-3698684D01*
X17506192Y-3698671D01*
X17581569Y-3516693D01*
X17581572Y-3516681D01*
X17619999Y-3323495D01*
X17620000Y-3323492D01*
X17620000Y-3075000D01*
X16920000Y-3075000D01*
X16920000Y-2575000D01*
X17620000Y-2575000D01*
X17620000Y-2326508D01*
X17619999Y-2326504D01*
X17581572Y-2133318D01*
X17581569Y-2133306D01*
X17506192Y-1951328D01*
X17506185Y-1951315D01*
X17396751Y-1787537D01*
X17396748Y-1787533D01*
X17257466Y-1648251D01*
X17257462Y-1648248D01*
X17093684Y-1538814D01*
X17093671Y-1538807D01*
X16911693Y-1463430D01*
X16911681Y-1463427D01*
X16824652Y-1446116D01*
X16762741Y-1413732D01*
X16728167Y-1353016D01*
X16731906Y-1283246D01*
X16772772Y-1226574D01*
X16837790Y-1200993D01*
X16848843Y-1200499D01*
X20535453Y-1200499D01*
X20560117Y-1200499D01*
X20560118Y-1200500D01*
X20596521Y-1200500D01*
X20603472Y-1200695D01*
X20610280Y-1201077D01*
X20906503Y-1217713D01*
X20920301Y-1219267D01*
X21216080Y-1269522D01*
X21229636Y-1272616D01*
X21517927Y-1355672D01*
X21531051Y-1360265D01*
X21808222Y-1475072D01*
X21820744Y-1481101D01*
X21925154Y-1538807D01*
X22083328Y-1626227D01*
X22095102Y-1633625D01*
X22115716Y-1648251D01*
X22339789Y-1807239D01*
X22350657Y-1815907D01*
X22574352Y-2015815D01*
X22584184Y-2025647D01*
X22784092Y-2249342D01*
X22792763Y-2260214D01*
X22966374Y-2504897D01*
X22973772Y-2516671D01*
X23118894Y-2779248D01*
X23124927Y-2791777D01*
X23239734Y-3068948D01*
X23244327Y-3082072D01*
X23327383Y-3370363D01*
X23330477Y-3383920D01*
X23380730Y-3679689D01*
X23382287Y-3693507D01*
X23399304Y-3996525D01*
X23399499Y-4003478D01*
X23399499Y-29276000D01*
X23379814Y-29343039D01*
X23327010Y-29388794D01*
X23275499Y-29400000D01*
X19793288Y-29400000D01*
X19726249Y-29380315D01*
X19680494Y-29327511D01*
X19670550Y-29258353D01*
X19692970Y-29203115D01*
X19809620Y-29042557D01*
X19906095Y-28853217D01*
X19971757Y-28651130D01*
X19971757Y-28651127D01*
X20005000Y-28441246D01*
X20005000Y-28228753D01*
X19971757Y-28018872D01*
X19971757Y-28018869D01*
X19906095Y-27816782D01*
X19809624Y-27627449D01*
X19770270Y-27573282D01*
X19770269Y-27573282D01*
X19137962Y-28205589D01*
X19120925Y-28142007D01*
X19055099Y-28027993D01*
X18962007Y-27934901D01*
X18847993Y-27869075D01*
X18784409Y-27852037D01*
X19416716Y-27219728D01*
X19362550Y-27180375D01*
X19173217Y-27083904D01*
X18971129Y-27018242D01*
X18761246Y-26985000D01*
X18548754Y-26985000D01*
X18338872Y-27018242D01*
X18338869Y-27018242D01*
X18136782Y-27083904D01*
X17947439Y-27180380D01*
X17893282Y-27219727D01*
X17893282Y-27219728D01*
X18525591Y-27852037D01*
X18462007Y-27869075D01*
X18347993Y-27934901D01*
X18254901Y-28027993D01*
X18189075Y-28142007D01*
X18172037Y-28205591D01*
X17539728Y-27573282D01*
X17539727Y-27573282D01*
X17500380Y-27627440D01*
X17500376Y-27627446D01*
X17495760Y-27636505D01*
X17447781Y-27687297D01*
X17379959Y-27704087D01*
X17313826Y-27681543D01*
X17274794Y-27636493D01*
X17270051Y-27627184D01*
X17270049Y-27627181D01*
X17270048Y-27627179D01*
X17145109Y-27455213D01*
X16994786Y-27304890D01*
X16822820Y-27179951D01*
X16633414Y-27083444D01*
X16633413Y-27083443D01*
X16633412Y-27083443D01*
X16431243Y-27017754D01*
X16431241Y-27017753D01*
X16431240Y-27017753D01*
X16269957Y-26992208D01*
X16221287Y-26984500D01*
X16008713Y-26984500D01*
X15960042Y-26992208D01*
X15798760Y-27017753D01*
X15596585Y-27083444D01*
X15407179Y-27179951D01*
X15235213Y-27304890D01*
X15084890Y-27455213D01*
X14959949Y-27627182D01*
X14955484Y-27635946D01*
X14907509Y-27686742D01*
X14839688Y-27703536D01*
X14773553Y-27680998D01*
X14734516Y-27635946D01*
X14730050Y-27627182D01*
X14605109Y-27455213D01*
X14454786Y-27304890D01*
X14282820Y-27179951D01*
X14093414Y-27083444D01*
X14093413Y-27083443D01*
X14093412Y-27083443D01*
X13891243Y-27017754D01*
X13891241Y-27017753D01*
X13891240Y-27017753D01*
X13729957Y-26992208D01*
X13681287Y-26984500D01*
X13468713Y-26984500D01*
X13420042Y-26992208D01*
X13258760Y-27017753D01*
X13056585Y-27083444D01*
X12867179Y-27179951D01*
X12695213Y-27304890D01*
X12544890Y-27455213D01*
X12419949Y-27627182D01*
X12415484Y-27635946D01*
X12367509Y-27686742D01*
X12299688Y-27703536D01*
X12233553Y-27680998D01*
X12194516Y-27635946D01*
X12190050Y-27627182D01*
X12065109Y-27455213D01*
X11914786Y-27304890D01*
X11742820Y-27179951D01*
X11553414Y-27083444D01*
X11553413Y-27083443D01*
X11553412Y-27083443D01*
X11351243Y-27017754D01*
X11351241Y-27017753D01*
X11351240Y-27017753D01*
X11189957Y-26992208D01*
X11141287Y-26984500D01*
X10928713Y-26984500D01*
X10880042Y-26992208D01*
X10718760Y-27017753D01*
X10516585Y-27083444D01*
X10327179Y-27179951D01*
X10155213Y-27304890D01*
X10004890Y-27455213D01*
X9879949Y-27627182D01*
X9875484Y-27635946D01*
X9827509Y-27686742D01*
X9759688Y-27703536D01*
X9693553Y-27680998D01*
X9654516Y-27635946D01*
X9650050Y-27627182D01*
X9525109Y-27455213D01*
X9374786Y-27304890D01*
X9202820Y-27179951D01*
X9013414Y-27083444D01*
X9013413Y-27083443D01*
X9013412Y-27083443D01*
X8811243Y-27017754D01*
X8811241Y-27017753D01*
X8811240Y-27017753D01*
X8649957Y-26992208D01*
X8601287Y-26984500D01*
X8388713Y-26984500D01*
X8340042Y-26992208D01*
X8178760Y-27017753D01*
X7976585Y-27083444D01*
X7787179Y-27179951D01*
X7615213Y-27304890D01*
X7464890Y-27455213D01*
X7339949Y-27627182D01*
X7335484Y-27635946D01*
X7287509Y-27686742D01*
X7219688Y-27703536D01*
X7153553Y-27680998D01*
X7114516Y-27635946D01*
X7110050Y-27627182D01*
X6985109Y-27455213D01*
X6834786Y-27304890D01*
X6662820Y-27179951D01*
X6473414Y-27083444D01*
X6473413Y-27083443D01*
X6473412Y-27083443D01*
X6271243Y-27017754D01*
X6271241Y-27017753D01*
X6271240Y-27017753D01*
X6109957Y-26992208D01*
X6061287Y-26984500D01*
X5848713Y-26984500D01*
X5800042Y-26992208D01*
X5638760Y-27017753D01*
X5436585Y-27083444D01*
X5247179Y-27179951D01*
X5075213Y-27304890D01*
X4924890Y-27455213D01*
X4799951Y-27627179D01*
X4703444Y-27816585D01*
X4637753Y-28018760D01*
X4604500Y-28228713D01*
X4604500Y-28441286D01*
X4637753Y-28651239D01*
X4703444Y-28853414D01*
X4799951Y-29042820D01*
X4916411Y-29203115D01*
X4939891Y-29268922D01*
X4924065Y-29336975D01*
X4873959Y-29385670D01*
X4816093Y-29400000D01*
X1324501Y-29400000D01*
X1257462Y-29380315D01*
X1211707Y-29327511D01*
X1200501Y-29276000D01*
X1200501Y-21235092D01*
X8849500Y-21235092D01*
X8849500Y-21384907D01*
X8878723Y-21531822D01*
X8878725Y-21531830D01*
X8936052Y-21670230D01*
X8936053Y-21670233D01*
X8938597Y-21674039D01*
X8959480Y-21740715D01*
X8959500Y-21742937D01*
X8959500Y-22537061D01*
X8939815Y-22604100D01*
X8938603Y-22605951D01*
X8936055Y-22609763D01*
X8936051Y-22609770D01*
X8878725Y-22748169D01*
X8878723Y-22748177D01*
X8849500Y-22895092D01*
X8849500Y-23044907D01*
X8878723Y-23191822D01*
X8878725Y-23191830D01*
X8936051Y-23330229D01*
X8936056Y-23330238D01*
X9019280Y-23454790D01*
X9019283Y-23454794D01*
X9125205Y-23560716D01*
X9125209Y-23560719D01*
X9249761Y-23643943D01*
X9249767Y-23643946D01*
X9249768Y-23643947D01*
X9388170Y-23701275D01*
X9535092Y-23730499D01*
X9535096Y-23730500D01*
X9535097Y-23730500D01*
X9684904Y-23730500D01*
X9684905Y-23730499D01*
X9831830Y-23701275D01*
X9912549Y-23667839D01*
X9982016Y-23660371D01*
X10007444Y-23667837D01*
X10088170Y-23701275D01*
X10235092Y-23730499D01*
X10235096Y-23730500D01*
X10235097Y-23730500D01*
X10384904Y-23730500D01*
X10384905Y-23730499D01*
X10531830Y-23701275D01*
X10670232Y-23643947D01*
X10794791Y-23560719D01*
X10900719Y-23454791D01*
X10983947Y-23330232D01*
X11041275Y-23191830D01*
X11070500Y-23044903D01*
X11070500Y-22895097D01*
X11041275Y-22748170D01*
X10983947Y-22609768D01*
X10981397Y-22605951D01*
X10960520Y-22539273D01*
X10960500Y-22537061D01*
X10960500Y-21742937D01*
X10980185Y-21675898D01*
X10981403Y-21674039D01*
X10983946Y-21670233D01*
X10983945Y-21670233D01*
X10983947Y-21670232D01*
X11041275Y-21531830D01*
X11070500Y-21384903D01*
X11070500Y-21235097D01*
X11041275Y-21088170D01*
X10983947Y-20949768D01*
X10983946Y-20949767D01*
X10983943Y-20949761D01*
X10900719Y-20825209D01*
X10900716Y-20825205D01*
X10794794Y-20719283D01*
X10794790Y-20719280D01*
X10670238Y-20636056D01*
X10670229Y-20636051D01*
X10531830Y-20578725D01*
X10531822Y-20578723D01*
X10384907Y-20549500D01*
X10384903Y-20549500D01*
X10235097Y-20549500D01*
X10235092Y-20549500D01*
X10088178Y-20578723D01*
X10088166Y-20578726D01*
X10007452Y-20612159D01*
X9937983Y-20619628D01*
X9912548Y-20612159D01*
X9831833Y-20578726D01*
X9831831Y-20578725D01*
X9831830Y-20578725D01*
X9831825Y-20578724D01*
X9831821Y-20578723D01*
X9684907Y-20549500D01*
X9684903Y-20549500D01*
X9535097Y-20549500D01*
X9535092Y-20549500D01*
X9388177Y-20578723D01*
X9388169Y-20578725D01*
X9249770Y-20636051D01*
X9249761Y-20636056D01*
X9125209Y-20719280D01*
X9125205Y-20719283D01*
X9019283Y-20825205D01*
X9019280Y-20825209D01*
X8936056Y-20949761D01*
X8936051Y-20949770D01*
X8878725Y-21088169D01*
X8878723Y-21088177D01*
X8849500Y-21235092D01*
X1200501Y-21235092D01*
X1200501Y-21229005D01*
X1200500Y-13034887D01*
X10779705Y-13034887D01*
X10779705Y-13184702D01*
X10808928Y-13331617D01*
X10808930Y-13331625D01*
X10866256Y-13470024D01*
X10866261Y-13470033D01*
X10949485Y-13594585D01*
X10949488Y-13594589D01*
X11055410Y-13700511D01*
X11055414Y-13700514D01*
X11179966Y-13783738D01*
X11179972Y-13783741D01*
X11179973Y-13783742D01*
X11318375Y-13841070D01*
X11465297Y-13870294D01*
X11465301Y-13870295D01*
X11465302Y-13870295D01*
X11615109Y-13870295D01*
X11615110Y-13870294D01*
X11762035Y-13841070D01*
X11900437Y-13783742D01*
X11979082Y-13731193D01*
X12045759Y-13710315D01*
X12047973Y-13710295D01*
X13499377Y-13710295D01*
X13566416Y-13729980D01*
X13612171Y-13782784D01*
X13613938Y-13786842D01*
X13636051Y-13840230D01*
X13719280Y-13964791D01*
X13825205Y-14070716D01*
X13825209Y-14070719D01*
X13949761Y-14153943D01*
X13949767Y-14153946D01*
X13949768Y-14153947D01*
X14088170Y-14211275D01*
X14235092Y-14240499D01*
X14235096Y-14240500D01*
X14235097Y-14240500D01*
X14384904Y-14240500D01*
X14384905Y-14240499D01*
X14531830Y-14211275D01*
X14670232Y-14153947D01*
X14794791Y-14070719D01*
X14900719Y-13964791D01*
X14983947Y-13840232D01*
X15041275Y-13701830D01*
X15070500Y-13554903D01*
X15070500Y-13405097D01*
X15041275Y-13258170D01*
X14983947Y-13119768D01*
X14983946Y-13119767D01*
X14983943Y-13119761D01*
X14900719Y-12995209D01*
X14900716Y-12995205D01*
X14794794Y-12889283D01*
X14794790Y-12889280D01*
X14670238Y-12806056D01*
X14670229Y-12806051D01*
X14531830Y-12748725D01*
X14531822Y-12748723D01*
X14439062Y-12730272D01*
X14427736Y-12725161D01*
X14418902Y-12724452D01*
X14402326Y-12713696D01*
X14388075Y-12707266D01*
X14381455Y-12702219D01*
X14308511Y-12629275D01*
X14221699Y-12579155D01*
X14171580Y-12550218D01*
X14018852Y-12509294D01*
X13860738Y-12509294D01*
X13853142Y-12509294D01*
X13853126Y-12509295D01*
X12047973Y-12509295D01*
X11980934Y-12489610D01*
X11979082Y-12488397D01*
X11900442Y-12435851D01*
X11900434Y-12435846D01*
X11762035Y-12378520D01*
X11762027Y-12378518D01*
X11615112Y-12349295D01*
X11615108Y-12349295D01*
X11465302Y-12349295D01*
X11465297Y-12349295D01*
X11318382Y-12378518D01*
X11318374Y-12378520D01*
X11179975Y-12435846D01*
X11179966Y-12435851D01*
X11055414Y-12519075D01*
X11055410Y-12519078D01*
X10949488Y-12625000D01*
X10949485Y-12625004D01*
X10866261Y-12749556D01*
X10866256Y-12749565D01*
X10808930Y-12887964D01*
X10808928Y-12887972D01*
X10779705Y-13034887D01*
X1200500Y-13034887D01*
X1200500Y-13028800D01*
X1200500Y-8875243D01*
X9049500Y-8875243D01*
X9049500Y-9044756D01*
X9082566Y-9210991D01*
X9082569Y-9211003D01*
X9147431Y-9367595D01*
X9147432Y-9367597D01*
X9241605Y-9508536D01*
X9241608Y-9508540D01*
X9361459Y-9628391D01*
X9361463Y-9628394D01*
X9502400Y-9722566D01*
X9502401Y-9722566D01*
X9502402Y-9722567D01*
X9502404Y-9722568D01*
X9658996Y-9787430D01*
X9659001Y-9787432D01*
X9825243Y-9820499D01*
X9825247Y-9820500D01*
X9825248Y-9820500D01*
X9994753Y-9820500D01*
X9994754Y-9820499D01*
X10160999Y-9787432D01*
X10220097Y-9762952D01*
X10323229Y-9720235D01*
X10324086Y-9722305D01*
X10371235Y-9710500D01*
X14238765Y-9710500D01*
X14285913Y-9722305D01*
X14286771Y-9720235D01*
X14448996Y-9787430D01*
X14449001Y-9787432D01*
X14615243Y-9820499D01*
X14615247Y-9820500D01*
X14615248Y-9820500D01*
X14784753Y-9820500D01*
X14784754Y-9820499D01*
X14950999Y-9787432D01*
X15107600Y-9722566D01*
X15248537Y-9628394D01*
X15368394Y-9508537D01*
X15462566Y-9367600D01*
X15527432Y-9210999D01*
X15560500Y-9044752D01*
X15560500Y-8875248D01*
X15527432Y-8709001D01*
X15462566Y-8552400D01*
X15368394Y-8411463D01*
X15368391Y-8411459D01*
X15248540Y-8291608D01*
X15248536Y-8291605D01*
X15107597Y-8197432D01*
X15107595Y-8197431D01*
X14951003Y-8132569D01*
X14950991Y-8132566D01*
X14784756Y-8099500D01*
X14784752Y-8099500D01*
X14615248Y-8099500D01*
X14615243Y-8099500D01*
X14449008Y-8132566D01*
X14448996Y-8132569D01*
X14286771Y-8199765D01*
X14285913Y-8197694D01*
X14238765Y-8209500D01*
X10371235Y-8209500D01*
X10324086Y-8197694D01*
X10323229Y-8199765D01*
X10161003Y-8132569D01*
X10160991Y-8132566D01*
X9994756Y-8099500D01*
X9994752Y-8099500D01*
X9825248Y-8099500D01*
X9825243Y-8099500D01*
X9659008Y-8132566D01*
X9658996Y-8132569D01*
X9502404Y-8197431D01*
X9502402Y-8197432D01*
X9361463Y-8291605D01*
X9361459Y-8291608D01*
X9241608Y-8411459D01*
X9241605Y-8411463D01*
X9147432Y-8552402D01*
X9147431Y-8552404D01*
X9082569Y-8708996D01*
X9082566Y-8709008D01*
X9049500Y-8875243D01*
X1200500Y-8875243D01*
X1200500Y-6376504D01*
X6980000Y-6376504D01*
X6980000Y-6775000D01*
X7680000Y-6775000D01*
X7680000Y-7275000D01*
X6980000Y-7275000D01*
X6980000Y-7673495D01*
X7018427Y-7866681D01*
X7018430Y-7866693D01*
X7093807Y-8048671D01*
X7093814Y-8048684D01*
X7203248Y-8212462D01*
X7203251Y-8212466D01*
X7342533Y-8351748D01*
X7342537Y-8351751D01*
X7506315Y-8461185D01*
X7506328Y-8461192D01*
X7688308Y-8536569D01*
X7730000Y-8544862D01*
X7730000Y-7741988D01*
X7739940Y-7759205D01*
X7795795Y-7815060D01*
X7864204Y-7854556D01*
X7940504Y-7875000D01*
X8019496Y-7875000D01*
X8095796Y-7854556D01*
X8164205Y-7815060D01*
X8220060Y-7759205D01*
X8230000Y-7741988D01*
X8230000Y-8544862D01*
X8271690Y-8536569D01*
X8271692Y-8536569D01*
X8453671Y-8461192D01*
X8453684Y-8461185D01*
X8617462Y-8351751D01*
X8617466Y-8351748D01*
X8756748Y-8212466D01*
X8756751Y-8212462D01*
X8866185Y-8048684D01*
X8866192Y-8048671D01*
X8941569Y-7866693D01*
X8941572Y-7866681D01*
X8979999Y-7673495D01*
X8980000Y-7673492D01*
X8980000Y-7275000D01*
X8280000Y-7275000D01*
X8280000Y-6775000D01*
X8887934Y-6775000D01*
X8954973Y-6794685D01*
X8986309Y-6823513D01*
X8989494Y-6827664D01*
X8989495Y-6827665D01*
X9087335Y-6925505D01*
X9207164Y-6994688D01*
X9340817Y-7030500D01*
X9340819Y-7030500D01*
X9479181Y-7030500D01*
X9479183Y-7030500D01*
X9612836Y-6994688D01*
X9732665Y-6925505D01*
X9830505Y-6827665D01*
X9899688Y-6707836D01*
X9935500Y-6574183D01*
X9935500Y-6435817D01*
X14664500Y-6435817D01*
X14664500Y-6574182D01*
X14700312Y-6707835D01*
X14700313Y-6707838D01*
X14769492Y-6827661D01*
X14769494Y-6827664D01*
X14769495Y-6827665D01*
X14867335Y-6925505D01*
X14987164Y-6994688D01*
X15120817Y-7030500D01*
X15120819Y-7030500D01*
X15259181Y-7030500D01*
X15259183Y-7030500D01*
X15392836Y-6994688D01*
X15512665Y-6925505D01*
X15610505Y-6827665D01*
X15610507Y-6827660D01*
X15613691Y-6823513D01*
X15670119Y-6782311D01*
X15712066Y-6775000D01*
X16320000Y-6775000D01*
X16320000Y-7275000D01*
X15620000Y-7275000D01*
X15620000Y-7673495D01*
X15658427Y-7866681D01*
X15658430Y-7866693D01*
X15733807Y-8048671D01*
X15733814Y-8048684D01*
X15843248Y-8212462D01*
X15843251Y-8212466D01*
X15982533Y-8351748D01*
X15982537Y-8351751D01*
X16146315Y-8461185D01*
X16146328Y-8461192D01*
X16328308Y-8536569D01*
X16370000Y-8544862D01*
X16370000Y-7741988D01*
X16379940Y-7759205D01*
X16435795Y-7815060D01*
X16504204Y-7854556D01*
X16580504Y-7875000D01*
X16659496Y-7875000D01*
X16735796Y-7854556D01*
X16804205Y-7815060D01*
X16860060Y-7759205D01*
X16870000Y-7741988D01*
X16870000Y-8544862D01*
X16911690Y-8536569D01*
X16911692Y-8536569D01*
X17093671Y-8461192D01*
X17093684Y-8461185D01*
X17257462Y-8351751D01*
X17257466Y-8351748D01*
X17396748Y-8212466D01*
X17396751Y-8212462D01*
X17506185Y-8048684D01*
X17506192Y-8048671D01*
X17581569Y-7866693D01*
X17581572Y-7866681D01*
X17619999Y-7673495D01*
X17620000Y-7673492D01*
X17620000Y-7275000D01*
X16920000Y-7275000D01*
X16920000Y-6775000D01*
X17620000Y-6775000D01*
X17620000Y-6376508D01*
X17619999Y-6376504D01*
X17581572Y-6183318D01*
X17581569Y-6183306D01*
X17506192Y-6001328D01*
X17506185Y-6001315D01*
X17396751Y-5837537D01*
X17396748Y-5837533D01*
X17257466Y-5698251D01*
X17257462Y-5698248D01*
X17093684Y-5588814D01*
X17093671Y-5588807D01*
X16911691Y-5513429D01*
X16911683Y-5513427D01*
X16870000Y-5505135D01*
X16870000Y-6308011D01*
X16860060Y-6290795D01*
X16804205Y-6234940D01*
X16735796Y-6195444D01*
X16659496Y-6175000D01*
X16580504Y-6175000D01*
X16504204Y-6195444D01*
X16435795Y-6234940D01*
X16379940Y-6290795D01*
X16370000Y-6308011D01*
X16370000Y-5505136D01*
X16369999Y-5505135D01*
X16328316Y-5513427D01*
X16328308Y-5513429D01*
X16146328Y-5588807D01*
X16146315Y-5588814D01*
X15982537Y-5698248D01*
X15982533Y-5698251D01*
X15843251Y-5837533D01*
X15843248Y-5837537D01*
X15733814Y-6001315D01*
X15733808Y-6001327D01*
X15715694Y-6045057D01*
X15671852Y-6099459D01*
X15605558Y-6121523D01*
X15537859Y-6104243D01*
X15513453Y-6085283D01*
X15512666Y-6084496D01*
X15512661Y-6084492D01*
X15392838Y-6015313D01*
X15392837Y-6015312D01*
X15392836Y-6015312D01*
X15259183Y-5979500D01*
X15120817Y-5979500D01*
X14987164Y-6015312D01*
X14987161Y-6015313D01*
X14867338Y-6084492D01*
X14867333Y-6084496D01*
X14769496Y-6182333D01*
X14769492Y-6182338D01*
X14700313Y-6302161D01*
X14700312Y-6302164D01*
X14664500Y-6435817D01*
X9935500Y-6435817D01*
X9899688Y-6302164D01*
X9860876Y-6234940D01*
X9830507Y-6182338D01*
X9830503Y-6182333D01*
X9732666Y-6084496D01*
X9732661Y-6084492D01*
X9612838Y-6015313D01*
X9612837Y-6015312D01*
X9612836Y-6015312D01*
X9479183Y-5979500D01*
X9340817Y-5979500D01*
X9207164Y-6015312D01*
X9207161Y-6015313D01*
X9087338Y-6084492D01*
X9087334Y-6084495D01*
X9086540Y-6085290D01*
X9085706Y-6085745D01*
X9080890Y-6089441D01*
X9080313Y-6088689D01*
X9025214Y-6118770D01*
X8955523Y-6113780D01*
X8899592Y-6071905D01*
X8884304Y-6045055D01*
X8866190Y-6001324D01*
X8866185Y-6001315D01*
X8756751Y-5837537D01*
X8756748Y-5837533D01*
X8617466Y-5698251D01*
X8617462Y-5698248D01*
X8453684Y-5588814D01*
X8453671Y-5588807D01*
X8271691Y-5513429D01*
X8271683Y-5513427D01*
X8230000Y-5505135D01*
X8230000Y-6308011D01*
X8220060Y-6290795D01*
X8164205Y-6234940D01*
X8095796Y-6195444D01*
X8019496Y-6175000D01*
X7940504Y-6175000D01*
X7864204Y-6195444D01*
X7795795Y-6234940D01*
X7739940Y-6290795D01*
X7730000Y-6308011D01*
X7730000Y-5505136D01*
X7729999Y-5505135D01*
X7688316Y-5513427D01*
X7688308Y-5513429D01*
X7506328Y-5588807D01*
X7506315Y-5588814D01*
X7342537Y-5698248D01*
X7342533Y-5698251D01*
X7203251Y-5837533D01*
X7203248Y-5837537D01*
X7093814Y-6001315D01*
X7093807Y-6001328D01*
X7018430Y-6183306D01*
X7018427Y-6183318D01*
X6980000Y-6376504D01*
X1200500Y-6376504D01*
X1200500Y-4003479D01*
X1200695Y-3996526D01*
X1207353Y-3877973D01*
X2449500Y-3877973D01*
X2449500Y-4122026D01*
X2487678Y-4363072D01*
X2563097Y-4595187D01*
X2673896Y-4812642D01*
X2817339Y-5010076D01*
X2817343Y-5010081D01*
X2989918Y-5182656D01*
X2989923Y-5182660D01*
X3162136Y-5307779D01*
X3187361Y-5326106D01*
X3404815Y-5436904D01*
X3636924Y-5512321D01*
X3877973Y-5550500D01*
X3877974Y-5550500D01*
X4122026Y-5550500D01*
X4122027Y-5550500D01*
X4363076Y-5512321D01*
X4595185Y-5436904D01*
X4812639Y-5326106D01*
X5010083Y-5182655D01*
X5182655Y-5010083D01*
X5326106Y-4812639D01*
X5436904Y-4595185D01*
X5512321Y-4363076D01*
X5550500Y-4122027D01*
X5550500Y-3877973D01*
X5512321Y-3636924D01*
X5436904Y-3404815D01*
X5326106Y-3187361D01*
X5260109Y-3096523D01*
X5182660Y-2989922D01*
X5010081Y-2817343D01*
X5010076Y-2817339D01*
X4812642Y-2673896D01*
X4812641Y-2673895D01*
X4812639Y-2673894D01*
X4595185Y-2563096D01*
X4363076Y-2487679D01*
X4363074Y-2487678D01*
X4363072Y-2487678D01*
X4194769Y-2461021D01*
X4122027Y-2449500D01*
X3877973Y-2449500D01*
X3822093Y-2458350D01*
X3636927Y-2487678D01*
X3404812Y-2563097D01*
X3187357Y-2673896D01*
X2989923Y-2817339D01*
X2989918Y-2817343D01*
X2817343Y-2989918D01*
X2817339Y-2989923D01*
X2673896Y-3187357D01*
X2563097Y-3404812D01*
X2487678Y-3636927D01*
X2449500Y-3877973D01*
X1207353Y-3877973D01*
X1208017Y-3866148D01*
X1208017Y-3866147D01*
X1208224Y-3862462D01*
X1217713Y-3693496D01*
X1219267Y-3679700D01*
X1269523Y-3383915D01*
X1272616Y-3370363D01*
X1281135Y-3340796D01*
X1355673Y-3082068D01*
X1360265Y-3068948D01*
X1450347Y-2851469D01*
X1475075Y-2791768D01*
X1481097Y-2779262D01*
X1626230Y-2516665D01*
X1633625Y-2504897D01*
X1645842Y-2487679D01*
X1807245Y-2260201D01*
X1815896Y-2249354D01*
X2015816Y-2025645D01*
X2025647Y-2015815D01*
X2249354Y-1815896D01*
X2260201Y-1807245D01*
X2504902Y-1633621D01*
X2516665Y-1626230D01*
X2779262Y-1481097D01*
X2791768Y-1475075D01*
X3068948Y-1360265D01*
X3082068Y-1355673D01*
X3370369Y-1272614D01*
X3383915Y-1269523D01*
X3679700Y-1219267D01*
X3693496Y-1217713D01*
X3879933Y-1207242D01*
X3996552Y-1200694D01*
X4003504Y-1200499D01*
X7751157Y-1200499D01*
X7818196Y-1220184D01*
G37*
%TD.AperFunction*%
%TD*%
%TA.AperFunction,Conductor*%
%TO.N,GND1*%
G36*
X4547539Y-29919685D02*
G01*
X4593294Y-29972489D01*
X4604500Y-30024000D01*
X4604500Y-31772870D01*
X4604501Y-31772876D01*
X4610908Y-31832483D01*
X4661202Y-31967328D01*
X4661206Y-31967335D01*
X4747452Y-32082544D01*
X4747455Y-32082547D01*
X4862664Y-32168793D01*
X4862671Y-32168797D01*
X4997517Y-32219091D01*
X4997516Y-32219091D01*
X5004444Y-32219835D01*
X5057127Y-32225500D01*
X6852872Y-32225499D01*
X6912483Y-32219091D01*
X7047331Y-32168796D01*
X7162546Y-32082546D01*
X7248796Y-31967331D01*
X7297810Y-31835916D01*
X7339681Y-31779984D01*
X7405145Y-31755566D01*
X7473418Y-31770417D01*
X7501673Y-31791569D01*
X7615213Y-31905109D01*
X7787179Y-32030048D01*
X7787181Y-32030049D01*
X7787184Y-32030051D01*
X7976588Y-32126557D01*
X8178757Y-32192246D01*
X8388713Y-32225500D01*
X8388714Y-32225500D01*
X8601286Y-32225500D01*
X8601287Y-32225500D01*
X8811243Y-32192246D01*
X9013412Y-32126557D01*
X9202816Y-32030051D01*
X9289138Y-31967335D01*
X9374786Y-31905109D01*
X9374788Y-31905106D01*
X9374792Y-31905104D01*
X9525104Y-31754792D01*
X9525106Y-31754788D01*
X9525109Y-31754786D01*
X9650048Y-31582820D01*
X9650047Y-31582820D01*
X9650051Y-31582816D01*
X9654514Y-31574054D01*
X9702488Y-31523259D01*
X9770308Y-31506463D01*
X9836444Y-31528999D01*
X9875486Y-31574056D01*
X9879951Y-31582820D01*
X10004890Y-31754786D01*
X10155213Y-31905109D01*
X10327179Y-32030048D01*
X10327181Y-32030049D01*
X10327184Y-32030051D01*
X10516588Y-32126557D01*
X10718757Y-32192246D01*
X10928713Y-32225500D01*
X10928714Y-32225500D01*
X11141286Y-32225500D01*
X11141287Y-32225500D01*
X11351243Y-32192246D01*
X11553412Y-32126557D01*
X11742816Y-32030051D01*
X11829138Y-31967335D01*
X11914786Y-31905109D01*
X11914788Y-31905106D01*
X11914792Y-31905104D01*
X12065104Y-31754792D01*
X12065106Y-31754788D01*
X12065109Y-31754786D01*
X12190048Y-31582820D01*
X12190047Y-31582820D01*
X12190051Y-31582816D01*
X12194514Y-31574054D01*
X12242488Y-31523259D01*
X12310308Y-31506463D01*
X12376444Y-31528999D01*
X12415486Y-31574056D01*
X12419951Y-31582820D01*
X12544890Y-31754786D01*
X12695213Y-31905109D01*
X12867179Y-32030048D01*
X12867181Y-32030049D01*
X12867184Y-32030051D01*
X13056588Y-32126557D01*
X13258757Y-32192246D01*
X13468713Y-32225500D01*
X13468714Y-32225500D01*
X13681286Y-32225500D01*
X13681287Y-32225500D01*
X13891243Y-32192246D01*
X14093412Y-32126557D01*
X14282816Y-32030051D01*
X14369138Y-31967335D01*
X14454786Y-31905109D01*
X14454788Y-31905106D01*
X14454792Y-31905104D01*
X14605104Y-31754792D01*
X14605106Y-31754788D01*
X14605109Y-31754786D01*
X14730048Y-31582820D01*
X14730047Y-31582820D01*
X14730051Y-31582816D01*
X14734514Y-31574054D01*
X14782488Y-31523259D01*
X14850308Y-31506463D01*
X14916444Y-31528999D01*
X14955486Y-31574056D01*
X14959951Y-31582820D01*
X15084890Y-31754786D01*
X15235213Y-31905109D01*
X15407179Y-32030048D01*
X15407181Y-32030049D01*
X15407184Y-32030051D01*
X15596588Y-32126557D01*
X15798757Y-32192246D01*
X16008713Y-32225500D01*
X16008714Y-32225500D01*
X16221286Y-32225500D01*
X16221287Y-32225500D01*
X16431243Y-32192246D01*
X16633412Y-32126557D01*
X16822816Y-32030051D01*
X16909138Y-31967335D01*
X16994786Y-31905109D01*
X16994788Y-31905106D01*
X16994792Y-31905104D01*
X17145104Y-31754792D01*
X17145106Y-31754788D01*
X17145109Y-31754786D01*
X17230890Y-31636717D01*
X17270051Y-31582816D01*
X17274793Y-31573508D01*
X17322763Y-31522711D01*
X17390583Y-31505911D01*
X17456719Y-31528445D01*
X17495763Y-31573500D01*
X17500373Y-31582547D01*
X17539728Y-31636716D01*
X18172036Y-31004407D01*
X18189075Y-31067993D01*
X18254901Y-31182007D01*
X18347993Y-31275099D01*
X18462007Y-31340925D01*
X18525590Y-31357962D01*
X17893282Y-31990269D01*
X17893282Y-31990270D01*
X17947449Y-32029624D01*
X18136782Y-32126095D01*
X18338870Y-32191757D01*
X18548754Y-32225000D01*
X18761246Y-32225000D01*
X18971127Y-32191757D01*
X18971130Y-32191757D01*
X19173217Y-32126095D01*
X19362554Y-32029622D01*
X19416716Y-31990270D01*
X19416717Y-31990270D01*
X18784408Y-31357962D01*
X18847993Y-31340925D01*
X18962007Y-31275099D01*
X19055099Y-31182007D01*
X19120925Y-31067993D01*
X19137962Y-31004409D01*
X19770270Y-31636717D01*
X19770270Y-31636716D01*
X19809622Y-31582554D01*
X19906095Y-31393217D01*
X19971757Y-31191130D01*
X19971757Y-31191127D01*
X20005000Y-30981246D01*
X20005000Y-30768753D01*
X19971757Y-30558872D01*
X19971757Y-30558869D01*
X19906095Y-30356782D01*
X19809620Y-30167442D01*
X19758358Y-30096885D01*
X19734878Y-30031079D01*
X19750703Y-29963025D01*
X19800809Y-29914330D01*
X19858676Y-29900000D01*
X23275499Y-29900000D01*
X23342538Y-29919685D01*
X23388293Y-29972489D01*
X23399499Y-30024000D01*
X23399499Y-38323907D01*
X23398902Y-38336060D01*
X23398902Y-38336061D01*
X23385334Y-38473818D01*
X23380592Y-38497659D01*
X23342185Y-38624270D01*
X23332882Y-38646729D01*
X23270516Y-38763406D01*
X23257011Y-38783617D01*
X23173078Y-38885890D01*
X23155890Y-38903078D01*
X23053619Y-38987010D01*
X23033408Y-39000515D01*
X22916727Y-39062883D01*
X22894268Y-39072186D01*
X22767660Y-39110592D01*
X22743819Y-39115334D01*
X22606062Y-39128902D01*
X22593908Y-39129499D01*
X22560119Y-39129499D01*
X22560118Y-39129499D01*
X19410117Y-39129501D01*
X19355518Y-39129501D01*
X19293306Y-39139354D01*
X19168880Y-39159062D01*
X18989170Y-39217452D01*
X18989167Y-39217453D01*
X18820797Y-39303244D01*
X18667933Y-39414305D01*
X18667928Y-39414309D01*
X18534308Y-39547929D01*
X18534304Y-39547934D01*
X18423243Y-39700798D01*
X18337455Y-39869166D01*
X18279060Y-40048886D01*
X18249501Y-40235513D01*
X18249501Y-40290118D01*
X18249500Y-63710117D01*
X18249500Y-63743907D01*
X18248903Y-63756060D01*
X18248903Y-63756061D01*
X18235335Y-63893819D01*
X18230593Y-63917661D01*
X18192186Y-64044271D01*
X18182883Y-64066728D01*
X18120517Y-64183406D01*
X18107012Y-64203618D01*
X18023079Y-64305891D01*
X18005891Y-64323079D01*
X17903618Y-64407012D01*
X17883406Y-64420517D01*
X17766728Y-64482883D01*
X17744271Y-64492186D01*
X17617661Y-64530593D01*
X17593819Y-64535335D01*
X17456062Y-64548903D01*
X17443908Y-64549500D01*
X7156092Y-64549500D01*
X7143938Y-64548903D01*
X7006180Y-64535335D01*
X6982340Y-64530593D01*
X6855728Y-64492186D01*
X6833271Y-64482883D01*
X6716593Y-64420517D01*
X6696381Y-64407012D01*
X6594108Y-64323079D01*
X6576920Y-64305891D01*
X6492986Y-64203616D01*
X6479482Y-64183406D01*
X6417116Y-64066728D01*
X6407815Y-64044277D01*
X6369404Y-63917652D01*
X6364665Y-63893824D01*
X6351097Y-63756060D01*
X6350500Y-63743907D01*
X6350500Y-63685456D01*
X6350499Y-63685450D01*
X6350499Y-46262135D01*
X7139500Y-46262135D01*
X7139500Y-48057870D01*
X7139501Y-48057876D01*
X7145908Y-48117483D01*
X7196202Y-48252328D01*
X7196206Y-48252335D01*
X7282452Y-48367544D01*
X7282455Y-48367547D01*
X7397664Y-48453793D01*
X7397671Y-48453797D01*
X7529082Y-48502810D01*
X7585016Y-48544681D01*
X7609433Y-48610145D01*
X7594582Y-48678418D01*
X7573431Y-48706673D01*
X7459889Y-48820215D01*
X7334951Y-48992179D01*
X7238444Y-49181585D01*
X7172753Y-49383760D01*
X7139500Y-49593713D01*
X7139500Y-49806286D01*
X7172753Y-50016239D01*
X7238444Y-50218414D01*
X7334951Y-50407820D01*
X7459890Y-50579786D01*
X7610213Y-50730109D01*
X7782182Y-50855050D01*
X7790946Y-50859516D01*
X7841742Y-50907491D01*
X7858536Y-50975312D01*
X7835998Y-51041447D01*
X7790946Y-51080484D01*
X7782182Y-51084949D01*
X7610213Y-51209890D01*
X7459890Y-51360213D01*
X7334951Y-51532179D01*
X7238444Y-51721585D01*
X7172753Y-51923760D01*
X7139500Y-52133713D01*
X7139500Y-52346286D01*
X7172753Y-52556239D01*
X7238444Y-52758414D01*
X7334951Y-52947820D01*
X7459890Y-53119786D01*
X7610213Y-53270109D01*
X7782182Y-53395050D01*
X7790946Y-53399516D01*
X7841742Y-53447491D01*
X7858536Y-53515312D01*
X7835998Y-53581447D01*
X7790946Y-53620484D01*
X7782182Y-53624949D01*
X7610213Y-53749890D01*
X7459890Y-53900213D01*
X7334951Y-54072179D01*
X7238444Y-54261585D01*
X7172753Y-54463760D01*
X7139500Y-54673713D01*
X7139500Y-54886286D01*
X7172753Y-55096239D01*
X7238444Y-55298414D01*
X7334951Y-55487820D01*
X7459890Y-55659786D01*
X7610213Y-55810109D01*
X7782182Y-55935050D01*
X7790946Y-55939516D01*
X7841742Y-55987491D01*
X7858536Y-56055312D01*
X7835998Y-56121447D01*
X7790946Y-56160484D01*
X7782182Y-56164949D01*
X7610213Y-56289890D01*
X7459890Y-56440213D01*
X7334951Y-56612179D01*
X7238444Y-56801585D01*
X7172753Y-57003760D01*
X7139500Y-57213713D01*
X7139500Y-57426286D01*
X7172753Y-57636239D01*
X7238444Y-57838414D01*
X7334951Y-58027820D01*
X7459890Y-58199786D01*
X7610213Y-58350109D01*
X7782182Y-58475050D01*
X7790946Y-58479516D01*
X7841742Y-58527491D01*
X7858536Y-58595312D01*
X7835998Y-58661447D01*
X7790946Y-58700484D01*
X7782182Y-58704949D01*
X7610213Y-58829890D01*
X7459890Y-58980213D01*
X7334951Y-59152179D01*
X7238444Y-59341585D01*
X7172753Y-59543760D01*
X7139500Y-59753713D01*
X7139500Y-59966286D01*
X7172753Y-60176239D01*
X7238444Y-60378414D01*
X7334951Y-60567820D01*
X7459890Y-60739786D01*
X7610213Y-60890109D01*
X7782182Y-61015050D01*
X7790946Y-61019516D01*
X7841742Y-61067491D01*
X7858536Y-61135312D01*
X7835998Y-61201447D01*
X7790946Y-61240484D01*
X7782182Y-61244949D01*
X7610213Y-61369890D01*
X7459890Y-61520213D01*
X7334951Y-61692179D01*
X7238444Y-61881585D01*
X7172753Y-62083760D01*
X7139500Y-62293713D01*
X7139500Y-62506286D01*
X7172753Y-62716239D01*
X7238444Y-62918414D01*
X7334951Y-63107820D01*
X7459890Y-63279786D01*
X7610213Y-63430109D01*
X7782179Y-63555048D01*
X7782181Y-63555049D01*
X7782184Y-63555051D01*
X7971588Y-63651557D01*
X8173757Y-63717246D01*
X8383713Y-63750500D01*
X8383714Y-63750500D01*
X8596286Y-63750500D01*
X8596287Y-63750500D01*
X8806243Y-63717246D01*
X9008412Y-63651557D01*
X9197816Y-63555051D01*
X9219789Y-63539086D01*
X9369786Y-63430109D01*
X9369788Y-63430106D01*
X9369792Y-63430104D01*
X9520104Y-63279792D01*
X9520106Y-63279788D01*
X9520109Y-63279786D01*
X9645048Y-63107820D01*
X9645047Y-63107820D01*
X9645051Y-63107816D01*
X9741557Y-62918412D01*
X9807246Y-62716243D01*
X9840500Y-62506287D01*
X9840500Y-62293713D01*
X9807246Y-62083757D01*
X9741557Y-61881588D01*
X9645051Y-61692184D01*
X9645049Y-61692181D01*
X9645048Y-61692179D01*
X9520109Y-61520213D01*
X9369786Y-61369890D01*
X9197820Y-61244951D01*
X9197115Y-61244591D01*
X9189054Y-61240485D01*
X9138259Y-61192512D01*
X9121463Y-61124692D01*
X9143999Y-61058556D01*
X9189054Y-61019515D01*
X9197816Y-61015051D01*
X9219789Y-60999086D01*
X9369786Y-60890109D01*
X9369788Y-60890106D01*
X9369792Y-60890104D01*
X9520104Y-60739792D01*
X9520106Y-60739788D01*
X9520109Y-60739786D01*
X9645048Y-60567820D01*
X9645047Y-60567820D01*
X9645051Y-60567816D01*
X9741557Y-60378412D01*
X9807246Y-60176243D01*
X9840500Y-59966287D01*
X9840500Y-59753713D01*
X9807246Y-59543757D01*
X9741557Y-59341588D01*
X9645051Y-59152184D01*
X9645049Y-59152181D01*
X9645048Y-59152179D01*
X9520109Y-58980213D01*
X9369786Y-58829890D01*
X9197820Y-58704951D01*
X9197115Y-58704591D01*
X9189054Y-58700485D01*
X9138259Y-58652512D01*
X9121463Y-58584692D01*
X9143999Y-58518556D01*
X9189054Y-58479515D01*
X9197816Y-58475051D01*
X9219789Y-58459086D01*
X9369786Y-58350109D01*
X9369788Y-58350106D01*
X9369792Y-58350104D01*
X9520104Y-58199792D01*
X9520106Y-58199788D01*
X9520109Y-58199786D01*
X9645048Y-58027820D01*
X9645047Y-58027820D01*
X9645051Y-58027816D01*
X9741557Y-57838412D01*
X9807246Y-57636243D01*
X9840500Y-57426287D01*
X9840500Y-57213713D01*
X9807246Y-57003757D01*
X9741557Y-56801588D01*
X9645051Y-56612184D01*
X9645049Y-56612181D01*
X9645048Y-56612179D01*
X9520109Y-56440213D01*
X9369786Y-56289890D01*
X9197820Y-56164951D01*
X9197115Y-56164591D01*
X9189054Y-56160485D01*
X9138259Y-56112512D01*
X9121463Y-56044692D01*
X9143999Y-55978556D01*
X9189054Y-55939515D01*
X9197816Y-55935051D01*
X9219789Y-55919086D01*
X9369786Y-55810109D01*
X9369788Y-55810106D01*
X9369792Y-55810104D01*
X9520104Y-55659792D01*
X9520106Y-55659788D01*
X9520109Y-55659786D01*
X9645048Y-55487820D01*
X9645047Y-55487820D01*
X9645051Y-55487816D01*
X9741557Y-55298412D01*
X9807246Y-55096243D01*
X9840500Y-54886287D01*
X9840500Y-54673713D01*
X9807246Y-54463757D01*
X9741557Y-54261588D01*
X9645051Y-54072184D01*
X9645049Y-54072181D01*
X9645048Y-54072179D01*
X9520109Y-53900213D01*
X9369786Y-53749890D01*
X9197820Y-53624951D01*
X9197115Y-53624591D01*
X9189054Y-53620485D01*
X9138259Y-53572512D01*
X9121463Y-53504692D01*
X9143999Y-53438556D01*
X9189054Y-53399515D01*
X9197816Y-53395051D01*
X9219789Y-53379086D01*
X9369786Y-53270109D01*
X9369788Y-53270106D01*
X9369792Y-53270104D01*
X9520104Y-53119792D01*
X9520106Y-53119788D01*
X9520109Y-53119786D01*
X9645048Y-52947820D01*
X9645047Y-52947820D01*
X9645051Y-52947816D01*
X9741557Y-52758412D01*
X9807246Y-52556243D01*
X9840500Y-52346287D01*
X9840500Y-52133713D01*
X9807246Y-51923757D01*
X9741557Y-51721588D01*
X9645051Y-51532184D01*
X9645049Y-51532181D01*
X9645048Y-51532179D01*
X9520109Y-51360213D01*
X9369786Y-51209890D01*
X9197820Y-51084951D01*
X9197115Y-51084591D01*
X9189054Y-51080485D01*
X9138259Y-51032512D01*
X9121463Y-50964692D01*
X9143999Y-50898556D01*
X9189054Y-50859515D01*
X9197816Y-50855051D01*
X9219789Y-50839086D01*
X9369786Y-50730109D01*
X9369788Y-50730106D01*
X9369792Y-50730104D01*
X9520104Y-50579792D01*
X9520106Y-50579788D01*
X9520109Y-50579786D01*
X9645048Y-50407820D01*
X9645047Y-50407820D01*
X9645051Y-50407816D01*
X9741557Y-50218412D01*
X9807246Y-50016243D01*
X9840500Y-49806287D01*
X9840500Y-49593713D01*
X14759500Y-49593713D01*
X14759500Y-49806286D01*
X14792753Y-50016239D01*
X14858444Y-50218414D01*
X14954951Y-50407820D01*
X15079890Y-50579786D01*
X15230213Y-50730109D01*
X15402182Y-50855050D01*
X15410946Y-50859516D01*
X15461742Y-50907491D01*
X15478536Y-50975312D01*
X15455998Y-51041447D01*
X15410946Y-51080484D01*
X15402182Y-51084949D01*
X15230213Y-51209890D01*
X15079890Y-51360213D01*
X14954951Y-51532179D01*
X14858444Y-51721585D01*
X14792753Y-51923760D01*
X14759500Y-52133713D01*
X14759500Y-52346286D01*
X14792753Y-52556239D01*
X14858444Y-52758414D01*
X14954951Y-52947820D01*
X15079890Y-53119786D01*
X15230213Y-53270109D01*
X15402182Y-53395050D01*
X15410946Y-53399516D01*
X15461742Y-53447491D01*
X15478536Y-53515312D01*
X15455998Y-53581447D01*
X15410946Y-53620484D01*
X15402182Y-53624949D01*
X15230213Y-53749890D01*
X15079890Y-53900213D01*
X14954951Y-54072179D01*
X14858444Y-54261585D01*
X14792753Y-54463760D01*
X14759500Y-54673713D01*
X14759500Y-54886286D01*
X14792753Y-55096239D01*
X14858444Y-55298414D01*
X14954951Y-55487820D01*
X15079890Y-55659786D01*
X15230213Y-55810109D01*
X15402182Y-55935050D01*
X15410946Y-55939516D01*
X15461742Y-55987491D01*
X15478536Y-56055312D01*
X15455998Y-56121447D01*
X15410946Y-56160484D01*
X15402182Y-56164949D01*
X15230213Y-56289890D01*
X15079890Y-56440213D01*
X14954951Y-56612179D01*
X14858444Y-56801585D01*
X14792753Y-57003760D01*
X14759500Y-57213713D01*
X14759500Y-57426286D01*
X14792753Y-57636239D01*
X14858444Y-57838414D01*
X14954951Y-58027820D01*
X15079890Y-58199786D01*
X15230213Y-58350109D01*
X15402182Y-58475050D01*
X15410946Y-58479516D01*
X15461742Y-58527491D01*
X15478536Y-58595312D01*
X15455998Y-58661447D01*
X15410946Y-58700484D01*
X15402182Y-58704949D01*
X15230213Y-58829890D01*
X15079890Y-58980213D01*
X14954951Y-59152179D01*
X14858444Y-59341585D01*
X14792753Y-59543760D01*
X14759500Y-59753713D01*
X14759500Y-59966286D01*
X14792753Y-60176239D01*
X14858444Y-60378414D01*
X14954951Y-60567820D01*
X15079890Y-60739786D01*
X15230213Y-60890109D01*
X15402182Y-61015050D01*
X15410946Y-61019516D01*
X15461742Y-61067491D01*
X15478536Y-61135312D01*
X15455998Y-61201447D01*
X15410946Y-61240484D01*
X15402182Y-61244949D01*
X15230213Y-61369890D01*
X15079890Y-61520213D01*
X14954951Y-61692179D01*
X14858444Y-61881585D01*
X14792753Y-62083760D01*
X14759500Y-62293713D01*
X14759500Y-62506286D01*
X14792753Y-62716239D01*
X14858444Y-62918414D01*
X14954951Y-63107820D01*
X15079890Y-63279786D01*
X15230213Y-63430109D01*
X15402179Y-63555048D01*
X15402181Y-63555049D01*
X15402184Y-63555051D01*
X15591588Y-63651557D01*
X15793757Y-63717246D01*
X16003713Y-63750500D01*
X16003714Y-63750500D01*
X16216286Y-63750500D01*
X16216287Y-63750500D01*
X16426243Y-63717246D01*
X16628412Y-63651557D01*
X16817816Y-63555051D01*
X16839789Y-63539086D01*
X16989786Y-63430109D01*
X16989788Y-63430106D01*
X16989792Y-63430104D01*
X17140104Y-63279792D01*
X17140106Y-63279788D01*
X17140109Y-63279786D01*
X17265048Y-63107820D01*
X17265047Y-63107820D01*
X17265051Y-63107816D01*
X17361557Y-62918412D01*
X17427246Y-62716243D01*
X17460500Y-62506287D01*
X17460500Y-62293713D01*
X17427246Y-62083757D01*
X17361557Y-61881588D01*
X17265051Y-61692184D01*
X17265049Y-61692181D01*
X17265048Y-61692179D01*
X17140109Y-61520213D01*
X16989786Y-61369890D01*
X16817820Y-61244951D01*
X16817115Y-61244591D01*
X16809054Y-61240485D01*
X16758259Y-61192512D01*
X16741463Y-61124692D01*
X16763999Y-61058556D01*
X16809054Y-61019515D01*
X16817816Y-61015051D01*
X16839789Y-60999086D01*
X16989786Y-60890109D01*
X16989788Y-60890106D01*
X16989792Y-60890104D01*
X17140104Y-60739792D01*
X17140106Y-60739788D01*
X17140109Y-60739786D01*
X17265048Y-60567820D01*
X17265047Y-60567820D01*
X17265051Y-60567816D01*
X17361557Y-60378412D01*
X17427246Y-60176243D01*
X17460500Y-59966287D01*
X17460500Y-59753713D01*
X17427246Y-59543757D01*
X17361557Y-59341588D01*
X17265051Y-59152184D01*
X17265049Y-59152181D01*
X17265048Y-59152179D01*
X17140109Y-58980213D01*
X16989786Y-58829890D01*
X16817820Y-58704951D01*
X16817115Y-58704591D01*
X16809054Y-58700485D01*
X16758259Y-58652512D01*
X16741463Y-58584692D01*
X16763999Y-58518556D01*
X16809054Y-58479515D01*
X16817816Y-58475051D01*
X16839789Y-58459086D01*
X16989786Y-58350109D01*
X16989788Y-58350106D01*
X16989792Y-58350104D01*
X17140104Y-58199792D01*
X17140106Y-58199788D01*
X17140109Y-58199786D01*
X17265048Y-58027820D01*
X17265047Y-58027820D01*
X17265051Y-58027816D01*
X17361557Y-57838412D01*
X17427246Y-57636243D01*
X17460500Y-57426287D01*
X17460500Y-57213713D01*
X17427246Y-57003757D01*
X17361557Y-56801588D01*
X17265051Y-56612184D01*
X17265049Y-56612181D01*
X17265048Y-56612179D01*
X17140109Y-56440213D01*
X16989786Y-56289890D01*
X16817820Y-56164951D01*
X16817115Y-56164591D01*
X16809054Y-56160485D01*
X16758259Y-56112512D01*
X16741463Y-56044692D01*
X16763999Y-55978556D01*
X16809054Y-55939515D01*
X16817816Y-55935051D01*
X16839789Y-55919086D01*
X16989786Y-55810109D01*
X16989788Y-55810106D01*
X16989792Y-55810104D01*
X17140104Y-55659792D01*
X17140106Y-55659788D01*
X17140109Y-55659786D01*
X17265048Y-55487820D01*
X17265047Y-55487820D01*
X17265051Y-55487816D01*
X17361557Y-55298412D01*
X17427246Y-55096243D01*
X17460500Y-54886287D01*
X17460500Y-54673713D01*
X17427246Y-54463757D01*
X17361557Y-54261588D01*
X17265051Y-54072184D01*
X17265049Y-54072181D01*
X17265048Y-54072179D01*
X17140109Y-53900213D01*
X16989786Y-53749890D01*
X16817820Y-53624951D01*
X16817115Y-53624591D01*
X16809054Y-53620485D01*
X16758259Y-53572512D01*
X16741463Y-53504692D01*
X16763999Y-53438556D01*
X16809054Y-53399515D01*
X16817816Y-53395051D01*
X16839789Y-53379086D01*
X16989786Y-53270109D01*
X16989788Y-53270106D01*
X16989792Y-53270104D01*
X17140104Y-53119792D01*
X17140106Y-53119788D01*
X17140109Y-53119786D01*
X17265048Y-52947820D01*
X17265047Y-52947820D01*
X17265051Y-52947816D01*
X17361557Y-52758412D01*
X17427246Y-52556243D01*
X17460500Y-52346287D01*
X17460500Y-52133713D01*
X17427246Y-51923757D01*
X17361557Y-51721588D01*
X17265051Y-51532184D01*
X17265049Y-51532181D01*
X17265048Y-51532179D01*
X17140109Y-51360213D01*
X16989786Y-51209890D01*
X16817820Y-51084951D01*
X16817115Y-51084591D01*
X16809054Y-51080485D01*
X16758259Y-51032512D01*
X16741463Y-50964692D01*
X16763999Y-50898556D01*
X16809054Y-50859515D01*
X16817816Y-50855051D01*
X16839789Y-50839086D01*
X16989786Y-50730109D01*
X16989788Y-50730106D01*
X16989792Y-50730104D01*
X17140104Y-50579792D01*
X17140106Y-50579788D01*
X17140109Y-50579786D01*
X17265048Y-50407820D01*
X17265047Y-50407820D01*
X17265051Y-50407816D01*
X17361557Y-50218412D01*
X17427246Y-50016243D01*
X17460500Y-49806287D01*
X17460500Y-49593713D01*
X17427246Y-49383757D01*
X17361557Y-49181588D01*
X17265051Y-48992184D01*
X17265049Y-48992181D01*
X17265048Y-48992179D01*
X17140109Y-48820213D01*
X17026181Y-48706285D01*
X16992696Y-48644962D01*
X16997680Y-48575270D01*
X17039552Y-48519337D01*
X17070529Y-48502422D01*
X17202086Y-48453354D01*
X17202093Y-48453350D01*
X17317187Y-48367190D01*
X17317190Y-48367187D01*
X17403350Y-48252093D01*
X17403354Y-48252086D01*
X17453596Y-48117379D01*
X17453598Y-48117372D01*
X17459999Y-48057844D01*
X17460000Y-48057827D01*
X17460000Y-47410000D01*
X16543012Y-47410000D01*
X16575925Y-47352993D01*
X16610000Y-47225826D01*
X16610000Y-47094174D01*
X16575925Y-46967007D01*
X16543012Y-46910000D01*
X17460000Y-46910000D01*
X17460000Y-46262172D01*
X17459999Y-46262155D01*
X17453598Y-46202627D01*
X17453596Y-46202620D01*
X17403354Y-46067913D01*
X17403350Y-46067906D01*
X17317190Y-45952812D01*
X17317187Y-45952809D01*
X17202093Y-45866649D01*
X17202086Y-45866645D01*
X17067379Y-45816403D01*
X17067372Y-45816401D01*
X17007844Y-45810000D01*
X16360000Y-45810000D01*
X16360000Y-46726988D01*
X16302993Y-46694075D01*
X16175826Y-46660000D01*
X16044174Y-46660000D01*
X15917007Y-46694075D01*
X15860000Y-46726988D01*
X15860000Y-45810000D01*
X15212155Y-45810000D01*
X15152627Y-45816401D01*
X15152620Y-45816403D01*
X15017913Y-45866645D01*
X15017906Y-45866649D01*
X14902812Y-45952809D01*
X14902809Y-45952812D01*
X14816649Y-46067906D01*
X14816645Y-46067913D01*
X14766403Y-46202620D01*
X14766401Y-46202627D01*
X14760000Y-46262155D01*
X14760000Y-46910000D01*
X15676988Y-46910000D01*
X15644075Y-46967007D01*
X15610000Y-47094174D01*
X15610000Y-47225826D01*
X15644075Y-47352993D01*
X15676988Y-47410000D01*
X14760000Y-47410000D01*
X14760000Y-48057844D01*
X14766401Y-48117372D01*
X14766403Y-48117379D01*
X14816645Y-48252086D01*
X14816649Y-48252093D01*
X14902809Y-48367187D01*
X14902812Y-48367190D01*
X15017906Y-48453350D01*
X15017913Y-48453354D01*
X15149470Y-48502422D01*
X15205404Y-48544293D01*
X15229821Y-48609758D01*
X15214969Y-48678031D01*
X15193819Y-48706285D01*
X15079889Y-48820215D01*
X14954951Y-48992179D01*
X14858444Y-49181585D01*
X14792753Y-49383760D01*
X14759500Y-49593713D01*
X9840500Y-49593713D01*
X9807246Y-49383757D01*
X9741557Y-49181588D01*
X9645051Y-48992184D01*
X9645049Y-48992181D01*
X9645048Y-48992179D01*
X9520109Y-48820213D01*
X9406569Y-48706673D01*
X9373084Y-48645350D01*
X9378068Y-48575658D01*
X9419940Y-48519725D01*
X9450915Y-48502810D01*
X9582331Y-48453796D01*
X9697546Y-48367546D01*
X9783796Y-48252331D01*
X9834091Y-48117483D01*
X9840500Y-48057873D01*
X9840499Y-46262128D01*
X9834091Y-46202517D01*
X9783884Y-46067906D01*
X9783797Y-46067671D01*
X9783793Y-46067664D01*
X9697547Y-45952455D01*
X9697544Y-45952452D01*
X9582335Y-45866206D01*
X9582328Y-45866202D01*
X9447482Y-45815908D01*
X9447483Y-45815908D01*
X9387883Y-45809501D01*
X9387881Y-45809500D01*
X9387873Y-45809500D01*
X9387864Y-45809500D01*
X7592129Y-45809500D01*
X7592123Y-45809501D01*
X7532516Y-45815908D01*
X7397671Y-45866202D01*
X7397664Y-45866206D01*
X7282455Y-45952452D01*
X7282452Y-45952455D01*
X7196206Y-46067664D01*
X7196202Y-46067671D01*
X7145908Y-46202517D01*
X7139501Y-46262116D01*
X7139501Y-46262123D01*
X7139500Y-46262135D01*
X6350499Y-46262135D01*
X6350499Y-43471457D01*
X10139499Y-43471457D01*
X10167379Y-43611614D01*
X10167381Y-43611620D01*
X10222069Y-43743650D01*
X10222074Y-43743659D01*
X10301467Y-43862478D01*
X10301470Y-43862482D01*
X10402517Y-43963529D01*
X10402521Y-43963532D01*
X10521340Y-44042925D01*
X10521346Y-44042928D01*
X10521347Y-44042929D01*
X10653380Y-44097619D01*
X10653384Y-44097619D01*
X10653385Y-44097620D01*
X10793542Y-44125500D01*
X10793545Y-44125500D01*
X10936457Y-44125500D01*
X11030751Y-44106742D01*
X11076620Y-44097619D01*
X11208653Y-44042929D01*
X11327479Y-43963532D01*
X11428532Y-43862479D01*
X11507929Y-43743653D01*
X11562619Y-43611620D01*
X11590500Y-43471455D01*
X11590500Y-43328545D01*
X11590500Y-43328542D01*
X11562620Y-43188385D01*
X11562619Y-43188384D01*
X11562619Y-43188380D01*
X11562617Y-43188375D01*
X11524939Y-43097410D01*
X11515500Y-43049958D01*
X11515500Y-41181424D01*
X11535185Y-41114385D01*
X11587989Y-41068630D01*
X11592019Y-41066874D01*
X11625688Y-41052929D01*
X11744514Y-40973532D01*
X11845567Y-40872479D01*
X11924964Y-40753653D01*
X11979654Y-40621620D01*
X12007535Y-40481455D01*
X12007535Y-40338545D01*
X12007535Y-40338542D01*
X11979655Y-40198385D01*
X11979654Y-40198384D01*
X11979654Y-40198380D01*
X11924964Y-40066347D01*
X11924963Y-40066346D01*
X11924960Y-40066340D01*
X11845567Y-39947521D01*
X11845564Y-39947517D01*
X11744517Y-39846470D01*
X11744513Y-39846467D01*
X11625694Y-39767074D01*
X11625685Y-39767069D01*
X11493655Y-39712381D01*
X11493649Y-39712379D01*
X11353492Y-39684500D01*
X11353490Y-39684500D01*
X11210580Y-39684500D01*
X11210578Y-39684500D01*
X11070420Y-39712379D01*
X11070414Y-39712381D01*
X10938384Y-39767069D01*
X10938375Y-39767074D01*
X10819556Y-39846467D01*
X10819552Y-39846470D01*
X10718505Y-39947517D01*
X10718502Y-39947521D01*
X10639109Y-40066340D01*
X10639101Y-40066355D01*
X10609934Y-40136770D01*
X10583056Y-40176997D01*
X10359723Y-40400331D01*
X10310455Y-40474068D01*
X10310453Y-40474070D01*
X10288539Y-40506864D01*
X10288533Y-40506875D01*
X10239499Y-40625255D01*
X10239497Y-40625261D01*
X10214500Y-40750928D01*
X10214500Y-43049958D01*
X10205061Y-43097410D01*
X10167382Y-43188375D01*
X10167379Y-43188385D01*
X10139500Y-43328542D01*
X10139500Y-43328545D01*
X10139500Y-43471455D01*
X10139500Y-43471457D01*
X10139499Y-43471457D01*
X6350499Y-43471457D01*
X6350499Y-40235513D01*
X6320939Y-40048886D01*
X6320939Y-40048883D01*
X6262546Y-39869169D01*
X6176759Y-39700802D01*
X6150923Y-39665241D01*
X6065695Y-39547934D01*
X6065691Y-39547929D01*
X5932071Y-39414309D01*
X5932066Y-39414305D01*
X5779202Y-39303244D01*
X5779201Y-39303243D01*
X5779199Y-39303242D01*
X5725259Y-39275758D01*
X5610832Y-39217453D01*
X5610829Y-39217452D01*
X5431119Y-39159062D01*
X5337800Y-39144281D01*
X5244482Y-39129501D01*
X5244481Y-39129501D01*
X5189883Y-39129501D01*
X2039881Y-39129499D01*
X2006092Y-39129499D01*
X1993938Y-39128902D01*
X1856180Y-39115334D01*
X1832339Y-39110592D01*
X1705731Y-39072186D01*
X1683272Y-39062883D01*
X1566591Y-39000515D01*
X1546380Y-38987010D01*
X1444109Y-38903078D01*
X1426921Y-38885890D01*
X1342988Y-38783617D01*
X1329483Y-38763406D01*
X1267114Y-38646721D01*
X1257814Y-38624270D01*
X1219405Y-38497653D01*
X1214666Y-38473823D01*
X1201098Y-38336060D01*
X1200501Y-38323907D01*
X1200501Y-38265456D01*
X1200500Y-38265450D01*
X1200500Y-33562155D01*
X2060000Y-33562155D01*
X2060000Y-34210000D01*
X2976988Y-34210000D01*
X2944075Y-34267007D01*
X2910000Y-34394174D01*
X2910000Y-34525826D01*
X2944075Y-34652993D01*
X2976988Y-34710000D01*
X2060000Y-34710000D01*
X2060000Y-35357844D01*
X2066401Y-35417372D01*
X2066403Y-35417379D01*
X2116645Y-35552086D01*
X2116649Y-35552093D01*
X2202809Y-35667187D01*
X2202812Y-35667190D01*
X2317906Y-35753350D01*
X2317913Y-35753354D01*
X2452620Y-35803596D01*
X2452619Y-35803596D01*
X2535444Y-35812501D01*
X2535116Y-35815550D01*
X2552014Y-35814642D01*
X2611196Y-35847642D01*
X3280591Y-36517037D01*
X3217007Y-36534075D01*
X3102993Y-36599901D01*
X3009901Y-36692993D01*
X2944075Y-36807007D01*
X2927037Y-36870591D01*
X2294728Y-36238282D01*
X2294727Y-36238282D01*
X2255380Y-36292439D01*
X2158904Y-36481782D01*
X2093242Y-36683869D01*
X2093242Y-36683872D01*
X2060000Y-36893753D01*
X2060000Y-37106246D01*
X2093242Y-37316127D01*
X2093242Y-37316130D01*
X2158904Y-37518217D01*
X2255375Y-37707550D01*
X2294728Y-37761716D01*
X2927037Y-37129408D01*
X2944075Y-37192993D01*
X3009901Y-37307007D01*
X3102993Y-37400099D01*
X3217007Y-37465925D01*
X3280590Y-37482962D01*
X2648282Y-38115269D01*
X2648282Y-38115270D01*
X2702449Y-38154624D01*
X2891782Y-38251095D01*
X3093870Y-38316757D01*
X3303754Y-38350000D01*
X3516246Y-38350000D01*
X3726127Y-38316757D01*
X3726130Y-38316757D01*
X3928217Y-38251095D01*
X4117554Y-38154622D01*
X4171716Y-38115270D01*
X4171717Y-38115270D01*
X3539408Y-37482962D01*
X3602993Y-37465925D01*
X3717007Y-37400099D01*
X3810099Y-37307007D01*
X3875925Y-37192993D01*
X3892962Y-37129409D01*
X4525270Y-37761717D01*
X4525270Y-37761716D01*
X4564622Y-37707554D01*
X4661095Y-37518217D01*
X4726757Y-37316130D01*
X4726757Y-37316127D01*
X4760000Y-37106246D01*
X4760000Y-36893753D01*
X4726757Y-36683872D01*
X4726757Y-36683869D01*
X4661095Y-36481782D01*
X4564624Y-36292449D01*
X4525270Y-36238282D01*
X4525269Y-36238282D01*
X3892962Y-36870590D01*
X3875925Y-36807007D01*
X3810099Y-36692993D01*
X3717007Y-36599901D01*
X3602993Y-36534075D01*
X3539409Y-36517037D01*
X4208802Y-35847642D01*
X4270125Y-35814157D01*
X4284833Y-35815078D01*
X4284556Y-35812501D01*
X4367375Y-35803598D01*
X4502086Y-35753354D01*
X4502093Y-35753350D01*
X4617187Y-35667190D01*
X4617190Y-35667187D01*
X4703350Y-35552093D01*
X4703354Y-35552086D01*
X4753596Y-35417379D01*
X4753598Y-35417372D01*
X4759999Y-35357844D01*
X4760000Y-35357827D01*
X4760000Y-34710000D01*
X3843012Y-34710000D01*
X3875925Y-34652993D01*
X3910000Y-34525826D01*
X3910000Y-34394174D01*
X3875925Y-34267007D01*
X3843012Y-34210000D01*
X4760000Y-34210000D01*
X4760000Y-33562172D01*
X4759999Y-33562155D01*
X19840000Y-33562155D01*
X19840000Y-34210000D01*
X20756988Y-34210000D01*
X20724075Y-34267007D01*
X20690000Y-34394174D01*
X20690000Y-34525826D01*
X20724075Y-34652993D01*
X20756988Y-34710000D01*
X19840000Y-34710000D01*
X19840000Y-35357844D01*
X19846401Y-35417372D01*
X19846403Y-35417379D01*
X19896645Y-35552086D01*
X19896649Y-35552093D01*
X19982809Y-35667187D01*
X19982812Y-35667190D01*
X20097906Y-35753350D01*
X20097913Y-35753354D01*
X20232620Y-35803596D01*
X20232619Y-35803596D01*
X20315444Y-35812501D01*
X20315116Y-35815550D01*
X20332014Y-35814642D01*
X20391196Y-35847642D01*
X21060591Y-36517037D01*
X20997007Y-36534075D01*
X20882993Y-36599901D01*
X20789901Y-36692993D01*
X20724075Y-36807007D01*
X20707037Y-36870591D01*
X20074728Y-36238282D01*
X20074727Y-36238282D01*
X20035380Y-36292439D01*
X19938904Y-36481782D01*
X19873242Y-36683869D01*
X19873242Y-36683872D01*
X19840000Y-36893753D01*
X19840000Y-37106246D01*
X19873242Y-37316127D01*
X19873242Y-37316130D01*
X19938904Y-37518217D01*
X20035375Y-37707550D01*
X20074728Y-37761716D01*
X20707037Y-37129408D01*
X20724075Y-37192993D01*
X20789901Y-37307007D01*
X20882993Y-37400099D01*
X20997007Y-37465925D01*
X21060590Y-37482962D01*
X20428282Y-38115269D01*
X20428282Y-38115270D01*
X20482449Y-38154624D01*
X20671782Y-38251095D01*
X20873870Y-38316757D01*
X21083754Y-38350000D01*
X21296246Y-38350000D01*
X21506127Y-38316757D01*
X21506130Y-38316757D01*
X21708217Y-38251095D01*
X21897554Y-38154622D01*
X21951716Y-38115270D01*
X21951717Y-38115270D01*
X21319408Y-37482962D01*
X21382993Y-37465925D01*
X21497007Y-37400099D01*
X21590099Y-37307007D01*
X21655925Y-37192993D01*
X21672962Y-37129408D01*
X22305270Y-37761717D01*
X22305270Y-37761716D01*
X22344622Y-37707554D01*
X22441095Y-37518217D01*
X22506757Y-37316130D01*
X22506757Y-37316127D01*
X22540000Y-37106246D01*
X22540000Y-36893753D01*
X22506757Y-36683872D01*
X22506757Y-36683869D01*
X22441095Y-36481782D01*
X22344624Y-36292449D01*
X22305270Y-36238282D01*
X22305269Y-36238282D01*
X21672962Y-36870590D01*
X21655925Y-36807007D01*
X21590099Y-36692993D01*
X21497007Y-36599901D01*
X21382993Y-36534075D01*
X21319409Y-36517037D01*
X21988802Y-35847642D01*
X22050125Y-35814157D01*
X22064833Y-35815078D01*
X22064556Y-35812501D01*
X22147375Y-35803598D01*
X22282086Y-35753354D01*
X22282093Y-35753350D01*
X22397187Y-35667190D01*
X22397190Y-35667187D01*
X22483350Y-35552093D01*
X22483354Y-35552086D01*
X22533596Y-35417379D01*
X22533598Y-35417372D01*
X22539999Y-35357844D01*
X22540000Y-35357827D01*
X22540000Y-34710000D01*
X21623012Y-34710000D01*
X21655925Y-34652993D01*
X21690000Y-34525826D01*
X21690000Y-34394174D01*
X21655925Y-34267007D01*
X21623012Y-34210000D01*
X22540000Y-34210000D01*
X22540000Y-33562172D01*
X22539999Y-33562155D01*
X22533598Y-33502627D01*
X22533596Y-33502620D01*
X22483354Y-33367913D01*
X22483350Y-33367906D01*
X22397190Y-33252812D01*
X22397187Y-33252809D01*
X22282093Y-33166649D01*
X22282086Y-33166645D01*
X22147379Y-33116403D01*
X22147372Y-33116401D01*
X22087844Y-33110000D01*
X21440000Y-33110000D01*
X21440000Y-34026988D01*
X21382993Y-33994075D01*
X21255826Y-33960000D01*
X21124174Y-33960000D01*
X20997007Y-33994075D01*
X20940000Y-34026988D01*
X20940000Y-33110000D01*
X20292155Y-33110000D01*
X20232627Y-33116401D01*
X20232620Y-33116403D01*
X20097913Y-33166645D01*
X20097906Y-33166649D01*
X19982812Y-33252809D01*
X19982809Y-33252812D01*
X19896649Y-33367906D01*
X19896645Y-33367913D01*
X19846403Y-33502620D01*
X19846401Y-33502627D01*
X19840000Y-33562155D01*
X4759999Y-33562155D01*
X4753598Y-33502627D01*
X4753596Y-33502620D01*
X4703354Y-33367913D01*
X4703350Y-33367906D01*
X4617190Y-33252812D01*
X4617187Y-33252809D01*
X4502093Y-33166649D01*
X4502086Y-33166645D01*
X4367379Y-33116403D01*
X4367372Y-33116401D01*
X4307844Y-33110000D01*
X3660000Y-33110000D01*
X3660000Y-34026988D01*
X3602993Y-33994075D01*
X3475826Y-33960000D01*
X3344174Y-33960000D01*
X3217007Y-33994075D01*
X3160000Y-34026988D01*
X3160000Y-33110000D01*
X2512155Y-33110000D01*
X2452627Y-33116401D01*
X2452620Y-33116403D01*
X2317913Y-33166645D01*
X2317906Y-33166649D01*
X2202812Y-33252809D01*
X2202809Y-33252812D01*
X2116649Y-33367906D01*
X2116645Y-33367913D01*
X2066403Y-33502620D01*
X2066401Y-33502627D01*
X2060000Y-33562155D01*
X1200500Y-33562155D01*
X1200500Y-30024000D01*
X1220185Y-29956961D01*
X1272989Y-29911206D01*
X1324500Y-29900000D01*
X4480500Y-29900000D01*
X4547539Y-29919685D01*
G37*
%TD.AperFunction*%
%TD*%
M02*
