%TF.GenerationSoftware,KiCad,Pcbnew,9.0.1*%
%TF.CreationDate,2025-04-18T18:53:21-04:00*%
%TF.ProjectId,attinyx14_dev,61747469-6e79-4783-9134-5f6465762e6b,rev?*%
%TF.SameCoordinates,Original*%
%TF.FileFunction,Copper,L1,Top*%
%TF.FilePolarity,Positive*%
%FSLAX46Y46*%
G04 Gerber Fmt 4.6, Leading zero omitted, Abs format (unit mm)*
G04 Created by KiCad (PCBNEW 9.0.1) date 2025-04-18 18:53:21*
%MOMM*%
%LPD*%
G01*
G04 APERTURE LIST*
G04 Aperture macros list*
%AMRoundRect*
0 Rectangle with rounded corners*
0 $1 Rounding radius*
0 $2 $3 $4 $5 $6 $7 $8 $9 X,Y pos of 4 corners*
0 Add a 4 corners polygon primitive as box body*
4,1,4,$2,$3,$4,$5,$6,$7,$8,$9,$2,$3,0*
0 Add four circle primitives for the rounded corners*
1,1,$1+$1,$2,$3*
1,1,$1+$1,$4,$5*
1,1,$1+$1,$6,$7*
1,1,$1+$1,$8,$9*
0 Add four rect primitives between the rounded corners*
20,1,$1+$1,$2,$3,$4,$5,0*
20,1,$1+$1,$4,$5,$6,$7,0*
20,1,$1+$1,$6,$7,$8,$9,0*
20,1,$1+$1,$8,$9,$2,$3,0*%
G04 Aperture macros list end*
%TA.AperFunction,SMDPad,CuDef*%
%ADD10RoundRect,0.218750X-0.218750X-0.256250X0.218750X-0.256250X0.218750X0.256250X-0.218750X0.256250X0*%
%TD*%
%TA.AperFunction,SMDPad,CuDef*%
%ADD11RoundRect,0.225000X0.225000X0.250000X-0.225000X0.250000X-0.225000X-0.250000X0.225000X-0.250000X0*%
%TD*%
%TA.AperFunction,SMDPad,CuDef*%
%ADD12RoundRect,0.200000X0.200000X0.275000X-0.200000X0.275000X-0.200000X-0.275000X0.200000X-0.275000X0*%
%TD*%
%TA.AperFunction,SMDPad,CuDef*%
%ADD13RoundRect,0.150000X-0.825000X-0.150000X0.825000X-0.150000X0.825000X0.150000X-0.825000X0.150000X0*%
%TD*%
%TA.AperFunction,SMDPad,CuDef*%
%ADD14RoundRect,0.150000X0.150000X-0.512500X0.150000X0.512500X-0.150000X0.512500X-0.150000X-0.512500X0*%
%TD*%
%TA.AperFunction,SMDPad,CuDef*%
%ADD15R,1.200000X1.200000*%
%TD*%
%TA.AperFunction,SMDPad,CuDef*%
%ADD16RoundRect,0.250000X-0.262500X-0.450000X0.262500X-0.450000X0.262500X0.450000X-0.262500X0.450000X0*%
%TD*%
%TA.AperFunction,ComponentPad*%
%ADD17R,1.700000X1.700000*%
%TD*%
%TA.AperFunction,ComponentPad*%
%ADD18C,1.700000*%
%TD*%
%TA.AperFunction,SMDPad,CuDef*%
%ADD19R,0.600000X1.210000*%
%TD*%
%TA.AperFunction,SMDPad,CuDef*%
%ADD20R,0.600000X1.240000*%
%TD*%
%TA.AperFunction,SMDPad,CuDef*%
%ADD21R,0.300000X1.240000*%
%TD*%
%TA.AperFunction,ComponentPad*%
%ADD22O,1.000000X2.100000*%
%TD*%
%TA.AperFunction,ComponentPad*%
%ADD23O,1.000000X1.800000*%
%TD*%
%TA.AperFunction,SMDPad,CuDef*%
%ADD24RoundRect,0.150000X-0.150000X0.687500X-0.150000X-0.687500X0.150000X-0.687500X0.150000X0.687500X0*%
%TD*%
%TA.AperFunction,HeatsinkPad*%
%ADD25R,3.300000X2.100000*%
%TD*%
%TA.AperFunction,SMDPad,CuDef*%
%ADD26RoundRect,0.243750X-0.243750X-0.456250X0.243750X-0.456250X0.243750X0.456250X-0.243750X0.456250X0*%
%TD*%
%TA.AperFunction,SMDPad,CuDef*%
%ADD27RoundRect,0.225000X-0.225000X-0.250000X0.225000X-0.250000X0.225000X0.250000X-0.225000X0.250000X0*%
%TD*%
%TA.AperFunction,SMDPad,CuDef*%
%ADD28RoundRect,0.225000X-0.250000X0.225000X-0.250000X-0.225000X0.250000X-0.225000X0.250000X0.225000X0*%
%TD*%
%TA.AperFunction,ViaPad*%
%ADD29C,0.720000*%
%TD*%
%TA.AperFunction,ViaPad*%
%ADD30C,0.800000*%
%TD*%
%TA.AperFunction,ViaPad*%
%ADD31C,0.520000*%
%TD*%
%TA.AperFunction,ViaPad*%
%ADD32C,0.450000*%
%TD*%
%TA.AperFunction,Conductor*%
%ADD33C,0.500000*%
%TD*%
%TA.AperFunction,Conductor*%
%ADD34C,0.300000*%
%TD*%
%TA.AperFunction,Conductor*%
%ADD35C,0.250000*%
%TD*%
%TA.AperFunction,Conductor*%
%ADD36C,0.200000*%
%TD*%
G04 APERTURE END LIST*
D10*
%TO.P,D1,1,K*%
%TO.N,GND*%
X3212500Y-9520000D03*
%TO.P,D1,2,A*%
%TO.N,Net-(D1-A)*%
X4787500Y-9520000D03*
%TD*%
D11*
%TO.P,C2,1*%
%TO.N,VBUS*%
X7935000Y-15300000D03*
%TO.P,C2,2*%
%TO.N,GND*%
X6385000Y-15300000D03*
%TD*%
D12*
%TO.P,R4,1*%
%TO.N,Net-(D4-K)*%
X18255000Y-14740000D03*
%TO.P,R4,2*%
%TO.N,GND*%
X16605000Y-14740000D03*
%TD*%
D13*
%TO.P,U2,1,VCC*%
%TO.N,+5VA*%
X9825000Y-34990000D03*
%TO.P,U2,2,PA4*%
%TO.N,/PA4*%
X9825000Y-36260000D03*
%TO.P,U2,3,PA5*%
%TO.N,/PA5*%
X9825000Y-37530000D03*
%TO.P,U2,4,PA6*%
%TO.N,/PA6*%
X9825000Y-38800000D03*
%TO.P,U2,5,PA7*%
%TO.N,/PA7*%
X9825000Y-40070000D03*
%TO.P,U2,6,PB3*%
%TO.N,/PB3*%
X9825000Y-41340000D03*
%TO.P,U2,7,PB2*%
%TO.N,/PB2*%
X9825000Y-42610000D03*
%TO.P,U2,8,PB1*%
%TO.N,/PB1*%
X14775000Y-42610000D03*
%TO.P,U2,9,PB0*%
%TO.N,/PB0*%
X14775000Y-41340000D03*
%TO.P,U2,10,~{RESET}/PA0*%
%TO.N,/PA0*%
X14775000Y-40070000D03*
%TO.P,U2,11,PA1*%
%TO.N,/PA1*%
X14775000Y-38800000D03*
%TO.P,U2,12,PA2*%
%TO.N,/PA2*%
X14775000Y-37530000D03*
%TO.P,U2,13,PA3*%
%TO.N,/PA3*%
X14775000Y-36260000D03*
%TO.P,U2,14,GND*%
%TO.N,GND1*%
X14775000Y-34990000D03*
%TD*%
D12*
%TO.P,R2,1*%
%TO.N,Net-(J1-CC1)*%
X18255000Y-13030000D03*
%TO.P,R2,2*%
%TO.N,GND*%
X16605000Y-13030000D03*
%TD*%
D14*
%TO.P,U1,1,I/O1*%
%TO.N,/UD+*%
X11350000Y-12187500D03*
%TO.P,U1,2,GND*%
%TO.N,GND*%
X12300000Y-12187500D03*
%TO.P,U1,3,I/O2*%
%TO.N,/UD-*%
X13250000Y-12187500D03*
%TO.P,U1,4,I/O2*%
%TO.N,/D-*%
X13250000Y-9912500D03*
%TO.P,U1,5,VBUS*%
%TO.N,VBUS*%
X12300000Y-9912500D03*
%TO.P,U1,6,I/O1*%
%TO.N,/D+*%
X11350000Y-9912500D03*
%TD*%
D15*
%TO.P,D3,1,K*%
%TO.N,Net-(D3-K)*%
X19597500Y-18970000D03*
%TO.P,D3,2,A*%
%TO.N,Net-(D3-A)*%
X16797500Y-18970000D03*
%TD*%
D12*
%TO.P,R3,1*%
%TO.N,Net-(J1-CC2)*%
X18255000Y-11320000D03*
%TO.P,R3,2*%
%TO.N,GND*%
X16605000Y-11320000D03*
%TD*%
D16*
%TO.P,R5,1*%
%TO.N,Net-(D3-A)*%
X17857500Y-16670000D03*
%TO.P,R5,2*%
%TO.N,/UPDI*%
X19682500Y-16670000D03*
%TD*%
D17*
%TO.P,J4,1,Pin_1*%
%TO.N,+5VA*%
X5955000Y-30875000D03*
D18*
%TO.P,J4,2,Pin_2*%
%TO.N,+5V*%
X5955000Y-28335000D03*
%TO.P,J4,3,Pin_3*%
%TO.N,/PB3*%
X8495000Y-30875000D03*
%TO.P,J4,4,Pin_4*%
%TO.N,/TX*%
X8495000Y-28335000D03*
%TO.P,J4,5,Pin_5*%
%TO.N,/PB2*%
X11035000Y-30875000D03*
%TO.P,J4,6,Pin_6*%
%TO.N,/RX*%
X11035000Y-28335000D03*
%TO.P,J4,7,Pin_7*%
%TO.N,/PA0*%
X13575000Y-30875000D03*
%TO.P,J4,8,Pin_8*%
%TO.N,/UPDI*%
X13575000Y-28335000D03*
%TO.P,J4,9,Pin_9*%
%TO.N,/PA3*%
X16115000Y-30875000D03*
%TO.P,J4,10,Pin_10*%
%TO.N,/LED*%
X16115000Y-28335000D03*
%TO.P,J4,11,Pin_11*%
%TO.N,GND1*%
X18655000Y-30875000D03*
%TO.P,J4,12,Pin_12*%
%TO.N,GND*%
X18655000Y-28335000D03*
%TD*%
D11*
%TO.P,C5,1*%
%TO.N,GND*%
X12865000Y-22140000D03*
%TO.P,C5,2*%
%TO.N,+5V*%
X11315000Y-22140000D03*
%TD*%
D19*
%TO.P,J1,A1,GND*%
%TO.N,GND*%
X15500000Y-7640000D03*
D20*
%TO.P,J1,A4,VBUS*%
%TO.N,Net-(F1-Pad1)*%
X14700000Y-7625000D03*
D21*
%TO.P,J1,A5,CC1*%
%TO.N,Net-(J1-CC1)*%
X13550000Y-7625000D03*
%TO.P,J1,A6,D+*%
%TO.N,/D+*%
X12550000Y-7625000D03*
%TO.P,J1,A7,D-*%
%TO.N,/D-*%
X12050000Y-7625000D03*
%TO.P,J1,A8,SBU1*%
%TO.N,unconnected-(J1-SBU1-PadA8)*%
X11050000Y-7625000D03*
D20*
%TO.P,J1,A9,VBUS*%
%TO.N,Net-(F1-Pad1)*%
X9900000Y-7625000D03*
D19*
%TO.P,J1,A12,GND*%
%TO.N,GND*%
X9100000Y-7640000D03*
%TO.P,J1,B1,GND*%
X9100000Y-7640000D03*
D20*
%TO.P,J1,B4,VBUS*%
%TO.N,Net-(F1-Pad1)*%
X9900000Y-7625000D03*
D21*
%TO.P,J1,B5,CC2*%
%TO.N,Net-(J1-CC2)*%
X10550000Y-7625000D03*
%TO.P,J1,B6,D+*%
%TO.N,/D+*%
X11550000Y-7625000D03*
%TO.P,J1,B7,D-*%
%TO.N,/D-*%
X13050000Y-7625000D03*
%TO.P,J1,B8,SBU2*%
%TO.N,unconnected-(J1-SBU2-PadB8)*%
X14050000Y-7625000D03*
D20*
%TO.P,J1,B9,VBUS*%
%TO.N,Net-(F1-Pad1)*%
X14700000Y-7625000D03*
D19*
%TO.P,J1,B12,GND*%
%TO.N,GND*%
X15500000Y-7640000D03*
D22*
%TO.P,J1,S1,SHIELD*%
X16620000Y-7025000D03*
D23*
X16620000Y-2825000D03*
D22*
X7980000Y-7025000D03*
D23*
X7980000Y-2825000D03*
%TD*%
D10*
%TO.P,D4,1,K*%
%TO.N,Net-(D4-K)*%
X19812500Y-9520000D03*
%TO.P,D4,2,A*%
%TO.N,/LED*%
X21387500Y-9520000D03*
%TD*%
D11*
%TO.P,C1,1*%
%TO.N,VBUS*%
X7935000Y-13590000D03*
%TO.P,C1,2*%
%TO.N,GND*%
X6385000Y-13590000D03*
%TD*%
D15*
%TO.P,D2,1,K*%
%TO.N,+5V*%
X7940000Y-21640000D03*
%TO.P,D2,2,A*%
%TO.N,VBUS*%
X7940000Y-18840000D03*
%TD*%
D24*
%TO.P,U3,1,UD+*%
%TO.N,/UD+*%
X14310000Y-14800000D03*
%TO.P,U3,2,UD-*%
%TO.N,/UD-*%
X13310000Y-14800000D03*
%TO.P,U3,3,GND*%
%TO.N,GND*%
X12310000Y-14800000D03*
%TO.P,U3,4,Vcc*%
%TO.N,VBUS*%
X11310000Y-14800000D03*
%TO.P,U3,5,TXD1*%
%TO.N,/TX*%
X10310000Y-14800000D03*
%TO.P,U3,6,RXD1*%
%TO.N,/RX*%
X10310000Y-20075000D03*
%TO.P,U3,7,VIO*%
%TO.N,+5V*%
X11310000Y-20075000D03*
%TO.P,U3,8,TXD0*%
%TO.N,Net-(D3-K)*%
X12310000Y-20075000D03*
%TO.P,U3,9,RXD0*%
%TO.N,Net-(D3-A)*%
X13310000Y-20075000D03*
%TO.P,U3,10,V3*%
%TO.N,Net-(U3-V3)*%
X14310000Y-20075000D03*
D25*
%TO.P,U3,11,GND*%
%TO.N,GND*%
X12310000Y-17437500D03*
%TD*%
D26*
%TO.P,F1,1*%
%TO.N,Net-(F1-Pad1)*%
X6022500Y-11660000D03*
%TO.P,F1,2*%
%TO.N,VBUS*%
X7897500Y-11660000D03*
%TD*%
D12*
%TO.P,R1,1*%
%TO.N,VBUS*%
X7985000Y-17010000D03*
%TO.P,R1,2*%
%TO.N,Net-(D1-A)*%
X6335000Y-17010000D03*
%TD*%
D27*
%TO.P,C4,1*%
%TO.N,Net-(U3-V3)*%
X16655000Y-21050000D03*
%TO.P,C4,2*%
%TO.N,GND*%
X18205000Y-21050000D03*
%TD*%
D28*
%TO.P,C3,1*%
%TO.N,+5VA*%
X7370000Y-34995000D03*
%TO.P,C3,2*%
%TO.N,GND1*%
X7370000Y-36545000D03*
%TD*%
D17*
%TO.P,J3,1,Pin_1*%
%TO.N,GND1*%
X16110000Y-47160000D03*
D18*
%TO.P,J3,2,Pin_2*%
%TO.N,/PA3*%
X16110000Y-49700000D03*
%TO.P,J3,3,Pin_3*%
%TO.N,/PA2*%
X16110000Y-52240000D03*
%TO.P,J3,4,Pin_4*%
%TO.N,/PA1*%
X16110000Y-54780000D03*
%TO.P,J3,5,Pin_5*%
%TO.N,/PA0*%
X16110000Y-57320000D03*
%TO.P,J3,6,Pin_6*%
%TO.N,/PB0*%
X16110000Y-59860000D03*
%TO.P,J3,7,Pin_7*%
%TO.N,/PB1*%
X16110000Y-62400000D03*
%TD*%
D17*
%TO.P,J6,1,Pin_1*%
%TO.N,GND1*%
X21190000Y-34460000D03*
D18*
%TO.P,J6,2,Pin_2*%
X21190000Y-37000000D03*
%TD*%
D17*
%TO.P,J2,1,Pin_1*%
%TO.N,+5VA*%
X8490000Y-47160000D03*
D18*
%TO.P,J2,2,Pin_2*%
%TO.N,/PA4*%
X8490000Y-49700000D03*
%TO.P,J2,3,Pin_3*%
%TO.N,/PA5*%
X8490000Y-52240000D03*
%TO.P,J2,4,Pin_4*%
%TO.N,/PA6*%
X8490000Y-54780000D03*
%TO.P,J2,5,Pin_5*%
%TO.N,/PA7*%
X8490000Y-57320000D03*
%TO.P,J2,6,Pin_6*%
%TO.N,/PB3*%
X8490000Y-59860000D03*
%TO.P,J2,7,Pin_7*%
%TO.N,/PB2*%
X8490000Y-62400000D03*
%TD*%
D17*
%TO.P,J5,1,Pin_1*%
%TO.N,GND1*%
X3410000Y-34460000D03*
D18*
%TO.P,J5,2,Pin_2*%
X3410000Y-37000000D03*
%TD*%
D29*
%TO.N,GND*%
X13650000Y-22880000D03*
D30*
X12310000Y-17437500D03*
X11310000Y-17437500D03*
D29*
X5230000Y-15300000D03*
X8600000Y-8870000D03*
X5230000Y-13580000D03*
X19420000Y-21050000D03*
X3200000Y-10690000D03*
X15500000Y-13020000D03*
D30*
X13310000Y-17437500D03*
D29*
X15500000Y-14740000D03*
X15510000Y-11320000D03*
X16000000Y-8870000D03*
%TO.N,GND1*%
X7370000Y-37700000D03*
X16460000Y-35000000D03*
D31*
%TO.N,/TX*%
X9610000Y-22970000D03*
X9610000Y-21310000D03*
%TO.N,/RX*%
X10310000Y-21310000D03*
X10310000Y-22970000D03*
D29*
%TO.N,Net-(F1-Pad1)*%
X9910000Y-8960000D03*
X14700000Y-8960000D03*
D31*
%TO.N,/UD+*%
X11540205Y-13109795D03*
X14310000Y-13480000D03*
D32*
%TO.N,/PA4*%
X11282035Y-40410000D03*
X10865000Y-43400000D03*
%TD*%
D33*
%TO.N,VBUS*%
X7935000Y-13590000D02*
X7935000Y-11697500D01*
X8507500Y-11050000D02*
X11900000Y-11050000D01*
X10690000Y-13370000D02*
X8155000Y-13370000D01*
X12300000Y-10650000D02*
X12300000Y-9912500D01*
X8155000Y-13370000D02*
X7935000Y-13590000D01*
X7935000Y-13590000D02*
X7935000Y-15300000D01*
X7985000Y-17010000D02*
X7985000Y-18795000D01*
X11900000Y-11050000D02*
X12300000Y-10650000D01*
X7935000Y-15300000D02*
X7935000Y-16960000D01*
X11310000Y-13990000D02*
X10690000Y-13370000D01*
X7897500Y-11660000D02*
X8507500Y-11050000D01*
X11310000Y-14800000D02*
X11310000Y-13990000D01*
%TO.N,GND*%
X16605000Y-13030000D02*
X15510000Y-13030000D01*
X6385000Y-13590000D02*
X5240000Y-13590000D01*
X15500000Y-7625000D02*
X15500000Y-8370000D01*
X16605000Y-14740000D02*
X15500000Y-14740000D01*
X16605000Y-11320000D02*
X15510000Y-11320000D01*
X3212500Y-10677500D02*
X3200000Y-10690000D01*
X18205000Y-21050000D02*
X19420000Y-21050000D01*
X3212500Y-9520000D02*
X3212500Y-10677500D01*
X15500000Y-8370000D02*
X16000000Y-8870000D01*
X9100000Y-8370000D02*
X8600000Y-8870000D01*
X12310000Y-14800000D02*
X12310000Y-17437500D01*
X13650000Y-22880000D02*
X12910000Y-22140000D01*
X5240000Y-13590000D02*
X5230000Y-13580000D01*
X9100000Y-7625000D02*
X9100000Y-8370000D01*
X6385000Y-15300000D02*
X5230000Y-15300000D01*
X12300000Y-12187500D02*
X12300000Y-14790000D01*
%TO.N,+5V*%
X7940000Y-21640000D02*
X7940000Y-23732082D01*
X5955000Y-28335000D02*
X5955000Y-25717082D01*
X11315000Y-22140000D02*
X8440000Y-22140000D01*
X5955000Y-25717082D02*
X7940000Y-23732082D01*
X8440000Y-22140000D02*
X7940000Y-21640000D01*
X11310000Y-20075000D02*
X11310000Y-22135000D01*
%TO.N,Net-(U3-V3)*%
X14310000Y-20830000D02*
X14310000Y-20075000D01*
X16655000Y-21050000D02*
X14530000Y-21050000D01*
X14530000Y-21050000D02*
X14310000Y-20830000D01*
%TO.N,GND1*%
X7370000Y-36545000D02*
X7370000Y-37700000D01*
X14775000Y-34995000D02*
X16455000Y-34995000D01*
X16455000Y-34995000D02*
X16460000Y-35000000D01*
D34*
%TO.N,Net-(D3-A)*%
X13310000Y-20075000D02*
X13310000Y-19237501D01*
X13310000Y-19237501D02*
X13667501Y-18880000D01*
X16797500Y-18970000D02*
X16797500Y-17730000D01*
X16797500Y-17730000D02*
X17857500Y-16670000D01*
X13667501Y-18880000D02*
X16707500Y-18880000D01*
%TO.N,Net-(D3-K)*%
X12310000Y-20912499D02*
X12712501Y-21315000D01*
X12712501Y-21315000D02*
X14102035Y-21315000D01*
X20130000Y-19502500D02*
X19597500Y-18970000D01*
X14102035Y-21315000D02*
X14667035Y-21880000D01*
X12310000Y-20075000D02*
X12310000Y-20912499D01*
X19600000Y-21880000D02*
X20130000Y-21350000D01*
X14667035Y-21880000D02*
X19600000Y-21880000D01*
X20130000Y-21350000D02*
X20130000Y-19502500D01*
D35*
%TO.N,Net-(J1-CC1)*%
X17400000Y-10100000D02*
X17400000Y-12175000D01*
X17670000Y-6050000D02*
X17670000Y-9830000D01*
X14200000Y-5430000D02*
X17050000Y-5430000D01*
X13550000Y-6080000D02*
X14200000Y-5430000D01*
X17050000Y-5430000D02*
X17670000Y-6050000D01*
X17670000Y-9830000D02*
X17400000Y-10100000D01*
X13550000Y-7625000D02*
X13550000Y-6080000D01*
X17400000Y-12175000D02*
X18255000Y-13030000D01*
%TO.N,Net-(J1-CC2)*%
X18140000Y-5860000D02*
X17240000Y-4960000D01*
X18140000Y-11205000D02*
X18140000Y-5860000D01*
X17240000Y-4960000D02*
X11850000Y-4960000D01*
X10550000Y-6260000D02*
X10550000Y-7625000D01*
X11850000Y-4960000D02*
X10550000Y-6260000D01*
D34*
%TO.N,/PA1*%
X16370000Y-54790000D02*
X16120000Y-54790000D01*
X14518000Y-48522958D02*
X14518000Y-45797042D01*
X14518000Y-45797042D02*
X14747042Y-45568000D01*
X14519001Y-53189001D02*
X14519001Y-48523959D01*
X14747042Y-45568000D02*
X16197916Y-45568000D01*
X16030000Y-38800000D02*
X14775000Y-38800000D01*
X14519001Y-48523959D02*
X14518000Y-48522958D01*
X16370000Y-54520000D02*
X16370000Y-54790000D01*
X16880000Y-44885916D02*
X16880000Y-39650000D01*
X16880000Y-39650000D02*
X16030000Y-38800000D01*
X16120000Y-54790000D02*
X14519001Y-53189001D01*
X16197916Y-45568000D02*
X16880000Y-44885916D01*
X16110000Y-54780000D02*
X16370000Y-54520000D01*
%TO.N,/PA6*%
X7582997Y-44414999D02*
X7582999Y-44414997D01*
X7582997Y-44738913D02*
X8412084Y-45568000D01*
X8600000Y-38800000D02*
X7582997Y-39817003D01*
X10091001Y-53178999D02*
X8490000Y-54780000D01*
X9825000Y-38800000D02*
X8600000Y-38800000D01*
X9770957Y-45567999D02*
X10091000Y-45888042D01*
X7582997Y-39817003D02*
X7582997Y-44414999D01*
X8412084Y-45568000D02*
X9770957Y-45567999D01*
X10091000Y-45888042D02*
X10091001Y-53178999D01*
X7582999Y-44414997D02*
X7582997Y-44738913D01*
%TO.N,/PA7*%
X7973998Y-44576956D02*
X7973998Y-40676002D01*
X7973998Y-40676002D02*
X8580000Y-40070000D01*
X10482000Y-45726084D02*
X9932914Y-45176998D01*
X8574041Y-45176999D02*
X7973998Y-44576956D01*
X8580000Y-40070000D02*
X9825000Y-40070000D01*
X8490000Y-57320000D02*
X10482000Y-55328000D01*
X9932914Y-45176998D02*
X8574041Y-45176999D01*
X10482000Y-55328000D02*
X10482000Y-45726084D01*
%TO.N,/UPDI*%
X16450000Y-22380000D02*
X15620000Y-23210000D01*
X19682500Y-16670000D02*
X20740000Y-17727500D01*
X19800000Y-22380000D02*
X16450000Y-22380000D01*
X20740000Y-21440000D02*
X19800000Y-22380000D01*
X20740000Y-17727500D02*
X20740000Y-21440000D01*
X15620000Y-23210000D02*
X15620000Y-26290000D01*
X15620000Y-26290000D02*
X13575000Y-28335000D01*
%TO.N,/PA2*%
X14910000Y-48685918D02*
X14910002Y-48362002D01*
X14909000Y-45959000D02*
X16359874Y-45959000D01*
X16110000Y-52240000D02*
X15690000Y-52240000D01*
X14910000Y-48362000D02*
X14910000Y-48361000D01*
X17280000Y-38780000D02*
X16030000Y-37530000D01*
X14910002Y-48685916D02*
X14910000Y-48685918D01*
X17280000Y-45038874D02*
X17280000Y-38780000D01*
X15690000Y-52240000D02*
X14910000Y-51460000D01*
X16030000Y-37530000D02*
X14775000Y-37530000D01*
X14909000Y-48361000D02*
X14909000Y-45959000D01*
X14910000Y-51460000D02*
X14910002Y-48685916D01*
X14910000Y-48361000D02*
X14909000Y-48361000D01*
X14910002Y-48362002D02*
X14910000Y-48362000D01*
X16359874Y-45959000D02*
X17280000Y-45038874D01*
%TO.N,/PA3*%
X17671001Y-38181002D02*
X15749999Y-36260000D01*
X14775000Y-36260000D02*
X13540000Y-36260000D01*
X15749999Y-36260000D02*
X14775000Y-36260000D01*
X13251000Y-33739000D02*
X16115000Y-30875000D01*
X17671001Y-48138999D02*
X17671001Y-38181002D01*
X13540000Y-36260000D02*
X13251000Y-35971000D01*
X13251000Y-35971000D02*
X13251000Y-33739000D01*
X16110000Y-49700000D02*
X17671001Y-48138999D01*
D35*
%TO.N,/D-*%
X13050000Y-6705000D02*
X13050000Y-7625000D01*
X12050000Y-7625000D02*
X12050000Y-6705000D01*
X12315000Y-6440000D02*
X12785000Y-6440000D01*
X12785000Y-6440000D02*
X13050000Y-6705000D01*
X12050000Y-6705000D02*
X12315000Y-6440000D01*
D36*
X13050000Y-9712500D02*
X13050000Y-7625000D01*
D35*
%TO.N,/D+*%
X12345000Y-8750000D02*
X12550000Y-8545000D01*
X11550000Y-8545000D02*
X11755000Y-8750000D01*
X11550000Y-9712500D02*
X11350000Y-9912500D01*
X11755000Y-8750000D02*
X12345000Y-8750000D01*
X11550000Y-7625000D02*
X11550000Y-9712500D01*
X12550000Y-8545000D02*
X12550000Y-7625000D01*
X11550000Y-7625000D02*
X11550000Y-8545000D01*
D34*
%TO.N,/TX*%
X9920000Y-14800000D02*
X10310000Y-14800000D01*
X9610000Y-15110000D02*
X9920000Y-14800000D01*
X9610000Y-21310000D02*
X9610000Y-15110000D01*
X9610000Y-27220000D02*
X8495000Y-28335000D01*
X9610000Y-22970000D02*
X9610000Y-27220000D01*
%TO.N,/RX*%
X10310000Y-22970000D02*
X10310000Y-27610000D01*
X10310000Y-27610000D02*
X11035000Y-28335000D01*
X10310000Y-20075000D02*
X10310000Y-21310000D01*
D33*
%TO.N,+5VA*%
X7370000Y-32290000D02*
X7370000Y-34995000D01*
X9825000Y-34995000D02*
X8400000Y-34995000D01*
X8400000Y-34995000D02*
X7370000Y-34995000D01*
X6700999Y-46720999D02*
X6700999Y-38177927D01*
X6444000Y-37920928D02*
X6444000Y-35921000D01*
X7140000Y-47160000D02*
X6700999Y-46720999D01*
X6444000Y-35921000D02*
X7370000Y-34995000D01*
X5955000Y-30875000D02*
X7370000Y-32290000D01*
X8490000Y-47160000D02*
X7140000Y-47160000D01*
X6700999Y-38177927D02*
X6444000Y-37920928D01*
D35*
%TO.N,Net-(D1-A)*%
X7160000Y-16185000D02*
X7160000Y-13105948D01*
X7160000Y-13105948D02*
X6739052Y-12685000D01*
X5536412Y-12685000D02*
X4787500Y-11936088D01*
X4787500Y-11936088D02*
X4787500Y-9520000D01*
X6335000Y-17010000D02*
X7160000Y-16185000D01*
X6739052Y-12685000D02*
X5536412Y-12685000D01*
D34*
%TO.N,Net-(D4-K)*%
X18255000Y-14740000D02*
X19140000Y-14740000D01*
X19140000Y-14740000D02*
X19812500Y-14067500D01*
X19812500Y-14067500D02*
X19812500Y-9520000D01*
D33*
%TO.N,Net-(F1-Pad1)*%
X6520000Y-9870000D02*
X9000000Y-9870000D01*
X6022500Y-10367500D02*
X6520000Y-9870000D01*
X6022500Y-11660000D02*
X6022500Y-10367500D01*
X9900000Y-8950000D02*
X9910000Y-8960000D01*
X9000000Y-9870000D02*
X9910000Y-8960000D01*
X9900000Y-7625000D02*
X9900000Y-8950000D01*
X14700000Y-8960000D02*
X14700000Y-7625000D01*
D34*
%TO.N,/LED*%
X16115000Y-28335000D02*
X16115000Y-23425000D01*
X16660000Y-22880000D02*
X20000000Y-22880000D01*
X16115000Y-23425000D02*
X16660000Y-22880000D01*
X21240000Y-9907500D02*
X21120000Y-9787500D01*
X21240000Y-21640000D02*
X21240000Y-9907500D01*
X20000000Y-22880000D02*
X21240000Y-21640000D01*
D36*
%TO.N,/UD+*%
X11540205Y-13109795D02*
X11350000Y-12919590D01*
X11350000Y-12919590D02*
X11350000Y-12187500D01*
X14310000Y-13480000D02*
X14310000Y-14800000D01*
%TO.N,/UD-*%
X13250000Y-12187500D02*
X13250000Y-14740000D01*
D34*
%TO.N,/PA0*%
X14585085Y-45176999D02*
X16035959Y-45176999D01*
X12860000Y-31590000D02*
X13575000Y-30875000D01*
X14127999Y-55337999D02*
X14128000Y-48685916D01*
X14128000Y-48685916D02*
X14127000Y-48684916D01*
X13210000Y-40070000D02*
X12860000Y-39720000D01*
X16490000Y-44722958D02*
X16490000Y-40520000D01*
X16035959Y-45176999D02*
X16490000Y-44722958D01*
X16490000Y-40520000D02*
X16040000Y-40070000D01*
X16110000Y-57320000D02*
X14127999Y-55337999D01*
X12860000Y-39720000D02*
X12860000Y-31590000D01*
X16040000Y-40070000D02*
X14775000Y-40070000D01*
X14127000Y-48684916D02*
X14127000Y-45635084D01*
X14127000Y-45635084D02*
X14585085Y-45176999D01*
X14775000Y-40070000D02*
X13210000Y-40070000D01*
%TO.N,/PA4*%
X11282035Y-40410000D02*
X11282035Y-37764713D01*
X10950000Y-36260000D02*
X9825000Y-36260000D01*
X11282035Y-37764713D02*
X11280000Y-37762678D01*
X11270000Y-58778471D02*
X8987471Y-61061000D01*
X7289000Y-50901000D02*
X8490000Y-49700000D01*
X10865000Y-43400000D02*
X10865000Y-44935000D01*
X7992529Y-61061000D02*
X7289000Y-60357471D01*
X11270000Y-45340000D02*
X11270000Y-58778471D01*
X11280000Y-37762678D02*
X11280000Y-36590000D01*
X8987471Y-61061000D02*
X7992529Y-61061000D01*
X11280000Y-36590000D02*
X10950000Y-36260000D01*
X7289000Y-60357471D02*
X7289000Y-50901000D01*
X10865000Y-44935000D02*
X11270000Y-45340000D01*
%TO.N,/PB3*%
X8490000Y-59860000D02*
X10873001Y-57476999D01*
X8560000Y-41340000D02*
X9825000Y-41340000D01*
X9770000Y-32150000D02*
X8495000Y-30875000D01*
X11210000Y-41340000D02*
X11909000Y-40641000D01*
X9825000Y-41340000D02*
X11210000Y-41340000D01*
X8364999Y-44414999D02*
X8364999Y-41535001D01*
X11350000Y-32150000D02*
X9770000Y-32150000D01*
X11909000Y-40641000D02*
X11909000Y-32709000D01*
X10873001Y-57476999D02*
X10873001Y-45564127D01*
X10094871Y-44785997D02*
X8735999Y-44785999D01*
X8735999Y-44785999D02*
X8364999Y-44414999D01*
X11909000Y-32709000D02*
X11350000Y-32150000D01*
X8364999Y-41535001D02*
X8560000Y-41340000D01*
X10873001Y-45564127D02*
X10094871Y-44785997D01*
%TO.N,/PA5*%
X9609000Y-45959000D02*
X8250126Y-45959000D01*
X9700000Y-46050000D02*
X9609000Y-45959000D01*
X7191999Y-44253039D02*
X7191999Y-38908001D01*
X8490000Y-52240000D02*
X9700000Y-51030000D01*
X8570000Y-37530000D02*
X9825000Y-37530000D01*
X9700000Y-51030000D02*
X9700000Y-46050000D01*
X7191996Y-44900869D02*
X7191999Y-44253039D01*
X7191999Y-38908001D02*
X8570000Y-37530000D01*
X8250126Y-45959000D02*
X7191996Y-44900869D01*
%TO.N,/PB2*%
X11661000Y-59229000D02*
X8490000Y-62400000D01*
X11440000Y-42610000D02*
X12300000Y-41750000D01*
X12300000Y-41750000D02*
X12300000Y-32140000D01*
X11661000Y-45178042D02*
X11661000Y-59229000D01*
X9825000Y-42610000D02*
X11440000Y-42610000D01*
X11440000Y-44957042D02*
X11661000Y-45178042D01*
X12300000Y-32140000D02*
X11035000Y-30875000D01*
X11440000Y-42610000D02*
X11440000Y-44957042D01*
%TO.N,/PB0*%
X13736999Y-57486999D02*
X13737000Y-48847874D01*
X14423127Y-44785999D02*
X15874001Y-44785999D01*
X16020000Y-41340000D02*
X14775000Y-41340000D01*
X13736000Y-45473126D02*
X14423127Y-44785999D01*
X13735999Y-48846873D02*
X13736000Y-45473126D01*
X15874001Y-44785999D02*
X16100000Y-44560000D01*
X16100000Y-41420000D02*
X16020000Y-41340000D01*
X16100000Y-44560000D02*
X16100000Y-41420000D01*
X13737000Y-48847874D02*
X13735999Y-48846873D01*
X16110000Y-59860000D02*
X13736999Y-57486999D01*
%TO.N,/PB1*%
X12170000Y-58460000D02*
X12170000Y-43960000D01*
X13520000Y-42610000D02*
X14775000Y-42610000D01*
X16110000Y-62400000D02*
X12170000Y-58460000D01*
X12170000Y-43960000D02*
X13520000Y-42610000D01*
%TD*%
%TA.AperFunction,NonConductor*%
G36*
X16096520Y-5795185D02*
G01*
X16142275Y-5847989D01*
X16152219Y-5917147D01*
X16123194Y-5980703D01*
X16117162Y-5987181D01*
X16075888Y-6028454D01*
X16075885Y-6028458D01*
X15999228Y-6143182D01*
X15999221Y-6143195D01*
X15946421Y-6270667D01*
X15946418Y-6270676D01*
X15932929Y-6338489D01*
X15900543Y-6400400D01*
X15839827Y-6434973D01*
X15770057Y-6431232D01*
X15713386Y-6390365D01*
X15691538Y-6346390D01*
X15679688Y-6302164D01*
X15629085Y-6214516D01*
X15610507Y-6182338D01*
X15610503Y-6182333D01*
X15512666Y-6084496D01*
X15512661Y-6084492D01*
X15392836Y-6015312D01*
X15389818Y-6014062D01*
X15387662Y-6012324D01*
X15385797Y-6011248D01*
X15385964Y-6010957D01*
X15335413Y-5970222D01*
X15313347Y-5903928D01*
X15330625Y-5836229D01*
X15381761Y-5788617D01*
X15437268Y-5775500D01*
X16029481Y-5775500D01*
X16096520Y-5795185D01*
G37*
%TD.AperFunction*%
%TA.AperFunction,NonConductor*%
G36*
X13603566Y-5325185D02*
G01*
X13649321Y-5377989D01*
X13659265Y-5447147D01*
X13630240Y-5510703D01*
X13624208Y-5517181D01*
X13273532Y-5867856D01*
X13273530Y-5867858D01*
X13237141Y-5930888D01*
X13228046Y-5946642D01*
X13204500Y-6034514D01*
X13204500Y-6034516D01*
X13204500Y-6071527D01*
X13184815Y-6138566D01*
X13132011Y-6184321D01*
X13062853Y-6194265D01*
X13004313Y-6167530D01*
X13003587Y-6168477D01*
X12999474Y-6165320D01*
X12999297Y-6165240D01*
X12998961Y-6164927D01*
X12997141Y-6163530D01*
X12933247Y-6126642D01*
X12918358Y-6118046D01*
X12830486Y-6094500D01*
X12269514Y-6094500D01*
X12181642Y-6118046D01*
X12181640Y-6118046D01*
X12181640Y-6118047D01*
X12102858Y-6163530D01*
X11773530Y-6492858D01*
X11728047Y-6571640D01*
X11728046Y-6571642D01*
X11704500Y-6659514D01*
X11704500Y-6659516D01*
X11704500Y-6660500D01*
X11704264Y-6661300D01*
X11703439Y-6667573D01*
X11702460Y-6667444D01*
X11684815Y-6727539D01*
X11632011Y-6773294D01*
X11580501Y-6784500D01*
X11378282Y-6784500D01*
X11378281Y-6784501D01*
X11313960Y-6797293D01*
X11306387Y-6800430D01*
X11256164Y-6809835D01*
X11245350Y-6809592D01*
X11219748Y-6804500D01*
X11018105Y-6804500D01*
X11016722Y-6804469D01*
X10984691Y-6794278D01*
X10952461Y-6784815D01*
X10951516Y-6783724D01*
X10950140Y-6783287D01*
X10928698Y-6757391D01*
X10906706Y-6732011D01*
X10906357Y-6730410D01*
X10905580Y-6729471D01*
X10904861Y-6723532D01*
X10895500Y-6680500D01*
X10895500Y-6454473D01*
X10915185Y-6387434D01*
X10931819Y-6366792D01*
X11956792Y-5341819D01*
X12018115Y-5308334D01*
X12044473Y-5305500D01*
X13536527Y-5305500D01*
X13603566Y-5325185D01*
G37*
%TD.AperFunction*%
%TA.AperFunction,NonConductor*%
G36*
X15009771Y-5795185D02*
G01*
X15055526Y-5847989D01*
X15065470Y-5917147D01*
X15036445Y-5980703D01*
X14994168Y-6011187D01*
X14994203Y-6011248D01*
X14993608Y-6011591D01*
X14990182Y-6014062D01*
X14987163Y-6015312D01*
X14867338Y-6084492D01*
X14867333Y-6084496D01*
X14769496Y-6182333D01*
X14769492Y-6182338D01*
X14700313Y-6302161D01*
X14700313Y-6302162D01*
X14700312Y-6302164D01*
X14664500Y-6435817D01*
X14664500Y-6574183D01*
X14684388Y-6648409D01*
X14682726Y-6718256D01*
X14643564Y-6776119D01*
X14579336Y-6803623D01*
X14564614Y-6804500D01*
X14380252Y-6804500D01*
X14324190Y-6815651D01*
X14275810Y-6815651D01*
X14219748Y-6804500D01*
X14019500Y-6804500D01*
X13952461Y-6784815D01*
X13906706Y-6732011D01*
X13895500Y-6680500D01*
X13895500Y-6274473D01*
X13915185Y-6207434D01*
X13931819Y-6186792D01*
X14306792Y-5811819D01*
X14368115Y-5778334D01*
X14394473Y-5775500D01*
X14942732Y-5775500D01*
X15009771Y-5795185D01*
G37*
%TD.AperFunction*%
%TA.AperFunction,NonConductor*%
G36*
X10854638Y-8440405D02*
G01*
X10880252Y-8445500D01*
X11081896Y-8445500D01*
X11083279Y-8445531D01*
X11115321Y-8455724D01*
X11147539Y-8465185D01*
X11148483Y-8466274D01*
X11149861Y-8466713D01*
X11171315Y-8492624D01*
X11193294Y-8517989D01*
X11193499Y-8519416D01*
X11194421Y-8520530D01*
X11204500Y-8569500D01*
X11204500Y-8916479D01*
X11184815Y-8983518D01*
X11132011Y-9029273D01*
X11098379Y-9039183D01*
X11092823Y-9039992D01*
X10981731Y-9094301D01*
X10894301Y-9181731D01*
X10839992Y-9292822D01*
X10829500Y-9364838D01*
X10829500Y-10460166D01*
X10829825Y-10464641D01*
X10828122Y-10464764D01*
X10819306Y-10526823D01*
X10773640Y-10579703D01*
X10706633Y-10599500D01*
X8448191Y-10599500D01*
X8333614Y-10630201D01*
X8333612Y-10630201D01*
X8333612Y-10630202D01*
X8308846Y-10644499D01*
X8308847Y-10644500D01*
X8230889Y-10689508D01*
X8230884Y-10689512D01*
X8197216Y-10723181D01*
X8135893Y-10756666D01*
X8109535Y-10759500D01*
X7600232Y-10759500D01*
X7570230Y-10762313D01*
X7570218Y-10762315D01*
X7443821Y-10806544D01*
X7443819Y-10806545D01*
X7336069Y-10886069D01*
X7256545Y-10993819D01*
X7256544Y-10993821D01*
X7212315Y-11120218D01*
X7212313Y-11120230D01*
X7209500Y-11150231D01*
X7209500Y-12169768D01*
X7212313Y-12199769D01*
X7212315Y-12199781D01*
X7256544Y-12326178D01*
X7256545Y-12326180D01*
X7336069Y-12433930D01*
X7391575Y-12474895D01*
X7434134Y-12506306D01*
X7476384Y-12561953D01*
X7484500Y-12606075D01*
X7484500Y-12670759D01*
X7464815Y-12737798D01*
X7412011Y-12783553D01*
X7342853Y-12793497D01*
X7279297Y-12764472D01*
X7272819Y-12758440D01*
X6938916Y-12424537D01*
X6938914Y-12424535D01*
X6901802Y-12403108D01*
X6864692Y-12381682D01*
X6792035Y-12362214D01*
X6732375Y-12325848D01*
X6701846Y-12263001D01*
X6706596Y-12207263D01*
X6706075Y-12207150D01*
X6706946Y-12203158D01*
X6707090Y-12201478D01*
X6707685Y-12199777D01*
X6707685Y-12199776D01*
X6707686Y-12199774D01*
X6710500Y-12169764D01*
X6710500Y-11150236D01*
X6709400Y-11138510D01*
X6708527Y-11129197D01*
X6707686Y-11120226D01*
X6707684Y-11120222D01*
X6707684Y-11120218D01*
X6663455Y-10993821D01*
X6663454Y-10993819D01*
X6583929Y-10886069D01*
X6523365Y-10841369D01*
X6520343Y-10837389D01*
X6515797Y-10835313D01*
X6499424Y-10809836D01*
X6481115Y-10785721D01*
X6479987Y-10779592D01*
X6478023Y-10776535D01*
X6473000Y-10741600D01*
X6473000Y-10605465D01*
X6492685Y-10538426D01*
X6509319Y-10517784D01*
X6670284Y-10356819D01*
X6731607Y-10323334D01*
X6757965Y-10320500D01*
X9059308Y-10320500D01*
X9059309Y-10320500D01*
X9149673Y-10296286D01*
X9173887Y-10289799D01*
X9276614Y-10230489D01*
X9964137Y-9542964D01*
X10019726Y-9510871D01*
X10126342Y-9482304D01*
X10126342Y-9482303D01*
X10126345Y-9482303D01*
X10254155Y-9408512D01*
X10358512Y-9304155D01*
X10432303Y-9176345D01*
X10470500Y-9033791D01*
X10470500Y-8886209D01*
X10432303Y-8743655D01*
X10379094Y-8651495D01*
X10362623Y-8583600D01*
X10385475Y-8517573D01*
X10440396Y-8474382D01*
X10486479Y-8465499D01*
X10721718Y-8465499D01*
X10786035Y-8452707D01*
X10786040Y-8452703D01*
X10793599Y-8449573D01*
X10801778Y-8448693D01*
X10808797Y-8444402D01*
X10843835Y-8440163D01*
X10854638Y-8440405D01*
G37*
%TD.AperFunction*%
%TA.AperFunction,NonConductor*%
G36*
X10773465Y-11520185D02*
G01*
X10819220Y-11572989D01*
X10828172Y-11635248D01*
X10829824Y-11635368D01*
X10829500Y-11639836D01*
X10829500Y-12735165D01*
X10835687Y-12777622D01*
X10825874Y-12846799D01*
X10780219Y-12899689D01*
X10713217Y-12919500D01*
X8509500Y-12919500D01*
X8500814Y-12916949D01*
X8491853Y-12918238D01*
X8467812Y-12907259D01*
X8442461Y-12899815D01*
X8436533Y-12892974D01*
X8428297Y-12889213D01*
X8414007Y-12866978D01*
X8396706Y-12847011D01*
X8394418Y-12836496D01*
X8390523Y-12830435D01*
X8385500Y-12795500D01*
X8385500Y-12550721D01*
X8405185Y-12483682D01*
X8435862Y-12450954D01*
X8458930Y-12433930D01*
X8538455Y-12326179D01*
X8567797Y-12242324D01*
X8582684Y-12199781D01*
X8582685Y-12199777D01*
X8582686Y-12199774D01*
X8585500Y-12169764D01*
X8585500Y-11660465D01*
X8594144Y-11631024D01*
X8600668Y-11601038D01*
X8604422Y-11596022D01*
X8605185Y-11593426D01*
X8621819Y-11572784D01*
X8657784Y-11536819D01*
X8719107Y-11503334D01*
X8745465Y-11500500D01*
X10706426Y-11500500D01*
X10773465Y-11520185D01*
G37*
%TD.AperFunction*%
%TA.AperFunction,NonConductor*%
G36*
X10826974Y-15690476D02*
G01*
X10853334Y-15692362D01*
X10862387Y-15698180D01*
X10869427Y-15699712D01*
X10897681Y-15720863D01*
X10953514Y-15776696D01*
X10953515Y-15776696D01*
X10953517Y-15776698D01*
X11058607Y-15828073D01*
X11092673Y-15833036D01*
X11126739Y-15838000D01*
X11126740Y-15838000D01*
X11493261Y-15838000D01*
X11517858Y-15834416D01*
X11561393Y-15828073D01*
X11666483Y-15776698D01*
X11666483Y-15776697D01*
X11675714Y-15772185D01*
X11676724Y-15774252D01*
X11729440Y-15755931D01*
X11797361Y-15772316D01*
X11845642Y-15822821D01*
X11859500Y-15879783D01*
X11859500Y-16063000D01*
X11839815Y-16130039D01*
X11787011Y-16175794D01*
X11735500Y-16187000D01*
X10640247Y-16187000D01*
X10581770Y-16198631D01*
X10581769Y-16198632D01*
X10515447Y-16242947D01*
X10471132Y-16309269D01*
X10471131Y-16309270D01*
X10459500Y-16367747D01*
X10459500Y-18507252D01*
X10471131Y-18565729D01*
X10471132Y-18565730D01*
X10515447Y-18632052D01*
X10581769Y-18676367D01*
X10581770Y-18676368D01*
X10640247Y-18687999D01*
X10640250Y-18688000D01*
X10640252Y-18688000D01*
X13064457Y-18688000D01*
X13131496Y-18707685D01*
X13177251Y-18760489D01*
X13187195Y-18829647D01*
X13158170Y-18893203D01*
X13152138Y-18899681D01*
X13029531Y-19022287D01*
X13029525Y-19022295D01*
X13017199Y-19043644D01*
X12990108Y-19076134D01*
X12978249Y-19086210D01*
X12953517Y-19098302D01*
X12894127Y-19157691D01*
X12890294Y-19160949D01*
X12862781Y-19173193D01*
X12836357Y-19187622D01*
X12831192Y-19187252D01*
X12826460Y-19189359D01*
X12796692Y-19184784D01*
X12766666Y-19182637D01*
X12761622Y-19179395D01*
X12757401Y-19178747D01*
X12748831Y-19171175D01*
X12722319Y-19154137D01*
X12666485Y-19098303D01*
X12659499Y-19094888D01*
X12561393Y-19046927D01*
X12561391Y-19046926D01*
X12493261Y-19037000D01*
X12493260Y-19037000D01*
X12126740Y-19037000D01*
X12126739Y-19037000D01*
X12058608Y-19046926D01*
X11953514Y-19098303D01*
X11897681Y-19154137D01*
X11836358Y-19187622D01*
X11766666Y-19182638D01*
X11722319Y-19154137D01*
X11666485Y-19098303D01*
X11659499Y-19094888D01*
X11561393Y-19046927D01*
X11561391Y-19046926D01*
X11493261Y-19037000D01*
X11493260Y-19037000D01*
X11126740Y-19037000D01*
X11126739Y-19037000D01*
X11058608Y-19046926D01*
X10953514Y-19098303D01*
X10897681Y-19154137D01*
X10836358Y-19187622D01*
X10766666Y-19182638D01*
X10722319Y-19154137D01*
X10666485Y-19098303D01*
X10659499Y-19094888D01*
X10561393Y-19046927D01*
X10561391Y-19046926D01*
X10493261Y-19037000D01*
X10493260Y-19037000D01*
X10126740Y-19037000D01*
X10102375Y-19040549D01*
X10033199Y-19030735D01*
X9980310Y-18985079D01*
X9960500Y-18918076D01*
X9960500Y-15957154D01*
X9980185Y-15890115D01*
X10032989Y-15844360D01*
X10102144Y-15834416D01*
X10126740Y-15838000D01*
X10126742Y-15838000D01*
X10493261Y-15838000D01*
X10517858Y-15834416D01*
X10561393Y-15828073D01*
X10666483Y-15776698D01*
X10694033Y-15749148D01*
X10722319Y-15720863D01*
X10730264Y-15716524D01*
X10735690Y-15709277D01*
X10760449Y-15700042D01*
X10783642Y-15687378D01*
X10792671Y-15688023D01*
X10801154Y-15684860D01*
X10826974Y-15690476D01*
G37*
%TD.AperFunction*%
%TA.AperFunction,NonConductor*%
G36*
X15683834Y-26824361D02*
G01*
X15739767Y-26866233D01*
X15764184Y-26931697D01*
X15764500Y-26940543D01*
X15764500Y-27260274D01*
X15744815Y-27327313D01*
X15692011Y-27373068D01*
X15687954Y-27374835D01*
X15617401Y-27404059D01*
X15617395Y-27404062D01*
X15445344Y-27519022D01*
X15299024Y-27665342D01*
X15184058Y-27837403D01*
X15104870Y-28028579D01*
X15104868Y-28028587D01*
X15064500Y-28231530D01*
X15064500Y-28438469D01*
X15104868Y-28641412D01*
X15104870Y-28641420D01*
X15184058Y-28832596D01*
X15299024Y-29004657D01*
X15445342Y-29150975D01*
X15478151Y-29172897D01*
X15522957Y-29226509D01*
X15531664Y-29295834D01*
X15501510Y-29358862D01*
X15442067Y-29395582D01*
X15409261Y-29400000D01*
X14280739Y-29400000D01*
X14213700Y-29380315D01*
X14167945Y-29327511D01*
X14158001Y-29258353D01*
X14187026Y-29194797D01*
X14211849Y-29172897D01*
X14244655Y-29150977D01*
X14390977Y-29004655D01*
X14505941Y-28832598D01*
X14585130Y-28641420D01*
X14625500Y-28438465D01*
X14625500Y-28231535D01*
X14585130Y-28028580D01*
X14555906Y-27958028D01*
X14548437Y-27888559D01*
X14579712Y-27826079D01*
X14582756Y-27822924D01*
X15552820Y-26852861D01*
X15614142Y-26819377D01*
X15683834Y-26824361D01*
G37*
%TD.AperFunction*%
%TA.AperFunction,NonConductor*%
G36*
X11943562Y-21048657D02*
G01*
X11944283Y-21047184D01*
X11953516Y-21051697D01*
X11953517Y-21051698D01*
X11964271Y-21056955D01*
X12015854Y-21104080D01*
X12017201Y-21106357D01*
X12029527Y-21127707D01*
X12029531Y-21127712D01*
X12327354Y-21425534D01*
X12360839Y-21486857D01*
X12355855Y-21556548D01*
X12327355Y-21600895D01*
X12291476Y-21636774D01*
X12291473Y-21636778D01*
X12230279Y-21756878D01*
X12214500Y-21856506D01*
X12214500Y-22423493D01*
X12230279Y-22523121D01*
X12230280Y-22523124D01*
X12230281Y-22523126D01*
X12264610Y-22590500D01*
X12291473Y-22643221D01*
X12291476Y-22643225D01*
X12386774Y-22738523D01*
X12386778Y-22738526D01*
X12386780Y-22738528D01*
X12506874Y-22799719D01*
X12506876Y-22799719D01*
X12506878Y-22799720D01*
X12606507Y-22815500D01*
X12606512Y-22815500D01*
X12897035Y-22815500D01*
X12926475Y-22824144D01*
X12956462Y-22830668D01*
X12961477Y-22834422D01*
X12964074Y-22835185D01*
X12984716Y-22851819D01*
X13067034Y-22934137D01*
X13099128Y-22989724D01*
X13127697Y-23096346D01*
X13127698Y-23096347D01*
X13201488Y-23224155D01*
X13305845Y-23328512D01*
X13433655Y-23402303D01*
X13576209Y-23440500D01*
X13576211Y-23440500D01*
X13723789Y-23440500D01*
X13723791Y-23440500D01*
X13866345Y-23402303D01*
X13994155Y-23328512D01*
X14098512Y-23224155D01*
X14172303Y-23096345D01*
X14210500Y-22953791D01*
X14210500Y-22806209D01*
X14172303Y-22663655D01*
X14098512Y-22535845D01*
X13994155Y-22431488D01*
X13866347Y-22357698D01*
X13866346Y-22357697D01*
X13759724Y-22329128D01*
X13745836Y-22321109D01*
X13732391Y-22318185D01*
X13704137Y-22297034D01*
X13551819Y-22144716D01*
X13518334Y-22083393D01*
X13515500Y-22057035D01*
X13515500Y-21856511D01*
X13507959Y-21808897D01*
X13516915Y-21739603D01*
X13561912Y-21686152D01*
X13628663Y-21665513D01*
X13630433Y-21665500D01*
X13905491Y-21665500D01*
X13972530Y-21685185D01*
X13993172Y-21701819D01*
X14451823Y-22160470D01*
X14531747Y-22206614D01*
X14620891Y-22230500D01*
X14620892Y-22230500D01*
X14713179Y-22230500D01*
X15804457Y-22230500D01*
X15871496Y-22250185D01*
X15917251Y-22302989D01*
X15927195Y-22372147D01*
X15898170Y-22435703D01*
X15892138Y-22442181D01*
X15339532Y-22994785D01*
X15339528Y-22994791D01*
X15293554Y-23074418D01*
X15293555Y-23074419D01*
X15293384Y-23074714D01*
X15269500Y-23163856D01*
X15269500Y-26093455D01*
X15249815Y-26160494D01*
X15233181Y-26181136D01*
X14087103Y-27327213D01*
X14025780Y-27360698D01*
X13956088Y-27355714D01*
X13951990Y-27354101D01*
X13881420Y-27324870D01*
X13881412Y-27324868D01*
X13678469Y-27284500D01*
X13678465Y-27284500D01*
X13471535Y-27284500D01*
X13471530Y-27284500D01*
X13268587Y-27324868D01*
X13268579Y-27324870D01*
X13077403Y-27404058D01*
X12905342Y-27519024D01*
X12759024Y-27665342D01*
X12644058Y-27837403D01*
X12564870Y-28028579D01*
X12564868Y-28028587D01*
X12524500Y-28231530D01*
X12524500Y-28438469D01*
X12564868Y-28641412D01*
X12564870Y-28641420D01*
X12644058Y-28832596D01*
X12759024Y-29004657D01*
X12905342Y-29150975D01*
X12938151Y-29172897D01*
X12982957Y-29226509D01*
X12991664Y-29295834D01*
X12961510Y-29358862D01*
X12902067Y-29395582D01*
X12869261Y-29400000D01*
X11740739Y-29400000D01*
X11673700Y-29380315D01*
X11627945Y-29327511D01*
X11618001Y-29258353D01*
X11647026Y-29194797D01*
X11671849Y-29172897D01*
X11704655Y-29150977D01*
X11850977Y-29004655D01*
X11965941Y-28832598D01*
X12045130Y-28641420D01*
X12085500Y-28438465D01*
X12085500Y-28231535D01*
X12045130Y-28028580D01*
X11965941Y-27837402D01*
X11850977Y-27665345D01*
X11850975Y-27665342D01*
X11704657Y-27519024D01*
X11579222Y-27435212D01*
X11532598Y-27404059D01*
X11485499Y-27384550D01*
X11341420Y-27324870D01*
X11341412Y-27324868D01*
X11138469Y-27284500D01*
X11138465Y-27284500D01*
X10931535Y-27284500D01*
X10931530Y-27284500D01*
X10808691Y-27308934D01*
X10739099Y-27302707D01*
X10683922Y-27259843D01*
X10660678Y-27193953D01*
X10660500Y-27187317D01*
X10660500Y-23317142D01*
X10677113Y-23255142D01*
X10695003Y-23224156D01*
X10739118Y-23147747D01*
X10770500Y-23030626D01*
X10770500Y-22909374D01*
X10770500Y-22907105D01*
X10790185Y-22840066D01*
X10842989Y-22794311D01*
X10912147Y-22784367D01*
X10950790Y-22796619D01*
X10956874Y-22799719D01*
X10956878Y-22799719D01*
X10956879Y-22799720D01*
X11056507Y-22815500D01*
X11056512Y-22815500D01*
X11573493Y-22815500D01*
X11673121Y-22799720D01*
X11673121Y-22799719D01*
X11673126Y-22799719D01*
X11793220Y-22738528D01*
X11888528Y-22643220D01*
X11949719Y-22523126D01*
X11959688Y-22460185D01*
X11965500Y-22423493D01*
X11965500Y-21856506D01*
X11949720Y-21756878D01*
X11949719Y-21756876D01*
X11949719Y-21756874D01*
X11888528Y-21636780D01*
X11888526Y-21636778D01*
X11888523Y-21636774D01*
X11796819Y-21545070D01*
X11763334Y-21483747D01*
X11760500Y-21457389D01*
X11760500Y-21154783D01*
X11780185Y-21087744D01*
X11832989Y-21041989D01*
X11902147Y-21032045D01*
X11943562Y-21048657D01*
G37*
%TD.AperFunction*%
%TA.AperFunction,NonConductor*%
G36*
X9851196Y-27547226D02*
G01*
X9878981Y-27549213D01*
X9885032Y-27553743D01*
X9892455Y-27555173D01*
X9912616Y-27574392D01*
X9934914Y-27591085D01*
X9937952Y-27598545D01*
X9943027Y-27603383D01*
X9956148Y-27636148D01*
X9959500Y-27649959D01*
X9959500Y-27656144D01*
X9975063Y-27714225D01*
X9975426Y-27715583D01*
X9975439Y-27715633D01*
X9983385Y-27745286D01*
X10029527Y-27825208D01*
X10034476Y-27831657D01*
X10032729Y-27832997D01*
X10060698Y-27884218D01*
X10055714Y-27953910D01*
X10054093Y-27958028D01*
X10024871Y-28028575D01*
X10024868Y-28028587D01*
X9984500Y-28231530D01*
X9984500Y-28438469D01*
X10024868Y-28641412D01*
X10024870Y-28641420D01*
X10104058Y-28832596D01*
X10219024Y-29004657D01*
X10365342Y-29150975D01*
X10398151Y-29172897D01*
X10442957Y-29226509D01*
X10451664Y-29295834D01*
X10421510Y-29358862D01*
X10362067Y-29395582D01*
X10329261Y-29400000D01*
X9200739Y-29400000D01*
X9133700Y-29380315D01*
X9087945Y-29327511D01*
X9078001Y-29258353D01*
X9107026Y-29194797D01*
X9131849Y-29172897D01*
X9164655Y-29150977D01*
X9310977Y-29004655D01*
X9425941Y-28832598D01*
X9505130Y-28641420D01*
X9545500Y-28438465D01*
X9545500Y-28231535D01*
X9505130Y-28028580D01*
X9475906Y-27958028D01*
X9468437Y-27888559D01*
X9499712Y-27826079D01*
X9502754Y-27822926D01*
X9747969Y-27577711D01*
X9754600Y-27574091D01*
X9758985Y-27567933D01*
X9784841Y-27557578D01*
X9809289Y-27544229D01*
X9816829Y-27544768D01*
X9823847Y-27541958D01*
X9851196Y-27547226D01*
G37*
%TD.AperFunction*%
%TA.AperFunction,NonConductor*%
G36*
X9149629Y-22610185D02*
G01*
X9195384Y-22662989D01*
X9205328Y-22732147D01*
X9189977Y-22776500D01*
X9180883Y-22792250D01*
X9180882Y-22792253D01*
X9149500Y-22909374D01*
X9149500Y-23030626D01*
X9167110Y-23096346D01*
X9180882Y-23147746D01*
X9180883Y-23147749D01*
X9242887Y-23255142D01*
X9259500Y-23317142D01*
X9259500Y-27023455D01*
X9239815Y-27090494D01*
X9223181Y-27111136D01*
X9007104Y-27327213D01*
X8945781Y-27360698D01*
X8876089Y-27355714D01*
X8871970Y-27354093D01*
X8801420Y-27324870D01*
X8801412Y-27324868D01*
X8598469Y-27284500D01*
X8598465Y-27284500D01*
X8391535Y-27284500D01*
X8391530Y-27284500D01*
X8188587Y-27324868D01*
X8188579Y-27324870D01*
X7997403Y-27404058D01*
X7825342Y-27519024D01*
X7679024Y-27665342D01*
X7564058Y-27837403D01*
X7484870Y-28028579D01*
X7484868Y-28028587D01*
X7444500Y-28231530D01*
X7444500Y-28438469D01*
X7484868Y-28641412D01*
X7484870Y-28641420D01*
X7564058Y-28832596D01*
X7679024Y-29004657D01*
X7825342Y-29150975D01*
X7858151Y-29172897D01*
X7902957Y-29226509D01*
X7911664Y-29295834D01*
X7881510Y-29358862D01*
X7822067Y-29395582D01*
X7789261Y-29400000D01*
X6660739Y-29400000D01*
X6593700Y-29380315D01*
X6547945Y-29327511D01*
X6538001Y-29258353D01*
X6567026Y-29194797D01*
X6591849Y-29172897D01*
X6624655Y-29150977D01*
X6770977Y-29004655D01*
X6885941Y-28832598D01*
X6965130Y-28641420D01*
X7005500Y-28438465D01*
X7005500Y-28231535D01*
X6965130Y-28028580D01*
X6885941Y-27837402D01*
X6770977Y-27665345D01*
X6770975Y-27665342D01*
X6624655Y-27519022D01*
X6460609Y-27409411D01*
X6415804Y-27355799D01*
X6405500Y-27306309D01*
X6405500Y-25955047D01*
X6425185Y-25888008D01*
X6441819Y-25867366D01*
X6868720Y-25440465D01*
X8300489Y-24008696D01*
X8359799Y-23905969D01*
X8366285Y-23881757D01*
X8366286Y-23881757D01*
X8366286Y-23881753D01*
X8390500Y-23791391D01*
X8390500Y-22714500D01*
X8410185Y-22647461D01*
X8462989Y-22601706D01*
X8514500Y-22590500D01*
X9082590Y-22590500D01*
X9149629Y-22610185D01*
G37*
%TD.AperFunction*%
%TA.AperFunction,NonConductor*%
G36*
X20560118Y-1200500D02*
G01*
X20596521Y-1200500D01*
X20603472Y-1200695D01*
X20906503Y-1217713D01*
X20920301Y-1219267D01*
X21216080Y-1269522D01*
X21229636Y-1272616D01*
X21517927Y-1355672D01*
X21531051Y-1360265D01*
X21808222Y-1475072D01*
X21820744Y-1481101D01*
X22023184Y-1592986D01*
X22083328Y-1626227D01*
X22095102Y-1633625D01*
X22339789Y-1807239D01*
X22350657Y-1815907D01*
X22574352Y-2015815D01*
X22584184Y-2025647D01*
X22784092Y-2249342D01*
X22792763Y-2260214D01*
X22966374Y-2504897D01*
X22973772Y-2516671D01*
X23118894Y-2779248D01*
X23124927Y-2791777D01*
X23239734Y-3068948D01*
X23244327Y-3082072D01*
X23327383Y-3370363D01*
X23330477Y-3383920D01*
X23380730Y-3679689D01*
X23382287Y-3693507D01*
X23399304Y-3996525D01*
X23399499Y-4003478D01*
X23399499Y-29276000D01*
X23379814Y-29343039D01*
X23327010Y-29388794D01*
X23275499Y-29400000D01*
X19360739Y-29400000D01*
X19293700Y-29380315D01*
X19247945Y-29327511D01*
X19238001Y-29258353D01*
X19267026Y-29194797D01*
X19291849Y-29172897D01*
X19324655Y-29150977D01*
X19470977Y-29004655D01*
X19585941Y-28832598D01*
X19665130Y-28641420D01*
X19705500Y-28438465D01*
X19705500Y-28231535D01*
X19665130Y-28028580D01*
X19585941Y-27837402D01*
X19470977Y-27665345D01*
X19470975Y-27665342D01*
X19324657Y-27519024D01*
X19199222Y-27435212D01*
X19152598Y-27404059D01*
X19105499Y-27384550D01*
X18961420Y-27324870D01*
X18961412Y-27324868D01*
X18758469Y-27284500D01*
X18758465Y-27284500D01*
X18551535Y-27284500D01*
X18551530Y-27284500D01*
X18348587Y-27324868D01*
X18348579Y-27324870D01*
X18157403Y-27404058D01*
X17985342Y-27519024D01*
X17839024Y-27665342D01*
X17724058Y-27837403D01*
X17644870Y-28028579D01*
X17644868Y-28028587D01*
X17604500Y-28231530D01*
X17604500Y-28438469D01*
X17644868Y-28641412D01*
X17644870Y-28641420D01*
X17724058Y-28832596D01*
X17839024Y-29004657D01*
X17985342Y-29150975D01*
X18018151Y-29172897D01*
X18062957Y-29226509D01*
X18071664Y-29295834D01*
X18041510Y-29358862D01*
X17982067Y-29395582D01*
X17949261Y-29400000D01*
X16820739Y-29400000D01*
X16753700Y-29380315D01*
X16707945Y-29327511D01*
X16698001Y-29258353D01*
X16727026Y-29194797D01*
X16751849Y-29172897D01*
X16784655Y-29150977D01*
X16930977Y-29004655D01*
X17045941Y-28832598D01*
X17125130Y-28641420D01*
X17165500Y-28438465D01*
X17165500Y-28231535D01*
X17125130Y-28028580D01*
X17045941Y-27837402D01*
X16930977Y-27665345D01*
X16930975Y-27665342D01*
X16784655Y-27519022D01*
X16612604Y-27404062D01*
X16612598Y-27404059D01*
X16612596Y-27404058D01*
X16542045Y-27374834D01*
X16487643Y-27330993D01*
X16465579Y-27264699D01*
X16465500Y-27260274D01*
X16465500Y-23621543D01*
X16485185Y-23554504D01*
X16501819Y-23533862D01*
X16768862Y-23266819D01*
X16830185Y-23233334D01*
X16856543Y-23230500D01*
X20046142Y-23230500D01*
X20046144Y-23230500D01*
X20135288Y-23206614D01*
X20145912Y-23200480D01*
X20215212Y-23160470D01*
X21520470Y-21855212D01*
X21566614Y-21775288D01*
X21590500Y-21686144D01*
X21590500Y-21593856D01*
X21590500Y-10309127D01*
X21610185Y-10242088D01*
X21662989Y-10196333D01*
X21695103Y-10186654D01*
X21737416Y-10179952D01*
X21737417Y-10179951D01*
X21737420Y-10179951D01*
X21855751Y-10119658D01*
X21949658Y-10025751D01*
X22009951Y-9907420D01*
X22009951Y-9907418D01*
X22009952Y-9907417D01*
X22025500Y-9809251D01*
X22025500Y-9230748D01*
X22009952Y-9132582D01*
X21993428Y-9100152D01*
X21949658Y-9014249D01*
X21949654Y-9014245D01*
X21949653Y-9014243D01*
X21855756Y-8920346D01*
X21855753Y-8920344D01*
X21855751Y-8920342D01*
X21737420Y-8860049D01*
X21737419Y-8860048D01*
X21737416Y-8860047D01*
X21737417Y-8860047D01*
X21639251Y-8844500D01*
X21639246Y-8844500D01*
X21135754Y-8844500D01*
X21135749Y-8844500D01*
X21037582Y-8860047D01*
X20986238Y-8886209D01*
X20919249Y-8920342D01*
X20919248Y-8920343D01*
X20919243Y-8920346D01*
X20825346Y-9014243D01*
X20825343Y-9014248D01*
X20825342Y-9014249D01*
X20805366Y-9053454D01*
X20765047Y-9132582D01*
X20749500Y-9230748D01*
X20749500Y-9809251D01*
X20765047Y-9907417D01*
X20765049Y-9907420D01*
X20825342Y-10025751D01*
X20853181Y-10053590D01*
X20886666Y-10114911D01*
X20889500Y-10141271D01*
X20889500Y-17081956D01*
X20869815Y-17148995D01*
X20817011Y-17194750D01*
X20747853Y-17204694D01*
X20684297Y-17175669D01*
X20677819Y-17169637D01*
X20431819Y-16923637D01*
X20398334Y-16862314D01*
X20395500Y-16835956D01*
X20395500Y-16165730D01*
X20392646Y-16135300D01*
X20392646Y-16135298D01*
X20358533Y-16037810D01*
X20347793Y-16007118D01*
X20267150Y-15897850D01*
X20157882Y-15817207D01*
X20157880Y-15817206D01*
X20029700Y-15772353D01*
X19999270Y-15769500D01*
X19999266Y-15769500D01*
X19365734Y-15769500D01*
X19365730Y-15769500D01*
X19335300Y-15772353D01*
X19335298Y-15772353D01*
X19207119Y-15817206D01*
X19207117Y-15817207D01*
X19097850Y-15897850D01*
X19017207Y-16007117D01*
X19017206Y-16007119D01*
X18972353Y-16135298D01*
X18972353Y-16135300D01*
X18969500Y-16165730D01*
X18969500Y-17174269D01*
X18972353Y-17204699D01*
X18972353Y-17204701D01*
X19011481Y-17316518D01*
X19017207Y-17332882D01*
X19097850Y-17442150D01*
X19207118Y-17522793D01*
X19249845Y-17537744D01*
X19335299Y-17567646D01*
X19365730Y-17570500D01*
X19365734Y-17570500D01*
X19999265Y-17570500D01*
X19999266Y-17570500D01*
X20021728Y-17568393D01*
X20090311Y-17581730D01*
X20120988Y-17604170D01*
X20353181Y-17836363D01*
X20367884Y-17863290D01*
X20384477Y-17889109D01*
X20385368Y-17895309D01*
X20386666Y-17897686D01*
X20389500Y-17924044D01*
X20389500Y-18052668D01*
X20369815Y-18119707D01*
X20317011Y-18165462D01*
X20247853Y-18175406D01*
X20241310Y-18174286D01*
X20217248Y-18169500D01*
X18977752Y-18169500D01*
X18977747Y-18169500D01*
X18919270Y-18181131D01*
X18919269Y-18181132D01*
X18852947Y-18225447D01*
X18808632Y-18291769D01*
X18808631Y-18291770D01*
X18797000Y-18350247D01*
X18797000Y-19589752D01*
X18808631Y-19648229D01*
X18808632Y-19648230D01*
X18852947Y-19714552D01*
X18919269Y-19758867D01*
X18919270Y-19758868D01*
X18977747Y-19770499D01*
X18977750Y-19770500D01*
X18977752Y-19770500D01*
X19655500Y-19770500D01*
X19722539Y-19790185D01*
X19768294Y-19842989D01*
X19779500Y-19894500D01*
X19779500Y-20404455D01*
X19759815Y-20471494D01*
X19707011Y-20517249D01*
X19637853Y-20527193D01*
X19623407Y-20524230D01*
X19555577Y-20506055D01*
X19493791Y-20489500D01*
X19346209Y-20489500D01*
X19203655Y-20527697D01*
X19203652Y-20527698D01*
X19108063Y-20582887D01*
X19092574Y-20587037D01*
X19080998Y-20594477D01*
X19046063Y-20599500D01*
X18880012Y-20599500D01*
X18812973Y-20579815D01*
X18779689Y-20548379D01*
X18778529Y-20546782D01*
X18778528Y-20546780D01*
X18778525Y-20546777D01*
X18778523Y-20546774D01*
X18683225Y-20451476D01*
X18683221Y-20451473D01*
X18683220Y-20451472D01*
X18563126Y-20390281D01*
X18563124Y-20390280D01*
X18563121Y-20390279D01*
X18463493Y-20374500D01*
X18463488Y-20374500D01*
X17946512Y-20374500D01*
X17946507Y-20374500D01*
X17846878Y-20390279D01*
X17726778Y-20451473D01*
X17726774Y-20451476D01*
X17631476Y-20546774D01*
X17631473Y-20546778D01*
X17570279Y-20666878D01*
X17554500Y-20766506D01*
X17554500Y-21333494D01*
X17562832Y-21386103D01*
X17560436Y-21404641D01*
X17563097Y-21423147D01*
X17556050Y-21438576D01*
X17553877Y-21455396D01*
X17541838Y-21469697D01*
X17534072Y-21486703D01*
X17519803Y-21495872D01*
X17508881Y-21508848D01*
X17491020Y-21514370D01*
X17475294Y-21524477D01*
X17443588Y-21529035D01*
X17442129Y-21529487D01*
X17440359Y-21529500D01*
X17419641Y-21529500D01*
X17352602Y-21509815D01*
X17306847Y-21457011D01*
X17296903Y-21387853D01*
X17297168Y-21386103D01*
X17305500Y-21333494D01*
X17305500Y-20766506D01*
X17289720Y-20666878D01*
X17289719Y-20666876D01*
X17289719Y-20666874D01*
X17228528Y-20546780D01*
X17228526Y-20546778D01*
X17228523Y-20546774D01*
X17133225Y-20451476D01*
X17133221Y-20451473D01*
X17133220Y-20451472D01*
X17013126Y-20390281D01*
X17013124Y-20390280D01*
X17013121Y-20390279D01*
X16913493Y-20374500D01*
X16913488Y-20374500D01*
X16396512Y-20374500D01*
X16396507Y-20374500D01*
X16296878Y-20390279D01*
X16176778Y-20451473D01*
X16176774Y-20451476D01*
X16081476Y-20546774D01*
X16080311Y-20548379D01*
X16078392Y-20549858D01*
X16074571Y-20553680D01*
X16074077Y-20553186D01*
X16024983Y-20591048D01*
X15979988Y-20599500D01*
X14934500Y-20599500D01*
X14867461Y-20579815D01*
X14821706Y-20527011D01*
X14810500Y-20475500D01*
X14810500Y-19354500D01*
X14830185Y-19287461D01*
X14882989Y-19241706D01*
X14934500Y-19230500D01*
X15873000Y-19230500D01*
X15940039Y-19250185D01*
X15985794Y-19302989D01*
X15997000Y-19354500D01*
X15997000Y-19589752D01*
X16008631Y-19648229D01*
X16008632Y-19648230D01*
X16052947Y-19714552D01*
X16119269Y-19758867D01*
X16119270Y-19758868D01*
X16177747Y-19770499D01*
X16177750Y-19770500D01*
X16177752Y-19770500D01*
X17417250Y-19770500D01*
X17417251Y-19770499D01*
X17432068Y-19767552D01*
X17475729Y-19758868D01*
X17475729Y-19758867D01*
X17475731Y-19758867D01*
X17542052Y-19714552D01*
X17586367Y-19648231D01*
X17586367Y-19648229D01*
X17586368Y-19648229D01*
X17597999Y-19589752D01*
X17598000Y-19589750D01*
X17598000Y-18350249D01*
X17597999Y-18350247D01*
X17586368Y-18291770D01*
X17586367Y-18291769D01*
X17542052Y-18225447D01*
X17475730Y-18181132D01*
X17475729Y-18181131D01*
X17417252Y-18169500D01*
X17417248Y-18169500D01*
X17272000Y-18169500D01*
X17263314Y-18166949D01*
X17254353Y-18168238D01*
X17230312Y-18157259D01*
X17204961Y-18149815D01*
X17199033Y-18142974D01*
X17190797Y-18139213D01*
X17176507Y-18116978D01*
X17159206Y-18097011D01*
X17156918Y-18086496D01*
X17153023Y-18080435D01*
X17148000Y-18045500D01*
X17148000Y-17926543D01*
X17167685Y-17859504D01*
X17184319Y-17838862D01*
X17186818Y-17836363D01*
X17419012Y-17604168D01*
X17480333Y-17570685D01*
X17518268Y-17568393D01*
X17540734Y-17570500D01*
X18174270Y-17570500D01*
X18204699Y-17567646D01*
X18204701Y-17567646D01*
X18268790Y-17545219D01*
X18332882Y-17522793D01*
X18442150Y-17442150D01*
X18522793Y-17332882D01*
X18545219Y-17268790D01*
X18567646Y-17204701D01*
X18567646Y-17204699D01*
X18570500Y-17174269D01*
X18570500Y-16165730D01*
X18567646Y-16135300D01*
X18567646Y-16135298D01*
X18533533Y-16037810D01*
X18522793Y-16007118D01*
X18442150Y-15897850D01*
X18332882Y-15817207D01*
X18332880Y-15817206D01*
X18204700Y-15772353D01*
X18174270Y-15769500D01*
X18174266Y-15769500D01*
X17540734Y-15769500D01*
X17540730Y-15769500D01*
X17510300Y-15772353D01*
X17510298Y-15772353D01*
X17382119Y-15817206D01*
X17382117Y-15817207D01*
X17272850Y-15897850D01*
X17192207Y-16007117D01*
X17192206Y-16007119D01*
X17147353Y-16135298D01*
X17147353Y-16135300D01*
X17144500Y-16165730D01*
X17144500Y-16835956D01*
X17124815Y-16902995D01*
X17108181Y-16923637D01*
X16517031Y-17514786D01*
X16517029Y-17514789D01*
X16486513Y-17567646D01*
X16470885Y-17594713D01*
X16447000Y-17683856D01*
X16447000Y-18045500D01*
X16427315Y-18112539D01*
X16374511Y-18158294D01*
X16323000Y-18169500D01*
X16177747Y-18169500D01*
X16119270Y-18181131D01*
X16119269Y-18181132D01*
X16052947Y-18225447D01*
X16008632Y-18291769D01*
X16008631Y-18291770D01*
X15997000Y-18350247D01*
X15997000Y-18405500D01*
X15977315Y-18472539D01*
X15924511Y-18518294D01*
X15873000Y-18529500D01*
X14284500Y-18529500D01*
X14217461Y-18509815D01*
X14171706Y-18457011D01*
X14160500Y-18405500D01*
X14160500Y-16367749D01*
X14160499Y-16367747D01*
X14148868Y-16309270D01*
X14148867Y-16309269D01*
X14104552Y-16242947D01*
X14038230Y-16198632D01*
X14038229Y-16198631D01*
X13979752Y-16187000D01*
X13979748Y-16187000D01*
X12884500Y-16187000D01*
X12817461Y-16167315D01*
X12771706Y-16114511D01*
X12760500Y-16063000D01*
X12760500Y-15903244D01*
X12780185Y-15836205D01*
X12832989Y-15790450D01*
X12902147Y-15780506D01*
X12938961Y-15791844D01*
X12941733Y-15793199D01*
X12941734Y-15793200D01*
X13052821Y-15847507D01*
X13124839Y-15858000D01*
X13495160Y-15857999D01*
X13567179Y-15847507D01*
X13678266Y-15793200D01*
X13699281Y-15772185D01*
X13722319Y-15749148D01*
X13783642Y-15715663D01*
X13853334Y-15720647D01*
X13897681Y-15749148D01*
X13941731Y-15793198D01*
X13941732Y-15793198D01*
X13941734Y-15793200D01*
X14052821Y-15847507D01*
X14124839Y-15858000D01*
X14495160Y-15857999D01*
X14567179Y-15847507D01*
X14678266Y-15793200D01*
X14765700Y-15705766D01*
X14820007Y-15594679D01*
X14830500Y-15522661D01*
X14830499Y-15161445D01*
X14850183Y-15094409D01*
X14902987Y-15048654D01*
X14972146Y-15038710D01*
X15035701Y-15067735D01*
X15046015Y-15078682D01*
X15051488Y-15084155D01*
X15155845Y-15188512D01*
X15283655Y-15262303D01*
X15426209Y-15300500D01*
X15426211Y-15300500D01*
X15573789Y-15300500D01*
X15573791Y-15300500D01*
X15716345Y-15262303D01*
X15811937Y-15207112D01*
X15827425Y-15202962D01*
X15839002Y-15195523D01*
X15873937Y-15190500D01*
X15968943Y-15190500D01*
X16035982Y-15210185D01*
X16069206Y-15246906D01*
X16071214Y-15245448D01*
X16076950Y-15253343D01*
X16166652Y-15343045D01*
X16166654Y-15343046D01*
X16166658Y-15343050D01*
X16279694Y-15400645D01*
X16279698Y-15400647D01*
X16373475Y-15415499D01*
X16373481Y-15415500D01*
X16836518Y-15415499D01*
X16930304Y-15400646D01*
X17043342Y-15343050D01*
X17133050Y-15253342D01*
X17190646Y-15140304D01*
X17190646Y-15140302D01*
X17190647Y-15140301D01*
X17205499Y-15046524D01*
X17205500Y-15046519D01*
X17205499Y-14433482D01*
X17205498Y-14433475D01*
X17654500Y-14433475D01*
X17654500Y-15046517D01*
X17664144Y-15107409D01*
X17669354Y-15140304D01*
X17726950Y-15253342D01*
X17726952Y-15253344D01*
X17726954Y-15253347D01*
X17816652Y-15343045D01*
X17816654Y-15343046D01*
X17816658Y-15343050D01*
X17929694Y-15400645D01*
X17929698Y-15400647D01*
X18023475Y-15415499D01*
X18023481Y-15415500D01*
X18486518Y-15415499D01*
X18580304Y-15400646D01*
X18693342Y-15343050D01*
X18783050Y-15253342D01*
X18829873Y-15161448D01*
X18831526Y-15158204D01*
X18879500Y-15107409D01*
X18942010Y-15090500D01*
X19186142Y-15090500D01*
X19186144Y-15090500D01*
X19275288Y-15066614D01*
X19296985Y-15054087D01*
X19355212Y-15020470D01*
X20092970Y-14282712D01*
X20139114Y-14202788D01*
X20163000Y-14113643D01*
X20163000Y-14021356D01*
X20163000Y-10255642D01*
X20182685Y-10188603D01*
X20230703Y-10145158D01*
X20280751Y-10119658D01*
X20374658Y-10025751D01*
X20434951Y-9907420D01*
X20434951Y-9907418D01*
X20434952Y-9907417D01*
X20450500Y-9809251D01*
X20450500Y-9230748D01*
X20434952Y-9132582D01*
X20418428Y-9100152D01*
X20374658Y-9014249D01*
X20374654Y-9014245D01*
X20374653Y-9014243D01*
X20280756Y-8920346D01*
X20280753Y-8920344D01*
X20280751Y-8920342D01*
X20162420Y-8860049D01*
X20162419Y-8860048D01*
X20162416Y-8860047D01*
X20162417Y-8860047D01*
X20064251Y-8844500D01*
X20064246Y-8844500D01*
X19560754Y-8844500D01*
X19560749Y-8844500D01*
X19462582Y-8860047D01*
X19411238Y-8886209D01*
X19344249Y-8920342D01*
X19344248Y-8920343D01*
X19344243Y-8920346D01*
X19250346Y-9014243D01*
X19250343Y-9014248D01*
X19250342Y-9014249D01*
X19230366Y-9053454D01*
X19190047Y-9132582D01*
X19174500Y-9230748D01*
X19174500Y-9809251D01*
X19190047Y-9907417D01*
X19190049Y-9907420D01*
X19250342Y-10025751D01*
X19250344Y-10025753D01*
X19250346Y-10025756D01*
X19344243Y-10119653D01*
X19344247Y-10119656D01*
X19344249Y-10119658D01*
X19394296Y-10145158D01*
X19445091Y-10193131D01*
X19462000Y-10255642D01*
X19462000Y-13870956D01*
X19442315Y-13937995D01*
X19425681Y-13958637D01*
X19031137Y-14353181D01*
X19004209Y-14367884D01*
X18978391Y-14384477D01*
X18972190Y-14385368D01*
X18969814Y-14386666D01*
X18943456Y-14389500D01*
X18942010Y-14389500D01*
X18874971Y-14369815D01*
X18831526Y-14321796D01*
X18798864Y-14257694D01*
X18783050Y-14226658D01*
X18783047Y-14226655D01*
X18783045Y-14226652D01*
X18693347Y-14136954D01*
X18693344Y-14136952D01*
X18693342Y-14136950D01*
X18607527Y-14093225D01*
X18580301Y-14079352D01*
X18486524Y-14064500D01*
X18023482Y-14064500D01*
X17952086Y-14075808D01*
X17929696Y-14079354D01*
X17816658Y-14136950D01*
X17816657Y-14136951D01*
X17816652Y-14136954D01*
X17726954Y-14226652D01*
X17726951Y-14226657D01*
X17726950Y-14226658D01*
X17722928Y-14234552D01*
X17669352Y-14339698D01*
X17654500Y-14433475D01*
X17205498Y-14433475D01*
X17190646Y-14339696D01*
X17133050Y-14226658D01*
X17133046Y-14226654D01*
X17133045Y-14226652D01*
X17043347Y-14136954D01*
X17043344Y-14136952D01*
X17043342Y-14136950D01*
X16957527Y-14093225D01*
X16930301Y-14079352D01*
X16836524Y-14064500D01*
X16373482Y-14064500D01*
X16302086Y-14075808D01*
X16279696Y-14079354D01*
X16166658Y-14136950D01*
X16166657Y-14136951D01*
X16166652Y-14136954D01*
X16076950Y-14226657D01*
X16071214Y-14234552D01*
X16068954Y-14232910D01*
X16062656Y-14246703D01*
X16045476Y-14257743D01*
X16031454Y-14272591D01*
X16015772Y-14276832D01*
X16003878Y-14284477D01*
X15968943Y-14289500D01*
X15873937Y-14289500D01*
X15811937Y-14272887D01*
X15811424Y-14272591D01*
X15716345Y-14217697D01*
X15573791Y-14179500D01*
X15426209Y-14179500D01*
X15283655Y-14217697D01*
X15283652Y-14217698D01*
X15155843Y-14291489D01*
X15045741Y-14401592D01*
X15044386Y-14400237D01*
X14996437Y-14435244D01*
X14926691Y-14439393D01*
X14865774Y-14405175D01*
X14833026Y-14343455D01*
X14830499Y-14318551D01*
X14830499Y-14077340D01*
X14830276Y-14075808D01*
X14820007Y-14005321D01*
X14765700Y-13894234D01*
X14765698Y-13894232D01*
X14765698Y-13894231D01*
X14744208Y-13872741D01*
X14710723Y-13811418D01*
X14715707Y-13741726D01*
X14724499Y-13723065D01*
X14757755Y-13665466D01*
X14790500Y-13543259D01*
X14790500Y-13416741D01*
X14757755Y-13294534D01*
X14694496Y-13184966D01*
X14605034Y-13095504D01*
X14495466Y-13032245D01*
X14373259Y-12999500D01*
X14246741Y-12999500D01*
X14124534Y-13032245D01*
X14124531Y-13032246D01*
X14014964Y-13095505D01*
X13925505Y-13184964D01*
X13862246Y-13294531D01*
X13862245Y-13294534D01*
X13829500Y-13416741D01*
X13829500Y-13543259D01*
X13859117Y-13653791D01*
X13863146Y-13668828D01*
X13861483Y-13738678D01*
X13822320Y-13796540D01*
X13758092Y-13824044D01*
X13689189Y-13812457D01*
X13686171Y-13810663D01*
X13640039Y-13788111D01*
X13588457Y-13740983D01*
X13570500Y-13676711D01*
X13570500Y-13103632D01*
X13590185Y-13036593D01*
X13611865Y-13013830D01*
X13611001Y-13012966D01*
X13705698Y-12918268D01*
X13705700Y-12918266D01*
X13760007Y-12807179D01*
X13770500Y-12735161D01*
X13770499Y-11639840D01*
X13760007Y-11567821D01*
X13705700Y-11456734D01*
X13705698Y-11456732D01*
X13705698Y-11456731D01*
X13618268Y-11369301D01*
X13507177Y-11314992D01*
X13435161Y-11304500D01*
X13064845Y-11304500D01*
X12992821Y-11314993D01*
X12881731Y-11369301D01*
X12848537Y-11402495D01*
X12787214Y-11435980D01*
X12717522Y-11430994D01*
X12704736Y-11425386D01*
X12687132Y-11416451D01*
X12656483Y-11385802D01*
X12551393Y-11334427D01*
X12515105Y-11329139D01*
X12496977Y-11319939D01*
X12485742Y-11309361D01*
X12471718Y-11302925D01*
X12460821Y-11285899D01*
X12446106Y-11272045D01*
X12442373Y-11257073D01*
X12434055Y-11244076D01*
X12434093Y-11223860D01*
X12429204Y-11204250D01*
X12434157Y-11189637D01*
X12434187Y-11174206D01*
X12446290Y-11153851D01*
X12451637Y-11138080D01*
X12459296Y-11131977D01*
X12465415Y-11121687D01*
X12660489Y-10926614D01*
X12719798Y-10823887D01*
X12719799Y-10823886D01*
X12724111Y-10807790D01*
X12727918Y-10799131D01*
X12744566Y-10779352D01*
X12758024Y-10757273D01*
X12766701Y-10753057D01*
X12772913Y-10745678D01*
X12797614Y-10738039D01*
X12820870Y-10726742D01*
X12830448Y-10727886D01*
X12839664Y-10725037D01*
X12864571Y-10731965D01*
X12890246Y-10735034D01*
X12895886Y-10737618D01*
X12992821Y-10785007D01*
X13064839Y-10795500D01*
X13435160Y-10795499D01*
X13507179Y-10785007D01*
X13618266Y-10730700D01*
X13705700Y-10643266D01*
X13760007Y-10532179D01*
X13770500Y-10460161D01*
X13770499Y-9364840D01*
X13760007Y-9292821D01*
X13705700Y-9181734D01*
X13705698Y-9181732D01*
X13705698Y-9181731D01*
X13618268Y-9094301D01*
X13507177Y-9039992D01*
X13476621Y-9035540D01*
X13413120Y-9006395D01*
X13375457Y-8947545D01*
X13370500Y-8912836D01*
X13370500Y-8589499D01*
X13390185Y-8522460D01*
X13442989Y-8476705D01*
X13494496Y-8465499D01*
X13721718Y-8465499D01*
X13786035Y-8452707D01*
X13786040Y-8452703D01*
X13793599Y-8449573D01*
X13863068Y-8442101D01*
X13865196Y-8442505D01*
X13874732Y-8444402D01*
X13880251Y-8445500D01*
X14125500Y-8445500D01*
X14134185Y-8448050D01*
X14143147Y-8446762D01*
X14167187Y-8457740D01*
X14192539Y-8465185D01*
X14198466Y-8472025D01*
X14206703Y-8475787D01*
X14220992Y-8498021D01*
X14238294Y-8517989D01*
X14240581Y-8528503D01*
X14244477Y-8534565D01*
X14249500Y-8569500D01*
X14249500Y-8586062D01*
X14232887Y-8648062D01*
X14177698Y-8743652D01*
X14177697Y-8743655D01*
X14139500Y-8886209D01*
X14139500Y-9033791D01*
X14165971Y-9132580D01*
X14177697Y-9176344D01*
X14177698Y-9176347D01*
X14180808Y-9181734D01*
X14251488Y-9304155D01*
X14355845Y-9408512D01*
X14483655Y-9482303D01*
X14626209Y-9520500D01*
X14626211Y-9520500D01*
X14773789Y-9520500D01*
X14773791Y-9520500D01*
X14916345Y-9482303D01*
X15044155Y-9408512D01*
X15148512Y-9304155D01*
X15222303Y-9176345D01*
X15242719Y-9100149D01*
X15279083Y-9040492D01*
X15341929Y-9009962D01*
X15411305Y-9018256D01*
X15465183Y-9062741D01*
X15477055Y-9084794D01*
X15477696Y-9086343D01*
X15477697Y-9086345D01*
X15551488Y-9214155D01*
X15655845Y-9318512D01*
X15783655Y-9392303D01*
X15926209Y-9430500D01*
X15926211Y-9430500D01*
X16073789Y-9430500D01*
X16073791Y-9430500D01*
X16216345Y-9392303D01*
X16344155Y-9318512D01*
X16448512Y-9214155D01*
X16522303Y-9086345D01*
X16560500Y-8943791D01*
X16560500Y-8796209D01*
X16522303Y-8653655D01*
X16448512Y-8525845D01*
X16399600Y-8476933D01*
X16366116Y-8415611D01*
X16371100Y-8345919D01*
X16412972Y-8289986D01*
X16478436Y-8265569D01*
X16511470Y-8267635D01*
X16551007Y-8275500D01*
X16688995Y-8275500D01*
X16780041Y-8257389D01*
X16824328Y-8248580D01*
X16951811Y-8195775D01*
X17066542Y-8119114D01*
X17066545Y-8119111D01*
X17112819Y-8072838D01*
X17174142Y-8039353D01*
X17243834Y-8044337D01*
X17299767Y-8086209D01*
X17324184Y-8151673D01*
X17324500Y-8160519D01*
X17324500Y-9635527D01*
X17304815Y-9702566D01*
X17288181Y-9723208D01*
X17123532Y-9887856D01*
X17123530Y-9887858D01*
X17078047Y-9966640D01*
X17078046Y-9966642D01*
X17054500Y-10054514D01*
X17054500Y-10054516D01*
X17054500Y-10533839D01*
X17034815Y-10600878D01*
X16982011Y-10646633D01*
X16912853Y-10656577D01*
X16911102Y-10656312D01*
X16836524Y-10644500D01*
X16373482Y-10644500D01*
X16292519Y-10657323D01*
X16279696Y-10659354D01*
X16166658Y-10716950D01*
X16166657Y-10716951D01*
X16166652Y-10716954D01*
X16076950Y-10806657D01*
X16071214Y-10814552D01*
X16068954Y-10812910D01*
X16062656Y-10826703D01*
X16045476Y-10837743D01*
X16031454Y-10852591D01*
X16015772Y-10856832D01*
X16003878Y-10864477D01*
X15968943Y-10869500D01*
X15883937Y-10869500D01*
X15821937Y-10852887D01*
X15821424Y-10852591D01*
X15752695Y-10812910D01*
X15726347Y-10797698D01*
X15726346Y-10797697D01*
X15726345Y-10797697D01*
X15583791Y-10759500D01*
X15436209Y-10759500D01*
X15293655Y-10797697D01*
X15293652Y-10797698D01*
X15165843Y-10871489D01*
X15061489Y-10975843D01*
X14987698Y-11103652D01*
X14987697Y-11103655D01*
X14949500Y-11246209D01*
X14949500Y-11393791D01*
X14987697Y-11536345D01*
X15061488Y-11664155D01*
X15165845Y-11768512D01*
X15293655Y-11842303D01*
X15436209Y-11880500D01*
X15436211Y-11880500D01*
X15583789Y-11880500D01*
X15583791Y-11880500D01*
X15726345Y-11842303D01*
X15821937Y-11787112D01*
X15837425Y-11782962D01*
X15849002Y-11775523D01*
X15883937Y-11770500D01*
X15968943Y-11770500D01*
X16035982Y-11790185D01*
X16069206Y-11826906D01*
X16071214Y-11825448D01*
X16076950Y-11833343D01*
X16166652Y-11923045D01*
X16166654Y-11923046D01*
X16166658Y-11923050D01*
X16276348Y-11978940D01*
X16279698Y-11980647D01*
X16373475Y-11995499D01*
X16373481Y-11995500D01*
X16836518Y-11995499D01*
X16836523Y-11995499D01*
X16911103Y-11983687D01*
X16928749Y-11985967D01*
X16946325Y-11983174D01*
X16962682Y-11990352D01*
X16980396Y-11992642D01*
X16994009Y-12004101D01*
X17010304Y-12011253D01*
X17020182Y-12026134D01*
X17033848Y-12037638D01*
X17039114Y-12054652D01*
X17048946Y-12069464D01*
X17053968Y-12102649D01*
X17054486Y-12104321D01*
X17054500Y-12105264D01*
X17054500Y-12129514D01*
X17054500Y-12220486D01*
X17056309Y-12227237D01*
X17056533Y-12242324D01*
X17049037Y-12269325D01*
X17044720Y-12297013D01*
X17039819Y-12302534D01*
X17037845Y-12309648D01*
X17016940Y-12328312D01*
X16998340Y-12349269D01*
X16991233Y-12351264D01*
X16985726Y-12356181D01*
X16958049Y-12360580D01*
X16931071Y-12368154D01*
X16917585Y-12367011D01*
X16916722Y-12367149D01*
X16916128Y-12366888D01*
X16913149Y-12366636D01*
X16836524Y-12354500D01*
X16373482Y-12354500D01*
X16296858Y-12366636D01*
X16279696Y-12369354D01*
X16166658Y-12426950D01*
X16166657Y-12426951D01*
X16166652Y-12426954D01*
X16076950Y-12516657D01*
X16071214Y-12524552D01*
X16068954Y-12522910D01*
X16062656Y-12536703D01*
X16045476Y-12547743D01*
X16031454Y-12562591D01*
X16015772Y-12566832D01*
X16003878Y-12574477D01*
X15968943Y-12579500D01*
X15891257Y-12579500D01*
X15829258Y-12562887D01*
X15728568Y-12504754D01*
X15716347Y-12497698D01*
X15716346Y-12497697D01*
X15716345Y-12497697D01*
X15573791Y-12459500D01*
X15426209Y-12459500D01*
X15283655Y-12497697D01*
X15283652Y-12497698D01*
X15155843Y-12571489D01*
X15051489Y-12675843D01*
X14977698Y-12803652D01*
X14977697Y-12803655D01*
X14939500Y-12946209D01*
X14939500Y-13093791D01*
X14941861Y-13102602D01*
X14949600Y-13131488D01*
X14977697Y-13236345D01*
X15051488Y-13364155D01*
X15155845Y-13468512D01*
X15283655Y-13542303D01*
X15426209Y-13580500D01*
X15426211Y-13580500D01*
X15573789Y-13580500D01*
X15573791Y-13580500D01*
X15716345Y-13542303D01*
X15794616Y-13497112D01*
X15810104Y-13492962D01*
X15821681Y-13485523D01*
X15856616Y-13480500D01*
X15968943Y-13480500D01*
X16035982Y-13500185D01*
X16069206Y-13536906D01*
X16071214Y-13535448D01*
X16076950Y-13543343D01*
X16166652Y-13633045D01*
X16166654Y-13633046D01*
X16166658Y-13633050D01*
X16279694Y-13690645D01*
X16279698Y-13690647D01*
X16373475Y-13705499D01*
X16373481Y-13705500D01*
X16836518Y-13705499D01*
X16930304Y-13690646D01*
X17043342Y-13633050D01*
X17133050Y-13543342D01*
X17190646Y-13430304D01*
X17190646Y-13430302D01*
X17190647Y-13430301D01*
X17205499Y-13336524D01*
X17205500Y-13336519D01*
X17205499Y-12768471D01*
X17225183Y-12701433D01*
X17277987Y-12655678D01*
X17347146Y-12645734D01*
X17410702Y-12674759D01*
X17417180Y-12680791D01*
X17598181Y-12861792D01*
X17631666Y-12923115D01*
X17634500Y-12949473D01*
X17634500Y-13338095D01*
X17650095Y-13436563D01*
X17666373Y-13468510D01*
X17710567Y-13555245D01*
X17710569Y-13555247D01*
X17710571Y-13555250D01*
X17804749Y-13649428D01*
X17804753Y-13649431D01*
X17804755Y-13649433D01*
X17923438Y-13709905D01*
X17923439Y-13709905D01*
X17923441Y-13709906D01*
X18021897Y-13725499D01*
X18021903Y-13725500D01*
X18488096Y-13725499D01*
X18586562Y-13709905D01*
X18705245Y-13649433D01*
X18799433Y-13555245D01*
X18859905Y-13436562D01*
X18863045Y-13416741D01*
X18875499Y-13338102D01*
X18875500Y-13338097D01*
X18875499Y-12721904D01*
X18859905Y-12623438D01*
X18799433Y-12504755D01*
X18799429Y-12504751D01*
X18799428Y-12504749D01*
X18705250Y-12410571D01*
X18705246Y-12410568D01*
X18705245Y-12410567D01*
X18586562Y-12350095D01*
X18586561Y-12350094D01*
X18586558Y-12350093D01*
X18488102Y-12334500D01*
X18488097Y-12334500D01*
X18099473Y-12334500D01*
X18070032Y-12325855D01*
X18040046Y-12319332D01*
X18035030Y-12315577D01*
X18032434Y-12314815D01*
X18011792Y-12298181D01*
X17940791Y-12227180D01*
X17907306Y-12165857D01*
X17912290Y-12096165D01*
X17954162Y-12040232D01*
X18019626Y-12015815D01*
X18028444Y-12015499D01*
X18488096Y-12015499D01*
X18586562Y-11999905D01*
X18705245Y-11939433D01*
X18799433Y-11845245D01*
X18859905Y-11726562D01*
X18875500Y-11628097D01*
X18875499Y-11011904D01*
X18859905Y-10913438D01*
X18799433Y-10794755D01*
X18799429Y-10794751D01*
X18799428Y-10794749D01*
X18705250Y-10700571D01*
X18705246Y-10700568D01*
X18705245Y-10700567D01*
X18586562Y-10640095D01*
X18586561Y-10640094D01*
X18586558Y-10640093D01*
X18577277Y-10637078D01*
X18577981Y-10634910D01*
X18526965Y-10610724D01*
X18490035Y-10551411D01*
X18485500Y-10518182D01*
X18485500Y-5814516D01*
X18485500Y-5814514D01*
X18461954Y-5726642D01*
X18416469Y-5647858D01*
X18352142Y-5583531D01*
X17452142Y-4683531D01*
X17452141Y-4683530D01*
X17412750Y-4660788D01*
X17373358Y-4638046D01*
X17285486Y-4614500D01*
X11804514Y-4614500D01*
X11716642Y-4638046D01*
X11716640Y-4638046D01*
X11716640Y-4638047D01*
X11637858Y-4683530D01*
X10273530Y-6047858D01*
X10233009Y-6118046D01*
X10228046Y-6126642D01*
X10204500Y-6214514D01*
X10204500Y-6214516D01*
X10204500Y-6680500D01*
X10184815Y-6747539D01*
X10132011Y-6793294D01*
X10080500Y-6804500D01*
X10035386Y-6804500D01*
X9968347Y-6784815D01*
X9922592Y-6732011D01*
X9912648Y-6662853D01*
X9915607Y-6648423D01*
X9935500Y-6574183D01*
X9935500Y-6435817D01*
X9899688Y-6302164D01*
X9849085Y-6214516D01*
X9830507Y-6182338D01*
X9830503Y-6182333D01*
X9732666Y-6084496D01*
X9732661Y-6084492D01*
X9612838Y-6015313D01*
X9612837Y-6015312D01*
X9612836Y-6015312D01*
X9479183Y-5979500D01*
X9340817Y-5979500D01*
X9207164Y-6015312D01*
X9207161Y-6015313D01*
X9087338Y-6084492D01*
X9087333Y-6084496D01*
X8989496Y-6182333D01*
X8989492Y-6182338D01*
X8920313Y-6302161D01*
X8920312Y-6302162D01*
X8912235Y-6332306D01*
X8908463Y-6346388D01*
X8908462Y-6346390D01*
X8872096Y-6406050D01*
X8809249Y-6436579D01*
X8739874Y-6428284D01*
X8685996Y-6383798D01*
X8667070Y-6338488D01*
X8653581Y-6270677D01*
X8653580Y-6270676D01*
X8653580Y-6270672D01*
X8627386Y-6207434D01*
X8600778Y-6143195D01*
X8600771Y-6143182D01*
X8524114Y-6028458D01*
X8524111Y-6028454D01*
X8426545Y-5930888D01*
X8426541Y-5930885D01*
X8311817Y-5854228D01*
X8311804Y-5854221D01*
X8184332Y-5801421D01*
X8184322Y-5801418D01*
X8048995Y-5774500D01*
X8048993Y-5774500D01*
X7911007Y-5774500D01*
X7911005Y-5774500D01*
X7775677Y-5801418D01*
X7775667Y-5801421D01*
X7648195Y-5854221D01*
X7648182Y-5854228D01*
X7533458Y-5930885D01*
X7533454Y-5930888D01*
X7435888Y-6028454D01*
X7435885Y-6028458D01*
X7359228Y-6143182D01*
X7359221Y-6143195D01*
X7306421Y-6270667D01*
X7306418Y-6270677D01*
X7279500Y-6406004D01*
X7279500Y-6406007D01*
X7279500Y-7643993D01*
X7279500Y-7643995D01*
X7279499Y-7643995D01*
X7306418Y-7779322D01*
X7306421Y-7779332D01*
X7359221Y-7906804D01*
X7359228Y-7906817D01*
X7435885Y-8021541D01*
X7435888Y-8021545D01*
X7533454Y-8119111D01*
X7533458Y-8119114D01*
X7648182Y-8195771D01*
X7648195Y-8195778D01*
X7739014Y-8233396D01*
X7775672Y-8248580D01*
X7775676Y-8248580D01*
X7775677Y-8248581D01*
X7911004Y-8275500D01*
X7911007Y-8275500D01*
X8048993Y-8275500D01*
X8088526Y-8267636D01*
X8158115Y-8273862D01*
X8213293Y-8316724D01*
X8236539Y-8382613D01*
X8220473Y-8450610D01*
X8200399Y-8476933D01*
X8151489Y-8525843D01*
X8077698Y-8653652D01*
X8077697Y-8653655D01*
X8039500Y-8796209D01*
X8039500Y-8943791D01*
X8077282Y-9084794D01*
X8077697Y-9086344D01*
X8077698Y-9086347D01*
X8085668Y-9100152D01*
X8151488Y-9214155D01*
X8151489Y-9214156D01*
X8155986Y-9220016D01*
X8181178Y-9285186D01*
X8167138Y-9353630D01*
X8118323Y-9403619D01*
X8057608Y-9419500D01*
X6460691Y-9419500D01*
X6370325Y-9443713D01*
X6370324Y-9443712D01*
X6346116Y-9450199D01*
X6346113Y-9450200D01*
X6243386Y-9509511D01*
X6243383Y-9509513D01*
X5662013Y-10090883D01*
X5662011Y-10090886D01*
X5602700Y-10193613D01*
X5602699Y-10193616D01*
X5596212Y-10217824D01*
X5596213Y-10217825D01*
X5572000Y-10308191D01*
X5572000Y-10741600D01*
X5552315Y-10808639D01*
X5521635Y-10841369D01*
X5461070Y-10886069D01*
X5381545Y-10993819D01*
X5381544Y-10993821D01*
X5354041Y-11072421D01*
X5313319Y-11129197D01*
X5248366Y-11154944D01*
X5179805Y-11141487D01*
X5129402Y-11093100D01*
X5113000Y-11031466D01*
X5113000Y-10268380D01*
X5132685Y-10201341D01*
X5180702Y-10157897D01*
X5255751Y-10119658D01*
X5349658Y-10025751D01*
X5409951Y-9907420D01*
X5409951Y-9907418D01*
X5409952Y-9907417D01*
X5425500Y-9809251D01*
X5425500Y-9230748D01*
X5409952Y-9132582D01*
X5393428Y-9100152D01*
X5349658Y-9014249D01*
X5349654Y-9014245D01*
X5349653Y-9014243D01*
X5255756Y-8920346D01*
X5255753Y-8920344D01*
X5255751Y-8920342D01*
X5137420Y-8860049D01*
X5137419Y-8860048D01*
X5137416Y-8860047D01*
X5137417Y-8860047D01*
X5039251Y-8844500D01*
X5039246Y-8844500D01*
X4535754Y-8844500D01*
X4535749Y-8844500D01*
X4437582Y-8860047D01*
X4386238Y-8886209D01*
X4319249Y-8920342D01*
X4319248Y-8920343D01*
X4319243Y-8920346D01*
X4225346Y-9014243D01*
X4225343Y-9014248D01*
X4225342Y-9014249D01*
X4205366Y-9053454D01*
X4165047Y-9132582D01*
X4149500Y-9230748D01*
X4149500Y-9809251D01*
X4165047Y-9907417D01*
X4165049Y-9907420D01*
X4225342Y-10025751D01*
X4225344Y-10025753D01*
X4225346Y-10025756D01*
X4319243Y-10119653D01*
X4319247Y-10119656D01*
X4319249Y-10119658D01*
X4394297Y-10157897D01*
X4445091Y-10205869D01*
X4462000Y-10268380D01*
X4462000Y-11893235D01*
X4462000Y-11978941D01*
X4471796Y-12015500D01*
X4484182Y-12061728D01*
X4488649Y-12069464D01*
X4527035Y-12135950D01*
X4897390Y-12506305D01*
X5204961Y-12813875D01*
X5238446Y-12875198D01*
X5233462Y-12944889D01*
X5191591Y-13000823D01*
X5149374Y-13021331D01*
X5013653Y-13057697D01*
X5013652Y-13057698D01*
X4885843Y-13131489D01*
X4781489Y-13235843D01*
X4707698Y-13363652D01*
X4707697Y-13363655D01*
X4669500Y-13506209D01*
X4669500Y-13653791D01*
X4701155Y-13771927D01*
X4707697Y-13796344D01*
X4707698Y-13796347D01*
X4713733Y-13806800D01*
X4781488Y-13924155D01*
X4885845Y-14028512D01*
X5013655Y-14102303D01*
X5156209Y-14140500D01*
X5156211Y-14140500D01*
X5303789Y-14140500D01*
X5303791Y-14140500D01*
X5446345Y-14102303D01*
X5524616Y-14057112D01*
X5540104Y-14052962D01*
X5551681Y-14045523D01*
X5586616Y-14040500D01*
X5709988Y-14040500D01*
X5777027Y-14060185D01*
X5810311Y-14091621D01*
X5811476Y-14093225D01*
X5906774Y-14188523D01*
X5906778Y-14188526D01*
X5906780Y-14188528D01*
X6026874Y-14249719D01*
X6026876Y-14249719D01*
X6026878Y-14249720D01*
X6126507Y-14265500D01*
X6126512Y-14265500D01*
X6643492Y-14265500D01*
X6691101Y-14257959D01*
X6709641Y-14260354D01*
X6728147Y-14257694D01*
X6743574Y-14264739D01*
X6760394Y-14266913D01*
X6774695Y-14278952D01*
X6791703Y-14286719D01*
X6800872Y-14300987D01*
X6813847Y-14311909D01*
X6819369Y-14329769D01*
X6829477Y-14345497D01*
X6834035Y-14377198D01*
X6834487Y-14378660D01*
X6834500Y-14380432D01*
X6834500Y-14509567D01*
X6814815Y-14576606D01*
X6762011Y-14622361D01*
X6692853Y-14632305D01*
X6691103Y-14632041D01*
X6643488Y-14624500D01*
X6126512Y-14624500D01*
X6126507Y-14624500D01*
X6026878Y-14640279D01*
X6026874Y-14640280D01*
X6026874Y-14640281D01*
X5946811Y-14681075D01*
X5906778Y-14701473D01*
X5906774Y-14701476D01*
X5811476Y-14796774D01*
X5810311Y-14798379D01*
X5808392Y-14799858D01*
X5805510Y-14802740D01*
X5803701Y-14806703D01*
X5778601Y-14822833D01*
X5754983Y-14841048D01*
X5748307Y-14842301D01*
X5744923Y-14844477D01*
X5709988Y-14849500D01*
X5603937Y-14849500D01*
X5541937Y-14832887D01*
X5446347Y-14777698D01*
X5446346Y-14777697D01*
X5446345Y-14777697D01*
X5303791Y-14739500D01*
X5156209Y-14739500D01*
X5013655Y-14777697D01*
X5013652Y-14777698D01*
X4885843Y-14851489D01*
X4781489Y-14955843D01*
X4707698Y-15083652D01*
X4707697Y-15083655D01*
X4669500Y-15226209D01*
X4669500Y-15373791D01*
X4676696Y-15400645D01*
X4707697Y-15516344D01*
X4707698Y-15516347D01*
X4712227Y-15524191D01*
X4781488Y-15644155D01*
X4885845Y-15748512D01*
X5013655Y-15822303D01*
X5156209Y-15860500D01*
X5156211Y-15860500D01*
X5303789Y-15860500D01*
X5303791Y-15860500D01*
X5446345Y-15822303D01*
X5541937Y-15767112D01*
X5557425Y-15762962D01*
X5569002Y-15755523D01*
X5603937Y-15750500D01*
X5709988Y-15750500D01*
X5777027Y-15770185D01*
X5810311Y-15801621D01*
X5811476Y-15803225D01*
X5906774Y-15898523D01*
X5906778Y-15898526D01*
X5906780Y-15898528D01*
X6026874Y-15959719D01*
X6026876Y-15959719D01*
X6026878Y-15959720D01*
X6126507Y-15975500D01*
X6609811Y-15975500D01*
X6631056Y-15981738D01*
X6653145Y-15983318D01*
X6663928Y-15991390D01*
X6676850Y-15995185D01*
X6691349Y-16011918D01*
X6709078Y-16025190D01*
X6713785Y-16037810D01*
X6722605Y-16047989D01*
X6725756Y-16069906D01*
X6733495Y-16090654D01*
X6730632Y-16103814D01*
X6732549Y-16117147D01*
X6723349Y-16137290D01*
X6718643Y-16158927D01*
X6705373Y-16176653D01*
X6703524Y-16180703D01*
X6697511Y-16187160D01*
X6586489Y-16298183D01*
X6525168Y-16331666D01*
X6498810Y-16334500D01*
X6103482Y-16334500D01*
X6022519Y-16347323D01*
X6009696Y-16349354D01*
X5896658Y-16406950D01*
X5896657Y-16406951D01*
X5896652Y-16406954D01*
X5806954Y-16496652D01*
X5806951Y-16496657D01*
X5749352Y-16609698D01*
X5734500Y-16703475D01*
X5734500Y-17316517D01*
X5744763Y-17381318D01*
X5749354Y-17410304D01*
X5806950Y-17523342D01*
X5806952Y-17523344D01*
X5806954Y-17523347D01*
X5896652Y-17613045D01*
X5896654Y-17613046D01*
X5896658Y-17613050D01*
X6009694Y-17670645D01*
X6009698Y-17670647D01*
X6103475Y-17685499D01*
X6103481Y-17685500D01*
X6566518Y-17685499D01*
X6660304Y-17670646D01*
X6773342Y-17613050D01*
X6863050Y-17523342D01*
X6920646Y-17410304D01*
X6920646Y-17410302D01*
X6920647Y-17410301D01*
X6935499Y-17316524D01*
X6935500Y-17316519D01*
X6935499Y-16921187D01*
X6955183Y-16854149D01*
X6971813Y-16833512D01*
X7172820Y-16632506D01*
X7234142Y-16599022D01*
X7303834Y-16604006D01*
X7359767Y-16645878D01*
X7384184Y-16711342D01*
X7384500Y-16720188D01*
X7384500Y-17316517D01*
X7394763Y-17381318D01*
X7399354Y-17410304D01*
X7456950Y-17523342D01*
X7456952Y-17523344D01*
X7456953Y-17523346D01*
X7498180Y-17564572D01*
X7531666Y-17625895D01*
X7534500Y-17652254D01*
X7534500Y-17915500D01*
X7514815Y-17982539D01*
X7462011Y-18028294D01*
X7410500Y-18039500D01*
X7320247Y-18039500D01*
X7261770Y-18051131D01*
X7261769Y-18051132D01*
X7195447Y-18095447D01*
X7151132Y-18161769D01*
X7151131Y-18161770D01*
X7139500Y-18220247D01*
X7139500Y-19459752D01*
X7151131Y-19518229D01*
X7151132Y-19518230D01*
X7195447Y-19584552D01*
X7261769Y-19628867D01*
X7261770Y-19628868D01*
X7320247Y-19640499D01*
X7320250Y-19640500D01*
X7320252Y-19640500D01*
X8559750Y-19640500D01*
X8559751Y-19640499D01*
X8574568Y-19637552D01*
X8618229Y-19628868D01*
X8618229Y-19628867D01*
X8618231Y-19628867D01*
X8684552Y-19584552D01*
X8728867Y-19518231D01*
X8728867Y-19518229D01*
X8728868Y-19518229D01*
X8740499Y-19459752D01*
X8740500Y-19459750D01*
X8740500Y-18220249D01*
X8740499Y-18220247D01*
X8728868Y-18161770D01*
X8728867Y-18161769D01*
X8684552Y-18095447D01*
X8618230Y-18051132D01*
X8618229Y-18051131D01*
X8559752Y-18039500D01*
X8559748Y-18039500D01*
X8559500Y-18039500D01*
X8559373Y-18039462D01*
X8553688Y-18038903D01*
X8553794Y-18037824D01*
X8492461Y-18019815D01*
X8446706Y-17967011D01*
X8435500Y-17915500D01*
X8435500Y-17652254D01*
X8455185Y-17585215D01*
X8471820Y-17564572D01*
X8513046Y-17523346D01*
X8513050Y-17523342D01*
X8570646Y-17410304D01*
X8570646Y-17410302D01*
X8570647Y-17410301D01*
X8585499Y-17316524D01*
X8585500Y-17316519D01*
X8585499Y-16703482D01*
X8570646Y-16609696D01*
X8513050Y-16496658D01*
X8513046Y-16496654D01*
X8513045Y-16496652D01*
X8421819Y-16405426D01*
X8388334Y-16344103D01*
X8385500Y-16317745D01*
X8385500Y-15977611D01*
X8405185Y-15910572D01*
X8421819Y-15889930D01*
X8508523Y-15803225D01*
X8508528Y-15803220D01*
X8569719Y-15683126D01*
X8571661Y-15670864D01*
X8585500Y-15583493D01*
X8585500Y-15016506D01*
X8569720Y-14916878D01*
X8569719Y-14916876D01*
X8569719Y-14916874D01*
X8508528Y-14796780D01*
X8508526Y-14796778D01*
X8508523Y-14796774D01*
X8421819Y-14710070D01*
X8388334Y-14648747D01*
X8385500Y-14622389D01*
X8385500Y-14267611D01*
X8405185Y-14200572D01*
X8421819Y-14179930D01*
X8508523Y-14093225D01*
X8508528Y-14093220D01*
X8569719Y-13973126D01*
X8573447Y-13949591D01*
X8577326Y-13925102D01*
X8607255Y-13861967D01*
X8666567Y-13825036D01*
X8699799Y-13820500D01*
X9713964Y-13820500D01*
X9781003Y-13840185D01*
X9826758Y-13892989D01*
X9836702Y-13962147D01*
X9825366Y-13998958D01*
X9819426Y-14011108D01*
X9809500Y-14079239D01*
X9809500Y-14387483D01*
X9789815Y-14454522D01*
X9747500Y-14494870D01*
X9704791Y-14519527D01*
X9704786Y-14519531D01*
X9329531Y-14894786D01*
X9329527Y-14894791D01*
X9283869Y-14973875D01*
X9283863Y-14973885D01*
X9283387Y-14974708D01*
X9283384Y-14974714D01*
X9259500Y-15063856D01*
X9259500Y-20962857D01*
X9242887Y-21024857D01*
X9180883Y-21132250D01*
X9180882Y-21132253D01*
X9149500Y-21249374D01*
X9149500Y-21370626D01*
X9180603Y-21486703D01*
X9180882Y-21487746D01*
X9180883Y-21487749D01*
X9189977Y-21503500D01*
X9206450Y-21571400D01*
X9183597Y-21637427D01*
X9128676Y-21680618D01*
X9082590Y-21689500D01*
X8864500Y-21689500D01*
X8797461Y-21669815D01*
X8751706Y-21617011D01*
X8740500Y-21565500D01*
X8740500Y-21020249D01*
X8740499Y-21020247D01*
X8728868Y-20961770D01*
X8728867Y-20961769D01*
X8684552Y-20895447D01*
X8618230Y-20851132D01*
X8618229Y-20851131D01*
X8559752Y-20839500D01*
X8559748Y-20839500D01*
X7320252Y-20839500D01*
X7320247Y-20839500D01*
X7261770Y-20851131D01*
X7261769Y-20851132D01*
X7195447Y-20895447D01*
X7151132Y-20961769D01*
X7151131Y-20961770D01*
X7139500Y-21020247D01*
X7139500Y-22259752D01*
X7151131Y-22318229D01*
X7151132Y-22318230D01*
X7195447Y-22384552D01*
X7261769Y-22428867D01*
X7261770Y-22428868D01*
X7320247Y-22440499D01*
X7320250Y-22440500D01*
X7320252Y-22440500D01*
X7365500Y-22440500D01*
X7432539Y-22460185D01*
X7478294Y-22512989D01*
X7489500Y-22564500D01*
X7489500Y-23494117D01*
X7469815Y-23561156D01*
X7453181Y-23581798D01*
X5594513Y-25440465D01*
X5594509Y-25440471D01*
X5535201Y-25543194D01*
X5535200Y-25543199D01*
X5504500Y-25657773D01*
X5504500Y-27306309D01*
X5484815Y-27373348D01*
X5449391Y-27409411D01*
X5285344Y-27519022D01*
X5139024Y-27665342D01*
X5024058Y-27837403D01*
X4944870Y-28028579D01*
X4944868Y-28028587D01*
X4904500Y-28231530D01*
X4904500Y-28438469D01*
X4944868Y-28641412D01*
X4944870Y-28641420D01*
X5024058Y-28832596D01*
X5139024Y-29004657D01*
X5285342Y-29150975D01*
X5318151Y-29172897D01*
X5362957Y-29226509D01*
X5371664Y-29295834D01*
X5341510Y-29358862D01*
X5282067Y-29395582D01*
X5249261Y-29400000D01*
X1324501Y-29400000D01*
X1257462Y-29380315D01*
X1211707Y-29327511D01*
X1200501Y-29276000D01*
X1200500Y-9230748D01*
X2574500Y-9230748D01*
X2574500Y-9809251D01*
X2590047Y-9907417D01*
X2590049Y-9907420D01*
X2650342Y-10025751D01*
X2725682Y-10101091D01*
X2740388Y-10128022D01*
X2756977Y-10153836D01*
X2757868Y-10160035D01*
X2759166Y-10162412D01*
X2762000Y-10188771D01*
X2762000Y-10294413D01*
X2745387Y-10356411D01*
X2729330Y-10384224D01*
X2677698Y-10473652D01*
X2677697Y-10473655D01*
X2639500Y-10616209D01*
X2639500Y-10763791D01*
X2677697Y-10906345D01*
X2751488Y-11034155D01*
X2855845Y-11138512D01*
X2983655Y-11212303D01*
X3126209Y-11250500D01*
X3126211Y-11250500D01*
X3273789Y-11250500D01*
X3273791Y-11250500D01*
X3416345Y-11212303D01*
X3544155Y-11138512D01*
X3648512Y-11034155D01*
X3722303Y-10906345D01*
X3760500Y-10763791D01*
X3760500Y-10616209D01*
X3722303Y-10473655D01*
X3679612Y-10399712D01*
X3675462Y-10384224D01*
X3668023Y-10372648D01*
X3663000Y-10337713D01*
X3663000Y-10188771D01*
X3682685Y-10121732D01*
X3699314Y-10101094D01*
X3774658Y-10025751D01*
X3834951Y-9907420D01*
X3834951Y-9907418D01*
X3834952Y-9907417D01*
X3850500Y-9809251D01*
X3850500Y-9230748D01*
X3834952Y-9132582D01*
X3818428Y-9100152D01*
X3774658Y-9014249D01*
X3774654Y-9014245D01*
X3774653Y-9014243D01*
X3680756Y-8920346D01*
X3680753Y-8920344D01*
X3680751Y-8920342D01*
X3562420Y-8860049D01*
X3562419Y-8860048D01*
X3562416Y-8860047D01*
X3562417Y-8860047D01*
X3464251Y-8844500D01*
X3464246Y-8844500D01*
X2960754Y-8844500D01*
X2960749Y-8844500D01*
X2862582Y-8860047D01*
X2811238Y-8886209D01*
X2744249Y-8920342D01*
X2744248Y-8920343D01*
X2744243Y-8920346D01*
X2650346Y-9014243D01*
X2650343Y-9014248D01*
X2650342Y-9014249D01*
X2630366Y-9053454D01*
X2590047Y-9132582D01*
X2574500Y-9230748D01*
X1200500Y-9230748D01*
X1200500Y-9225882D01*
X1200500Y-4003479D01*
X1200695Y-3996526D01*
X1207353Y-3877973D01*
X2449500Y-3877973D01*
X2449500Y-4122027D01*
X2487679Y-4363076D01*
X2563096Y-4595185D01*
X2608110Y-4683531D01*
X2673896Y-4812642D01*
X2817339Y-5010076D01*
X2817343Y-5010081D01*
X2989918Y-5182656D01*
X2989923Y-5182660D01*
X3158999Y-5305500D01*
X3187361Y-5326106D01*
X3404815Y-5436904D01*
X3636924Y-5512321D01*
X3877973Y-5550500D01*
X3877974Y-5550500D01*
X4122026Y-5550500D01*
X4122027Y-5550500D01*
X4363076Y-5512321D01*
X4595185Y-5436904D01*
X4812639Y-5326106D01*
X5010083Y-5182655D01*
X5182655Y-5010083D01*
X5326106Y-4812639D01*
X5436904Y-4595185D01*
X5512321Y-4363076D01*
X5550500Y-4122027D01*
X5550500Y-3877973D01*
X5512321Y-3636924D01*
X5436904Y-3404815D01*
X5380439Y-3293995D01*
X7279499Y-3293995D01*
X7306418Y-3429322D01*
X7306421Y-3429332D01*
X7359221Y-3556804D01*
X7359228Y-3556817D01*
X7435885Y-3671541D01*
X7435888Y-3671545D01*
X7533454Y-3769111D01*
X7533458Y-3769114D01*
X7648182Y-3845771D01*
X7648195Y-3845778D01*
X7725922Y-3877973D01*
X7775672Y-3898580D01*
X7775676Y-3898580D01*
X7775677Y-3898581D01*
X7911004Y-3925500D01*
X7911007Y-3925500D01*
X8048995Y-3925500D01*
X8140041Y-3907389D01*
X8184328Y-3898580D01*
X8311811Y-3845775D01*
X8426542Y-3769114D01*
X8524114Y-3671542D01*
X8600775Y-3556811D01*
X8653580Y-3429328D01*
X8680500Y-3293995D01*
X15919499Y-3293995D01*
X15946418Y-3429322D01*
X15946421Y-3429332D01*
X15999221Y-3556804D01*
X15999228Y-3556817D01*
X16075885Y-3671541D01*
X16075888Y-3671545D01*
X16173454Y-3769111D01*
X16173458Y-3769114D01*
X16288182Y-3845771D01*
X16288195Y-3845778D01*
X16365922Y-3877973D01*
X16415672Y-3898580D01*
X16415676Y-3898580D01*
X16415677Y-3898581D01*
X16551004Y-3925500D01*
X16551007Y-3925500D01*
X16688995Y-3925500D01*
X16780041Y-3907389D01*
X16824328Y-3898580D01*
X16874078Y-3877973D01*
X19049500Y-3877973D01*
X19049500Y-4122027D01*
X19087679Y-4363076D01*
X19163096Y-4595185D01*
X19208110Y-4683531D01*
X19273896Y-4812642D01*
X19417339Y-5010076D01*
X19417343Y-5010081D01*
X19589918Y-5182656D01*
X19589923Y-5182660D01*
X19758999Y-5305500D01*
X19787361Y-5326106D01*
X20004815Y-5436904D01*
X20236924Y-5512321D01*
X20477973Y-5550500D01*
X20477974Y-5550500D01*
X20722026Y-5550500D01*
X20722027Y-5550500D01*
X20963076Y-5512321D01*
X21195185Y-5436904D01*
X21412639Y-5326106D01*
X21610083Y-5182655D01*
X21782655Y-5010083D01*
X21926106Y-4812639D01*
X22036904Y-4595185D01*
X22112321Y-4363076D01*
X22150500Y-4122027D01*
X22150500Y-3877973D01*
X22112321Y-3636924D01*
X22036904Y-3404815D01*
X21926106Y-3187361D01*
X21907779Y-3162136D01*
X21782660Y-2989923D01*
X21782656Y-2989918D01*
X21610081Y-2817343D01*
X21610076Y-2817339D01*
X21412642Y-2673896D01*
X21412641Y-2673895D01*
X21412639Y-2673894D01*
X21195185Y-2563096D01*
X20963076Y-2487679D01*
X20963074Y-2487678D01*
X20963072Y-2487678D01*
X20794769Y-2461021D01*
X20722027Y-2449500D01*
X20477973Y-2449500D01*
X20422093Y-2458350D01*
X20236927Y-2487678D01*
X20004812Y-2563097D01*
X19787357Y-2673896D01*
X19589923Y-2817339D01*
X19589918Y-2817343D01*
X19417343Y-2989918D01*
X19417339Y-2989923D01*
X19273896Y-3187357D01*
X19163097Y-3404812D01*
X19087678Y-3636927D01*
X19056739Y-3832269D01*
X19049500Y-3877973D01*
X16874078Y-3877973D01*
X16951811Y-3845775D01*
X17066542Y-3769114D01*
X17164114Y-3671542D01*
X17240775Y-3556811D01*
X17293580Y-3429328D01*
X17320500Y-3293993D01*
X17320500Y-2356007D01*
X17320500Y-2356004D01*
X17293581Y-2220677D01*
X17293580Y-2220676D01*
X17293580Y-2220672D01*
X17293578Y-2220667D01*
X17240778Y-2093195D01*
X17240771Y-2093182D01*
X17164114Y-1978458D01*
X17164111Y-1978454D01*
X17066545Y-1880888D01*
X17066541Y-1880885D01*
X16951817Y-1804228D01*
X16951804Y-1804221D01*
X16824332Y-1751421D01*
X16824322Y-1751418D01*
X16688995Y-1724500D01*
X16688993Y-1724500D01*
X16551007Y-1724500D01*
X16551005Y-1724500D01*
X16415677Y-1751418D01*
X16415667Y-1751421D01*
X16288195Y-1804221D01*
X16288182Y-1804228D01*
X16173458Y-1880885D01*
X16173454Y-1880888D01*
X16075888Y-1978454D01*
X16075885Y-1978458D01*
X15999228Y-2093182D01*
X15999221Y-2093195D01*
X15946421Y-2220667D01*
X15946418Y-2220677D01*
X15919500Y-2356004D01*
X15919500Y-2356007D01*
X15919500Y-3293993D01*
X15919500Y-3293995D01*
X15919499Y-3293995D01*
X8680500Y-3293995D01*
X8680500Y-3293993D01*
X8680500Y-2356007D01*
X8680500Y-2356004D01*
X8653581Y-2220677D01*
X8653580Y-2220676D01*
X8653580Y-2220672D01*
X8653578Y-2220667D01*
X8600778Y-2093195D01*
X8600771Y-2093182D01*
X8524114Y-1978458D01*
X8524111Y-1978454D01*
X8426545Y-1880888D01*
X8426541Y-1880885D01*
X8311817Y-1804228D01*
X8311804Y-1804221D01*
X8184332Y-1751421D01*
X8184322Y-1751418D01*
X8048995Y-1724500D01*
X8048993Y-1724500D01*
X7911007Y-1724500D01*
X7911005Y-1724500D01*
X7775677Y-1751418D01*
X7775667Y-1751421D01*
X7648195Y-1804221D01*
X7648182Y-1804228D01*
X7533458Y-1880885D01*
X7533454Y-1880888D01*
X7435888Y-1978454D01*
X7435885Y-1978458D01*
X7359228Y-2093182D01*
X7359221Y-2093195D01*
X7306421Y-2220667D01*
X7306418Y-2220677D01*
X7279500Y-2356004D01*
X7279500Y-2356007D01*
X7279500Y-3293993D01*
X7279500Y-3293995D01*
X7279499Y-3293995D01*
X5380439Y-3293995D01*
X5326106Y-3187361D01*
X5307779Y-3162136D01*
X5182660Y-2989923D01*
X5182656Y-2989918D01*
X5010081Y-2817343D01*
X5010076Y-2817339D01*
X4812642Y-2673896D01*
X4812641Y-2673895D01*
X4812639Y-2673894D01*
X4595185Y-2563096D01*
X4363076Y-2487679D01*
X4363074Y-2487678D01*
X4363072Y-2487678D01*
X4266534Y-2472388D01*
X4255226Y-2470597D01*
X4122027Y-2449500D01*
X3877973Y-2449500D01*
X3822093Y-2458350D01*
X3636927Y-2487678D01*
X3404812Y-2563097D01*
X3187357Y-2673896D01*
X2989923Y-2817339D01*
X2989918Y-2817343D01*
X2817343Y-2989918D01*
X2817339Y-2989923D01*
X2673896Y-3187357D01*
X2563097Y-3404812D01*
X2487678Y-3636927D01*
X2456739Y-3832269D01*
X2449500Y-3877973D01*
X1207353Y-3877973D01*
X1208017Y-3866148D01*
X1208017Y-3866147D01*
X1209161Y-3845771D01*
X1217713Y-3693496D01*
X1219267Y-3679700D01*
X1269523Y-3383915D01*
X1272616Y-3370363D01*
X1294618Y-3293995D01*
X1355673Y-3082068D01*
X1360265Y-3068948D01*
X1450347Y-2851469D01*
X1475075Y-2791768D01*
X1481097Y-2779262D01*
X1626230Y-2516665D01*
X1633625Y-2504897D01*
X1645842Y-2487679D01*
X1807245Y-2260201D01*
X1815896Y-2249354D01*
X2015816Y-2025645D01*
X2025647Y-2015815D01*
X2249354Y-1815896D01*
X2260201Y-1807245D01*
X2504902Y-1633621D01*
X2516665Y-1626230D01*
X2779262Y-1481097D01*
X2791768Y-1475075D01*
X3068948Y-1360265D01*
X3082068Y-1355673D01*
X3370369Y-1272614D01*
X3383915Y-1269523D01*
X3679700Y-1219267D01*
X3693496Y-1217713D01*
X3879933Y-1207242D01*
X3996552Y-1200694D01*
X4003504Y-1200499D01*
X20535453Y-1200499D01*
X20560117Y-1200499D01*
X20560118Y-1200500D01*
G37*
%TD.AperFunction*%
%TA.AperFunction,NonConductor*%
G36*
X12786250Y-29906238D02*
G01*
X12808339Y-29907818D01*
X12819122Y-29915890D01*
X12832044Y-29919685D01*
X12846543Y-29936418D01*
X12864272Y-29949690D01*
X12868979Y-29962310D01*
X12877799Y-29972489D01*
X12880950Y-29994406D01*
X12888689Y-30015154D01*
X12885826Y-30028314D01*
X12887743Y-30041647D01*
X12878543Y-30061790D01*
X12873837Y-30083427D01*
X12860568Y-30101152D01*
X12858718Y-30105203D01*
X12852686Y-30111681D01*
X12759025Y-30205341D01*
X12759024Y-30205342D01*
X12644058Y-30377403D01*
X12564870Y-30568579D01*
X12564868Y-30568587D01*
X12524500Y-30771530D01*
X12524500Y-30978469D01*
X12564868Y-31181412D01*
X12564871Y-31181424D01*
X12594628Y-31253264D01*
X12602097Y-31322733D01*
X12582473Y-31367103D01*
X12583593Y-31367750D01*
X12533387Y-31454709D01*
X12533386Y-31454712D01*
X12509500Y-31543856D01*
X12509500Y-31554456D01*
X12489815Y-31621495D01*
X12437011Y-31667250D01*
X12367853Y-31677194D01*
X12304297Y-31648169D01*
X12297819Y-31642137D01*
X12042786Y-31387104D01*
X12009301Y-31325781D01*
X12014285Y-31256089D01*
X12015887Y-31252015D01*
X12045130Y-31181420D01*
X12085500Y-30978465D01*
X12085500Y-30771535D01*
X12045130Y-30568580D01*
X11965941Y-30377402D01*
X11850977Y-30205345D01*
X11850975Y-30205342D01*
X11757314Y-30111681D01*
X11723829Y-30050358D01*
X11728813Y-29980666D01*
X11770685Y-29924733D01*
X11836149Y-29900316D01*
X11844995Y-29900000D01*
X12765005Y-29900000D01*
X12786250Y-29906238D01*
G37*
%TD.AperFunction*%
%TA.AperFunction,NonConductor*%
G36*
X10292044Y-29919685D02*
G01*
X10337799Y-29972489D01*
X10347743Y-30041647D01*
X10318718Y-30105203D01*
X10312686Y-30111681D01*
X10219025Y-30205341D01*
X10219024Y-30205342D01*
X10104058Y-30377403D01*
X10024870Y-30568579D01*
X10024868Y-30568587D01*
X9984500Y-30771530D01*
X9984500Y-30978469D01*
X10024868Y-31181412D01*
X10024870Y-31181420D01*
X10084225Y-31324716D01*
X10104059Y-31372598D01*
X10111622Y-31383917D01*
X10219024Y-31544657D01*
X10262186Y-31587819D01*
X10272798Y-31607255D01*
X10287299Y-31623989D01*
X10289215Y-31637320D01*
X10295671Y-31649142D01*
X10294091Y-31671228D01*
X10297243Y-31693147D01*
X10291647Y-31705398D01*
X10290687Y-31718834D01*
X10277416Y-31736560D01*
X10268218Y-31756703D01*
X10256886Y-31763985D01*
X10248815Y-31774767D01*
X10228069Y-31782504D01*
X10209440Y-31794477D01*
X10187521Y-31797628D01*
X10183351Y-31799184D01*
X10174505Y-31799500D01*
X9966543Y-31799500D01*
X9899504Y-31779815D01*
X9878862Y-31763181D01*
X9502786Y-31387105D01*
X9469301Y-31325782D01*
X9474285Y-31256090D01*
X9475891Y-31252005D01*
X9505130Y-31181420D01*
X9545500Y-30978465D01*
X9545500Y-30771535D01*
X9505130Y-30568580D01*
X9425941Y-30377402D01*
X9310977Y-30205345D01*
X9310975Y-30205342D01*
X9217314Y-30111681D01*
X9183829Y-30050358D01*
X9188813Y-29980666D01*
X9230685Y-29924733D01*
X9296149Y-29900316D01*
X9304995Y-29900000D01*
X10225005Y-29900000D01*
X10292044Y-29919685D01*
G37*
%TD.AperFunction*%
%TA.AperFunction,NonConductor*%
G36*
X15326250Y-29906238D02*
G01*
X15348339Y-29907818D01*
X15359122Y-29915890D01*
X15372044Y-29919685D01*
X15386543Y-29936418D01*
X15404272Y-29949690D01*
X15408979Y-29962310D01*
X15417799Y-29972489D01*
X15420950Y-29994406D01*
X15428689Y-30015154D01*
X15425826Y-30028314D01*
X15427743Y-30041647D01*
X15418543Y-30061790D01*
X15413837Y-30083427D01*
X15400568Y-30101152D01*
X15398718Y-30105203D01*
X15392686Y-30111681D01*
X15299025Y-30205341D01*
X15299024Y-30205342D01*
X15184058Y-30377403D01*
X15104870Y-30568579D01*
X15104868Y-30568587D01*
X15064500Y-30771530D01*
X15064500Y-30978469D01*
X15104868Y-31181412D01*
X15104870Y-31181420D01*
X15134093Y-31251969D01*
X15141562Y-31321438D01*
X15110287Y-31383917D01*
X15107213Y-31387103D01*
X13422181Y-33072136D01*
X13360858Y-33105621D01*
X13291166Y-33100637D01*
X13235233Y-33058765D01*
X13210816Y-32993301D01*
X13210500Y-32984455D01*
X13210500Y-32024671D01*
X13230185Y-31957632D01*
X13282989Y-31911877D01*
X13352147Y-31901933D01*
X13358682Y-31903052D01*
X13471533Y-31925499D01*
X13471534Y-31925500D01*
X13471535Y-31925500D01*
X13678466Y-31925500D01*
X13678467Y-31925499D01*
X13881420Y-31885130D01*
X14072598Y-31805941D01*
X14244655Y-31690977D01*
X14390977Y-31544655D01*
X14505941Y-31372598D01*
X14585130Y-31181420D01*
X14625500Y-30978465D01*
X14625500Y-30771535D01*
X14585130Y-30568580D01*
X14505941Y-30377402D01*
X14390977Y-30205345D01*
X14390975Y-30205342D01*
X14297314Y-30111681D01*
X14263829Y-30050358D01*
X14268813Y-29980666D01*
X14310685Y-29924733D01*
X14376149Y-29900316D01*
X14384995Y-29900000D01*
X15305005Y-29900000D01*
X15326250Y-29906238D01*
G37*
%TD.AperFunction*%
%TA.AperFunction,NonConductor*%
G36*
X7752044Y-29919685D02*
G01*
X7797799Y-29972489D01*
X7807743Y-30041647D01*
X7778718Y-30105203D01*
X7772686Y-30111681D01*
X7679025Y-30205341D01*
X7679024Y-30205342D01*
X7564058Y-30377403D01*
X7484870Y-30568579D01*
X7484868Y-30568587D01*
X7444500Y-30771530D01*
X7444500Y-30978469D01*
X7484868Y-31181412D01*
X7484870Y-31181420D01*
X7544225Y-31324716D01*
X7564059Y-31372598D01*
X7571622Y-31383917D01*
X7679024Y-31544657D01*
X7825342Y-31690975D01*
X7825345Y-31690977D01*
X7997402Y-31805941D01*
X8188580Y-31885130D01*
X8333052Y-31913867D01*
X8391530Y-31925499D01*
X8391534Y-31925500D01*
X8391535Y-31925500D01*
X8598466Y-31925500D01*
X8598467Y-31925499D01*
X8801420Y-31885130D01*
X8871972Y-31855905D01*
X8941440Y-31848437D01*
X9003919Y-31879711D01*
X9007105Y-31882786D01*
X9489531Y-32365212D01*
X9554788Y-32430469D01*
X9554791Y-32430470D01*
X9554794Y-32430473D01*
X9634706Y-32476611D01*
X9634707Y-32476611D01*
X9634712Y-32476614D01*
X9723856Y-32500500D01*
X11153456Y-32500500D01*
X11220495Y-32520185D01*
X11241137Y-32536819D01*
X11522181Y-32817862D01*
X11555666Y-32879185D01*
X11558500Y-32905543D01*
X11558500Y-36073456D01*
X11538815Y-36140495D01*
X11486011Y-36186250D01*
X11416853Y-36196194D01*
X11353297Y-36167169D01*
X11346819Y-36161137D01*
X11165213Y-35979531D01*
X11165208Y-35979527D01*
X11085290Y-35933387D01*
X11085289Y-35933386D01*
X11085288Y-35933386D01*
X10996144Y-35909500D01*
X10996143Y-35909500D01*
X10988084Y-35908439D01*
X10988264Y-35907069D01*
X10929504Y-35889815D01*
X10908866Y-35873185D01*
X10856483Y-35820802D01*
X10751393Y-35769427D01*
X10751391Y-35769426D01*
X10683261Y-35759500D01*
X10683260Y-35759500D01*
X8966740Y-35759500D01*
X8966739Y-35759500D01*
X8898608Y-35769426D01*
X8793514Y-35820803D01*
X8710803Y-35903514D01*
X8659426Y-36008608D01*
X8649500Y-36076739D01*
X8649500Y-36443260D01*
X8659426Y-36511391D01*
X8710803Y-36616485D01*
X8793514Y-36699196D01*
X8793515Y-36699196D01*
X8793517Y-36699198D01*
X8898607Y-36750573D01*
X8932673Y-36755536D01*
X8966739Y-36760500D01*
X8966740Y-36760500D01*
X10683261Y-36760500D01*
X10717326Y-36755536D01*
X10751393Y-36750573D01*
X10751394Y-36750572D01*
X10753237Y-36750003D01*
X10753989Y-36749352D01*
X10756526Y-36748987D01*
X10760595Y-36747730D01*
X10760793Y-36748373D01*
X10787004Y-36744604D01*
X10819908Y-36738986D01*
X10821468Y-36739649D01*
X10823147Y-36739408D01*
X10853511Y-36753275D01*
X10884206Y-36766327D01*
X10885159Y-36767728D01*
X10886703Y-36768433D01*
X10904748Y-36796513D01*
X10923516Y-36824090D01*
X10923854Y-36826242D01*
X10924477Y-36827211D01*
X10929500Y-36862146D01*
X10929500Y-36927853D01*
X10909815Y-36994892D01*
X10857011Y-37040647D01*
X10787853Y-37050591D01*
X10760615Y-37042203D01*
X10760595Y-37042270D01*
X10751392Y-37039426D01*
X10683261Y-37029500D01*
X10683260Y-37029500D01*
X8966740Y-37029500D01*
X8966739Y-37029500D01*
X8898608Y-37039426D01*
X8793516Y-37090802D01*
X8767327Y-37116991D01*
X8741136Y-37143182D01*
X8679816Y-37176666D01*
X8653457Y-37179500D01*
X8523856Y-37179500D01*
X8464144Y-37195499D01*
X8464143Y-37195500D01*
X8434712Y-37203386D01*
X8434711Y-37203386D01*
X8434709Y-37203387D01*
X8354791Y-37249527D01*
X8354786Y-37249531D01*
X8090156Y-37514161D01*
X8068214Y-37526142D01*
X8048560Y-37541598D01*
X8038075Y-37542599D01*
X8028833Y-37547646D01*
X8003895Y-37545862D01*
X7979007Y-37548239D01*
X7969646Y-37543413D01*
X7959141Y-37542662D01*
X7939125Y-37527678D01*
X7916904Y-37516222D01*
X7907001Y-37503629D01*
X7903208Y-37500790D01*
X7895087Y-37488479D01*
X7892303Y-37483658D01*
X7892303Y-37483655D01*
X7837111Y-37388060D01*
X7820500Y-37326062D01*
X7820500Y-37220012D01*
X7840185Y-37152973D01*
X7871621Y-37119689D01*
X7873213Y-37118531D01*
X7873220Y-37118528D01*
X7968528Y-37023220D01*
X8029719Y-36903126D01*
X8036210Y-36862146D01*
X8045500Y-36803493D01*
X8045500Y-36286506D01*
X8029720Y-36186878D01*
X8029719Y-36186876D01*
X8029719Y-36186874D01*
X7968528Y-36066780D01*
X7968526Y-36066778D01*
X7968523Y-36066774D01*
X7873225Y-35971476D01*
X7873221Y-35971473D01*
X7873220Y-35971472D01*
X7753126Y-35910281D01*
X7753124Y-35910280D01*
X7753121Y-35910279D01*
X7653493Y-35894500D01*
X7653488Y-35894500D01*
X7406966Y-35894500D01*
X7385720Y-35888261D01*
X7363632Y-35886682D01*
X7352848Y-35878609D01*
X7339927Y-35874815D01*
X7325427Y-35858081D01*
X7307699Y-35844810D01*
X7302991Y-35832189D01*
X7294172Y-35822011D01*
X7291020Y-35800093D01*
X7283282Y-35779346D01*
X7286144Y-35766185D01*
X7284228Y-35752853D01*
X7293427Y-35732709D01*
X7298134Y-35711073D01*
X7311402Y-35693347D01*
X7313253Y-35689297D01*
X7319285Y-35682819D01*
X7320285Y-35681819D01*
X7381608Y-35648334D01*
X7407966Y-35645500D01*
X7653493Y-35645500D01*
X7753121Y-35629720D01*
X7753121Y-35629719D01*
X7753126Y-35629719D01*
X7873220Y-35568528D01*
X7883334Y-35558414D01*
X7959930Y-35481819D01*
X8021253Y-35448334D01*
X8047611Y-35445500D01*
X8340691Y-35445500D01*
X8798177Y-35445500D01*
X8852637Y-35458099D01*
X8883566Y-35473220D01*
X8898607Y-35480573D01*
X8966739Y-35490500D01*
X8966740Y-35490500D01*
X10683261Y-35490500D01*
X10705971Y-35487191D01*
X10751393Y-35480573D01*
X10856483Y-35429198D01*
X10939198Y-35346483D01*
X10990573Y-35241393D01*
X11000500Y-35173260D01*
X11000500Y-34806740D01*
X10990573Y-34738607D01*
X10939198Y-34633517D01*
X10939196Y-34633515D01*
X10939196Y-34633514D01*
X10856485Y-34550803D01*
X10751391Y-34499426D01*
X10683261Y-34489500D01*
X10683260Y-34489500D01*
X8966740Y-34489500D01*
X8966739Y-34489500D01*
X8898608Y-34499426D01*
X8832180Y-34531901D01*
X8777720Y-34544500D01*
X8047611Y-34544500D01*
X8018897Y-34536068D01*
X7989577Y-34530081D01*
X7983686Y-34525729D01*
X7980572Y-34524815D01*
X7961056Y-34509293D01*
X7960460Y-34508712D01*
X7873220Y-34421472D01*
X7868495Y-34419064D01*
X7857945Y-34408780D01*
X7845031Y-34385831D01*
X7828948Y-34364974D01*
X7826771Y-34353382D01*
X7823680Y-34347889D01*
X7824170Y-34339533D01*
X7820500Y-34319987D01*
X7820500Y-32230693D01*
X7820500Y-32230691D01*
X7789799Y-32116114D01*
X7789799Y-32116113D01*
X7730489Y-32013386D01*
X7041819Y-31324716D01*
X7008334Y-31263393D01*
X7005500Y-31237035D01*
X7005500Y-30024000D01*
X7025185Y-29956961D01*
X7077989Y-29911206D01*
X7129500Y-29900000D01*
X7685005Y-29900000D01*
X7752044Y-29919685D01*
G37*
%TD.AperFunction*%
%TA.AperFunction,NonConductor*%
G36*
X8753333Y-37944861D02*
G01*
X8784133Y-37964655D01*
X8785153Y-37963227D01*
X8793513Y-37969195D01*
X8793514Y-37969195D01*
X8793517Y-37969198D01*
X8898607Y-38020573D01*
X8910323Y-38022280D01*
X8966739Y-38030500D01*
X8966740Y-38030500D01*
X10683261Y-38030500D01*
X10705971Y-38027191D01*
X10751393Y-38020573D01*
X10753070Y-38019752D01*
X10754742Y-38019467D01*
X10756024Y-38018357D01*
X10789053Y-38013607D01*
X10821943Y-38007991D01*
X10823503Y-38008654D01*
X10825182Y-38008413D01*
X10855546Y-38022280D01*
X10886241Y-38035332D01*
X10887194Y-38036733D01*
X10888738Y-38037438D01*
X10906777Y-38065508D01*
X10925551Y-38093094D01*
X10925889Y-38095247D01*
X10926512Y-38096216D01*
X10931535Y-38131151D01*
X10931535Y-38198848D01*
X10911850Y-38265887D01*
X10859046Y-38311642D01*
X10789888Y-38321586D01*
X10753079Y-38310251D01*
X10751392Y-38309426D01*
X10683261Y-38299500D01*
X10683260Y-38299500D01*
X8966740Y-38299500D01*
X8966739Y-38299500D01*
X8898608Y-38309426D01*
X8793516Y-38360802D01*
X8768427Y-38385892D01*
X8741136Y-38413182D01*
X8679816Y-38446666D01*
X8672109Y-38448089D01*
X8662835Y-38449500D01*
X8553856Y-38449500D01*
X8464712Y-38473386D01*
X8449993Y-38481883D01*
X8426883Y-38485400D01*
X8414458Y-38483717D01*
X8402270Y-38486668D01*
X8380489Y-38479117D01*
X8357645Y-38476024D01*
X8348100Y-38467889D01*
X8336254Y-38463783D01*
X8322013Y-38445656D01*
X8304468Y-38430703D01*
X8300836Y-38418700D01*
X8293091Y-38408841D01*
X8290910Y-38385892D01*
X8284235Y-38363827D01*
X8287668Y-38351767D01*
X8286483Y-38339284D01*
X8297057Y-38318798D01*
X8303370Y-38296628D01*
X8312778Y-38288339D01*
X8318530Y-38277197D01*
X8320492Y-38275188D01*
X8622320Y-37973360D01*
X8683641Y-37939877D01*
X8753333Y-37944861D01*
G37*
%TD.AperFunction*%
%TA.AperFunction,NonConductor*%
G36*
X4847539Y-29919685D02*
G01*
X4893294Y-29972489D01*
X4904500Y-30024000D01*
X4904500Y-31744752D01*
X4916131Y-31803229D01*
X4916132Y-31803230D01*
X4960447Y-31869552D01*
X5026769Y-31913867D01*
X5026770Y-31913868D01*
X5085247Y-31925499D01*
X5085250Y-31925500D01*
X5085252Y-31925500D01*
X6317035Y-31925500D01*
X6384074Y-31945185D01*
X6404716Y-31961819D01*
X6883181Y-32440284D01*
X6916666Y-32501607D01*
X6919500Y-32527965D01*
X6919500Y-34319987D01*
X6899815Y-34387026D01*
X6868386Y-34420305D01*
X6866776Y-34421474D01*
X6771476Y-34516774D01*
X6771473Y-34516778D01*
X6771472Y-34516780D01*
X6711992Y-34633517D01*
X6710279Y-34636878D01*
X6694500Y-34736506D01*
X6694500Y-34982034D01*
X6674815Y-35049073D01*
X6658181Y-35069715D01*
X6083513Y-35644383D01*
X6083509Y-35644389D01*
X6024201Y-35747112D01*
X6024200Y-35747117D01*
X6013781Y-35786001D01*
X5993500Y-35861691D01*
X5993500Y-37980237D01*
X6008827Y-38037438D01*
X6011045Y-38045714D01*
X6011045Y-38045715D01*
X6024199Y-38094813D01*
X6047320Y-38134858D01*
X6083511Y-38197542D01*
X6083513Y-38197544D01*
X6214180Y-38328211D01*
X6247665Y-38389534D01*
X6250499Y-38415892D01*
X6250499Y-39433375D01*
X6230814Y-39500414D01*
X6178010Y-39546169D01*
X6108852Y-39556113D01*
X6045296Y-39527088D01*
X6038818Y-39521056D01*
X5932071Y-39414309D01*
X5932066Y-39414305D01*
X5779202Y-39303244D01*
X5779201Y-39303243D01*
X5779199Y-39303242D01*
X5725259Y-39275758D01*
X5610832Y-39217453D01*
X5610829Y-39217452D01*
X5431119Y-39159062D01*
X5337800Y-39144281D01*
X5244482Y-39129501D01*
X5244481Y-39129501D01*
X5189883Y-39129501D01*
X2039881Y-39129499D01*
X2006092Y-39129499D01*
X1993938Y-39128902D01*
X1856180Y-39115334D01*
X1832339Y-39110592D01*
X1705731Y-39072186D01*
X1683272Y-39062883D01*
X1566591Y-39000515D01*
X1546380Y-38987010D01*
X1444109Y-38903078D01*
X1426921Y-38885890D01*
X1342988Y-38783617D01*
X1329483Y-38763406D01*
X1267114Y-38646721D01*
X1257814Y-38624270D01*
X1255530Y-38616740D01*
X1219405Y-38497653D01*
X1214666Y-38473823D01*
X1202645Y-38351767D01*
X1201098Y-38336060D01*
X1200501Y-38323907D01*
X1200501Y-38265456D01*
X1200500Y-38265450D01*
X1200500Y-36896530D01*
X2359500Y-36896530D01*
X2359500Y-37103469D01*
X2399868Y-37306412D01*
X2399870Y-37306420D01*
X2473283Y-37483655D01*
X2479059Y-37497598D01*
X2511308Y-37545862D01*
X2594024Y-37669657D01*
X2740342Y-37815975D01*
X2740345Y-37815977D01*
X2912402Y-37930941D01*
X3103580Y-38010130D01*
X3282459Y-38045711D01*
X3306530Y-38050499D01*
X3306534Y-38050500D01*
X3306535Y-38050500D01*
X3513466Y-38050500D01*
X3513467Y-38050499D01*
X3716420Y-38010130D01*
X3907598Y-37930941D01*
X4079655Y-37815977D01*
X4225977Y-37669655D01*
X4340941Y-37497598D01*
X4420130Y-37306420D01*
X4460500Y-37103465D01*
X4460500Y-36896535D01*
X4420130Y-36693580D01*
X4340941Y-36502402D01*
X4225977Y-36330345D01*
X4225975Y-36330342D01*
X4079657Y-36184024D01*
X3993626Y-36126541D01*
X3907598Y-36069059D01*
X3902091Y-36066778D01*
X3716420Y-35989870D01*
X3716412Y-35989868D01*
X3513469Y-35949500D01*
X3513465Y-35949500D01*
X3306535Y-35949500D01*
X3306530Y-35949500D01*
X3103587Y-35989868D01*
X3103579Y-35989870D01*
X2912403Y-36069058D01*
X2740342Y-36184024D01*
X2594024Y-36330342D01*
X2479058Y-36502403D01*
X2399870Y-36693579D01*
X2399868Y-36693587D01*
X2359500Y-36896530D01*
X1200500Y-36896530D01*
X1200500Y-33590247D01*
X2359500Y-33590247D01*
X2359500Y-35329752D01*
X2371131Y-35388229D01*
X2371132Y-35388230D01*
X2415447Y-35454552D01*
X2481769Y-35498867D01*
X2481770Y-35498868D01*
X2540247Y-35510499D01*
X2540250Y-35510500D01*
X2540252Y-35510500D01*
X4279750Y-35510500D01*
X4279751Y-35510499D01*
X4294568Y-35507552D01*
X4338229Y-35498868D01*
X4338229Y-35498867D01*
X4338231Y-35498867D01*
X4404552Y-35454552D01*
X4448867Y-35388231D01*
X4448867Y-35388229D01*
X4448868Y-35388229D01*
X4460499Y-35329752D01*
X4460500Y-35329750D01*
X4460500Y-33590249D01*
X4460499Y-33590247D01*
X4448868Y-33531770D01*
X4448867Y-33531769D01*
X4404552Y-33465447D01*
X4338230Y-33421132D01*
X4338229Y-33421131D01*
X4279752Y-33409500D01*
X4279748Y-33409500D01*
X2540252Y-33409500D01*
X2540247Y-33409500D01*
X2481770Y-33421131D01*
X2481769Y-33421132D01*
X2415447Y-33465447D01*
X2371132Y-33531769D01*
X2371131Y-33531770D01*
X2359500Y-33590247D01*
X1200500Y-33590247D01*
X1200500Y-30024000D01*
X1220185Y-29956961D01*
X1272989Y-29911206D01*
X1324500Y-29900000D01*
X4780500Y-29900000D01*
X4847539Y-29919685D01*
G37*
%TD.AperFunction*%
%TA.AperFunction,NonConductor*%
G36*
X8770319Y-39227875D02*
G01*
X8784047Y-39235172D01*
X8784286Y-39234685D01*
X8793516Y-39239197D01*
X8793517Y-39239198D01*
X8898607Y-39290573D01*
X8910323Y-39292280D01*
X8966739Y-39300500D01*
X8966740Y-39300500D01*
X10683261Y-39300500D01*
X10705971Y-39297191D01*
X10751393Y-39290573D01*
X10753070Y-39289752D01*
X10754742Y-39289467D01*
X10756024Y-39288357D01*
X10789053Y-39283607D01*
X10821943Y-39277991D01*
X10823503Y-39278654D01*
X10825182Y-39278413D01*
X10855546Y-39292280D01*
X10886241Y-39305332D01*
X10887194Y-39306733D01*
X10888738Y-39307438D01*
X10906777Y-39335508D01*
X10925551Y-39363094D01*
X10925889Y-39365247D01*
X10926512Y-39366216D01*
X10931535Y-39401151D01*
X10931535Y-39468848D01*
X10911850Y-39535887D01*
X10859046Y-39581642D01*
X10789888Y-39591586D01*
X10753079Y-39580251D01*
X10751392Y-39579426D01*
X10683261Y-39569500D01*
X10683260Y-39569500D01*
X8966740Y-39569500D01*
X8966739Y-39569500D01*
X8898608Y-39579426D01*
X8793516Y-39630802D01*
X8776620Y-39647699D01*
X8741136Y-39683182D01*
X8718363Y-39695617D01*
X8697713Y-39711334D01*
X8685430Y-39713600D01*
X8679816Y-39716666D01*
X8663286Y-39719110D01*
X8658381Y-39719500D01*
X8533856Y-39719500D01*
X8481308Y-39733579D01*
X8470002Y-39734479D01*
X8446460Y-39729553D01*
X8422416Y-39728981D01*
X8412881Y-39722527D01*
X8401613Y-39720170D01*
X8384471Y-39703299D01*
X8364554Y-39689818D01*
X8360022Y-39679234D01*
X8351817Y-39671159D01*
X8346518Y-39647699D01*
X8337050Y-39625589D01*
X8338959Y-39614235D01*
X8336423Y-39603006D01*
X8344648Y-39580405D01*
X8348637Y-39556687D01*
X8358134Y-39543350D01*
X8360318Y-39537350D01*
X8364879Y-39533878D01*
X8372489Y-39523191D01*
X8639306Y-39256374D01*
X8700627Y-39222891D01*
X8770319Y-39227875D01*
G37*
%TD.AperFunction*%
%TA.AperFunction,NonConductor*%
G36*
X13396499Y-36581872D02*
G01*
X13404712Y-36586614D01*
X13493856Y-36610500D01*
X13493857Y-36610500D01*
X13586144Y-36610500D01*
X13603457Y-36610500D01*
X13670496Y-36630185D01*
X13691133Y-36646814D01*
X13743517Y-36699198D01*
X13848607Y-36750573D01*
X13882673Y-36755536D01*
X13916739Y-36760500D01*
X13916740Y-36760500D01*
X15633258Y-36760500D01*
X15633260Y-36760500D01*
X15677793Y-36754011D01*
X15682431Y-36754669D01*
X15686824Y-36753031D01*
X15716697Y-36759529D01*
X15746967Y-36763823D01*
X15751787Y-36767162D01*
X15755097Y-36767883D01*
X15783351Y-36789034D01*
X15828443Y-36834126D01*
X15861928Y-36895449D01*
X15856944Y-36965141D01*
X15815072Y-37021074D01*
X15749608Y-37045491D01*
X15704156Y-37040281D01*
X15701394Y-37039427D01*
X15701393Y-37039427D01*
X15701391Y-37039426D01*
X15701389Y-37039426D01*
X15633261Y-37029500D01*
X15633260Y-37029500D01*
X13916740Y-37029500D01*
X13916739Y-37029500D01*
X13848608Y-37039426D01*
X13743514Y-37090803D01*
X13660803Y-37173514D01*
X13609426Y-37278608D01*
X13599500Y-37346739D01*
X13599500Y-37713260D01*
X13609426Y-37781391D01*
X13609427Y-37781393D01*
X13660275Y-37885406D01*
X13660803Y-37886485D01*
X13743514Y-37969196D01*
X13743515Y-37969196D01*
X13743517Y-37969198D01*
X13848607Y-38020573D01*
X13860323Y-38022280D01*
X13916739Y-38030500D01*
X13916740Y-38030500D01*
X15633261Y-38030500D01*
X15655971Y-38027191D01*
X15701393Y-38020573D01*
X15806483Y-37969198D01*
X15806486Y-37969195D01*
X15814847Y-37963227D01*
X15816542Y-37965601D01*
X15863602Y-37939885D01*
X15933295Y-37944847D01*
X15977680Y-37973362D01*
X16264826Y-38260508D01*
X16298311Y-38321831D01*
X16293327Y-38391523D01*
X16251455Y-38447456D01*
X16185991Y-38471873D01*
X16165003Y-38471593D01*
X16154878Y-38470596D01*
X16076144Y-38449500D01*
X15940459Y-38449500D01*
X15934401Y-38448904D01*
X15907416Y-38438011D01*
X15879504Y-38429815D01*
X15871865Y-38423660D01*
X15869611Y-38422750D01*
X15868117Y-38420639D01*
X15858866Y-38413185D01*
X15806483Y-38360802D01*
X15701393Y-38309427D01*
X15701391Y-38309426D01*
X15633261Y-38299500D01*
X15633260Y-38299500D01*
X13916740Y-38299500D01*
X13916739Y-38299500D01*
X13848608Y-38309426D01*
X13743514Y-38360803D01*
X13660803Y-38443514D01*
X13609426Y-38548608D01*
X13599500Y-38616739D01*
X13599500Y-38983260D01*
X13609426Y-39051391D01*
X13609427Y-39051393D01*
X13660275Y-39155406D01*
X13660803Y-39156485D01*
X13743514Y-39239196D01*
X13743515Y-39239196D01*
X13743517Y-39239198D01*
X13848607Y-39290573D01*
X13860323Y-39292280D01*
X13916739Y-39300500D01*
X13916740Y-39300500D01*
X15633261Y-39300500D01*
X15655971Y-39297191D01*
X15701393Y-39290573D01*
X15806483Y-39239198D01*
X15806486Y-39239195D01*
X15814847Y-39233227D01*
X15816542Y-39235601D01*
X15863602Y-39209885D01*
X15933295Y-39214847D01*
X15977680Y-39243362D01*
X16261165Y-39526847D01*
X16294650Y-39588170D01*
X16289666Y-39657862D01*
X16247794Y-39713795D01*
X16182330Y-39738212D01*
X16163124Y-39738094D01*
X16152083Y-39737168D01*
X16086144Y-39719500D01*
X15941359Y-39719500D01*
X15936183Y-39719066D01*
X15908247Y-39708255D01*
X15879504Y-39699815D01*
X15873096Y-39694651D01*
X15871022Y-39693849D01*
X15869483Y-39691740D01*
X15858866Y-39683185D01*
X15806483Y-39630802D01*
X15726265Y-39591586D01*
X15701391Y-39579426D01*
X15633261Y-39569500D01*
X15633260Y-39569500D01*
X13916740Y-39569500D01*
X13916739Y-39569500D01*
X13848608Y-39579426D01*
X13743516Y-39630802D01*
X13726620Y-39647699D01*
X13691136Y-39683182D01*
X13664205Y-39697888D01*
X13638392Y-39714477D01*
X13632192Y-39715368D01*
X13629816Y-39716666D01*
X13603457Y-39719500D01*
X13406544Y-39719500D01*
X13339505Y-39699815D01*
X13318863Y-39683181D01*
X13246819Y-39611137D01*
X13213334Y-39549814D01*
X13210500Y-39523456D01*
X13210500Y-36689259D01*
X13230185Y-36622220D01*
X13282989Y-36576465D01*
X13352147Y-36566521D01*
X13396499Y-36581872D01*
G37*
%TD.AperFunction*%
%TA.AperFunction,NonConductor*%
G36*
X17912044Y-29919685D02*
G01*
X17957799Y-29972489D01*
X17967743Y-30041647D01*
X17938718Y-30105203D01*
X17932686Y-30111681D01*
X17839025Y-30205341D01*
X17839024Y-30205342D01*
X17724058Y-30377403D01*
X17644870Y-30568579D01*
X17644868Y-30568587D01*
X17604500Y-30771530D01*
X17604500Y-30978469D01*
X17644868Y-31181412D01*
X17644870Y-31181420D01*
X17704225Y-31324716D01*
X17724059Y-31372598D01*
X17731622Y-31383917D01*
X17839024Y-31544657D01*
X17985342Y-31690975D01*
X17985345Y-31690977D01*
X18157402Y-31805941D01*
X18348580Y-31885130D01*
X18493052Y-31913867D01*
X18551530Y-31925499D01*
X18551534Y-31925500D01*
X18551535Y-31925500D01*
X18758466Y-31925500D01*
X18758467Y-31925499D01*
X18961420Y-31885130D01*
X19152598Y-31805941D01*
X19324655Y-31690977D01*
X19470977Y-31544655D01*
X19585941Y-31372598D01*
X19665130Y-31181420D01*
X19705500Y-30978465D01*
X19705500Y-30771535D01*
X19665130Y-30568580D01*
X19585941Y-30377402D01*
X19470977Y-30205345D01*
X19470975Y-30205342D01*
X19377314Y-30111681D01*
X19343829Y-30050358D01*
X19348813Y-29980666D01*
X19390685Y-29924733D01*
X19456149Y-29900316D01*
X19464995Y-29900000D01*
X23275499Y-29900000D01*
X23342538Y-29919685D01*
X23388293Y-29972489D01*
X23399499Y-30024000D01*
X23399499Y-38323907D01*
X23398902Y-38336060D01*
X23398902Y-38336061D01*
X23385334Y-38473818D01*
X23380592Y-38497659D01*
X23342185Y-38624270D01*
X23332882Y-38646729D01*
X23270516Y-38763406D01*
X23257011Y-38783617D01*
X23173078Y-38885890D01*
X23155890Y-38903078D01*
X23053619Y-38987010D01*
X23033408Y-39000515D01*
X22916727Y-39062883D01*
X22894268Y-39072186D01*
X22767660Y-39110592D01*
X22743819Y-39115334D01*
X22606062Y-39128902D01*
X22593908Y-39129499D01*
X22560119Y-39129499D01*
X22560118Y-39129499D01*
X19410117Y-39129501D01*
X19355518Y-39129501D01*
X19293306Y-39139354D01*
X19168880Y-39159062D01*
X18989170Y-39217452D01*
X18989167Y-39217453D01*
X18820797Y-39303244D01*
X18667933Y-39414305D01*
X18667928Y-39414309D01*
X18534308Y-39547929D01*
X18534304Y-39547934D01*
X18423243Y-39700798D01*
X18337455Y-39869166D01*
X18279060Y-40048886D01*
X18267974Y-40118881D01*
X18238045Y-40182016D01*
X18178733Y-40218947D01*
X18108870Y-40217949D01*
X18050638Y-40179339D01*
X18022524Y-40115375D01*
X18021501Y-40099483D01*
X18021501Y-38134860D01*
X18021501Y-38134858D01*
X17997615Y-38045714D01*
X17997614Y-38045713D01*
X17997614Y-38045711D01*
X17983047Y-38020482D01*
X17983045Y-38020479D01*
X17981820Y-38018357D01*
X17951471Y-37965790D01*
X16882211Y-36896530D01*
X20139500Y-36896530D01*
X20139500Y-37103469D01*
X20179868Y-37306412D01*
X20179870Y-37306420D01*
X20253283Y-37483655D01*
X20259059Y-37497598D01*
X20291308Y-37545862D01*
X20374024Y-37669657D01*
X20520342Y-37815975D01*
X20520345Y-37815977D01*
X20692402Y-37930941D01*
X20883580Y-38010130D01*
X21062459Y-38045711D01*
X21086530Y-38050499D01*
X21086534Y-38050500D01*
X21086535Y-38050500D01*
X21293466Y-38050500D01*
X21293467Y-38050499D01*
X21496420Y-38010130D01*
X21687598Y-37930941D01*
X21859655Y-37815977D01*
X22005977Y-37669655D01*
X22120941Y-37497598D01*
X22200130Y-37306420D01*
X22240500Y-37103465D01*
X22240500Y-36896535D01*
X22200130Y-36693580D01*
X22120941Y-36502402D01*
X22005977Y-36330345D01*
X22005975Y-36330342D01*
X21859657Y-36184024D01*
X21773626Y-36126541D01*
X21687598Y-36069059D01*
X21682091Y-36066778D01*
X21496420Y-35989870D01*
X21496412Y-35989868D01*
X21293469Y-35949500D01*
X21293465Y-35949500D01*
X21086535Y-35949500D01*
X21086530Y-35949500D01*
X20883587Y-35989868D01*
X20883579Y-35989870D01*
X20692403Y-36069058D01*
X20520342Y-36184024D01*
X20374024Y-36330342D01*
X20259058Y-36502403D01*
X20179870Y-36693579D01*
X20179868Y-36693587D01*
X20139500Y-36896530D01*
X16882211Y-36896530D01*
X15965211Y-35979530D01*
X15965210Y-35979529D01*
X15965207Y-35979527D01*
X15943857Y-35967201D01*
X15895642Y-35916634D01*
X15894476Y-35914315D01*
X15889198Y-35903517D01*
X15806483Y-35820802D01*
X15701393Y-35769427D01*
X15701391Y-35769426D01*
X15633261Y-35759500D01*
X15633260Y-35759500D01*
X13916740Y-35759500D01*
X13916739Y-35759500D01*
X13848608Y-35769426D01*
X13779960Y-35802986D01*
X13778289Y-35803271D01*
X13777011Y-35804379D01*
X13743979Y-35809128D01*
X13711086Y-35814744D01*
X13709529Y-35814081D01*
X13707853Y-35814323D01*
X13677490Y-35800456D01*
X13646790Y-35787401D01*
X13645837Y-35786001D01*
X13644297Y-35785298D01*
X13626245Y-35757209D01*
X13607483Y-35729636D01*
X13607145Y-35727488D01*
X13606523Y-35726520D01*
X13601500Y-35691585D01*
X13601500Y-35558414D01*
X13621185Y-35491375D01*
X13673989Y-35445620D01*
X13743147Y-35435676D01*
X13779959Y-35447013D01*
X13810846Y-35462113D01*
X13848607Y-35480573D01*
X13916739Y-35490500D01*
X13916740Y-35490500D01*
X15633261Y-35490500D01*
X15667326Y-35485536D01*
X15701393Y-35480573D01*
X15747362Y-35458099D01*
X15801823Y-35445500D01*
X16077403Y-35445500D01*
X16139402Y-35462112D01*
X16243655Y-35522303D01*
X16386209Y-35560500D01*
X16386211Y-35560500D01*
X16533789Y-35560500D01*
X16533791Y-35560500D01*
X16676345Y-35522303D01*
X16804155Y-35448512D01*
X16908512Y-35344155D01*
X16982303Y-35216345D01*
X17020500Y-35073791D01*
X17020500Y-34926209D01*
X16982303Y-34783655D01*
X16908512Y-34655845D01*
X16804155Y-34551488D01*
X16710592Y-34497470D01*
X16676347Y-34477698D01*
X16676346Y-34477697D01*
X16676345Y-34477697D01*
X16533791Y-34439500D01*
X16386209Y-34439500D01*
X16243655Y-34477697D01*
X16243652Y-34477698D01*
X16188929Y-34509293D01*
X16160462Y-34525729D01*
X16156724Y-34527887D01*
X16094724Y-34544500D01*
X15822280Y-34544500D01*
X15767820Y-34531901D01*
X15701391Y-34499426D01*
X15633261Y-34489500D01*
X15633260Y-34489500D01*
X13916740Y-34489500D01*
X13916739Y-34489500D01*
X13848608Y-34499426D01*
X13779960Y-34532986D01*
X13711086Y-34544744D01*
X13646790Y-34517401D01*
X13607483Y-34459636D01*
X13601500Y-34421585D01*
X13601500Y-33935543D01*
X13621185Y-33868504D01*
X13637814Y-33847867D01*
X13895434Y-33590247D01*
X20139500Y-33590247D01*
X20139500Y-35329752D01*
X20151131Y-35388229D01*
X20151132Y-35388230D01*
X20195447Y-35454552D01*
X20261769Y-35498867D01*
X20261770Y-35498868D01*
X20320247Y-35510499D01*
X20320250Y-35510500D01*
X20320252Y-35510500D01*
X22059750Y-35510500D01*
X22059751Y-35510499D01*
X22074568Y-35507552D01*
X22118229Y-35498868D01*
X22118229Y-35498867D01*
X22118231Y-35498867D01*
X22184552Y-35454552D01*
X22228867Y-35388231D01*
X22228867Y-35388229D01*
X22228868Y-35388229D01*
X22240499Y-35329752D01*
X22240500Y-35329750D01*
X22240500Y-33590249D01*
X22240499Y-33590247D01*
X22228868Y-33531770D01*
X22228867Y-33531769D01*
X22184552Y-33465447D01*
X22118230Y-33421132D01*
X22118229Y-33421131D01*
X22059752Y-33409500D01*
X22059748Y-33409500D01*
X20320252Y-33409500D01*
X20320247Y-33409500D01*
X20261770Y-33421131D01*
X20261769Y-33421132D01*
X20195447Y-33465447D01*
X20151132Y-33531769D01*
X20151131Y-33531770D01*
X20139500Y-33590247D01*
X13895434Y-33590247D01*
X15602896Y-31882784D01*
X15664217Y-31849301D01*
X15733909Y-31854285D01*
X15738028Y-31855906D01*
X15808580Y-31885130D01*
X15953052Y-31913867D01*
X16011530Y-31925499D01*
X16011534Y-31925500D01*
X16011535Y-31925500D01*
X16218466Y-31925500D01*
X16218467Y-31925499D01*
X16421420Y-31885130D01*
X16612598Y-31805941D01*
X16784655Y-31690977D01*
X16930977Y-31544655D01*
X17045941Y-31372598D01*
X17125130Y-31181420D01*
X17165500Y-30978465D01*
X17165500Y-30771535D01*
X17125130Y-30568580D01*
X17045941Y-30377402D01*
X16930977Y-30205345D01*
X16930975Y-30205342D01*
X16837314Y-30111681D01*
X16803829Y-30050358D01*
X16808813Y-29980666D01*
X16850685Y-29924733D01*
X16916149Y-29900316D01*
X16924995Y-29900000D01*
X17845005Y-29900000D01*
X17912044Y-29919685D01*
G37*
%TD.AperFunction*%
%TA.AperFunction,NonConductor*%
G36*
X8758649Y-40489544D02*
G01*
X8787370Y-40504809D01*
X8793516Y-40509197D01*
X8793517Y-40509198D01*
X8898607Y-40560573D01*
X8932673Y-40565536D01*
X8966739Y-40570500D01*
X8966740Y-40570500D01*
X10683261Y-40570500D01*
X10717326Y-40565536D01*
X10751393Y-40560573D01*
X10751394Y-40560572D01*
X10760595Y-40557730D01*
X10761380Y-40560272D01*
X10781303Y-40557221D01*
X10814719Y-40551508D01*
X10815750Y-40551946D01*
X10816856Y-40551777D01*
X10847804Y-40565569D01*
X10879023Y-40578837D01*
X10879988Y-40579912D01*
X10880675Y-40580218D01*
X10885965Y-40586566D01*
X10904031Y-40606679D01*
X10905967Y-40609633D01*
X10941550Y-40671263D01*
X10955570Y-40685283D01*
X10962565Y-40695951D01*
X10969158Y-40717667D01*
X10980034Y-40737585D01*
X10979113Y-40750457D01*
X10982863Y-40762807D01*
X10976668Y-40784639D01*
X10975050Y-40807277D01*
X10967315Y-40817609D01*
X10963793Y-40830024D01*
X10946778Y-40845042D01*
X10933178Y-40863210D01*
X10921087Y-40867719D01*
X10911411Y-40876261D01*
X10888976Y-40879696D01*
X10867714Y-40887627D01*
X10854248Y-40885014D01*
X10842346Y-40886837D01*
X10825924Y-40879518D01*
X10804409Y-40875344D01*
X10751393Y-40849426D01*
X10683261Y-40839500D01*
X10683260Y-40839500D01*
X8966740Y-40839500D01*
X8966739Y-40839500D01*
X8898608Y-40849426D01*
X8793516Y-40900802D01*
X8776961Y-40917358D01*
X8741136Y-40953182D01*
X8716002Y-40966906D01*
X8692458Y-40983207D01*
X8683505Y-40984651D01*
X8679816Y-40986666D01*
X8657717Y-40989427D01*
X8655593Y-40989500D01*
X8513856Y-40989500D01*
X8493002Y-40995087D01*
X8492996Y-40995088D01*
X8480590Y-40998413D01*
X8410740Y-40996749D01*
X8352878Y-40957586D01*
X8342414Y-40933151D01*
X8337540Y-40927901D01*
X8335652Y-40917358D01*
X8325375Y-40893357D01*
X8324498Y-40878638D01*
X8324498Y-40872545D01*
X8326442Y-40865921D01*
X8325226Y-40859125D01*
X8336161Y-40832825D01*
X8344183Y-40805506D01*
X8351077Y-40796950D01*
X8352051Y-40794609D01*
X8354116Y-40793179D01*
X8360817Y-40784864D01*
X8480499Y-40665182D01*
X8627637Y-40518043D01*
X8688958Y-40484560D01*
X8758649Y-40489544D01*
G37*
%TD.AperFunction*%
%TA.AperFunction,NonConductor*%
G36*
X11855398Y-41278400D02*
G01*
X11868833Y-41279361D01*
X11886559Y-41292630D01*
X11906703Y-41301830D01*
X11913984Y-41313160D01*
X11924767Y-41321232D01*
X11932505Y-41341979D01*
X11944477Y-41360608D01*
X11947628Y-41382526D01*
X11949184Y-41386697D01*
X11949500Y-41395543D01*
X11949500Y-41553456D01*
X11929815Y-41620495D01*
X11913181Y-41641137D01*
X11331137Y-42223181D01*
X11269814Y-42256666D01*
X11243456Y-42259500D01*
X10996543Y-42259500D01*
X10929504Y-42239815D01*
X10908866Y-42223185D01*
X10856483Y-42170802D01*
X10758890Y-42123092D01*
X10751391Y-42119426D01*
X10683261Y-42109500D01*
X10683260Y-42109500D01*
X8966740Y-42109500D01*
X8966739Y-42109500D01*
X8898607Y-42119426D01*
X8898605Y-42119427D01*
X8893956Y-42121700D01*
X8892287Y-42121984D01*
X8891010Y-42123092D01*
X8857980Y-42127841D01*
X8825083Y-42133457D01*
X8823526Y-42132795D01*
X8821852Y-42133036D01*
X8791490Y-42119170D01*
X8760786Y-42106112D01*
X8759834Y-42104713D01*
X8758296Y-42104011D01*
X8740254Y-42075938D01*
X8721481Y-42048347D01*
X8721143Y-42046200D01*
X8720522Y-42045233D01*
X8715499Y-42010298D01*
X8715499Y-41939701D01*
X8735184Y-41872662D01*
X8787988Y-41826907D01*
X8857146Y-41816963D01*
X8893959Y-41828300D01*
X8898607Y-41830573D01*
X8944029Y-41837191D01*
X8966739Y-41840500D01*
X8966740Y-41840500D01*
X10683261Y-41840500D01*
X10705971Y-41837191D01*
X10751393Y-41830573D01*
X10856483Y-41779198D01*
X10908863Y-41726817D01*
X10970184Y-41693334D01*
X10996543Y-41690500D01*
X11256142Y-41690500D01*
X11256144Y-41690500D01*
X11345288Y-41666614D01*
X11425212Y-41620470D01*
X11737819Y-41307861D01*
X11757255Y-41297249D01*
X11773989Y-41282749D01*
X11787320Y-41280832D01*
X11799142Y-41274377D01*
X11821228Y-41275956D01*
X11843147Y-41272805D01*
X11855398Y-41278400D01*
G37*
%TD.AperFunction*%
%TA.AperFunction,NonConductor*%
G36*
X12855703Y-40211831D02*
G01*
X12862181Y-40217863D01*
X12994788Y-40350470D01*
X13072832Y-40395528D01*
X13072839Y-40395535D01*
X13072840Y-40395533D01*
X13074712Y-40396614D01*
X13163856Y-40420500D01*
X13163857Y-40420500D01*
X13256144Y-40420500D01*
X13603457Y-40420500D01*
X13670496Y-40440185D01*
X13691133Y-40456814D01*
X13743517Y-40509198D01*
X13848607Y-40560573D01*
X13882673Y-40565536D01*
X13916739Y-40570500D01*
X13916740Y-40570500D01*
X15633261Y-40570500D01*
X15667103Y-40565569D01*
X15701393Y-40560573D01*
X15806483Y-40509198D01*
X15807309Y-40508371D01*
X15808721Y-40507600D01*
X15814847Y-40503227D01*
X15815341Y-40503919D01*
X15820689Y-40496776D01*
X15845440Y-40487544D01*
X15868626Y-40474880D01*
X15877663Y-40475525D01*
X15886153Y-40472359D01*
X15911967Y-40477974D01*
X15938318Y-40479856D01*
X15947378Y-40485677D01*
X15954426Y-40487211D01*
X15982680Y-40508362D01*
X16103181Y-40628863D01*
X16136666Y-40690186D01*
X16139500Y-40716544D01*
X16139500Y-40865500D01*
X16119815Y-40932539D01*
X16067011Y-40978294D01*
X16015500Y-40989500D01*
X15946543Y-40989500D01*
X15879504Y-40969815D01*
X15858866Y-40953185D01*
X15806483Y-40900802D01*
X15762946Y-40879518D01*
X15701391Y-40849426D01*
X15633261Y-40839500D01*
X15633260Y-40839500D01*
X13916740Y-40839500D01*
X13916739Y-40839500D01*
X13848608Y-40849426D01*
X13743514Y-40900803D01*
X13660803Y-40983514D01*
X13609426Y-41088608D01*
X13599500Y-41156739D01*
X13599500Y-41523260D01*
X13609426Y-41591391D01*
X13660803Y-41696485D01*
X13743514Y-41779196D01*
X13743515Y-41779196D01*
X13743517Y-41779198D01*
X13848607Y-41830573D01*
X13882673Y-41835536D01*
X13916739Y-41840500D01*
X15625500Y-41840500D01*
X15634185Y-41843050D01*
X15643147Y-41841762D01*
X15667187Y-41852740D01*
X15692539Y-41860185D01*
X15698466Y-41867025D01*
X15706703Y-41870787D01*
X15720992Y-41893021D01*
X15738294Y-41912989D01*
X15740581Y-41923503D01*
X15744477Y-41929565D01*
X15749500Y-41964500D01*
X15749500Y-41985500D01*
X15729815Y-42052539D01*
X15677011Y-42098294D01*
X15625500Y-42109500D01*
X13916739Y-42109500D01*
X13848608Y-42119426D01*
X13743516Y-42170802D01*
X13717327Y-42196991D01*
X13691136Y-42223182D01*
X13629816Y-42256666D01*
X13603457Y-42259500D01*
X13473856Y-42259500D01*
X13384712Y-42283386D01*
X13384711Y-42283386D01*
X13384709Y-42283387D01*
X13384706Y-42283388D01*
X13304794Y-42329526D01*
X13304785Y-42329533D01*
X12002181Y-43632137D01*
X11940858Y-43665622D01*
X11871166Y-43660638D01*
X11815233Y-43618766D01*
X11790816Y-43553302D01*
X11790500Y-43544456D01*
X11790500Y-42806544D01*
X11810185Y-42739505D01*
X11826819Y-42718863D01*
X12580470Y-41965212D01*
X12626614Y-41885288D01*
X12650500Y-41796143D01*
X12650500Y-41703856D01*
X12650500Y-40305544D01*
X12670185Y-40238505D01*
X12722989Y-40192750D01*
X12792147Y-40182806D01*
X12855703Y-40211831D01*
G37*
%TD.AperFunction*%
%TA.AperFunction,NonConductor*%
G36*
X8893959Y-43098300D02*
G01*
X8898607Y-43100573D01*
X8944029Y-43107191D01*
X8966739Y-43110500D01*
X8966740Y-43110500D01*
X10340462Y-43110500D01*
X10407501Y-43130185D01*
X10453256Y-43182989D01*
X10463200Y-43252147D01*
X10460240Y-43266576D01*
X10439500Y-43343982D01*
X10439500Y-43343984D01*
X10439500Y-43456017D01*
X10468497Y-43564239D01*
X10488761Y-43599336D01*
X10497886Y-43615140D01*
X10514500Y-43677141D01*
X10514500Y-44410934D01*
X10494815Y-44477973D01*
X10442011Y-44523728D01*
X10372853Y-44533672D01*
X10315016Y-44509312D01*
X10310081Y-44505525D01*
X10230162Y-44459384D01*
X10230158Y-44459382D01*
X10226648Y-44458442D01*
X10226648Y-44458441D01*
X10141015Y-44435497D01*
X8932541Y-44435497D01*
X8903100Y-44426852D01*
X8873114Y-44420329D01*
X8868098Y-44416574D01*
X8865502Y-44415812D01*
X8844860Y-44399178D01*
X8751818Y-44306136D01*
X8718333Y-44244813D01*
X8715499Y-44218455D01*
X8715499Y-43209701D01*
X8735184Y-43142662D01*
X8787988Y-43096907D01*
X8857146Y-43086963D01*
X8893959Y-43098300D01*
G37*
%TD.AperFunction*%
%TA.AperFunction,NonConductor*%
G36*
X17239835Y-45677235D02*
G01*
X17295768Y-45719107D01*
X17320185Y-45784571D01*
X17320501Y-45793417D01*
X17320501Y-46082034D01*
X17300816Y-46149073D01*
X17248012Y-46194828D01*
X17178854Y-46204772D01*
X17115298Y-46175747D01*
X17108820Y-46169715D01*
X17104553Y-46165448D01*
X17038230Y-46121132D01*
X16978159Y-46109183D01*
X16916248Y-46076798D01*
X16881674Y-46016082D01*
X16885414Y-45946313D01*
X16914668Y-45899887D01*
X17108820Y-45705736D01*
X17170143Y-45672251D01*
X17239835Y-45677235D01*
G37*
%TD.AperFunction*%
%TA.AperFunction,NonConductor*%
G36*
X7356702Y-45561703D02*
G01*
X7363175Y-45567731D01*
X7694032Y-45898588D01*
X7727517Y-45959910D01*
X7722533Y-46029602D01*
X7680661Y-46085535D01*
X7625924Y-46106796D01*
X7626226Y-46108311D01*
X7561770Y-46121131D01*
X7561769Y-46121132D01*
X7495447Y-46165447D01*
X7451132Y-46231769D01*
X7451131Y-46231770D01*
X7439500Y-46290247D01*
X7439500Y-46523035D01*
X7433261Y-46544280D01*
X7431682Y-46566369D01*
X7423609Y-46577152D01*
X7419815Y-46590074D01*
X7403081Y-46604573D01*
X7389810Y-46622302D01*
X7377189Y-46627009D01*
X7367011Y-46635829D01*
X7345093Y-46638980D01*
X7324346Y-46646719D01*
X7311185Y-46643856D01*
X7297853Y-46645773D01*
X7277709Y-46636573D01*
X7256073Y-46631867D01*
X7238347Y-46618598D01*
X7234297Y-46616748D01*
X7227819Y-46610716D01*
X7187818Y-46570715D01*
X7154333Y-46509392D01*
X7151499Y-46483034D01*
X7151499Y-45655416D01*
X7171184Y-45588377D01*
X7223988Y-45542622D01*
X7293146Y-45532678D01*
X7356702Y-45561703D01*
G37*
%TD.AperFunction*%
%TA.AperFunction,NonConductor*%
G36*
X16871494Y-48230185D02*
G01*
X16917249Y-48282989D01*
X16927193Y-48352147D01*
X16898168Y-48415703D01*
X16892136Y-48422181D01*
X16622104Y-48692213D01*
X16560781Y-48725698D01*
X16491089Y-48720714D01*
X16486970Y-48719093D01*
X16416420Y-48689870D01*
X16416412Y-48689868D01*
X16213469Y-48649500D01*
X16213465Y-48649500D01*
X16006535Y-48649500D01*
X16006530Y-48649500D01*
X15803587Y-48689868D01*
X15803579Y-48689870D01*
X15612403Y-48769058D01*
X15453391Y-48875305D01*
X15443692Y-48878341D01*
X15436013Y-48884996D01*
X15410912Y-48888605D01*
X15386713Y-48896182D01*
X15376913Y-48893493D01*
X15366855Y-48894940D01*
X15343787Y-48884405D01*
X15319333Y-48877697D01*
X15312542Y-48870137D01*
X15303299Y-48865916D01*
X15289588Y-48844582D01*
X15272644Y-48825718D01*
X15270012Y-48814122D01*
X15265524Y-48807138D01*
X15260501Y-48772205D01*
X15260502Y-48639772D01*
X15260500Y-48639766D01*
X15260502Y-48334499D01*
X15280187Y-48267460D01*
X15332991Y-48221705D01*
X15384502Y-48210500D01*
X16804455Y-48210500D01*
X16871494Y-48230185D01*
G37*
%TD.AperFunction*%
%TA.AperFunction,NonConductor*%
G36*
X9290667Y-50515619D02*
G01*
X9337357Y-50567598D01*
X9349500Y-50621114D01*
X9349500Y-50833456D01*
X9329815Y-50900495D01*
X9313181Y-50921137D01*
X9002104Y-51232213D01*
X8940781Y-51265698D01*
X8871089Y-51260714D01*
X8866980Y-51259097D01*
X8796420Y-51229870D01*
X8796412Y-51229868D01*
X8593469Y-51189500D01*
X8593465Y-51189500D01*
X8386535Y-51189500D01*
X8386530Y-51189500D01*
X8183587Y-51229868D01*
X8183579Y-51229870D01*
X7992403Y-51309058D01*
X7832390Y-51415974D01*
X7822690Y-51419011D01*
X7815011Y-51425665D01*
X7789912Y-51429273D01*
X7765712Y-51436851D01*
X7755912Y-51434162D01*
X7745853Y-51435609D01*
X7722786Y-51425074D01*
X7698332Y-51418366D01*
X7691541Y-51410805D01*
X7682297Y-51406584D01*
X7668587Y-51385251D01*
X7651643Y-51366387D01*
X7649011Y-51354790D01*
X7644523Y-51347806D01*
X7639500Y-51312871D01*
X7639500Y-51097543D01*
X7659185Y-51030504D01*
X7675815Y-51009866D01*
X7977896Y-50707784D01*
X8039217Y-50674301D01*
X8108908Y-50679285D01*
X8113028Y-50680906D01*
X8183580Y-50710130D01*
X8381669Y-50749532D01*
X8386530Y-50750499D01*
X8386534Y-50750500D01*
X8386535Y-50750500D01*
X8593466Y-50750500D01*
X8593467Y-50750499D01*
X8796420Y-50710130D01*
X8987598Y-50630941D01*
X9092637Y-50560757D01*
X9156610Y-50518012D01*
X9223287Y-50497134D01*
X9290667Y-50515619D01*
G37*
%TD.AperFunction*%
%TA.AperFunction,NonConductor*%
G36*
X9679773Y-52482863D02*
G01*
X9727384Y-52534000D01*
X9740500Y-52589505D01*
X9740500Y-52982455D01*
X9720815Y-53049494D01*
X9704181Y-53070136D01*
X9002104Y-53772213D01*
X8940781Y-53805698D01*
X8871089Y-53800714D01*
X8866980Y-53799097D01*
X8796420Y-53769870D01*
X8796412Y-53769868D01*
X8593469Y-53729500D01*
X8593465Y-53729500D01*
X8386535Y-53729500D01*
X8386530Y-53729500D01*
X8183587Y-53769868D01*
X8183579Y-53769870D01*
X7992403Y-53849058D01*
X7832390Y-53955974D01*
X7765712Y-53976851D01*
X7698332Y-53958366D01*
X7651643Y-53906387D01*
X7639500Y-53852871D01*
X7639500Y-53167128D01*
X7659185Y-53100089D01*
X7711989Y-53054334D01*
X7781147Y-53044390D01*
X7832390Y-53064026D01*
X7992400Y-53170940D01*
X7992401Y-53170940D01*
X7992402Y-53170941D01*
X8183580Y-53250130D01*
X8386530Y-53290499D01*
X8386534Y-53290500D01*
X8386535Y-53290500D01*
X8593466Y-53290500D01*
X8593467Y-53290499D01*
X8796420Y-53250130D01*
X8987598Y-53170941D01*
X9159655Y-53055977D01*
X9305977Y-52909655D01*
X9420941Y-52737598D01*
X9500130Y-52546420D01*
X9500130Y-52546418D01*
X9501939Y-52542052D01*
X9545780Y-52487649D01*
X9612074Y-52465584D01*
X9679773Y-52482863D01*
G37*
%TD.AperFunction*%
%TA.AperFunction,NonConductor*%
G36*
X10050834Y-53817360D02*
G01*
X10106767Y-53859232D01*
X10131184Y-53924696D01*
X10131500Y-53933542D01*
X10131500Y-55131456D01*
X10111815Y-55198495D01*
X10095181Y-55219137D01*
X9002104Y-56312213D01*
X8940781Y-56345698D01*
X8871089Y-56340714D01*
X8866980Y-56339097D01*
X8796420Y-56309870D01*
X8796412Y-56309868D01*
X8593469Y-56269500D01*
X8593465Y-56269500D01*
X8386535Y-56269500D01*
X8386530Y-56269500D01*
X8183587Y-56309868D01*
X8183579Y-56309870D01*
X7992403Y-56389058D01*
X7832390Y-56495974D01*
X7765712Y-56516851D01*
X7698332Y-56498366D01*
X7651643Y-56446387D01*
X7639500Y-56392871D01*
X7639500Y-55707128D01*
X7659185Y-55640089D01*
X7711989Y-55594334D01*
X7781147Y-55584390D01*
X7832390Y-55604026D01*
X7992400Y-55710940D01*
X7992401Y-55710940D01*
X7992402Y-55710941D01*
X8183580Y-55790130D01*
X8386530Y-55830499D01*
X8386534Y-55830500D01*
X8386535Y-55830500D01*
X8593466Y-55830500D01*
X8593467Y-55830499D01*
X8796420Y-55790130D01*
X8987598Y-55710941D01*
X9159655Y-55595977D01*
X9305977Y-55449655D01*
X9420941Y-55277598D01*
X9500130Y-55086420D01*
X9540500Y-54883465D01*
X9540500Y-54676535D01*
X9500130Y-54473580D01*
X9470905Y-54403027D01*
X9463437Y-54333559D01*
X9494712Y-54271079D01*
X9497786Y-54267894D01*
X9655338Y-54110342D01*
X9919820Y-53845860D01*
X9981142Y-53812376D01*
X10050834Y-53817360D01*
G37*
%TD.AperFunction*%
%TA.AperFunction,NonConductor*%
G36*
X10441835Y-55966359D02*
G01*
X10497768Y-56008231D01*
X10522185Y-56073695D01*
X10522501Y-56082541D01*
X10522501Y-57280454D01*
X10502816Y-57347493D01*
X10486182Y-57368135D01*
X9002103Y-58852213D01*
X8940780Y-58885698D01*
X8871088Y-58880714D01*
X8866990Y-58879101D01*
X8796420Y-58849870D01*
X8796412Y-58849868D01*
X8593469Y-58809500D01*
X8593465Y-58809500D01*
X8386535Y-58809500D01*
X8386530Y-58809500D01*
X8183587Y-58849868D01*
X8183579Y-58849870D01*
X7992403Y-58929058D01*
X7832390Y-59035974D01*
X7765712Y-59056851D01*
X7698332Y-59038366D01*
X7651643Y-58986387D01*
X7639500Y-58932871D01*
X7639500Y-58247128D01*
X7659185Y-58180089D01*
X7711989Y-58134334D01*
X7781147Y-58124390D01*
X7832390Y-58144026D01*
X7992400Y-58250940D01*
X7992401Y-58250940D01*
X7992402Y-58250941D01*
X8183580Y-58330130D01*
X8386530Y-58370499D01*
X8386534Y-58370500D01*
X8386535Y-58370500D01*
X8593466Y-58370500D01*
X8593467Y-58370499D01*
X8796420Y-58330130D01*
X8987598Y-58250941D01*
X9159655Y-58135977D01*
X9305977Y-57989655D01*
X9420941Y-57817598D01*
X9500130Y-57626420D01*
X9540500Y-57423465D01*
X9540500Y-57216535D01*
X9500130Y-57013580D01*
X9470905Y-56943027D01*
X9463437Y-56873559D01*
X9494712Y-56811079D01*
X9497786Y-56807894D01*
X9966587Y-56339093D01*
X10310821Y-55994859D01*
X10372143Y-55961375D01*
X10441835Y-55966359D01*
G37*
%TD.AperFunction*%
%TA.AperFunction,NonConductor*%
G36*
X10838834Y-58109361D02*
G01*
X10894767Y-58151233D01*
X10919184Y-58216697D01*
X10919500Y-58225543D01*
X10919500Y-58581926D01*
X10899815Y-58648965D01*
X10883181Y-58669607D01*
X9746972Y-59805815D01*
X9685649Y-59839300D01*
X9615957Y-59834316D01*
X9560024Y-59792444D01*
X9537674Y-59742325D01*
X9500131Y-59553587D01*
X9500130Y-59553580D01*
X9470906Y-59483028D01*
X9463437Y-59413559D01*
X9494712Y-59351079D01*
X9497758Y-59347922D01*
X10707819Y-58137862D01*
X10769142Y-58104377D01*
X10838834Y-58109361D01*
G37*
%TD.AperFunction*%
%TA.AperFunction,NonConductor*%
G36*
X13703333Y-43024861D02*
G01*
X13734133Y-43044655D01*
X13735153Y-43043227D01*
X13743513Y-43049195D01*
X13743514Y-43049195D01*
X13743517Y-43049198D01*
X13848607Y-43100573D01*
X13882673Y-43105536D01*
X13916739Y-43110500D01*
X15625500Y-43110500D01*
X15692539Y-43130185D01*
X15738294Y-43182989D01*
X15749500Y-43234500D01*
X15749500Y-44311499D01*
X15729815Y-44378538D01*
X15677011Y-44424293D01*
X15625500Y-44435499D01*
X14376983Y-44435499D01*
X14291358Y-44458442D01*
X14287841Y-44459384D01*
X14207915Y-44505530D01*
X14207912Y-44505532D01*
X13455531Y-45257912D01*
X13455529Y-45257915D01*
X13424139Y-45312286D01*
X13424137Y-45312289D01*
X13409386Y-45337835D01*
X13385500Y-45426982D01*
X13385499Y-45426984D01*
X13385499Y-48893471D01*
X13386499Y-48908741D01*
X13386499Y-57533144D01*
X13404538Y-57600469D01*
X13410383Y-57622283D01*
X13410386Y-57622290D01*
X13456526Y-57702207D01*
X13456530Y-57702212D01*
X15102213Y-59347895D01*
X15135698Y-59409218D01*
X15130714Y-59478910D01*
X15129093Y-59483028D01*
X15099871Y-59553575D01*
X15099868Y-59553587D01*
X15059500Y-59756530D01*
X15059500Y-59963469D01*
X15099868Y-60166412D01*
X15099870Y-60166420D01*
X15179059Y-60357598D01*
X15236541Y-60443626D01*
X15294024Y-60529657D01*
X15440342Y-60675975D01*
X15440345Y-60675977D01*
X15612402Y-60790941D01*
X15803580Y-60870130D01*
X16006530Y-60910499D01*
X16006534Y-60910500D01*
X16006535Y-60910500D01*
X16213466Y-60910500D01*
X16213467Y-60910499D01*
X16416420Y-60870130D01*
X16607598Y-60790941D01*
X16779655Y-60675977D01*
X16925977Y-60529655D01*
X17040941Y-60357598D01*
X17120130Y-60166420D01*
X17160500Y-59963465D01*
X17160500Y-59756535D01*
X17120130Y-59553580D01*
X17040941Y-59362402D01*
X16925977Y-59190345D01*
X16925975Y-59190342D01*
X16779657Y-59044024D01*
X16689448Y-58983749D01*
X16607598Y-58929059D01*
X16416420Y-58849870D01*
X16416412Y-58849868D01*
X16213469Y-58809500D01*
X16213465Y-58809500D01*
X16006535Y-58809500D01*
X16006530Y-58809500D01*
X15803587Y-58849868D01*
X15803575Y-58849871D01*
X15733028Y-58879093D01*
X15663559Y-58886562D01*
X15601080Y-58855287D01*
X15597895Y-58852213D01*
X14123818Y-57378136D01*
X14090333Y-57316813D01*
X14087499Y-57290455D01*
X14087499Y-56092543D01*
X14107184Y-56025504D01*
X14159988Y-55979749D01*
X14229146Y-55969805D01*
X14292702Y-55998830D01*
X14299180Y-56004862D01*
X15102213Y-56807895D01*
X15135698Y-56869218D01*
X15130714Y-56938910D01*
X15129093Y-56943028D01*
X15099871Y-57013575D01*
X15099868Y-57013587D01*
X15059500Y-57216530D01*
X15059500Y-57423469D01*
X15099868Y-57626412D01*
X15099870Y-57626420D01*
X15179058Y-57817596D01*
X15294024Y-57989657D01*
X15440342Y-58135975D01*
X15440345Y-58135977D01*
X15612402Y-58250941D01*
X15803580Y-58330130D01*
X16006530Y-58370499D01*
X16006534Y-58370500D01*
X16006535Y-58370500D01*
X16213466Y-58370500D01*
X16213467Y-58370499D01*
X16416420Y-58330130D01*
X16607598Y-58250941D01*
X16779655Y-58135977D01*
X16925977Y-57989655D01*
X17040941Y-57817598D01*
X17120130Y-57626420D01*
X17160500Y-57423465D01*
X17160500Y-57216535D01*
X17120130Y-57013580D01*
X17040941Y-56822402D01*
X16925977Y-56650345D01*
X16925975Y-56650342D01*
X16779657Y-56504024D01*
X16613303Y-56392871D01*
X16607598Y-56389059D01*
X16416420Y-56309870D01*
X16416412Y-56309868D01*
X16213469Y-56269500D01*
X16213465Y-56269500D01*
X16006535Y-56269500D01*
X16006530Y-56269500D01*
X15803587Y-56309868D01*
X15803575Y-56309871D01*
X15733028Y-56339093D01*
X15663559Y-56346562D01*
X15601080Y-56315287D01*
X15597895Y-56312213D01*
X14514818Y-55229136D01*
X14481333Y-55167813D01*
X14478499Y-55141455D01*
X14478499Y-53943543D01*
X14498184Y-53876504D01*
X14550988Y-53830749D01*
X14620146Y-53820805D01*
X14683702Y-53849830D01*
X14690180Y-53855862D01*
X15102213Y-54267895D01*
X15135698Y-54329218D01*
X15130714Y-54398910D01*
X15129093Y-54403028D01*
X15099871Y-54473575D01*
X15099868Y-54473587D01*
X15059500Y-54676530D01*
X15059500Y-54883469D01*
X15099868Y-55086412D01*
X15099870Y-55086420D01*
X15179058Y-55277596D01*
X15294024Y-55449657D01*
X15440342Y-55595975D01*
X15440345Y-55595977D01*
X15612402Y-55710941D01*
X15803580Y-55790130D01*
X16006530Y-55830499D01*
X16006534Y-55830500D01*
X16006535Y-55830500D01*
X16213466Y-55830500D01*
X16213467Y-55830499D01*
X16416420Y-55790130D01*
X16607598Y-55710941D01*
X16779655Y-55595977D01*
X16925977Y-55449655D01*
X17040941Y-55277598D01*
X17120130Y-55086420D01*
X17160500Y-54883465D01*
X17160500Y-54676535D01*
X17120130Y-54473580D01*
X17040941Y-54282402D01*
X16925977Y-54110345D01*
X16925975Y-54110342D01*
X16779657Y-53964024D01*
X16693396Y-53906387D01*
X16607598Y-53849059D01*
X16599877Y-53845861D01*
X16416420Y-53769870D01*
X16416412Y-53769868D01*
X16213469Y-53729500D01*
X16213465Y-53729500D01*
X16006535Y-53729500D01*
X16006530Y-53729500D01*
X15803587Y-53769868D01*
X15803575Y-53769871D01*
X15733028Y-53799093D01*
X15663559Y-53806562D01*
X15601080Y-53775287D01*
X15597895Y-53772213D01*
X14905820Y-53080138D01*
X14872335Y-53018815D01*
X14869501Y-52992457D01*
X14869501Y-52613649D01*
X14889186Y-52546610D01*
X14941990Y-52500855D01*
X15011148Y-52490911D01*
X15074704Y-52519936D01*
X15108060Y-52566194D01*
X15159862Y-52691253D01*
X15179058Y-52737596D01*
X15294024Y-52909657D01*
X15440342Y-53055975D01*
X15440345Y-53055977D01*
X15612402Y-53170941D01*
X15803580Y-53250130D01*
X16006530Y-53290499D01*
X16006534Y-53290500D01*
X16006535Y-53290500D01*
X16213466Y-53290500D01*
X16213467Y-53290499D01*
X16416420Y-53250130D01*
X16607598Y-53170941D01*
X16779655Y-53055977D01*
X16925977Y-52909655D01*
X17040941Y-52737598D01*
X17120130Y-52546420D01*
X17160500Y-52343465D01*
X17160500Y-52136535D01*
X17120130Y-51933580D01*
X17040941Y-51742402D01*
X16925977Y-51570345D01*
X16925975Y-51570342D01*
X16779657Y-51424024D01*
X16676040Y-51354790D01*
X16607598Y-51309059D01*
X16416420Y-51229870D01*
X16416412Y-51229868D01*
X16213469Y-51189500D01*
X16213465Y-51189500D01*
X16006535Y-51189500D01*
X16006530Y-51189500D01*
X15803587Y-51229868D01*
X15803579Y-51229870D01*
X15612403Y-51309058D01*
X15482612Y-51395781D01*
X15452311Y-51405268D01*
X15422568Y-51416362D01*
X15419211Y-51415631D01*
X15415934Y-51416658D01*
X15385315Y-51408258D01*
X15354295Y-51401510D01*
X15350579Y-51398728D01*
X15348554Y-51398173D01*
X15326041Y-51380359D01*
X15296819Y-51351137D01*
X15263334Y-51289814D01*
X15260500Y-51263456D01*
X15260500Y-50627796D01*
X15280185Y-50560757D01*
X15332989Y-50515002D01*
X15402147Y-50505058D01*
X15453390Y-50524694D01*
X15612400Y-50630940D01*
X15612401Y-50630940D01*
X15612402Y-50630941D01*
X15803580Y-50710130D01*
X16001669Y-50749532D01*
X16006530Y-50750499D01*
X16006534Y-50750500D01*
X16006535Y-50750500D01*
X16213466Y-50750500D01*
X16213467Y-50750499D01*
X16416420Y-50710130D01*
X16607598Y-50630941D01*
X16779655Y-50515977D01*
X16925977Y-50369655D01*
X17040941Y-50197598D01*
X17120130Y-50006420D01*
X17160500Y-49803465D01*
X17160500Y-49596535D01*
X17120130Y-49393580D01*
X17090906Y-49323028D01*
X17083437Y-49253559D01*
X17114712Y-49191079D01*
X17117756Y-49187924D01*
X17951471Y-48354211D01*
X17997615Y-48274287D01*
X18005725Y-48244016D01*
X18042088Y-48184357D01*
X18104935Y-48153826D01*
X18174311Y-48162120D01*
X18228189Y-48206604D01*
X18249465Y-48273156D01*
X18249500Y-48276109D01*
X18249500Y-63743907D01*
X18248903Y-63756060D01*
X18248903Y-63756061D01*
X18235335Y-63893819D01*
X18230593Y-63917661D01*
X18192186Y-64044271D01*
X18182883Y-64066728D01*
X18120517Y-64183406D01*
X18107012Y-64203618D01*
X18023079Y-64305891D01*
X18005891Y-64323079D01*
X17903618Y-64407012D01*
X17883406Y-64420517D01*
X17766728Y-64482883D01*
X17744271Y-64492186D01*
X17617661Y-64530593D01*
X17593819Y-64535335D01*
X17456062Y-64548903D01*
X17443908Y-64549500D01*
X7156092Y-64549500D01*
X7143938Y-64548903D01*
X7006180Y-64535335D01*
X6982340Y-64530593D01*
X6855728Y-64492186D01*
X6833271Y-64482883D01*
X6716593Y-64420517D01*
X6696381Y-64407012D01*
X6594108Y-64323079D01*
X6576920Y-64305891D01*
X6492986Y-64203616D01*
X6479482Y-64183406D01*
X6417116Y-64066728D01*
X6407815Y-64044277D01*
X6369404Y-63917652D01*
X6364665Y-63893824D01*
X6351097Y-63756060D01*
X6350500Y-63743907D01*
X6350500Y-63685456D01*
X6350499Y-63685450D01*
X6350499Y-47306964D01*
X6370184Y-47239925D01*
X6422988Y-47194170D01*
X6492146Y-47184226D01*
X6555702Y-47213251D01*
X6562180Y-47219283D01*
X6863386Y-47520489D01*
X6966113Y-47579799D01*
X6990321Y-47586284D01*
X6990324Y-47586286D01*
X6990325Y-47586286D01*
X7020447Y-47594357D01*
X7080691Y-47610500D01*
X7315500Y-47610500D01*
X7382539Y-47630185D01*
X7428294Y-47682989D01*
X7439500Y-47734500D01*
X7439500Y-48029752D01*
X7451131Y-48088229D01*
X7451132Y-48088230D01*
X7495447Y-48154552D01*
X7561769Y-48198867D01*
X7561770Y-48198868D01*
X7620247Y-48210499D01*
X7620250Y-48210500D01*
X7620252Y-48210500D01*
X9225500Y-48210500D01*
X9292539Y-48230185D01*
X9338294Y-48282989D01*
X9349500Y-48334500D01*
X9349500Y-48778885D01*
X9329815Y-48845924D01*
X9277011Y-48891679D01*
X9207853Y-48901623D01*
X9156610Y-48881988D01*
X9044588Y-48807138D01*
X8987598Y-48769059D01*
X8796420Y-48689870D01*
X8796412Y-48689868D01*
X8593469Y-48649500D01*
X8593465Y-48649500D01*
X8386535Y-48649500D01*
X8386530Y-48649500D01*
X8183587Y-48689868D01*
X8183579Y-48689870D01*
X7992403Y-48769058D01*
X7820342Y-48884024D01*
X7674024Y-49030342D01*
X7559058Y-49202403D01*
X7479870Y-49393579D01*
X7479868Y-49393587D01*
X7439500Y-49596530D01*
X7439500Y-49803469D01*
X7479868Y-50006412D01*
X7479870Y-50006420D01*
X7509093Y-50076970D01*
X7516562Y-50146440D01*
X7485287Y-50208919D01*
X7482213Y-50212104D01*
X7008532Y-50685785D01*
X7008530Y-50685787D01*
X7008530Y-50685788D01*
X6971728Y-50749531D01*
X6971727Y-50749531D01*
X6962387Y-50765709D01*
X6962386Y-50765712D01*
X6938500Y-50854856D01*
X6938500Y-60403614D01*
X6959175Y-60480776D01*
X6959175Y-60480777D01*
X6962384Y-60492756D01*
X6962385Y-60492757D01*
X7008527Y-60572679D01*
X7008529Y-60572682D01*
X7008530Y-60572683D01*
X7712060Y-61276212D01*
X7777317Y-61341469D01*
X7831095Y-61372518D01*
X7838837Y-61378835D01*
X7853168Y-61399746D01*
X7870662Y-61418093D01*
X7872586Y-61428078D01*
X7878336Y-61436468D01*
X7879087Y-61461809D01*
X7883884Y-61486700D01*
X7880104Y-61496140D01*
X7880406Y-61506307D01*
X7867338Y-61528029D01*
X7857916Y-61551565D01*
X7847230Y-61561454D01*
X7844389Y-61566178D01*
X7839547Y-61568564D01*
X7829339Y-61578013D01*
X7820343Y-61584023D01*
X7674024Y-61730342D01*
X7559058Y-61902403D01*
X7479870Y-62093579D01*
X7479868Y-62093587D01*
X7439500Y-62296530D01*
X7439500Y-62503469D01*
X7479868Y-62706412D01*
X7479870Y-62706420D01*
X7559058Y-62897596D01*
X7674024Y-63069657D01*
X7820342Y-63215975D01*
X7820345Y-63215977D01*
X7992402Y-63330941D01*
X8183580Y-63410130D01*
X8386530Y-63450499D01*
X8386534Y-63450500D01*
X8386535Y-63450500D01*
X8593466Y-63450500D01*
X8593467Y-63450499D01*
X8796420Y-63410130D01*
X8987598Y-63330941D01*
X9159655Y-63215977D01*
X9305977Y-63069655D01*
X9420941Y-62897598D01*
X9500130Y-62706420D01*
X9540500Y-62503465D01*
X9540500Y-62296535D01*
X9500130Y-62093580D01*
X9470906Y-62023028D01*
X9463437Y-61953559D01*
X9494712Y-61891079D01*
X9497757Y-61887923D01*
X11941470Y-59444212D01*
X11987614Y-59364288D01*
X12000583Y-59315886D01*
X12011500Y-59275144D01*
X12011500Y-59096543D01*
X12031185Y-59029504D01*
X12083989Y-58983749D01*
X12153147Y-58973805D01*
X12216703Y-59002830D01*
X12223181Y-59008862D01*
X15102213Y-61887894D01*
X15135698Y-61949217D01*
X15130714Y-62018909D01*
X15129094Y-62023026D01*
X15099871Y-62093579D01*
X15099869Y-62093583D01*
X15099867Y-62093587D01*
X15059500Y-62296530D01*
X15059500Y-62503469D01*
X15099868Y-62706412D01*
X15099870Y-62706420D01*
X15179058Y-62897596D01*
X15294024Y-63069657D01*
X15440342Y-63215975D01*
X15440345Y-63215977D01*
X15612402Y-63330941D01*
X15803580Y-63410130D01*
X16006530Y-63450499D01*
X16006534Y-63450500D01*
X16006535Y-63450500D01*
X16213466Y-63450500D01*
X16213467Y-63450499D01*
X16416420Y-63410130D01*
X16607598Y-63330941D01*
X16779655Y-63215977D01*
X16925977Y-63069655D01*
X17040941Y-62897598D01*
X17120130Y-62706420D01*
X17160500Y-62503465D01*
X17160500Y-62296535D01*
X17120130Y-62093580D01*
X17040941Y-61902402D01*
X16925977Y-61730345D01*
X16925975Y-61730342D01*
X16779657Y-61584024D01*
X16648128Y-61496140D01*
X16607598Y-61469059D01*
X16504999Y-61426561D01*
X16416420Y-61389870D01*
X16416412Y-61389868D01*
X16213469Y-61349500D01*
X16213465Y-61349500D01*
X16006535Y-61349500D01*
X16006530Y-61349500D01*
X15803587Y-61389867D01*
X15803583Y-61389869D01*
X15803581Y-61389869D01*
X15803580Y-61389870D01*
X15790505Y-61395286D01*
X15733026Y-61419094D01*
X15663557Y-61426561D01*
X15601078Y-61395286D01*
X15597894Y-61392213D01*
X12556819Y-58351137D01*
X12523334Y-58289814D01*
X12520500Y-58263456D01*
X12520500Y-44156542D01*
X12540185Y-44089503D01*
X12556814Y-44068865D01*
X13572318Y-43053361D01*
X13633641Y-43019877D01*
X13703333Y-43024861D01*
G37*
%TD.AperFunction*%
M02*
