%TF.GenerationSoftware,KiCad,Pcbnew,8.0.8*%
%TF.CreationDate,2025-02-23T09:20:06-05:00*%
%TF.ProjectId,attinyx12_dev,61747469-6e79-4783-9132-5f6465762e6b,rev?*%
%TF.SameCoordinates,Original*%
%TF.FileFunction,Copper,L2,Bot*%
%TF.FilePolarity,Positive*%
%FSLAX46Y46*%
G04 Gerber Fmt 4.6, Leading zero omitted, Abs format (unit mm)*
G04 Created by KiCad (PCBNEW 8.0.8) date 2025-02-23 09:20:06*
%MOMM*%
%LPD*%
G01*
G04 APERTURE LIST*
%TA.AperFunction,ComponentPad*%
%ADD10R,1.700000X1.700000*%
%TD*%
%TA.AperFunction,ComponentPad*%
%ADD11O,1.700000X1.700000*%
%TD*%
%TA.AperFunction,ComponentPad*%
%ADD12O,1.000000X2.100000*%
%TD*%
%TA.AperFunction,ComponentPad*%
%ADD13O,1.000000X1.800000*%
%TD*%
%TA.AperFunction,ViaPad*%
%ADD14C,0.600000*%
%TD*%
%TA.AperFunction,ViaPad*%
%ADD15C,0.800000*%
%TD*%
%TA.AperFunction,ViaPad*%
%ADD16C,0.450000*%
%TD*%
%TA.AperFunction,Conductor*%
%ADD17C,0.300000*%
%TD*%
%TA.AperFunction,Conductor*%
%ADD18C,0.500000*%
%TD*%
%TA.AperFunction,Conductor*%
%ADD19C,0.200000*%
%TD*%
G04 APERTURE END LIST*
D10*
%TO.P,J4,1,Pin_1*%
%TO.N,+5VA*%
X5955000Y-30875000D03*
D11*
%TO.P,J4,2,Pin_2*%
%TO.N,+5V*%
X5955000Y-28335000D03*
%TO.P,J4,3,Pin_3*%
%TO.N,/PA7*%
X8495000Y-30875000D03*
%TO.P,J4,4,Pin_4*%
%TO.N,/TX*%
X8495000Y-28335000D03*
%TO.P,J4,5,Pin_5*%
%TO.N,/PA6*%
X11035000Y-30875000D03*
%TO.P,J4,6,Pin_6*%
%TO.N,/RX*%
X11035000Y-28335000D03*
%TO.P,J4,7,Pin_7*%
%TO.N,/PA0*%
X13575000Y-30875000D03*
%TO.P,J4,8,Pin_8*%
%TO.N,/UPDI*%
X13575000Y-28335000D03*
%TO.P,J4,9,Pin_9*%
%TO.N,/PA3*%
X16115000Y-30875000D03*
%TO.P,J4,10,Pin_10*%
%TO.N,/LED*%
X16115000Y-28335000D03*
%TO.P,J4,11,Pin_11*%
%TO.N,GND1*%
X18655000Y-30875000D03*
%TO.P,J4,12,Pin_12*%
%TO.N,GND*%
X18655000Y-28335000D03*
%TD*%
D12*
%TO.P,J1,S1,SHIELD*%
%TO.N,GND*%
X16620000Y-7025000D03*
D13*
X16620000Y-2825000D03*
D12*
X7980000Y-7025000D03*
D13*
X7980000Y-2825000D03*
%TD*%
D10*
%TO.P,J6,1,Pin_1*%
%TO.N,GND1*%
X21190000Y-34460000D03*
D11*
%TO.P,J6,2,Pin_2*%
X21190000Y-37000000D03*
%TD*%
D10*
%TO.P,J5,1,Pin_1*%
%TO.N,GND1*%
X3410000Y-34460000D03*
D11*
%TO.P,J5,2,Pin_2*%
X3410000Y-37000000D03*
%TD*%
D10*
%TO.P,J2,1,Pin_1*%
%TO.N,+5VA*%
X8490000Y-42080000D03*
D11*
%TO.P,J2,2,Pin_2*%
%TO.N,/PA6*%
X8490000Y-44620000D03*
%TO.P,J2,3,Pin_3*%
%TO.N,/PA7*%
X8490000Y-47160000D03*
%TO.P,J2,4,Pin_4*%
%TO.N,/PA1*%
X8490000Y-49700000D03*
%TD*%
%TO.P,J3,1,Pin_1*%
%TO.N,GND1*%
X16110000Y-42080000D03*
%TO.P,J3,2,Pin_2*%
%TO.N,/PA3*%
X16110000Y-44620000D03*
%TO.P,J3,3,Pin_3*%
%TO.N,/PA0*%
X16110000Y-47160000D03*
%TO.P,J3,4,Pin_4*%
%TO.N,/PA2*%
X16110000Y-49700000D03*
%TD*%
D14*
%TO.N,GND*%
X13650000Y-22880000D03*
D15*
X12310000Y-17437500D03*
X11310000Y-17437500D03*
D14*
X5230000Y-15300000D03*
X8600000Y-8870000D03*
X5230000Y-13580000D03*
X19420000Y-21050000D03*
X3200000Y-10690000D03*
X15500000Y-13020000D03*
D15*
X13310000Y-17437500D03*
D14*
X15500000Y-14740000D03*
X15510000Y-11320000D03*
X16000000Y-8870000D03*
%TO.N,GND1*%
X7370000Y-37700000D03*
X16460000Y-35000000D03*
D16*
%TO.N,/PA1*%
X9984999Y-42785001D03*
%TO.N,/PA6*%
X12194000Y-41400000D03*
X11044001Y-42539172D03*
%TO.N,/PA7*%
X11619000Y-37530000D03*
X11619000Y-35690000D03*
%TO.N,/PA2*%
X13919000Y-41568413D03*
%TO.N,/PA3*%
X13344000Y-36250000D03*
X13344000Y-38110000D03*
%TO.N,/TX*%
X9610000Y-22815000D03*
X9610000Y-21465000D03*
%TO.N,/RX*%
X10310000Y-21465000D03*
X10310000Y-22815000D03*
D14*
%TO.N,Net-(F1-Pad1)*%
X9910000Y-8960000D03*
X14700000Y-8960000D03*
D16*
%TO.N,/UD+*%
X11625000Y-13194591D03*
X14310000Y-13480000D03*
%TD*%
D17*
%TO.N,/PA1*%
X9984999Y-48205001D02*
X8490000Y-49700000D01*
X9984999Y-42785001D02*
X9984999Y-48205001D01*
%TO.N,/PA6*%
X11044001Y-42539172D02*
X11054828Y-42539172D01*
X11054828Y-42539172D02*
X12194000Y-41400000D01*
%TO.N,/PA7*%
X11619000Y-37530000D02*
X11619000Y-35690000D01*
%TO.N,/PA2*%
X13919000Y-47509000D02*
X16110000Y-49700000D01*
X13919000Y-41568413D02*
X13919000Y-47509000D01*
%TO.N,/PA3*%
X13344000Y-36250000D02*
X13344000Y-38110000D01*
%TO.N,/TX*%
X9610000Y-21465000D02*
X9610000Y-22815000D01*
%TO.N,/RX*%
X10310000Y-21465000D02*
X10310000Y-22815000D01*
D18*
%TO.N,Net-(F1-Pad1)*%
X9910000Y-8960000D02*
X14700000Y-8960000D01*
D19*
%TO.N,/UD+*%
X14024591Y-13194591D02*
X14310000Y-13480000D01*
X11625000Y-13194591D02*
X14024591Y-13194591D01*
%TD*%
%TA.AperFunction,Conductor*%
%TO.N,GND*%
G36*
X7818196Y-1220184D02*
G01*
X7863951Y-1272988D01*
X7873895Y-1342146D01*
X7844870Y-1405702D01*
X7786092Y-1443476D01*
X7775348Y-1446116D01*
X7688318Y-1463427D01*
X7688306Y-1463430D01*
X7506328Y-1538807D01*
X7506315Y-1538814D01*
X7342537Y-1648248D01*
X7342533Y-1648251D01*
X7203251Y-1787533D01*
X7203248Y-1787537D01*
X7093814Y-1951315D01*
X7093807Y-1951328D01*
X7018430Y-2133306D01*
X7018427Y-2133318D01*
X6980000Y-2326504D01*
X6980000Y-2575000D01*
X7680000Y-2575000D01*
X7680000Y-3075000D01*
X6980000Y-3075000D01*
X6980000Y-3323495D01*
X7018427Y-3516681D01*
X7018430Y-3516693D01*
X7093807Y-3698671D01*
X7093814Y-3698684D01*
X7203248Y-3862462D01*
X7203251Y-3862466D01*
X7342533Y-4001748D01*
X7342537Y-4001751D01*
X7506315Y-4111185D01*
X7506328Y-4111192D01*
X7688308Y-4186569D01*
X7730000Y-4194862D01*
X7730000Y-3391988D01*
X7739940Y-3409205D01*
X7795795Y-3465060D01*
X7864204Y-3504556D01*
X7940504Y-3525000D01*
X8019496Y-3525000D01*
X8095796Y-3504556D01*
X8164205Y-3465060D01*
X8220060Y-3409205D01*
X8230000Y-3391988D01*
X8230000Y-4194862D01*
X8271690Y-4186569D01*
X8271692Y-4186569D01*
X8453671Y-4111192D01*
X8453684Y-4111185D01*
X8617462Y-4001751D01*
X8617466Y-4001748D01*
X8756748Y-3862466D01*
X8756751Y-3862462D01*
X8866185Y-3698684D01*
X8866192Y-3698671D01*
X8941569Y-3516693D01*
X8941572Y-3516681D01*
X8979999Y-3323495D01*
X8980000Y-3323492D01*
X8980000Y-3075000D01*
X8280000Y-3075000D01*
X8280000Y-2575000D01*
X8980000Y-2575000D01*
X8980000Y-2326508D01*
X8979999Y-2326504D01*
X8941572Y-2133318D01*
X8941569Y-2133306D01*
X8866192Y-1951328D01*
X8866185Y-1951315D01*
X8756751Y-1787537D01*
X8756748Y-1787533D01*
X8617466Y-1648251D01*
X8617462Y-1648248D01*
X8453684Y-1538814D01*
X8453671Y-1538807D01*
X8271693Y-1463430D01*
X8271681Y-1463427D01*
X8184652Y-1446116D01*
X8122741Y-1413732D01*
X8088167Y-1353016D01*
X8091906Y-1283246D01*
X8132772Y-1226574D01*
X8197790Y-1200993D01*
X8208843Y-1200499D01*
X16391157Y-1200499D01*
X16458196Y-1220184D01*
X16503951Y-1272988D01*
X16513895Y-1342146D01*
X16484870Y-1405702D01*
X16426092Y-1443476D01*
X16415348Y-1446116D01*
X16328318Y-1463427D01*
X16328306Y-1463430D01*
X16146328Y-1538807D01*
X16146315Y-1538814D01*
X15982537Y-1648248D01*
X15982533Y-1648251D01*
X15843251Y-1787533D01*
X15843248Y-1787537D01*
X15733814Y-1951315D01*
X15733807Y-1951328D01*
X15658430Y-2133306D01*
X15658427Y-2133318D01*
X15620000Y-2326504D01*
X15620000Y-2575000D01*
X16320000Y-2575000D01*
X16320000Y-3075000D01*
X15620000Y-3075000D01*
X15620000Y-3323495D01*
X15658427Y-3516681D01*
X15658430Y-3516693D01*
X15733807Y-3698671D01*
X15733814Y-3698684D01*
X15843248Y-3862462D01*
X15843251Y-3862466D01*
X15982533Y-4001748D01*
X15982537Y-4001751D01*
X16146315Y-4111185D01*
X16146328Y-4111192D01*
X16328308Y-4186569D01*
X16370000Y-4194862D01*
X16370000Y-3391988D01*
X16379940Y-3409205D01*
X16435795Y-3465060D01*
X16504204Y-3504556D01*
X16580504Y-3525000D01*
X16659496Y-3525000D01*
X16735796Y-3504556D01*
X16804205Y-3465060D01*
X16860060Y-3409205D01*
X16870000Y-3391988D01*
X16870000Y-4194862D01*
X16911690Y-4186569D01*
X16911692Y-4186569D01*
X17093671Y-4111192D01*
X17093684Y-4111185D01*
X17257462Y-4001751D01*
X17257466Y-4001748D01*
X17381241Y-3877973D01*
X19049500Y-3877973D01*
X19049500Y-4122026D01*
X19087678Y-4363072D01*
X19163097Y-4595187D01*
X19273896Y-4812642D01*
X19417339Y-5010076D01*
X19417343Y-5010081D01*
X19589918Y-5182656D01*
X19589923Y-5182660D01*
X19762136Y-5307779D01*
X19787361Y-5326106D01*
X20004815Y-5436904D01*
X20236924Y-5512321D01*
X20477973Y-5550500D01*
X20477974Y-5550500D01*
X20722026Y-5550500D01*
X20722027Y-5550500D01*
X20963076Y-5512321D01*
X21195185Y-5436904D01*
X21412639Y-5326106D01*
X21610083Y-5182655D01*
X21782655Y-5010083D01*
X21926106Y-4812639D01*
X22036904Y-4595185D01*
X22112321Y-4363076D01*
X22150500Y-4122027D01*
X22150500Y-3877973D01*
X22112321Y-3636924D01*
X22036904Y-3404815D01*
X21926106Y-3187361D01*
X21907779Y-3162136D01*
X21782660Y-2989923D01*
X21782656Y-2989918D01*
X21610081Y-2817343D01*
X21610076Y-2817339D01*
X21412642Y-2673896D01*
X21412641Y-2673895D01*
X21412639Y-2673894D01*
X21195185Y-2563096D01*
X20963076Y-2487679D01*
X20963074Y-2487678D01*
X20963072Y-2487678D01*
X20794769Y-2461021D01*
X20722027Y-2449500D01*
X20477973Y-2449500D01*
X20422093Y-2458350D01*
X20236927Y-2487678D01*
X20004812Y-2563097D01*
X19787357Y-2673896D01*
X19589923Y-2817339D01*
X19589918Y-2817343D01*
X19417343Y-2989918D01*
X19417339Y-2989923D01*
X19273896Y-3187357D01*
X19163097Y-3404812D01*
X19087678Y-3636927D01*
X19049500Y-3877973D01*
X17381241Y-3877973D01*
X17396748Y-3862466D01*
X17396751Y-3862462D01*
X17506185Y-3698684D01*
X17506192Y-3698671D01*
X17581569Y-3516693D01*
X17581572Y-3516681D01*
X17619999Y-3323495D01*
X17620000Y-3323492D01*
X17620000Y-3075000D01*
X16920000Y-3075000D01*
X16920000Y-2575000D01*
X17620000Y-2575000D01*
X17620000Y-2326508D01*
X17619999Y-2326504D01*
X17581572Y-2133318D01*
X17581569Y-2133306D01*
X17506192Y-1951328D01*
X17506185Y-1951315D01*
X17396751Y-1787537D01*
X17396748Y-1787533D01*
X17257466Y-1648251D01*
X17257462Y-1648248D01*
X17093684Y-1538814D01*
X17093671Y-1538807D01*
X16911693Y-1463430D01*
X16911681Y-1463427D01*
X16824652Y-1446116D01*
X16762741Y-1413732D01*
X16728167Y-1353016D01*
X16731906Y-1283246D01*
X16772772Y-1226574D01*
X16837790Y-1200993D01*
X16848843Y-1200499D01*
X20535451Y-1200499D01*
X20535455Y-1200500D01*
X20560118Y-1200500D01*
X20596519Y-1200500D01*
X20603472Y-1200695D01*
X20610280Y-1201077D01*
X20906503Y-1217713D01*
X20920301Y-1219267D01*
X21216080Y-1269522D01*
X21229636Y-1272616D01*
X21517927Y-1355672D01*
X21531051Y-1360265D01*
X21755073Y-1453057D01*
X21808219Y-1475071D01*
X21808222Y-1475072D01*
X21820744Y-1481101D01*
X21925154Y-1538807D01*
X22083328Y-1626227D01*
X22095102Y-1633625D01*
X22115716Y-1648251D01*
X22339789Y-1807239D01*
X22350657Y-1815907D01*
X22574352Y-2015815D01*
X22584184Y-2025647D01*
X22784092Y-2249342D01*
X22792763Y-2260214D01*
X22966374Y-2504897D01*
X22973772Y-2516671D01*
X23118894Y-2779248D01*
X23124927Y-2791777D01*
X23239734Y-3068948D01*
X23244327Y-3082072D01*
X23327383Y-3370363D01*
X23330477Y-3383920D01*
X23380730Y-3679689D01*
X23382287Y-3693507D01*
X23399304Y-3996525D01*
X23399499Y-4003478D01*
X23399499Y-29276000D01*
X23379814Y-29343039D01*
X23327010Y-29388794D01*
X23275499Y-29400000D01*
X19795525Y-29400000D01*
X19728486Y-29380315D01*
X19682731Y-29327511D01*
X19672787Y-29258353D01*
X19693951Y-29204876D01*
X19828595Y-29012585D01*
X19828599Y-29012579D01*
X19928429Y-28798492D01*
X19928432Y-28798486D01*
X19985636Y-28585000D01*
X19088012Y-28585000D01*
X19120925Y-28527993D01*
X19155000Y-28400826D01*
X19155000Y-28269174D01*
X19120925Y-28142007D01*
X19088012Y-28085000D01*
X19985636Y-28085000D01*
X19985635Y-28084999D01*
X19928432Y-27871513D01*
X19928429Y-27871507D01*
X19828600Y-27657422D01*
X19828599Y-27657420D01*
X19693113Y-27463926D01*
X19693108Y-27463920D01*
X19526082Y-27296894D01*
X19332578Y-27161399D01*
X19118492Y-27061570D01*
X19118486Y-27061567D01*
X18905000Y-27004364D01*
X18905000Y-27901988D01*
X18847993Y-27869075D01*
X18720826Y-27835000D01*
X18589174Y-27835000D01*
X18462007Y-27869075D01*
X18405000Y-27901988D01*
X18405000Y-27004364D01*
X18404999Y-27004364D01*
X18191513Y-27061567D01*
X18191507Y-27061570D01*
X17977422Y-27161399D01*
X17977420Y-27161400D01*
X17783926Y-27296886D01*
X17783920Y-27296891D01*
X17616891Y-27463920D01*
X17616890Y-27463922D01*
X17486880Y-27649595D01*
X17432303Y-27693219D01*
X17362804Y-27700412D01*
X17300450Y-27668890D01*
X17283730Y-27649594D01*
X17153494Y-27463597D01*
X16986402Y-27296506D01*
X16986395Y-27296501D01*
X16792834Y-27160967D01*
X16792830Y-27160965D01*
X16792828Y-27160964D01*
X16578663Y-27061097D01*
X16578659Y-27061096D01*
X16578655Y-27061094D01*
X16350413Y-26999938D01*
X16350403Y-26999936D01*
X16115001Y-26979341D01*
X16114999Y-26979341D01*
X15879596Y-26999936D01*
X15879586Y-26999938D01*
X15651344Y-27061094D01*
X15651335Y-27061098D01*
X15437171Y-27160964D01*
X15437169Y-27160965D01*
X15243597Y-27296505D01*
X15076505Y-27463597D01*
X14946575Y-27649158D01*
X14891998Y-27692783D01*
X14822500Y-27699977D01*
X14760145Y-27668454D01*
X14743425Y-27649158D01*
X14613494Y-27463597D01*
X14446402Y-27296506D01*
X14446395Y-27296501D01*
X14252834Y-27160967D01*
X14252830Y-27160965D01*
X14252828Y-27160964D01*
X14038663Y-27061097D01*
X14038659Y-27061096D01*
X14038655Y-27061094D01*
X13810413Y-26999938D01*
X13810403Y-26999936D01*
X13575001Y-26979341D01*
X13574999Y-26979341D01*
X13339596Y-26999936D01*
X13339586Y-26999938D01*
X13111344Y-27061094D01*
X13111335Y-27061098D01*
X12897171Y-27160964D01*
X12897169Y-27160965D01*
X12703597Y-27296505D01*
X12536505Y-27463597D01*
X12406575Y-27649158D01*
X12351998Y-27692783D01*
X12282500Y-27699977D01*
X12220145Y-27668454D01*
X12203425Y-27649158D01*
X12073494Y-27463597D01*
X11906402Y-27296506D01*
X11906395Y-27296501D01*
X11712834Y-27160967D01*
X11712830Y-27160965D01*
X11712828Y-27160964D01*
X11498663Y-27061097D01*
X11498659Y-27061096D01*
X11498655Y-27061094D01*
X11270413Y-26999938D01*
X11270403Y-26999936D01*
X11035001Y-26979341D01*
X11034999Y-26979341D01*
X10799596Y-26999936D01*
X10799586Y-26999938D01*
X10571344Y-27061094D01*
X10571335Y-27061098D01*
X10357171Y-27160964D01*
X10357169Y-27160965D01*
X10163597Y-27296505D01*
X9996505Y-27463597D01*
X9866575Y-27649158D01*
X9811998Y-27692783D01*
X9742500Y-27699977D01*
X9680145Y-27668454D01*
X9663425Y-27649158D01*
X9533494Y-27463597D01*
X9366402Y-27296506D01*
X9366395Y-27296501D01*
X9172834Y-27160967D01*
X9172830Y-27160965D01*
X9172828Y-27160964D01*
X8958663Y-27061097D01*
X8958659Y-27061096D01*
X8958655Y-27061094D01*
X8730413Y-26999938D01*
X8730403Y-26999936D01*
X8495001Y-26979341D01*
X8494999Y-26979341D01*
X8259596Y-26999936D01*
X8259586Y-26999938D01*
X8031344Y-27061094D01*
X8031335Y-27061098D01*
X7817171Y-27160964D01*
X7817169Y-27160965D01*
X7623597Y-27296505D01*
X7456505Y-27463597D01*
X7326575Y-27649158D01*
X7271998Y-27692783D01*
X7202500Y-27699977D01*
X7140145Y-27668454D01*
X7123425Y-27649158D01*
X6993494Y-27463597D01*
X6826402Y-27296506D01*
X6826395Y-27296501D01*
X6632834Y-27160967D01*
X6632830Y-27160965D01*
X6632828Y-27160964D01*
X6418663Y-27061097D01*
X6418659Y-27061096D01*
X6418655Y-27061094D01*
X6190413Y-26999938D01*
X6190403Y-26999936D01*
X5955001Y-26979341D01*
X5954999Y-26979341D01*
X5719596Y-26999936D01*
X5719586Y-26999938D01*
X5491344Y-27061094D01*
X5491335Y-27061098D01*
X5277171Y-27160964D01*
X5277169Y-27160965D01*
X5083597Y-27296505D01*
X4916505Y-27463597D01*
X4780965Y-27657169D01*
X4780964Y-27657171D01*
X4681098Y-27871335D01*
X4681094Y-27871344D01*
X4619938Y-28099586D01*
X4619936Y-28099596D01*
X4599341Y-28334999D01*
X4599341Y-28335000D01*
X4619936Y-28570403D01*
X4619938Y-28570413D01*
X4681094Y-28798655D01*
X4681096Y-28798659D01*
X4681097Y-28798663D01*
X4761004Y-28970023D01*
X4780965Y-29012830D01*
X4780967Y-29012834D01*
X4915437Y-29204877D01*
X4937764Y-29271083D01*
X4920754Y-29338850D01*
X4869806Y-29386663D01*
X4813862Y-29400000D01*
X1324501Y-29400000D01*
X1257462Y-29380315D01*
X1211707Y-29327511D01*
X1200501Y-29276000D01*
X1200501Y-21464996D01*
X8879909Y-21464996D01*
X8879909Y-21465003D01*
X8898212Y-21627457D01*
X8952541Y-21782718D01*
X8959500Y-21823673D01*
X8959500Y-22456325D01*
X8952542Y-22497279D01*
X8898212Y-22652544D01*
X8879909Y-22814996D01*
X8879909Y-22815003D01*
X8898212Y-22977455D01*
X8952210Y-23131774D01*
X8952211Y-23131775D01*
X9039192Y-23270204D01*
X9154796Y-23385808D01*
X9293225Y-23472789D01*
X9447539Y-23526786D01*
X9447542Y-23526786D01*
X9447544Y-23526787D01*
X9609996Y-23545091D01*
X9610000Y-23545091D01*
X9610004Y-23545091D01*
X9772457Y-23526787D01*
X9772459Y-23526786D01*
X9772461Y-23526786D01*
X9919047Y-23475492D01*
X9988823Y-23471930D01*
X10000939Y-23475488D01*
X10147539Y-23526786D01*
X10147542Y-23526787D01*
X10309996Y-23545091D01*
X10310000Y-23545091D01*
X10310004Y-23545091D01*
X10472455Y-23526787D01*
X10472456Y-23526786D01*
X10472461Y-23526786D01*
X10626775Y-23472789D01*
X10765204Y-23385808D01*
X10880808Y-23270204D01*
X10967789Y-23131775D01*
X11021786Y-22977461D01*
X11040091Y-22815000D01*
X11021786Y-22652539D01*
X10967789Y-22498225D01*
X10967458Y-22497279D01*
X10960500Y-22456325D01*
X10960500Y-21823673D01*
X10967459Y-21782718D01*
X11021787Y-21627457D01*
X11040091Y-21465003D01*
X11040091Y-21464996D01*
X11021787Y-21302544D01*
X11021786Y-21302542D01*
X11021786Y-21302539D01*
X10967789Y-21148225D01*
X10880808Y-21009796D01*
X10765204Y-20894192D01*
X10659999Y-20828087D01*
X10626774Y-20807210D01*
X10472455Y-20753212D01*
X10310004Y-20734909D01*
X10309996Y-20734909D01*
X10147544Y-20753212D01*
X10000954Y-20804506D01*
X9931175Y-20808067D01*
X9919046Y-20804506D01*
X9772455Y-20753212D01*
X9610004Y-20734909D01*
X9609996Y-20734909D01*
X9447544Y-20753212D01*
X9293225Y-20807210D01*
X9154795Y-20894192D01*
X9039192Y-21009795D01*
X8952210Y-21148225D01*
X8898212Y-21302544D01*
X8879909Y-21464996D01*
X1200501Y-21464996D01*
X1200500Y-13194587D01*
X10894909Y-13194587D01*
X10894909Y-13194594D01*
X10913212Y-13357046D01*
X10967210Y-13511365D01*
X10967211Y-13511366D01*
X11054192Y-13649795D01*
X11169796Y-13765399D01*
X11308225Y-13852380D01*
X11462539Y-13906377D01*
X11462542Y-13906377D01*
X11462544Y-13906378D01*
X11624996Y-13924682D01*
X11625000Y-13924682D01*
X11625004Y-13924682D01*
X11787455Y-13906378D01*
X11787456Y-13906377D01*
X11787461Y-13906377D01*
X11941775Y-13852380D01*
X12002702Y-13814096D01*
X12068674Y-13795091D01*
X13582621Y-13795091D01*
X13649660Y-13814776D01*
X13687613Y-13853117D01*
X13739192Y-13935204D01*
X13854796Y-14050808D01*
X13993225Y-14137789D01*
X14147539Y-14191786D01*
X14147542Y-14191786D01*
X14147544Y-14191787D01*
X14309996Y-14210091D01*
X14310000Y-14210091D01*
X14310004Y-14210091D01*
X14472455Y-14191787D01*
X14472456Y-14191786D01*
X14472461Y-14191786D01*
X14626775Y-14137789D01*
X14765204Y-14050808D01*
X14880808Y-13935204D01*
X14967789Y-13796775D01*
X15021786Y-13642461D01*
X15040091Y-13480000D01*
X15026237Y-13357046D01*
X15021787Y-13317544D01*
X15021786Y-13317542D01*
X15021786Y-13317539D01*
X14967789Y-13163225D01*
X14880808Y-13024796D01*
X14765204Y-12909192D01*
X14715270Y-12877816D01*
X14626774Y-12822210D01*
X14546363Y-12794073D01*
X14472461Y-12768214D01*
X14472458Y-12768213D01*
X14465889Y-12765915D01*
X14466508Y-12764143D01*
X14414792Y-12735556D01*
X14393308Y-12714072D01*
X14393307Y-12714071D01*
X14306495Y-12663951D01*
X14306495Y-12663950D01*
X14306491Y-12663949D01*
X14256376Y-12635014D01*
X14103648Y-12594090D01*
X13945534Y-12594090D01*
X13937938Y-12594090D01*
X13937922Y-12594091D01*
X12068674Y-12594091D01*
X12002702Y-12575085D01*
X11941774Y-12536801D01*
X11787455Y-12482803D01*
X11625004Y-12464500D01*
X11624996Y-12464500D01*
X11462544Y-12482803D01*
X11308225Y-12536801D01*
X11169795Y-12623783D01*
X11054192Y-12739386D01*
X10967210Y-12877816D01*
X10913212Y-13032135D01*
X10894909Y-13194587D01*
X1200500Y-13194587D01*
X1200500Y-8959996D01*
X9104435Y-8959996D01*
X9104435Y-8960003D01*
X9124630Y-9139249D01*
X9124631Y-9139254D01*
X9184211Y-9309523D01*
X9280184Y-9462262D01*
X9407738Y-9589816D01*
X9560478Y-9685789D01*
X9631098Y-9710500D01*
X9730745Y-9745368D01*
X9730750Y-9745369D01*
X9909996Y-9765565D01*
X9910000Y-9765565D01*
X9910004Y-9765565D01*
X10089249Y-9745369D01*
X10089252Y-9745368D01*
X10089255Y-9745368D01*
X10169017Y-9717457D01*
X10209972Y-9710500D01*
X14400028Y-9710500D01*
X14440983Y-9717458D01*
X14520745Y-9745368D01*
X14520750Y-9745369D01*
X14699996Y-9765565D01*
X14700000Y-9765565D01*
X14700004Y-9765565D01*
X14879249Y-9745369D01*
X14879252Y-9745368D01*
X14879255Y-9745368D01*
X15049522Y-9685789D01*
X15202262Y-9589816D01*
X15329816Y-9462262D01*
X15425789Y-9309522D01*
X15485368Y-9139255D01*
X15505565Y-8960000D01*
X15485368Y-8780745D01*
X15425789Y-8610478D01*
X15329816Y-8457738D01*
X15202262Y-8330184D01*
X15049523Y-8234211D01*
X14879254Y-8174631D01*
X14879249Y-8174630D01*
X14700004Y-8154435D01*
X14699996Y-8154435D01*
X14520750Y-8174630D01*
X14520745Y-8174631D01*
X14440983Y-8202542D01*
X14400028Y-8209500D01*
X10209972Y-8209500D01*
X10169017Y-8202542D01*
X10089254Y-8174631D01*
X10089249Y-8174630D01*
X9910004Y-8154435D01*
X9909996Y-8154435D01*
X9730750Y-8174630D01*
X9730745Y-8174631D01*
X9560476Y-8234211D01*
X9407737Y-8330184D01*
X9280184Y-8457737D01*
X9184211Y-8610476D01*
X9124631Y-8780745D01*
X9124630Y-8780750D01*
X9104435Y-8959996D01*
X1200500Y-8959996D01*
X1200500Y-6376504D01*
X6980000Y-6376504D01*
X6980000Y-6775000D01*
X7680000Y-6775000D01*
X7680000Y-7275000D01*
X6980000Y-7275000D01*
X6980000Y-7673495D01*
X7018427Y-7866681D01*
X7018430Y-7866693D01*
X7093807Y-8048671D01*
X7093814Y-8048684D01*
X7203248Y-8212462D01*
X7203251Y-8212466D01*
X7342533Y-8351748D01*
X7342537Y-8351751D01*
X7506315Y-8461185D01*
X7506328Y-8461192D01*
X7688308Y-8536569D01*
X7730000Y-8544862D01*
X7730000Y-7741988D01*
X7739940Y-7759205D01*
X7795795Y-7815060D01*
X7864204Y-7854556D01*
X7940504Y-7875000D01*
X8019496Y-7875000D01*
X8095796Y-7854556D01*
X8164205Y-7815060D01*
X8220060Y-7759205D01*
X8230000Y-7741988D01*
X8230000Y-8544862D01*
X8271690Y-8536569D01*
X8271692Y-8536569D01*
X8453671Y-8461192D01*
X8453684Y-8461185D01*
X8617462Y-8351751D01*
X8617466Y-8351748D01*
X8756748Y-8212466D01*
X8756751Y-8212462D01*
X8866185Y-8048684D01*
X8866192Y-8048671D01*
X8941569Y-7866693D01*
X8941572Y-7866681D01*
X8979999Y-7673495D01*
X8980000Y-7673492D01*
X8980000Y-7275000D01*
X8280000Y-7275000D01*
X8280000Y-6775000D01*
X8887934Y-6775000D01*
X8954973Y-6794685D01*
X8986309Y-6823513D01*
X8989494Y-6827664D01*
X8989495Y-6827665D01*
X9087335Y-6925505D01*
X9207164Y-6994688D01*
X9340817Y-7030500D01*
X9340819Y-7030500D01*
X9479181Y-7030500D01*
X9479183Y-7030500D01*
X9612836Y-6994688D01*
X9732665Y-6925505D01*
X9830505Y-6827665D01*
X9899688Y-6707836D01*
X9935500Y-6574183D01*
X9935500Y-6435817D01*
X14664500Y-6435817D01*
X14664500Y-6574182D01*
X14700312Y-6707835D01*
X14700313Y-6707838D01*
X14769492Y-6827661D01*
X14769494Y-6827664D01*
X14769495Y-6827665D01*
X14867335Y-6925505D01*
X14987164Y-6994688D01*
X15120817Y-7030500D01*
X15120819Y-7030500D01*
X15259181Y-7030500D01*
X15259183Y-7030500D01*
X15392836Y-6994688D01*
X15512665Y-6925505D01*
X15610505Y-6827665D01*
X15610507Y-6827660D01*
X15613691Y-6823513D01*
X15670119Y-6782311D01*
X15712066Y-6775000D01*
X16320000Y-6775000D01*
X16320000Y-7275000D01*
X15620000Y-7275000D01*
X15620000Y-7673495D01*
X15658427Y-7866681D01*
X15658430Y-7866693D01*
X15733807Y-8048671D01*
X15733814Y-8048684D01*
X15843248Y-8212462D01*
X15843251Y-8212466D01*
X15982533Y-8351748D01*
X15982537Y-8351751D01*
X16146315Y-8461185D01*
X16146328Y-8461192D01*
X16328308Y-8536569D01*
X16370000Y-8544862D01*
X16370000Y-7741988D01*
X16379940Y-7759205D01*
X16435795Y-7815060D01*
X16504204Y-7854556D01*
X16580504Y-7875000D01*
X16659496Y-7875000D01*
X16735796Y-7854556D01*
X16804205Y-7815060D01*
X16860060Y-7759205D01*
X16870000Y-7741988D01*
X16870000Y-8544862D01*
X16911690Y-8536569D01*
X16911692Y-8536569D01*
X17093671Y-8461192D01*
X17093684Y-8461185D01*
X17257462Y-8351751D01*
X17257466Y-8351748D01*
X17396748Y-8212466D01*
X17396751Y-8212462D01*
X17506185Y-8048684D01*
X17506192Y-8048671D01*
X17581569Y-7866693D01*
X17581572Y-7866681D01*
X17619999Y-7673495D01*
X17620000Y-7673492D01*
X17620000Y-7275000D01*
X16920000Y-7275000D01*
X16920000Y-6775000D01*
X17620000Y-6775000D01*
X17620000Y-6376508D01*
X17619999Y-6376504D01*
X17581572Y-6183318D01*
X17581569Y-6183306D01*
X17506192Y-6001328D01*
X17506185Y-6001315D01*
X17396751Y-5837537D01*
X17396748Y-5837533D01*
X17257466Y-5698251D01*
X17257462Y-5698248D01*
X17093684Y-5588814D01*
X17093671Y-5588807D01*
X16911691Y-5513429D01*
X16911683Y-5513427D01*
X16870000Y-5505135D01*
X16870000Y-6308011D01*
X16860060Y-6290795D01*
X16804205Y-6234940D01*
X16735796Y-6195444D01*
X16659496Y-6175000D01*
X16580504Y-6175000D01*
X16504204Y-6195444D01*
X16435795Y-6234940D01*
X16379940Y-6290795D01*
X16370000Y-6308011D01*
X16370000Y-5505136D01*
X16369999Y-5505135D01*
X16328316Y-5513427D01*
X16328308Y-5513429D01*
X16146328Y-5588807D01*
X16146315Y-5588814D01*
X15982537Y-5698248D01*
X15982533Y-5698251D01*
X15843251Y-5837533D01*
X15843248Y-5837537D01*
X15733814Y-6001315D01*
X15733808Y-6001327D01*
X15715694Y-6045057D01*
X15671852Y-6099459D01*
X15605558Y-6121523D01*
X15537859Y-6104243D01*
X15513453Y-6085283D01*
X15512666Y-6084496D01*
X15512661Y-6084492D01*
X15392838Y-6015313D01*
X15392837Y-6015312D01*
X15392836Y-6015312D01*
X15259183Y-5979500D01*
X15120817Y-5979500D01*
X14987164Y-6015312D01*
X14987161Y-6015313D01*
X14867338Y-6084492D01*
X14867333Y-6084496D01*
X14769496Y-6182333D01*
X14769492Y-6182338D01*
X14700313Y-6302161D01*
X14700312Y-6302164D01*
X14664500Y-6435817D01*
X9935500Y-6435817D01*
X9899688Y-6302164D01*
X9860876Y-6234940D01*
X9830507Y-6182338D01*
X9830503Y-6182333D01*
X9732666Y-6084496D01*
X9732661Y-6084492D01*
X9612838Y-6015313D01*
X9612837Y-6015312D01*
X9612836Y-6015312D01*
X9479183Y-5979500D01*
X9340817Y-5979500D01*
X9207164Y-6015312D01*
X9207161Y-6015313D01*
X9087338Y-6084492D01*
X9087334Y-6084495D01*
X9086540Y-6085290D01*
X9085706Y-6085745D01*
X9080890Y-6089441D01*
X9080313Y-6088689D01*
X9025214Y-6118770D01*
X8955523Y-6113780D01*
X8899592Y-6071905D01*
X8884304Y-6045055D01*
X8866190Y-6001324D01*
X8866185Y-6001315D01*
X8756751Y-5837537D01*
X8756748Y-5837533D01*
X8617466Y-5698251D01*
X8617462Y-5698248D01*
X8453684Y-5588814D01*
X8453671Y-5588807D01*
X8271691Y-5513429D01*
X8271683Y-5513427D01*
X8230000Y-5505135D01*
X8230000Y-6308011D01*
X8220060Y-6290795D01*
X8164205Y-6234940D01*
X8095796Y-6195444D01*
X8019496Y-6175000D01*
X7940504Y-6175000D01*
X7864204Y-6195444D01*
X7795795Y-6234940D01*
X7739940Y-6290795D01*
X7730000Y-6308011D01*
X7730000Y-5505136D01*
X7729999Y-5505135D01*
X7688316Y-5513427D01*
X7688308Y-5513429D01*
X7506328Y-5588807D01*
X7506315Y-5588814D01*
X7342537Y-5698248D01*
X7342533Y-5698251D01*
X7203251Y-5837533D01*
X7203248Y-5837537D01*
X7093814Y-6001315D01*
X7093807Y-6001328D01*
X7018430Y-6183306D01*
X7018427Y-6183318D01*
X6980000Y-6376504D01*
X1200500Y-6376504D01*
X1200500Y-4003461D01*
X1200695Y-3996508D01*
X1207352Y-3877973D01*
X2449500Y-3877973D01*
X2449500Y-4122026D01*
X2487678Y-4363072D01*
X2563097Y-4595187D01*
X2673896Y-4812642D01*
X2817339Y-5010076D01*
X2817343Y-5010081D01*
X2989918Y-5182656D01*
X2989923Y-5182660D01*
X3162136Y-5307779D01*
X3187361Y-5326106D01*
X3404815Y-5436904D01*
X3636924Y-5512321D01*
X3877973Y-5550500D01*
X3877974Y-5550500D01*
X4122026Y-5550500D01*
X4122027Y-5550500D01*
X4363076Y-5512321D01*
X4595185Y-5436904D01*
X4812639Y-5326106D01*
X5010083Y-5182655D01*
X5182655Y-5010083D01*
X5326106Y-4812639D01*
X5436904Y-4595185D01*
X5512321Y-4363076D01*
X5550500Y-4122027D01*
X5550500Y-3877973D01*
X5512321Y-3636924D01*
X5436904Y-3404815D01*
X5326106Y-3187361D01*
X5307779Y-3162136D01*
X5182660Y-2989923D01*
X5182656Y-2989918D01*
X5010081Y-2817343D01*
X5010076Y-2817339D01*
X4812642Y-2673896D01*
X4812641Y-2673895D01*
X4812639Y-2673894D01*
X4595185Y-2563096D01*
X4363076Y-2487679D01*
X4363074Y-2487678D01*
X4363072Y-2487678D01*
X4194769Y-2461021D01*
X4122027Y-2449500D01*
X3877973Y-2449500D01*
X3822093Y-2458350D01*
X3636927Y-2487678D01*
X3404812Y-2563097D01*
X3187357Y-2673896D01*
X2989923Y-2817339D01*
X2989918Y-2817343D01*
X2817343Y-2989918D01*
X2817339Y-2989923D01*
X2673896Y-3187357D01*
X2563097Y-3404812D01*
X2487678Y-3636927D01*
X2449500Y-3877973D01*
X1207352Y-3877973D01*
X1208223Y-3862462D01*
X1217712Y-3693494D01*
X1219266Y-3679700D01*
X1269522Y-3383914D01*
X1272615Y-3370362D01*
X1286118Y-3323495D01*
X1355672Y-3082067D01*
X1360264Y-3068946D01*
X1475077Y-2791761D01*
X1481097Y-2779262D01*
X1626239Y-2516645D01*
X1633616Y-2504906D01*
X1807238Y-2260210D01*
X1815884Y-2249367D01*
X2015823Y-2025635D01*
X2025635Y-2015823D01*
X2249367Y-1815884D01*
X2260214Y-1807236D01*
X2504906Y-1633616D01*
X2516645Y-1626239D01*
X2779262Y-1481097D01*
X2791761Y-1475077D01*
X3068950Y-1360262D01*
X3082067Y-1355672D01*
X3370368Y-1272613D01*
X3383914Y-1269522D01*
X3679700Y-1219266D01*
X3693494Y-1217712D01*
X3996526Y-1200694D01*
X4003479Y-1200499D01*
X7751157Y-1200499D01*
X7818196Y-1220184D01*
G37*
%TD.AperFunction*%
%TD*%
%TA.AperFunction,Conductor*%
%TO.N,GND1*%
G36*
X3660000Y-36566988D02*
G01*
X3602993Y-36534075D01*
X3475826Y-36500000D01*
X3344174Y-36500000D01*
X3217007Y-36534075D01*
X3160000Y-36566988D01*
X3160000Y-34893012D01*
X3217007Y-34925925D01*
X3344174Y-34960000D01*
X3475826Y-34960000D01*
X3602993Y-34925925D01*
X3660000Y-34893012D01*
X3660000Y-36566988D01*
G37*
%TD.AperFunction*%
%TA.AperFunction,Conductor*%
G36*
X21440000Y-36566988D02*
G01*
X21382993Y-36534075D01*
X21255826Y-36500000D01*
X21124174Y-36500000D01*
X20997007Y-36534075D01*
X20940000Y-36566988D01*
X20940000Y-34893012D01*
X20997007Y-34925925D01*
X21124174Y-34960000D01*
X21255826Y-34960000D01*
X21382993Y-34925925D01*
X21440000Y-34893012D01*
X21440000Y-36566988D01*
G37*
%TD.AperFunction*%
%TA.AperFunction,Conductor*%
G36*
X4547539Y-29919685D02*
G01*
X4593294Y-29972489D01*
X4604500Y-30024000D01*
X4604500Y-31772870D01*
X4604501Y-31772876D01*
X4610908Y-31832483D01*
X4661202Y-31967328D01*
X4661206Y-31967335D01*
X4747452Y-32082544D01*
X4747455Y-32082547D01*
X4862664Y-32168793D01*
X4862671Y-32168797D01*
X4997517Y-32219091D01*
X4997516Y-32219091D01*
X5004444Y-32219835D01*
X5057127Y-32225500D01*
X6852872Y-32225499D01*
X6912483Y-32219091D01*
X7047331Y-32168796D01*
X7162546Y-32082546D01*
X7248796Y-31967331D01*
X7297810Y-31835916D01*
X7339681Y-31779984D01*
X7405145Y-31755566D01*
X7473418Y-31770417D01*
X7501673Y-31791569D01*
X7623599Y-31913495D01*
X7720384Y-31981265D01*
X7817165Y-32049032D01*
X7817167Y-32049033D01*
X7817170Y-32049035D01*
X8031337Y-32148903D01*
X8259592Y-32210063D01*
X8436034Y-32225500D01*
X8494999Y-32230659D01*
X8495000Y-32230659D01*
X8495001Y-32230659D01*
X8553966Y-32225500D01*
X8730408Y-32210063D01*
X8958663Y-32148903D01*
X9172830Y-32049035D01*
X9366401Y-31913495D01*
X9533495Y-31746401D01*
X9663425Y-31560842D01*
X9718002Y-31517217D01*
X9787500Y-31510023D01*
X9849855Y-31541546D01*
X9866575Y-31560842D01*
X9996281Y-31746082D01*
X9996505Y-31746401D01*
X10163599Y-31913495D01*
X10260384Y-31981265D01*
X10357165Y-32049032D01*
X10357167Y-32049033D01*
X10357170Y-32049035D01*
X10571337Y-32148903D01*
X10799592Y-32210063D01*
X10976034Y-32225500D01*
X11034999Y-32230659D01*
X11035000Y-32230659D01*
X11035001Y-32230659D01*
X11093966Y-32225500D01*
X11270408Y-32210063D01*
X11498663Y-32148903D01*
X11712830Y-32049035D01*
X11906401Y-31913495D01*
X12073495Y-31746401D01*
X12203425Y-31560842D01*
X12258002Y-31517217D01*
X12327500Y-31510023D01*
X12389855Y-31541546D01*
X12406575Y-31560842D01*
X12536281Y-31746082D01*
X12536505Y-31746401D01*
X12703599Y-31913495D01*
X12800384Y-31981265D01*
X12897165Y-32049032D01*
X12897167Y-32049033D01*
X12897170Y-32049035D01*
X13111337Y-32148903D01*
X13339592Y-32210063D01*
X13516034Y-32225500D01*
X13574999Y-32230659D01*
X13575000Y-32230659D01*
X13575001Y-32230659D01*
X13633966Y-32225500D01*
X13810408Y-32210063D01*
X14038663Y-32148903D01*
X14252830Y-32049035D01*
X14446401Y-31913495D01*
X14613495Y-31746401D01*
X14743425Y-31560842D01*
X14798002Y-31517217D01*
X14867500Y-31510023D01*
X14929855Y-31541546D01*
X14946575Y-31560842D01*
X15076281Y-31746082D01*
X15076505Y-31746401D01*
X15243599Y-31913495D01*
X15340384Y-31981265D01*
X15437165Y-32049032D01*
X15437167Y-32049033D01*
X15437170Y-32049035D01*
X15651337Y-32148903D01*
X15879592Y-32210063D01*
X16056034Y-32225500D01*
X16114999Y-32230659D01*
X16115000Y-32230659D01*
X16115001Y-32230659D01*
X16173966Y-32225500D01*
X16350408Y-32210063D01*
X16578663Y-32148903D01*
X16792830Y-32049035D01*
X16986401Y-31913495D01*
X17153495Y-31746401D01*
X17283730Y-31560405D01*
X17338307Y-31516781D01*
X17407805Y-31509587D01*
X17470160Y-31541110D01*
X17486879Y-31560405D01*
X17616890Y-31746078D01*
X17783917Y-31913105D01*
X17977421Y-32048600D01*
X18191507Y-32148429D01*
X18191516Y-32148433D01*
X18405000Y-32205634D01*
X18405000Y-31308012D01*
X18462007Y-31340925D01*
X18589174Y-31375000D01*
X18720826Y-31375000D01*
X18847993Y-31340925D01*
X18905000Y-31308012D01*
X18905000Y-32205633D01*
X19118483Y-32148433D01*
X19118492Y-32148429D01*
X19332578Y-32048600D01*
X19526082Y-31913105D01*
X19693105Y-31746082D01*
X19828600Y-31552578D01*
X19928429Y-31338492D01*
X19928432Y-31338486D01*
X19985636Y-31125000D01*
X19088012Y-31125000D01*
X19120925Y-31067993D01*
X19155000Y-30940826D01*
X19155000Y-30809174D01*
X19120925Y-30682007D01*
X19088012Y-30625000D01*
X19985636Y-30625000D01*
X19985635Y-30624999D01*
X19928432Y-30411513D01*
X19928429Y-30411507D01*
X19828600Y-30197422D01*
X19828599Y-30197420D01*
X19756970Y-30095123D01*
X19734643Y-30028917D01*
X19751653Y-29961150D01*
X19802601Y-29913337D01*
X19858545Y-29900000D01*
X23275499Y-29900000D01*
X23342538Y-29919685D01*
X23388293Y-29972489D01*
X23399499Y-30024000D01*
X23399499Y-38323906D01*
X23398902Y-38336060D01*
X23385334Y-38473818D01*
X23380592Y-38497659D01*
X23342185Y-38624270D01*
X23332882Y-38646729D01*
X23270516Y-38763406D01*
X23257011Y-38783617D01*
X23173078Y-38885890D01*
X23155890Y-38903078D01*
X23053617Y-38987011D01*
X23033406Y-39000516D01*
X22916729Y-39062882D01*
X22894270Y-39072185D01*
X22767659Y-39110592D01*
X22743818Y-39115334D01*
X22606061Y-39128902D01*
X22593907Y-39129499D01*
X22560116Y-39129499D01*
X19410119Y-39129501D01*
X19355515Y-39129501D01*
X19168882Y-39159060D01*
X18989164Y-39217455D01*
X18820801Y-39303241D01*
X18747141Y-39356759D01*
X18667928Y-39414311D01*
X18667926Y-39414313D01*
X18667925Y-39414313D01*
X18534313Y-39547925D01*
X18534313Y-39547926D01*
X18534311Y-39547928D01*
X18486611Y-39613580D01*
X18423241Y-39700801D01*
X18337455Y-39869164D01*
X18279060Y-40048882D01*
X18249501Y-40235514D01*
X18249501Y-40290119D01*
X18249500Y-50960117D01*
X18249500Y-50993907D01*
X18248903Y-51006061D01*
X18235335Y-51143819D01*
X18230593Y-51167661D01*
X18192186Y-51294271D01*
X18182883Y-51316728D01*
X18120517Y-51433406D01*
X18107012Y-51453618D01*
X18023079Y-51555891D01*
X18005891Y-51573079D01*
X17903618Y-51657012D01*
X17883406Y-51670517D01*
X17766728Y-51732883D01*
X17744271Y-51742186D01*
X17617661Y-51780593D01*
X17593819Y-51785335D01*
X17456062Y-51798903D01*
X17443908Y-51799500D01*
X7156092Y-51799500D01*
X7143938Y-51798903D01*
X7006180Y-51785335D01*
X6982340Y-51780593D01*
X6855728Y-51742186D01*
X6833271Y-51732883D01*
X6716593Y-51670517D01*
X6696381Y-51657012D01*
X6594108Y-51573079D01*
X6576920Y-51555891D01*
X6492986Y-51453616D01*
X6479482Y-51433406D01*
X6417116Y-51316728D01*
X6407815Y-51294277D01*
X6369404Y-51167652D01*
X6364665Y-51143824D01*
X6351097Y-51006060D01*
X6350500Y-50993907D01*
X6350500Y-50935456D01*
X6350499Y-50935450D01*
X6350499Y-44619999D01*
X7134341Y-44619999D01*
X7134341Y-44620000D01*
X7154936Y-44855403D01*
X7154938Y-44855413D01*
X7216094Y-45083655D01*
X7216096Y-45083659D01*
X7216097Y-45083663D01*
X7315965Y-45297830D01*
X7315967Y-45297834D01*
X7451501Y-45491395D01*
X7451506Y-45491402D01*
X7618597Y-45658493D01*
X7618603Y-45658498D01*
X7804158Y-45788425D01*
X7847783Y-45843002D01*
X7854977Y-45912500D01*
X7823454Y-45974855D01*
X7804158Y-45991575D01*
X7618597Y-46121505D01*
X7451505Y-46288597D01*
X7315965Y-46482169D01*
X7315964Y-46482171D01*
X7216098Y-46696335D01*
X7216094Y-46696344D01*
X7154938Y-46924586D01*
X7154936Y-46924596D01*
X7134341Y-47159999D01*
X7134341Y-47160000D01*
X7154936Y-47395403D01*
X7154938Y-47395413D01*
X7216094Y-47623655D01*
X7216096Y-47623659D01*
X7216097Y-47623663D01*
X7251105Y-47698738D01*
X7315965Y-47837830D01*
X7315967Y-47837834D01*
X7451501Y-48031395D01*
X7451506Y-48031402D01*
X7618597Y-48198493D01*
X7618603Y-48198498D01*
X7804158Y-48328425D01*
X7847783Y-48383002D01*
X7854977Y-48452500D01*
X7823454Y-48514855D01*
X7804158Y-48531575D01*
X7618597Y-48661505D01*
X7451505Y-48828597D01*
X7315965Y-49022169D01*
X7315964Y-49022171D01*
X7216098Y-49236335D01*
X7216094Y-49236344D01*
X7154938Y-49464586D01*
X7154936Y-49464596D01*
X7134341Y-49699999D01*
X7134341Y-49700000D01*
X7154936Y-49935403D01*
X7154938Y-49935413D01*
X7216094Y-50163655D01*
X7216096Y-50163659D01*
X7216097Y-50163663D01*
X7315965Y-50377830D01*
X7315967Y-50377834D01*
X7424281Y-50532521D01*
X7451505Y-50571401D01*
X7618599Y-50738495D01*
X7715384Y-50806265D01*
X7812165Y-50874032D01*
X7812167Y-50874033D01*
X7812170Y-50874035D01*
X8026337Y-50973903D01*
X8254592Y-51035063D01*
X8442918Y-51051539D01*
X8489999Y-51055659D01*
X8490000Y-51055659D01*
X8490001Y-51055659D01*
X8529234Y-51052226D01*
X8725408Y-51035063D01*
X8953663Y-50973903D01*
X9167830Y-50874035D01*
X9361401Y-50738495D01*
X9528495Y-50571401D01*
X9664035Y-50377830D01*
X9763903Y-50163663D01*
X9825063Y-49935408D01*
X9845659Y-49700000D01*
X9825063Y-49464592D01*
X9805614Y-49392007D01*
X9807277Y-49322162D01*
X9837706Y-49272238D01*
X10490276Y-48619670D01*
X10561464Y-48513128D01*
X10610500Y-48394745D01*
X10622576Y-48334035D01*
X10635499Y-48269070D01*
X10635499Y-43339625D01*
X10655184Y-43272586D01*
X10707988Y-43226831D01*
X10777146Y-43216887D01*
X10800445Y-43222581D01*
X10881540Y-43250958D01*
X10881544Y-43250958D01*
X10881546Y-43250959D01*
X10881543Y-43250959D01*
X11043997Y-43269263D01*
X11044001Y-43269263D01*
X11044005Y-43269263D01*
X11206456Y-43250959D01*
X11206457Y-43250958D01*
X11206462Y-43250958D01*
X11360776Y-43196961D01*
X11499205Y-43109980D01*
X11614809Y-42994376D01*
X11701790Y-42855947D01*
X11716013Y-42815298D01*
X11745372Y-42768572D01*
X12406746Y-42107198D01*
X12453472Y-42077839D01*
X12510775Y-42057789D01*
X12649204Y-41970808D01*
X12764808Y-41855204D01*
X12851789Y-41716775D01*
X12903705Y-41568409D01*
X13188909Y-41568409D01*
X13188909Y-41568416D01*
X13207212Y-41730870D01*
X13261541Y-41886131D01*
X13268500Y-41927086D01*
X13268500Y-47573069D01*
X13268500Y-47573071D01*
X13268499Y-47573071D01*
X13293497Y-47698738D01*
X13293499Y-47698744D01*
X13342534Y-47817125D01*
X13413726Y-47923673D01*
X13413727Y-47923674D01*
X14762290Y-49272236D01*
X14795775Y-49333559D01*
X14794384Y-49392008D01*
X14774937Y-49464589D01*
X14774937Y-49464590D01*
X14754341Y-49699999D01*
X14754341Y-49700000D01*
X14774936Y-49935403D01*
X14774938Y-49935413D01*
X14836094Y-50163655D01*
X14836096Y-50163659D01*
X14836097Y-50163663D01*
X14935965Y-50377830D01*
X14935967Y-50377834D01*
X15044281Y-50532521D01*
X15071505Y-50571401D01*
X15238599Y-50738495D01*
X15335384Y-50806265D01*
X15432165Y-50874032D01*
X15432167Y-50874033D01*
X15432170Y-50874035D01*
X15646337Y-50973903D01*
X15874592Y-51035063D01*
X16062918Y-51051539D01*
X16109999Y-51055659D01*
X16110000Y-51055659D01*
X16110001Y-51055659D01*
X16149234Y-51052226D01*
X16345408Y-51035063D01*
X16573663Y-50973903D01*
X16787830Y-50874035D01*
X16981401Y-50738495D01*
X17148495Y-50571401D01*
X17284035Y-50377830D01*
X17383903Y-50163663D01*
X17445063Y-49935408D01*
X17465659Y-49700000D01*
X17445063Y-49464592D01*
X17383903Y-49236337D01*
X17284035Y-49022171D01*
X17148495Y-48828599D01*
X17148494Y-48828597D01*
X16981402Y-48661506D01*
X16981396Y-48661501D01*
X16795842Y-48531575D01*
X16752217Y-48476998D01*
X16745023Y-48407500D01*
X16776546Y-48345145D01*
X16795842Y-48328425D01*
X16880608Y-48269071D01*
X16981401Y-48198495D01*
X17148495Y-48031401D01*
X17284035Y-47837830D01*
X17383903Y-47623663D01*
X17445063Y-47395408D01*
X17465659Y-47160000D01*
X17445063Y-46924592D01*
X17383903Y-46696337D01*
X17284035Y-46482171D01*
X17148495Y-46288599D01*
X17148494Y-46288597D01*
X16981402Y-46121506D01*
X16981396Y-46121501D01*
X16795842Y-45991575D01*
X16752217Y-45936998D01*
X16745023Y-45867500D01*
X16776546Y-45805145D01*
X16795842Y-45788425D01*
X16818026Y-45772891D01*
X16981401Y-45658495D01*
X17148495Y-45491401D01*
X17284035Y-45297830D01*
X17383903Y-45083663D01*
X17445063Y-44855408D01*
X17465659Y-44620000D01*
X17445063Y-44384592D01*
X17383903Y-44156337D01*
X17284035Y-43942171D01*
X17148495Y-43748599D01*
X17148494Y-43748597D01*
X16981402Y-43581506D01*
X16981401Y-43581505D01*
X16795405Y-43451269D01*
X16751781Y-43396692D01*
X16744588Y-43327193D01*
X16776110Y-43264839D01*
X16795405Y-43248119D01*
X16981082Y-43118105D01*
X17148105Y-42951082D01*
X17283600Y-42757578D01*
X17383429Y-42543492D01*
X17383432Y-42543486D01*
X17440636Y-42330000D01*
X16543012Y-42330000D01*
X16575925Y-42272993D01*
X16610000Y-42145826D01*
X16610000Y-42014174D01*
X16575925Y-41887007D01*
X16543012Y-41830000D01*
X17440636Y-41830000D01*
X17440635Y-41829999D01*
X17383432Y-41616513D01*
X17383429Y-41616507D01*
X17283600Y-41402422D01*
X17283599Y-41402420D01*
X17148113Y-41208926D01*
X17148108Y-41208920D01*
X16981082Y-41041894D01*
X16787578Y-40906399D01*
X16573492Y-40806570D01*
X16573486Y-40806567D01*
X16360000Y-40749364D01*
X16360000Y-41646988D01*
X16302993Y-41614075D01*
X16175826Y-41580000D01*
X16044174Y-41580000D01*
X15917007Y-41614075D01*
X15860000Y-41646988D01*
X15860000Y-40749364D01*
X15859999Y-40749364D01*
X15646513Y-40806567D01*
X15646507Y-40806570D01*
X15432422Y-40906399D01*
X15432420Y-40906400D01*
X15238926Y-41041886D01*
X15238920Y-41041891D01*
X15071891Y-41208920D01*
X15071886Y-41208926D01*
X14936400Y-41402420D01*
X14936399Y-41402422D01*
X14876197Y-41531526D01*
X14830024Y-41583965D01*
X14762831Y-41603117D01*
X14695950Y-41582901D01*
X14650615Y-41529736D01*
X14640595Y-41493004D01*
X14630787Y-41405957D01*
X14630786Y-41405955D01*
X14630786Y-41405952D01*
X14576789Y-41251638D01*
X14489808Y-41113209D01*
X14374204Y-40997605D01*
X14358383Y-40987664D01*
X14235774Y-40910623D01*
X14081455Y-40856625D01*
X13919004Y-40838322D01*
X13918996Y-40838322D01*
X13756544Y-40856625D01*
X13602225Y-40910623D01*
X13463795Y-40997605D01*
X13348192Y-41113208D01*
X13261210Y-41251638D01*
X13207212Y-41405957D01*
X13188909Y-41568409D01*
X12903705Y-41568409D01*
X12905786Y-41562461D01*
X12909272Y-41531526D01*
X12924091Y-41400003D01*
X12924091Y-41399996D01*
X12905787Y-41237544D01*
X12905786Y-41237542D01*
X12905786Y-41237539D01*
X12851789Y-41083225D01*
X12764808Y-40944796D01*
X12649204Y-40829192D01*
X12510774Y-40742210D01*
X12356455Y-40688212D01*
X12194004Y-40669909D01*
X12193996Y-40669909D01*
X12031544Y-40688212D01*
X11877225Y-40742210D01*
X11738795Y-40829192D01*
X11623192Y-40944795D01*
X11536212Y-41083221D01*
X11516159Y-41140529D01*
X11486799Y-41187253D01*
X10847909Y-41826143D01*
X10801184Y-41855503D01*
X10727224Y-41881383D01*
X10727223Y-41881384D01*
X10588796Y-41968364D01*
X10473191Y-42083969D01*
X10473187Y-42083975D01*
X10471156Y-42087207D01*
X10469301Y-42088847D01*
X10468846Y-42089418D01*
X10468746Y-42089338D01*
X10418817Y-42133494D01*
X10349763Y-42144136D01*
X10308535Y-42129235D01*
X10308054Y-42130236D01*
X10301773Y-42127211D01*
X10147456Y-42073213D01*
X9985003Y-42054910D01*
X9984994Y-42054910D01*
X9978381Y-42055655D01*
X9909560Y-42043600D01*
X9858181Y-41996250D01*
X9840499Y-41932435D01*
X9840499Y-41182129D01*
X9840498Y-41182123D01*
X9840497Y-41182116D01*
X9834091Y-41122517D01*
X9830619Y-41113209D01*
X9783797Y-40987671D01*
X9783793Y-40987664D01*
X9697547Y-40872455D01*
X9697544Y-40872452D01*
X9582335Y-40786206D01*
X9582328Y-40786202D01*
X9447482Y-40735908D01*
X9447483Y-40735908D01*
X9387883Y-40729501D01*
X9387881Y-40729500D01*
X9387873Y-40729500D01*
X9387864Y-40729500D01*
X7592129Y-40729500D01*
X7592123Y-40729501D01*
X7532516Y-40735908D01*
X7397671Y-40786202D01*
X7397664Y-40786206D01*
X7282455Y-40872452D01*
X7282452Y-40872455D01*
X7196206Y-40987664D01*
X7196202Y-40987671D01*
X7145908Y-41122517D01*
X7143972Y-41140529D01*
X7139501Y-41182123D01*
X7139500Y-41182135D01*
X7139500Y-42977870D01*
X7139501Y-42977876D01*
X7145908Y-43037483D01*
X7196202Y-43172328D01*
X7196206Y-43172335D01*
X7282452Y-43287544D01*
X7282455Y-43287547D01*
X7397664Y-43373793D01*
X7397671Y-43373797D01*
X7529081Y-43422810D01*
X7585015Y-43464681D01*
X7609432Y-43530145D01*
X7594580Y-43598418D01*
X7573430Y-43626673D01*
X7451503Y-43748600D01*
X7315965Y-43942169D01*
X7315964Y-43942171D01*
X7216098Y-44156335D01*
X7216094Y-44156344D01*
X7154938Y-44384586D01*
X7154936Y-44384596D01*
X7134341Y-44619999D01*
X6350499Y-44619999D01*
X6350499Y-40235514D01*
X6320939Y-40048882D01*
X6262544Y-39869164D01*
X6176758Y-39700801D01*
X6150922Y-39665241D01*
X6065689Y-39547928D01*
X5932072Y-39414311D01*
X5779198Y-39303241D01*
X5610835Y-39217455D01*
X5431117Y-39159060D01*
X5244485Y-39129501D01*
X5244480Y-39129501D01*
X5189881Y-39129501D01*
X2039883Y-39129499D01*
X2006093Y-39129499D01*
X1993939Y-39128902D01*
X1856181Y-39115334D01*
X1832340Y-39110592D01*
X1705729Y-39072185D01*
X1683273Y-39062883D01*
X1566593Y-39000516D01*
X1546382Y-38987011D01*
X1444109Y-38903078D01*
X1426921Y-38885890D01*
X1342988Y-38783617D01*
X1329483Y-38763406D01*
X1267114Y-38646721D01*
X1257814Y-38624270D01*
X1219405Y-38497653D01*
X1214666Y-38473823D01*
X1201098Y-38336059D01*
X1200501Y-38323906D01*
X1200501Y-38265455D01*
X1200500Y-38265449D01*
X1200500Y-33562155D01*
X2060000Y-33562155D01*
X2060000Y-34210000D01*
X2976988Y-34210000D01*
X2944075Y-34267007D01*
X2910000Y-34394174D01*
X2910000Y-34525826D01*
X2944075Y-34652993D01*
X2976988Y-34710000D01*
X2060000Y-34710000D01*
X2060000Y-35357844D01*
X2066401Y-35417372D01*
X2066403Y-35417379D01*
X2116645Y-35552086D01*
X2116649Y-35552093D01*
X2202809Y-35667187D01*
X2202812Y-35667190D01*
X2317906Y-35753350D01*
X2317913Y-35753354D01*
X2449986Y-35802614D01*
X2505920Y-35844485D01*
X2530337Y-35909949D01*
X2515486Y-35978222D01*
X2494335Y-36006477D01*
X2371886Y-36128926D01*
X2236400Y-36322420D01*
X2236399Y-36322422D01*
X2136570Y-36536507D01*
X2136567Y-36536513D01*
X2079364Y-36749999D01*
X2079364Y-36750000D01*
X2976988Y-36750000D01*
X2944075Y-36807007D01*
X2910000Y-36934174D01*
X2910000Y-37065826D01*
X2944075Y-37192993D01*
X2976988Y-37250000D01*
X2079364Y-37250000D01*
X2136567Y-37463486D01*
X2136570Y-37463492D01*
X2236399Y-37677578D01*
X2371894Y-37871082D01*
X2538917Y-38038105D01*
X2732421Y-38173600D01*
X2946507Y-38273429D01*
X2946516Y-38273433D01*
X3160000Y-38330634D01*
X3160000Y-37433012D01*
X3217007Y-37465925D01*
X3344174Y-37500000D01*
X3475826Y-37500000D01*
X3602993Y-37465925D01*
X3660000Y-37433012D01*
X3660000Y-38330633D01*
X3873483Y-38273433D01*
X3873492Y-38273429D01*
X4087578Y-38173600D01*
X4281082Y-38038105D01*
X4448105Y-37871082D01*
X4583600Y-37677578D01*
X4683429Y-37463492D01*
X4683432Y-37463486D01*
X4740636Y-37250000D01*
X3843012Y-37250000D01*
X3875925Y-37192993D01*
X3910000Y-37065826D01*
X3910000Y-36934174D01*
X3875925Y-36807007D01*
X3843012Y-36750000D01*
X4740636Y-36750000D01*
X4740635Y-36749999D01*
X4683432Y-36536513D01*
X4683429Y-36536507D01*
X4583600Y-36322422D01*
X4583599Y-36322420D01*
X4448113Y-36128926D01*
X4448108Y-36128920D01*
X4325665Y-36006477D01*
X4292180Y-35945154D01*
X4297164Y-35875462D01*
X4339036Y-35819529D01*
X4370013Y-35802614D01*
X4502086Y-35753354D01*
X4502093Y-35753350D01*
X4586722Y-35689996D01*
X10888909Y-35689996D01*
X10888909Y-35690003D01*
X10907212Y-35852457D01*
X10961541Y-36007718D01*
X10968500Y-36048673D01*
X10968500Y-37171325D01*
X10961542Y-37212279D01*
X10907212Y-37367544D01*
X10888909Y-37529996D01*
X10888909Y-37530003D01*
X10907212Y-37692455D01*
X10961210Y-37846774D01*
X11048192Y-37985204D01*
X11163796Y-38100808D01*
X11302225Y-38187789D01*
X11456539Y-38241786D01*
X11456542Y-38241786D01*
X11456544Y-38241787D01*
X11618996Y-38260091D01*
X11619000Y-38260091D01*
X11619004Y-38260091D01*
X11781455Y-38241787D01*
X11781456Y-38241786D01*
X11781461Y-38241786D01*
X11935775Y-38187789D01*
X12074204Y-38100808D01*
X12189808Y-37985204D01*
X12276789Y-37846775D01*
X12330786Y-37692461D01*
X12349091Y-37530000D01*
X12341871Y-37465925D01*
X12330787Y-37367544D01*
X12330786Y-37367542D01*
X12330786Y-37367539D01*
X12276789Y-37213225D01*
X12276458Y-37212279D01*
X12269500Y-37171325D01*
X12269500Y-36249996D01*
X12613909Y-36249996D01*
X12613909Y-36250003D01*
X12632212Y-36412457D01*
X12686541Y-36567718D01*
X12693500Y-36608673D01*
X12693500Y-37751325D01*
X12686542Y-37792279D01*
X12632212Y-37947544D01*
X12613909Y-38109996D01*
X12613909Y-38110003D01*
X12632212Y-38272455D01*
X12686210Y-38426774D01*
X12773192Y-38565204D01*
X12888796Y-38680808D01*
X13027225Y-38767789D01*
X13181539Y-38821786D01*
X13181542Y-38821786D01*
X13181544Y-38821787D01*
X13343996Y-38840091D01*
X13344000Y-38840091D01*
X13344004Y-38840091D01*
X13506455Y-38821787D01*
X13506456Y-38821786D01*
X13506461Y-38821786D01*
X13660775Y-38767789D01*
X13799204Y-38680808D01*
X13914808Y-38565204D01*
X14001789Y-38426775D01*
X14055786Y-38272461D01*
X14055787Y-38272455D01*
X14074091Y-38110003D01*
X14074091Y-38109996D01*
X14055787Y-37947544D01*
X14055786Y-37947542D01*
X14055786Y-37947539D01*
X14001789Y-37793225D01*
X14001458Y-37792279D01*
X13994500Y-37751325D01*
X13994500Y-36608673D01*
X14001459Y-36567718D01*
X14013231Y-36534075D01*
X14055786Y-36412461D01*
X14055786Y-36412459D01*
X14055787Y-36412457D01*
X14074091Y-36250003D01*
X14074091Y-36249996D01*
X14055787Y-36087544D01*
X14055786Y-36087542D01*
X14055786Y-36087539D01*
X14001789Y-35933225D01*
X13914808Y-35794796D01*
X13799204Y-35679192D01*
X13780098Y-35667187D01*
X13660774Y-35592210D01*
X13506455Y-35538212D01*
X13344004Y-35519909D01*
X13343996Y-35519909D01*
X13181544Y-35538212D01*
X13027225Y-35592210D01*
X12888795Y-35679192D01*
X12773192Y-35794795D01*
X12686210Y-35933225D01*
X12632212Y-36087544D01*
X12613909Y-36249996D01*
X12269500Y-36249996D01*
X12269500Y-36048673D01*
X12276459Y-36007718D01*
X12310670Y-35909949D01*
X12330786Y-35852461D01*
X12330786Y-35852459D01*
X12330787Y-35852457D01*
X12349091Y-35690003D01*
X12349091Y-35689996D01*
X12330787Y-35527544D01*
X12330786Y-35527542D01*
X12330786Y-35527539D01*
X12276789Y-35373225D01*
X12189808Y-35234796D01*
X12074204Y-35119192D01*
X11935774Y-35032210D01*
X11781455Y-34978212D01*
X11619004Y-34959909D01*
X11618996Y-34959909D01*
X11456544Y-34978212D01*
X11302225Y-35032210D01*
X11163795Y-35119192D01*
X11048192Y-35234795D01*
X10961210Y-35373225D01*
X10907212Y-35527544D01*
X10888909Y-35689996D01*
X4586722Y-35689996D01*
X4617187Y-35667190D01*
X4617190Y-35667187D01*
X4703350Y-35552093D01*
X4703354Y-35552086D01*
X4753596Y-35417379D01*
X4753598Y-35417372D01*
X4759999Y-35357844D01*
X4760000Y-35357827D01*
X4760000Y-34710000D01*
X3843012Y-34710000D01*
X3875925Y-34652993D01*
X3910000Y-34525826D01*
X3910000Y-34394174D01*
X3875925Y-34267007D01*
X3843012Y-34210000D01*
X4760000Y-34210000D01*
X4760000Y-33562172D01*
X4759999Y-33562155D01*
X19840000Y-33562155D01*
X19840000Y-34210000D01*
X20756988Y-34210000D01*
X20724075Y-34267007D01*
X20690000Y-34394174D01*
X20690000Y-34525826D01*
X20724075Y-34652993D01*
X20756988Y-34710000D01*
X19840000Y-34710000D01*
X19840000Y-35357844D01*
X19846401Y-35417372D01*
X19846403Y-35417379D01*
X19896645Y-35552086D01*
X19896649Y-35552093D01*
X19982809Y-35667187D01*
X19982812Y-35667190D01*
X20097906Y-35753350D01*
X20097913Y-35753354D01*
X20229986Y-35802614D01*
X20285920Y-35844485D01*
X20310337Y-35909949D01*
X20295486Y-35978222D01*
X20274335Y-36006477D01*
X20151886Y-36128926D01*
X20016400Y-36322420D01*
X20016399Y-36322422D01*
X19916570Y-36536507D01*
X19916567Y-36536513D01*
X19859364Y-36749999D01*
X19859364Y-36750000D01*
X20756988Y-36750000D01*
X20724075Y-36807007D01*
X20690000Y-36934174D01*
X20690000Y-37065826D01*
X20724075Y-37192993D01*
X20756988Y-37250000D01*
X19859364Y-37250000D01*
X19916567Y-37463486D01*
X19916570Y-37463492D01*
X20016399Y-37677578D01*
X20151894Y-37871082D01*
X20318917Y-38038105D01*
X20512421Y-38173600D01*
X20726507Y-38273429D01*
X20726516Y-38273433D01*
X20940000Y-38330634D01*
X20940000Y-37433012D01*
X20997007Y-37465925D01*
X21124174Y-37500000D01*
X21255826Y-37500000D01*
X21382993Y-37465925D01*
X21440000Y-37433012D01*
X21440000Y-38330633D01*
X21653483Y-38273433D01*
X21653492Y-38273429D01*
X21867578Y-38173600D01*
X22061082Y-38038105D01*
X22228105Y-37871082D01*
X22363600Y-37677578D01*
X22463429Y-37463492D01*
X22463432Y-37463486D01*
X22520636Y-37250000D01*
X21623012Y-37250000D01*
X21655925Y-37192993D01*
X21690000Y-37065826D01*
X21690000Y-36934174D01*
X21655925Y-36807007D01*
X21623012Y-36750000D01*
X22520636Y-36750000D01*
X22520635Y-36749999D01*
X22463432Y-36536513D01*
X22463429Y-36536507D01*
X22363600Y-36322422D01*
X22363599Y-36322420D01*
X22228113Y-36128926D01*
X22228108Y-36128920D01*
X22105665Y-36006477D01*
X22072180Y-35945154D01*
X22077164Y-35875462D01*
X22119036Y-35819529D01*
X22150013Y-35802614D01*
X22282086Y-35753354D01*
X22282093Y-35753350D01*
X22397187Y-35667190D01*
X22397190Y-35667187D01*
X22483350Y-35552093D01*
X22483354Y-35552086D01*
X22533596Y-35417379D01*
X22533598Y-35417372D01*
X22539999Y-35357844D01*
X22540000Y-35357827D01*
X22540000Y-34710000D01*
X21623012Y-34710000D01*
X21655925Y-34652993D01*
X21690000Y-34525826D01*
X21690000Y-34394174D01*
X21655925Y-34267007D01*
X21623012Y-34210000D01*
X22540000Y-34210000D01*
X22540000Y-33562172D01*
X22539999Y-33562155D01*
X22533598Y-33502627D01*
X22533596Y-33502620D01*
X22483354Y-33367913D01*
X22483350Y-33367906D01*
X22397190Y-33252812D01*
X22397187Y-33252809D01*
X22282093Y-33166649D01*
X22282086Y-33166645D01*
X22147379Y-33116403D01*
X22147372Y-33116401D01*
X22087844Y-33110000D01*
X21440000Y-33110000D01*
X21440000Y-34026988D01*
X21382993Y-33994075D01*
X21255826Y-33960000D01*
X21124174Y-33960000D01*
X20997007Y-33994075D01*
X20940000Y-34026988D01*
X20940000Y-33110000D01*
X20292155Y-33110000D01*
X20232627Y-33116401D01*
X20232620Y-33116403D01*
X20097913Y-33166645D01*
X20097906Y-33166649D01*
X19982812Y-33252809D01*
X19982809Y-33252812D01*
X19896649Y-33367906D01*
X19896645Y-33367913D01*
X19846403Y-33502620D01*
X19846401Y-33502627D01*
X19840000Y-33562155D01*
X4759999Y-33562155D01*
X4753598Y-33502627D01*
X4753596Y-33502620D01*
X4703354Y-33367913D01*
X4703350Y-33367906D01*
X4617190Y-33252812D01*
X4617187Y-33252809D01*
X4502093Y-33166649D01*
X4502086Y-33166645D01*
X4367379Y-33116403D01*
X4367372Y-33116401D01*
X4307844Y-33110000D01*
X3660000Y-33110000D01*
X3660000Y-34026988D01*
X3602993Y-33994075D01*
X3475826Y-33960000D01*
X3344174Y-33960000D01*
X3217007Y-33994075D01*
X3160000Y-34026988D01*
X3160000Y-33110000D01*
X2512155Y-33110000D01*
X2452627Y-33116401D01*
X2452620Y-33116403D01*
X2317913Y-33166645D01*
X2317906Y-33166649D01*
X2202812Y-33252809D01*
X2202809Y-33252812D01*
X2116649Y-33367906D01*
X2116645Y-33367913D01*
X2066403Y-33502620D01*
X2066401Y-33502627D01*
X2060000Y-33562155D01*
X1200500Y-33562155D01*
X1200500Y-30024000D01*
X1220185Y-29956961D01*
X1272989Y-29911206D01*
X1324500Y-29900000D01*
X4480500Y-29900000D01*
X4547539Y-29919685D01*
G37*
%TD.AperFunction*%
%TD*%
M02*
