%TF.GenerationSoftware,KiCad,Pcbnew,8.0.8*%
%TF.CreationDate,2025-02-23T10:22:01-05:00*%
%TF.ProjectId,attinyx12_dev,61747469-6e79-4783-9132-5f6465762e6b,rev?*%
%TF.SameCoordinates,Original*%
%TF.FileFunction,Copper,L2,Bot*%
%TF.FilePolarity,Positive*%
%FSLAX46Y46*%
G04 Gerber Fmt 4.6, Leading zero omitted, Abs format (unit mm)*
G04 Created by KiCad (PCBNEW 8.0.8) date 2025-02-23 10:22:01*
%MOMM*%
%LPD*%
G01*
G04 APERTURE LIST*
%TA.AperFunction,ComponentPad*%
%ADD10R,1.700000X1.700000*%
%TD*%
%TA.AperFunction,ComponentPad*%
%ADD11O,1.700000X1.700000*%
%TD*%
%TA.AperFunction,ComponentPad*%
%ADD12O,1.000000X2.100000*%
%TD*%
%TA.AperFunction,ComponentPad*%
%ADD13O,1.000000X1.800000*%
%TD*%
%TA.AperFunction,ViaPad*%
%ADD14C,0.720000*%
%TD*%
%TA.AperFunction,ViaPad*%
%ADD15C,0.800000*%
%TD*%
%TA.AperFunction,ViaPad*%
%ADD16C,0.520000*%
%TD*%
%TA.AperFunction,Conductor*%
%ADD17C,0.300000*%
%TD*%
%TA.AperFunction,Conductor*%
%ADD18C,0.500000*%
%TD*%
%TA.AperFunction,Conductor*%
%ADD19C,0.200000*%
%TD*%
G04 APERTURE END LIST*
D10*
%TO.P,J4,1,Pin_1*%
%TO.N,+5VA*%
X5955000Y-30875000D03*
D11*
%TO.P,J4,2,Pin_2*%
%TO.N,+5V*%
X5955000Y-28335000D03*
%TO.P,J4,3,Pin_3*%
%TO.N,/PA7*%
X8495000Y-30875000D03*
%TO.P,J4,4,Pin_4*%
%TO.N,/TX*%
X8495000Y-28335000D03*
%TO.P,J4,5,Pin_5*%
%TO.N,/PA6*%
X11035000Y-30875000D03*
%TO.P,J4,6,Pin_6*%
%TO.N,/RX*%
X11035000Y-28335000D03*
%TO.P,J4,7,Pin_7*%
%TO.N,/PA0*%
X13575000Y-30875000D03*
%TO.P,J4,8,Pin_8*%
%TO.N,/UPDI*%
X13575000Y-28335000D03*
%TO.P,J4,9,Pin_9*%
%TO.N,/PA3*%
X16115000Y-30875000D03*
%TO.P,J4,10,Pin_10*%
%TO.N,/LED*%
X16115000Y-28335000D03*
%TO.P,J4,11,Pin_11*%
%TO.N,GND1*%
X18655000Y-30875000D03*
%TO.P,J4,12,Pin_12*%
%TO.N,GND*%
X18655000Y-28335000D03*
%TD*%
D12*
%TO.P,J1,S1,SHIELD*%
%TO.N,GND*%
X16620000Y-7025000D03*
D13*
X16620000Y-2825000D03*
D12*
X7980000Y-7025000D03*
D13*
X7980000Y-2825000D03*
%TD*%
D10*
%TO.P,J6,1,Pin_1*%
%TO.N,GND1*%
X21190000Y-34460000D03*
D11*
%TO.P,J6,2,Pin_2*%
X21190000Y-37000000D03*
%TD*%
D10*
%TO.P,J5,1,Pin_1*%
%TO.N,GND1*%
X3410000Y-34460000D03*
D11*
%TO.P,J5,2,Pin_2*%
X3410000Y-37000000D03*
%TD*%
D10*
%TO.P,J2,1,Pin_1*%
%TO.N,+5VA*%
X8490000Y-42080000D03*
D11*
%TO.P,J2,2,Pin_2*%
%TO.N,/PA6*%
X8490000Y-44620000D03*
%TO.P,J2,3,Pin_3*%
%TO.N,/PA7*%
X8490000Y-47160000D03*
%TO.P,J2,4,Pin_4*%
%TO.N,/PA1*%
X8490000Y-49700000D03*
%TD*%
%TO.P,J3,1,Pin_1*%
%TO.N,GND1*%
X16110000Y-42080000D03*
%TO.P,J3,2,Pin_2*%
%TO.N,/PA3*%
X16110000Y-44620000D03*
%TO.P,J3,3,Pin_3*%
%TO.N,/PA0*%
X16110000Y-47160000D03*
%TO.P,J3,4,Pin_4*%
%TO.N,/PA2*%
X16110000Y-49700000D03*
%TD*%
D14*
%TO.N,GND*%
X13650000Y-22880000D03*
D15*
X12310000Y-17437500D03*
X11310000Y-17437500D03*
D14*
X5230000Y-15300000D03*
X8600000Y-8870000D03*
X5230000Y-13580000D03*
X19420000Y-21050000D03*
X3200000Y-10690000D03*
X15500000Y-13020000D03*
D15*
X13310000Y-17437500D03*
D14*
X15500000Y-14740000D03*
X15510000Y-11320000D03*
X16000000Y-8870000D03*
%TO.N,GND1*%
X7370000Y-37700000D03*
X16460000Y-35000000D03*
D16*
%TO.N,/PA1*%
X9830000Y-41980000D03*
%TO.N,/PA6*%
X11930000Y-41136000D03*
X10446586Y-43136586D03*
%TO.N,/PA7*%
X11350000Y-37535000D03*
X11350000Y-35550000D03*
%TO.N,/PA2*%
X14033707Y-41453707D03*
%TO.N,/PA3*%
X13140000Y-36250000D03*
X13310000Y-38180000D03*
%TO.N,/TX*%
X9610000Y-22970000D03*
X9610000Y-21310000D03*
%TO.N,/RX*%
X10310000Y-21310000D03*
X10310000Y-22970000D03*
D14*
%TO.N,Net-(F1-Pad1)*%
X9910000Y-8960000D03*
X14700000Y-8960000D03*
D16*
%TO.N,/UD+*%
X11540205Y-13109795D03*
X14310000Y-13480000D03*
%TD*%
D17*
%TO.N,/PA1*%
X9830000Y-48360000D02*
X8490000Y-49700000D01*
X9830000Y-41980000D02*
X9830000Y-48360000D01*
%TO.N,/PA6*%
X10446586Y-43136586D02*
X11930000Y-41653172D01*
X11930000Y-41653172D02*
X11930000Y-41136000D01*
%TO.N,/PA7*%
X11350000Y-37535000D02*
X11350000Y-35550000D01*
%TO.N,/PA2*%
X13919000Y-41568414D02*
X13919000Y-47509000D01*
X14033707Y-41453707D02*
X13919000Y-41568414D01*
X13919000Y-47509000D02*
X16110000Y-49700000D01*
%TO.N,/PA3*%
X13140000Y-38010000D02*
X13140000Y-36250000D01*
X13310000Y-38180000D02*
X13140000Y-38010000D01*
%TO.N,/TX*%
X9610000Y-21310000D02*
X9610000Y-22970000D01*
%TO.N,/RX*%
X10310000Y-21310000D02*
X10310000Y-22970000D01*
D18*
%TO.N,Net-(F1-Pad1)*%
X9910000Y-8960000D02*
X14700000Y-8960000D01*
D19*
%TO.N,/UD+*%
X11540205Y-13109795D02*
X13939795Y-13109795D01*
X13939795Y-13109795D02*
X14310000Y-13480000D01*
%TD*%
%TA.AperFunction,Conductor*%
%TO.N,/PA7*%
G36*
X11581247Y-35645748D02*
G01*
X11587556Y-35652102D01*
X11588171Y-35658995D01*
X11501984Y-36060754D01*
X11496898Y-36068124D01*
X11490544Y-36070000D01*
X11209456Y-36070000D01*
X11201183Y-36066573D01*
X11198016Y-36060754D01*
X11111828Y-35658995D01*
X11113444Y-35650187D01*
X11118749Y-35645749D01*
X11345484Y-35550888D01*
X11354439Y-35550857D01*
X11581247Y-35645748D01*
G37*
%TD.AperFunction*%
%TD*%
%TA.AperFunction,Conductor*%
%TO.N,/PA3*%
G36*
X13371247Y-36345748D02*
G01*
X13377556Y-36352102D01*
X13378171Y-36358995D01*
X13291984Y-36760754D01*
X13286898Y-36768124D01*
X13280544Y-36770000D01*
X12999456Y-36770000D01*
X12991183Y-36766573D01*
X12988016Y-36760754D01*
X12901828Y-36358995D01*
X12903444Y-36350187D01*
X12908749Y-36345749D01*
X13135484Y-36250888D01*
X13144439Y-36250857D01*
X13371247Y-36345748D01*
G37*
%TD.AperFunction*%
%TD*%
%TA.AperFunction,Conductor*%
%TO.N,/RX*%
G36*
X10458817Y-22453427D02*
G01*
X10461984Y-22459246D01*
X10548171Y-22861004D01*
X10546555Y-22869812D01*
X10541247Y-22874251D01*
X10314516Y-22969110D01*
X10305561Y-22969142D01*
X10305484Y-22969110D01*
X10078752Y-22874251D01*
X10072443Y-22867897D01*
X10071828Y-22861005D01*
X10158016Y-22459244D01*
X10163102Y-22451876D01*
X10169456Y-22450000D01*
X10450544Y-22450000D01*
X10458817Y-22453427D01*
G37*
%TD.AperFunction*%
%TD*%
%TA.AperFunction,Conductor*%
%TO.N,/PA3*%
G36*
X13292456Y-37730326D02*
G01*
X13293511Y-37731537D01*
X13487711Y-37988046D01*
X13489973Y-37996710D01*
X13486679Y-38003359D01*
X13313449Y-38177532D01*
X13305185Y-38180981D01*
X13305108Y-38180981D01*
X13060213Y-38180039D01*
X13051953Y-38176580D01*
X13048659Y-38169875D01*
X12991753Y-37740135D01*
X12994064Y-37731483D01*
X13001816Y-37727000D01*
X13003352Y-37726899D01*
X13284183Y-37726899D01*
X13292456Y-37730326D01*
G37*
%TD.AperFunction*%
%TD*%
%TA.AperFunction,Conductor*%
%TO.N,GND*%
G36*
X7818196Y-1220184D02*
G01*
X7863951Y-1272988D01*
X7873895Y-1342146D01*
X7844870Y-1405702D01*
X7786092Y-1443476D01*
X7775348Y-1446116D01*
X7688318Y-1463427D01*
X7688306Y-1463430D01*
X7506328Y-1538807D01*
X7506315Y-1538814D01*
X7342537Y-1648248D01*
X7342533Y-1648251D01*
X7203251Y-1787533D01*
X7203248Y-1787537D01*
X7093814Y-1951315D01*
X7093807Y-1951328D01*
X7018430Y-2133306D01*
X7018427Y-2133318D01*
X6980000Y-2326504D01*
X6980000Y-2575000D01*
X7680000Y-2575000D01*
X7680000Y-3075000D01*
X6980000Y-3075000D01*
X6980000Y-3323495D01*
X7018427Y-3516681D01*
X7018430Y-3516693D01*
X7093807Y-3698671D01*
X7093814Y-3698684D01*
X7203248Y-3862462D01*
X7203251Y-3862466D01*
X7342533Y-4001748D01*
X7342537Y-4001751D01*
X7506315Y-4111185D01*
X7506328Y-4111192D01*
X7688308Y-4186569D01*
X7730000Y-4194862D01*
X7730000Y-3391988D01*
X7739940Y-3409205D01*
X7795795Y-3465060D01*
X7864204Y-3504556D01*
X7940504Y-3525000D01*
X8019496Y-3525000D01*
X8095796Y-3504556D01*
X8164205Y-3465060D01*
X8220060Y-3409205D01*
X8230000Y-3391988D01*
X8230000Y-4194862D01*
X8271690Y-4186569D01*
X8271692Y-4186569D01*
X8453671Y-4111192D01*
X8453684Y-4111185D01*
X8617462Y-4001751D01*
X8617466Y-4001748D01*
X8756748Y-3862466D01*
X8756751Y-3862462D01*
X8866185Y-3698684D01*
X8866192Y-3698671D01*
X8941569Y-3516693D01*
X8941572Y-3516681D01*
X8979999Y-3323495D01*
X8980000Y-3323492D01*
X8980000Y-3075000D01*
X8280000Y-3075000D01*
X8280000Y-2575000D01*
X8980000Y-2575000D01*
X8980000Y-2326508D01*
X8979999Y-2326504D01*
X8941572Y-2133318D01*
X8941569Y-2133306D01*
X8866192Y-1951328D01*
X8866185Y-1951315D01*
X8756751Y-1787537D01*
X8756748Y-1787533D01*
X8617466Y-1648251D01*
X8617462Y-1648248D01*
X8453684Y-1538814D01*
X8453671Y-1538807D01*
X8271693Y-1463430D01*
X8271681Y-1463427D01*
X8184652Y-1446116D01*
X8122741Y-1413732D01*
X8088167Y-1353016D01*
X8091906Y-1283246D01*
X8132772Y-1226574D01*
X8197790Y-1200993D01*
X8208843Y-1200499D01*
X16391157Y-1200499D01*
X16458196Y-1220184D01*
X16503951Y-1272988D01*
X16513895Y-1342146D01*
X16484870Y-1405702D01*
X16426092Y-1443476D01*
X16415348Y-1446116D01*
X16328318Y-1463427D01*
X16328306Y-1463430D01*
X16146328Y-1538807D01*
X16146315Y-1538814D01*
X15982537Y-1648248D01*
X15982533Y-1648251D01*
X15843251Y-1787533D01*
X15843248Y-1787537D01*
X15733814Y-1951315D01*
X15733807Y-1951328D01*
X15658430Y-2133306D01*
X15658427Y-2133318D01*
X15620000Y-2326504D01*
X15620000Y-2575000D01*
X16320000Y-2575000D01*
X16320000Y-3075000D01*
X15620000Y-3075000D01*
X15620000Y-3323495D01*
X15658427Y-3516681D01*
X15658430Y-3516693D01*
X15733807Y-3698671D01*
X15733814Y-3698684D01*
X15843248Y-3862462D01*
X15843251Y-3862466D01*
X15982533Y-4001748D01*
X15982537Y-4001751D01*
X16146315Y-4111185D01*
X16146328Y-4111192D01*
X16328308Y-4186569D01*
X16370000Y-4194862D01*
X16370000Y-3391988D01*
X16379940Y-3409205D01*
X16435795Y-3465060D01*
X16504204Y-3504556D01*
X16580504Y-3525000D01*
X16659496Y-3525000D01*
X16735796Y-3504556D01*
X16804205Y-3465060D01*
X16860060Y-3409205D01*
X16870000Y-3391988D01*
X16870000Y-4194862D01*
X16911690Y-4186569D01*
X16911692Y-4186569D01*
X17093671Y-4111192D01*
X17093684Y-4111185D01*
X17257462Y-4001751D01*
X17257466Y-4001748D01*
X17381241Y-3877973D01*
X19049500Y-3877973D01*
X19049500Y-4122026D01*
X19087678Y-4363072D01*
X19163097Y-4595187D01*
X19273896Y-4812642D01*
X19417339Y-5010076D01*
X19417343Y-5010081D01*
X19589918Y-5182656D01*
X19589923Y-5182660D01*
X19762136Y-5307779D01*
X19787361Y-5326106D01*
X20004815Y-5436904D01*
X20236924Y-5512321D01*
X20477973Y-5550500D01*
X20477974Y-5550500D01*
X20722026Y-5550500D01*
X20722027Y-5550500D01*
X20963076Y-5512321D01*
X21195185Y-5436904D01*
X21412639Y-5326106D01*
X21610083Y-5182655D01*
X21782655Y-5010083D01*
X21926106Y-4812639D01*
X22036904Y-4595185D01*
X22112321Y-4363076D01*
X22150500Y-4122027D01*
X22150500Y-3877973D01*
X22112321Y-3636924D01*
X22036904Y-3404815D01*
X21926106Y-3187361D01*
X21907779Y-3162136D01*
X21782660Y-2989923D01*
X21782656Y-2989918D01*
X21610081Y-2817343D01*
X21610076Y-2817339D01*
X21412642Y-2673896D01*
X21412641Y-2673895D01*
X21412639Y-2673894D01*
X21195185Y-2563096D01*
X20963076Y-2487679D01*
X20963074Y-2487678D01*
X20963072Y-2487678D01*
X20794769Y-2461021D01*
X20722027Y-2449500D01*
X20477973Y-2449500D01*
X20422093Y-2458350D01*
X20236927Y-2487678D01*
X20004812Y-2563097D01*
X19787357Y-2673896D01*
X19589923Y-2817339D01*
X19589918Y-2817343D01*
X19417343Y-2989918D01*
X19417339Y-2989923D01*
X19273896Y-3187357D01*
X19163097Y-3404812D01*
X19087678Y-3636927D01*
X19049500Y-3877973D01*
X17381241Y-3877973D01*
X17396748Y-3862466D01*
X17396751Y-3862462D01*
X17506185Y-3698684D01*
X17506192Y-3698671D01*
X17581569Y-3516693D01*
X17581572Y-3516681D01*
X17619999Y-3323495D01*
X17620000Y-3323492D01*
X17620000Y-3075000D01*
X16920000Y-3075000D01*
X16920000Y-2575000D01*
X17620000Y-2575000D01*
X17620000Y-2326508D01*
X17619999Y-2326504D01*
X17581572Y-2133318D01*
X17581569Y-2133306D01*
X17506192Y-1951328D01*
X17506185Y-1951315D01*
X17396751Y-1787537D01*
X17396748Y-1787533D01*
X17257466Y-1648251D01*
X17257462Y-1648248D01*
X17093684Y-1538814D01*
X17093671Y-1538807D01*
X16911693Y-1463430D01*
X16911681Y-1463427D01*
X16824652Y-1446116D01*
X16762741Y-1413732D01*
X16728167Y-1353016D01*
X16731906Y-1283246D01*
X16772772Y-1226574D01*
X16837790Y-1200993D01*
X16848843Y-1200499D01*
X20535451Y-1200499D01*
X20535455Y-1200500D01*
X20560118Y-1200500D01*
X20596519Y-1200500D01*
X20603472Y-1200695D01*
X20610280Y-1201077D01*
X20906503Y-1217713D01*
X20920301Y-1219267D01*
X21216080Y-1269522D01*
X21229636Y-1272616D01*
X21517927Y-1355672D01*
X21531051Y-1360265D01*
X21808222Y-1475072D01*
X21820744Y-1481101D01*
X21925154Y-1538807D01*
X22083328Y-1626227D01*
X22095102Y-1633625D01*
X22115716Y-1648251D01*
X22339789Y-1807239D01*
X22350657Y-1815907D01*
X22574352Y-2015815D01*
X22584184Y-2025647D01*
X22784092Y-2249342D01*
X22792763Y-2260214D01*
X22966374Y-2504897D01*
X22973772Y-2516671D01*
X23118894Y-2779248D01*
X23124927Y-2791777D01*
X23239734Y-3068948D01*
X23244327Y-3082072D01*
X23327383Y-3370363D01*
X23330477Y-3383920D01*
X23380730Y-3679689D01*
X23382287Y-3693507D01*
X23399304Y-3996525D01*
X23399499Y-4003478D01*
X23399499Y-29270500D01*
X23379814Y-29337539D01*
X23327010Y-29383294D01*
X23275499Y-29394500D01*
X19858542Y-29394500D01*
X19818970Y-29399152D01*
X19804493Y-29400000D01*
X19795525Y-29400000D01*
X19728486Y-29380315D01*
X19682731Y-29327511D01*
X19672787Y-29258353D01*
X19693951Y-29204876D01*
X19828595Y-29012585D01*
X19828599Y-29012579D01*
X19928429Y-28798492D01*
X19928432Y-28798486D01*
X19985636Y-28585000D01*
X19088012Y-28585000D01*
X19120925Y-28527993D01*
X19155000Y-28400826D01*
X19155000Y-28269174D01*
X19120925Y-28142007D01*
X19088012Y-28085000D01*
X19985636Y-28085000D01*
X19985635Y-28084999D01*
X19928432Y-27871513D01*
X19928429Y-27871507D01*
X19828600Y-27657422D01*
X19828599Y-27657420D01*
X19693113Y-27463926D01*
X19693108Y-27463920D01*
X19526082Y-27296894D01*
X19332578Y-27161399D01*
X19118492Y-27061570D01*
X19118486Y-27061567D01*
X18905000Y-27004364D01*
X18905000Y-27901988D01*
X18847993Y-27869075D01*
X18720826Y-27835000D01*
X18589174Y-27835000D01*
X18462007Y-27869075D01*
X18405000Y-27901988D01*
X18405000Y-27004364D01*
X18404999Y-27004364D01*
X18191513Y-27061567D01*
X18191507Y-27061570D01*
X17977422Y-27161399D01*
X17977420Y-27161400D01*
X17783926Y-27296886D01*
X17783920Y-27296891D01*
X17616891Y-27463920D01*
X17616890Y-27463922D01*
X17486880Y-27649595D01*
X17432303Y-27693219D01*
X17362804Y-27700412D01*
X17300450Y-27668890D01*
X17283730Y-27649594D01*
X17153494Y-27463597D01*
X16986402Y-27296506D01*
X16986395Y-27296501D01*
X16792834Y-27160967D01*
X16792830Y-27160965D01*
X16792828Y-27160964D01*
X16578663Y-27061097D01*
X16578659Y-27061096D01*
X16578655Y-27061094D01*
X16350413Y-26999938D01*
X16350403Y-26999936D01*
X16115001Y-26979341D01*
X16114999Y-26979341D01*
X15879596Y-26999936D01*
X15879586Y-26999938D01*
X15651344Y-27061094D01*
X15651335Y-27061098D01*
X15437171Y-27160964D01*
X15437169Y-27160965D01*
X15243597Y-27296505D01*
X15076505Y-27463597D01*
X14946575Y-27649158D01*
X14891998Y-27692783D01*
X14822500Y-27699977D01*
X14760145Y-27668454D01*
X14743425Y-27649158D01*
X14613494Y-27463597D01*
X14446402Y-27296506D01*
X14446395Y-27296501D01*
X14252834Y-27160967D01*
X14252830Y-27160965D01*
X14252828Y-27160964D01*
X14038663Y-27061097D01*
X14038659Y-27061096D01*
X14038655Y-27061094D01*
X13810413Y-26999938D01*
X13810403Y-26999936D01*
X13575001Y-26979341D01*
X13574999Y-26979341D01*
X13339596Y-26999936D01*
X13339586Y-26999938D01*
X13111344Y-27061094D01*
X13111335Y-27061098D01*
X12897171Y-27160964D01*
X12897169Y-27160965D01*
X12703597Y-27296505D01*
X12536505Y-27463597D01*
X12406575Y-27649158D01*
X12351998Y-27692783D01*
X12282500Y-27699977D01*
X12220145Y-27668454D01*
X12203425Y-27649158D01*
X12073494Y-27463597D01*
X11906402Y-27296506D01*
X11906395Y-27296501D01*
X11712834Y-27160967D01*
X11712830Y-27160965D01*
X11712828Y-27160964D01*
X11498663Y-27061097D01*
X11498659Y-27061096D01*
X11498655Y-27061094D01*
X11270413Y-26999938D01*
X11270403Y-26999936D01*
X11035001Y-26979341D01*
X11034999Y-26979341D01*
X10799596Y-26999936D01*
X10799586Y-26999938D01*
X10571344Y-27061094D01*
X10571335Y-27061098D01*
X10357171Y-27160964D01*
X10357169Y-27160965D01*
X10163597Y-27296505D01*
X9996505Y-27463597D01*
X9866575Y-27649158D01*
X9811998Y-27692783D01*
X9742500Y-27699977D01*
X9680145Y-27668454D01*
X9663425Y-27649158D01*
X9533494Y-27463597D01*
X9366402Y-27296506D01*
X9366395Y-27296501D01*
X9172834Y-27160967D01*
X9172830Y-27160965D01*
X9172828Y-27160964D01*
X8958663Y-27061097D01*
X8958659Y-27061096D01*
X8958655Y-27061094D01*
X8730413Y-26999938D01*
X8730403Y-26999936D01*
X8495001Y-26979341D01*
X8494999Y-26979341D01*
X8259596Y-26999936D01*
X8259586Y-26999938D01*
X8031344Y-27061094D01*
X8031335Y-27061098D01*
X7817171Y-27160964D01*
X7817169Y-27160965D01*
X7623597Y-27296505D01*
X7456505Y-27463597D01*
X7326575Y-27649158D01*
X7271998Y-27692783D01*
X7202500Y-27699977D01*
X7140145Y-27668454D01*
X7123425Y-27649158D01*
X6993494Y-27463597D01*
X6826402Y-27296506D01*
X6826395Y-27296501D01*
X6632834Y-27160967D01*
X6632830Y-27160965D01*
X6632828Y-27160964D01*
X6418663Y-27061097D01*
X6418659Y-27061096D01*
X6418655Y-27061094D01*
X6190413Y-26999938D01*
X6190403Y-26999936D01*
X5955001Y-26979341D01*
X5954999Y-26979341D01*
X5719596Y-26999936D01*
X5719586Y-26999938D01*
X5491344Y-27061094D01*
X5491335Y-27061098D01*
X5277171Y-27160964D01*
X5277169Y-27160965D01*
X5083597Y-27296505D01*
X4916505Y-27463597D01*
X4780965Y-27657169D01*
X4780964Y-27657171D01*
X4681098Y-27871335D01*
X4681094Y-27871344D01*
X4619938Y-28099586D01*
X4619936Y-28099596D01*
X4599341Y-28334999D01*
X4599341Y-28335000D01*
X4619936Y-28570403D01*
X4619938Y-28570413D01*
X4681094Y-28798655D01*
X4681096Y-28798659D01*
X4681097Y-28798663D01*
X4761004Y-28970023D01*
X4780965Y-29012830D01*
X4780967Y-29012834D01*
X4915437Y-29204877D01*
X4937764Y-29271083D01*
X4920754Y-29338850D01*
X4869806Y-29386663D01*
X4813862Y-29400000D01*
X4527623Y-29400000D01*
X4509977Y-29398738D01*
X4480501Y-29394500D01*
X4480500Y-29394500D01*
X1324500Y-29394500D01*
X1257461Y-29374815D01*
X1211706Y-29322011D01*
X1200500Y-29270500D01*
X1200500Y-21309996D01*
X8844688Y-21309996D01*
X8844688Y-21310003D01*
X8863875Y-21480296D01*
X8863876Y-21480300D01*
X8872217Y-21504139D01*
X8876261Y-21520779D01*
X8876645Y-21520697D01*
X8877572Y-21525021D01*
X8877573Y-21525026D01*
X8952233Y-21873050D01*
X8956742Y-21894066D01*
X8959500Y-21920075D01*
X8959500Y-22359923D01*
X8956742Y-22385932D01*
X8877552Y-22755070D01*
X8876415Y-22760569D01*
X8872029Y-22776398D01*
X8863876Y-22799699D01*
X8863875Y-22799703D01*
X8844688Y-22969996D01*
X8844688Y-22970003D01*
X8863874Y-23140292D01*
X8920477Y-23302055D01*
X8920478Y-23302056D01*
X9011655Y-23447164D01*
X9132836Y-23568345D01*
X9277944Y-23659522D01*
X9439702Y-23716124D01*
X9439705Y-23716124D01*
X9439707Y-23716125D01*
X9609996Y-23735312D01*
X9610000Y-23735312D01*
X9610004Y-23735312D01*
X9780292Y-23716125D01*
X9780293Y-23716124D01*
X9780298Y-23716124D01*
X9919048Y-23667572D01*
X9988823Y-23664010D01*
X10000932Y-23667566D01*
X10139702Y-23716124D01*
X10139706Y-23716124D01*
X10139708Y-23716125D01*
X10139705Y-23716125D01*
X10309996Y-23735312D01*
X10310000Y-23735312D01*
X10310004Y-23735312D01*
X10480292Y-23716125D01*
X10480293Y-23716124D01*
X10480298Y-23716124D01*
X10642056Y-23659522D01*
X10787164Y-23568345D01*
X10908345Y-23447164D01*
X10999522Y-23302056D01*
X11056124Y-23140298D01*
X11075312Y-22970000D01*
X11056124Y-22799702D01*
X11047782Y-22775864D01*
X11043741Y-22759223D01*
X11043355Y-22759306D01*
X10963258Y-22385934D01*
X10960500Y-22359925D01*
X10960500Y-21920073D01*
X10963258Y-21894064D01*
X11042426Y-21525025D01*
X11043581Y-21519440D01*
X11047965Y-21503611D01*
X11056124Y-21480298D01*
X11075312Y-21310000D01*
X11056124Y-21139702D01*
X10999522Y-20977944D01*
X10908345Y-20832836D01*
X10787164Y-20711655D01*
X10659999Y-20631752D01*
X10642055Y-20620477D01*
X10480292Y-20563874D01*
X10310004Y-20544688D01*
X10309996Y-20544688D01*
X10139707Y-20563874D01*
X10000954Y-20612426D01*
X9931175Y-20615987D01*
X9919046Y-20612426D01*
X9780292Y-20563874D01*
X9610004Y-20544688D01*
X9609996Y-20544688D01*
X9439707Y-20563874D01*
X9277944Y-20620477D01*
X9132835Y-20711655D01*
X9011655Y-20832835D01*
X8920477Y-20977944D01*
X8863874Y-21139707D01*
X8844688Y-21309996D01*
X1200500Y-21309996D01*
X1200500Y-13109791D01*
X10774893Y-13109791D01*
X10774893Y-13109798D01*
X10794079Y-13280087D01*
X10850682Y-13441850D01*
X10874655Y-13480003D01*
X10941860Y-13586959D01*
X11063041Y-13708140D01*
X11208149Y-13799317D01*
X11369907Y-13855919D01*
X11369910Y-13855919D01*
X11369912Y-13855920D01*
X11540201Y-13875107D01*
X11540205Y-13875107D01*
X11540209Y-13875107D01*
X11710495Y-13855920D01*
X11710495Y-13855919D01*
X11710503Y-13855919D01*
X11771224Y-13834670D01*
X11790085Y-13829698D01*
X11809900Y-13826113D01*
X12000225Y-13762652D01*
X12138159Y-13716662D01*
X12177381Y-13710295D01*
X13493391Y-13710295D01*
X13560430Y-13729980D01*
X13604304Y-13778850D01*
X13608633Y-13787510D01*
X13612794Y-13795834D01*
X13613611Y-13797334D01*
X13617379Y-13805825D01*
X13617459Y-13805787D01*
X13620478Y-13812056D01*
X13627002Y-13822440D01*
X13628881Y-13825649D01*
X13630410Y-13827945D01*
X13632187Y-13830692D01*
X13711655Y-13957164D01*
X13832836Y-14078345D01*
X13977944Y-14169522D01*
X14139702Y-14226124D01*
X14139705Y-14226124D01*
X14139707Y-14226125D01*
X14309996Y-14245312D01*
X14310000Y-14245312D01*
X14310004Y-14245312D01*
X14480292Y-14226125D01*
X14480293Y-14226124D01*
X14480298Y-14226124D01*
X14642056Y-14169522D01*
X14787164Y-14078345D01*
X14908345Y-13957164D01*
X14999522Y-13812056D01*
X15056124Y-13650298D01*
X15075312Y-13480000D01*
X15056124Y-13309702D01*
X14999522Y-13147944D01*
X14908345Y-13002836D01*
X14787164Y-12881655D01*
X14642056Y-12790478D01*
X14642053Y-12790477D01*
X14642050Y-12790475D01*
X14635776Y-12787453D01*
X14635903Y-12787189D01*
X14629944Y-12784415D01*
X14629771Y-12784762D01*
X14603159Y-12771459D01*
X14386806Y-12663306D01*
X14386803Y-12663305D01*
X14382871Y-12661339D01*
X14382866Y-12661336D01*
X14382866Y-12661337D01*
X14245910Y-12592874D01*
X14239359Y-12589349D01*
X14218143Y-12577101D01*
X14218139Y-12577099D01*
X14198461Y-12565738D01*
X14171580Y-12550218D01*
X14018852Y-12509294D01*
X13860738Y-12509294D01*
X13853142Y-12509294D01*
X13853126Y-12509295D01*
X12177383Y-12509295D01*
X12138160Y-12502928D01*
X11809911Y-12393478D01*
X11776019Y-12383479D01*
X11770619Y-12382396D01*
X11770670Y-12382138D01*
X11749690Y-12377382D01*
X11710502Y-12363670D01*
X11540209Y-12344483D01*
X11540201Y-12344483D01*
X11369912Y-12363669D01*
X11208149Y-12420272D01*
X11063040Y-12511450D01*
X10941860Y-12632630D01*
X10850682Y-12777739D01*
X10794079Y-12939502D01*
X10774893Y-13109791D01*
X1200500Y-13109791D01*
X1200500Y-8960000D01*
X9044760Y-8960000D01*
X9063668Y-9139896D01*
X9063669Y-9139898D01*
X9119561Y-9311919D01*
X9119564Y-9311925D01*
X9210004Y-9468573D01*
X9210009Y-9468580D01*
X9331040Y-9602998D01*
X9331042Y-9603000D01*
X9477378Y-9709319D01*
X9477379Y-9709320D01*
X9532462Y-9733844D01*
X9642626Y-9782892D01*
X9819558Y-9820500D01*
X9819559Y-9820500D01*
X10000441Y-9820500D01*
X10000442Y-9820500D01*
X10046326Y-9810746D01*
X10053358Y-9809462D01*
X10691809Y-9711922D01*
X10710536Y-9710500D01*
X13899463Y-9710500D01*
X13918190Y-9711922D01*
X14556657Y-9809465D01*
X14563659Y-9810743D01*
X14609558Y-9820500D01*
X14627942Y-9820500D01*
X14642097Y-9821311D01*
X14647612Y-9821944D01*
X14647615Y-9821944D01*
X14647622Y-9821945D01*
X14649356Y-9822079D01*
X14740943Y-9820834D01*
X14740947Y-9820832D01*
X14747930Y-9820738D01*
X14751584Y-9820500D01*
X14790440Y-9820500D01*
X14790442Y-9820500D01*
X14967374Y-9782892D01*
X15132620Y-9709320D01*
X15278959Y-9602999D01*
X15356666Y-9516695D01*
X15399990Y-9468580D01*
X15399995Y-9468573D01*
X15490436Y-9311925D01*
X15546332Y-9139894D01*
X15565240Y-8960000D01*
X15546332Y-8780106D01*
X15490436Y-8608075D01*
X15399994Y-8451425D01*
X15399990Y-8451419D01*
X15278959Y-8317001D01*
X15278957Y-8316999D01*
X15132621Y-8210680D01*
X15132620Y-8210679D01*
X15008901Y-8155597D01*
X14967374Y-8137108D01*
X14967372Y-8137107D01*
X14838200Y-8109651D01*
X14790442Y-8099500D01*
X14609558Y-8099500D01*
X14609556Y-8099500D01*
X14563690Y-8109248D01*
X14556639Y-8110535D01*
X14244842Y-8158171D01*
X13918178Y-8208078D01*
X13899460Y-8209500D01*
X10710540Y-8209500D01*
X10691819Y-8208078D01*
X10053367Y-8110537D01*
X10046314Y-8109249D01*
X10000447Y-8099500D01*
X10000442Y-8099500D01*
X9982041Y-8099500D01*
X9967905Y-8098692D01*
X9962264Y-8098044D01*
X9960914Y-8097940D01*
X9960531Y-8097911D01*
X9960529Y-8097911D01*
X9960513Y-8097910D01*
X9862028Y-8099262D01*
X9858397Y-8099500D01*
X9819558Y-8099500D01*
X9771799Y-8109651D01*
X9642628Y-8137107D01*
X9477379Y-8210679D01*
X9477378Y-8210680D01*
X9331042Y-8316999D01*
X9331040Y-8317001D01*
X9210009Y-8451419D01*
X9210004Y-8451426D01*
X9119564Y-8608074D01*
X9119561Y-8608080D01*
X9063669Y-8780101D01*
X9063668Y-8780103D01*
X9044760Y-8960000D01*
X1200500Y-8960000D01*
X1200500Y-6376504D01*
X6980000Y-6376504D01*
X6980000Y-6775000D01*
X7680000Y-6775000D01*
X7680000Y-7275000D01*
X6980000Y-7275000D01*
X6980000Y-7673495D01*
X7018427Y-7866681D01*
X7018430Y-7866693D01*
X7093807Y-8048671D01*
X7093814Y-8048684D01*
X7203248Y-8212462D01*
X7203251Y-8212466D01*
X7342533Y-8351748D01*
X7342537Y-8351751D01*
X7506315Y-8461185D01*
X7506328Y-8461192D01*
X7688308Y-8536569D01*
X7730000Y-8544862D01*
X7730000Y-7741988D01*
X7739940Y-7759205D01*
X7795795Y-7815060D01*
X7864204Y-7854556D01*
X7940504Y-7875000D01*
X8019496Y-7875000D01*
X8095796Y-7854556D01*
X8164205Y-7815060D01*
X8220060Y-7759205D01*
X8230000Y-7741988D01*
X8230000Y-8544862D01*
X8271690Y-8536569D01*
X8271692Y-8536569D01*
X8453671Y-8461192D01*
X8453684Y-8461185D01*
X8617462Y-8351751D01*
X8617466Y-8351748D01*
X8756748Y-8212466D01*
X8756751Y-8212462D01*
X8866185Y-8048684D01*
X8866192Y-8048671D01*
X8941569Y-7866693D01*
X8941572Y-7866681D01*
X8979999Y-7673495D01*
X8980000Y-7673492D01*
X8980000Y-7275000D01*
X8280000Y-7275000D01*
X8280000Y-6775000D01*
X8887934Y-6775000D01*
X8954973Y-6794685D01*
X8986309Y-6823513D01*
X8989494Y-6827664D01*
X8989495Y-6827665D01*
X9087335Y-6925505D01*
X9207164Y-6994688D01*
X9340817Y-7030500D01*
X9340819Y-7030500D01*
X9479181Y-7030500D01*
X9479183Y-7030500D01*
X9612836Y-6994688D01*
X9732665Y-6925505D01*
X9830505Y-6827665D01*
X9899688Y-6707836D01*
X9935500Y-6574183D01*
X9935500Y-6435817D01*
X14664500Y-6435817D01*
X14664500Y-6574182D01*
X14700312Y-6707835D01*
X14700313Y-6707838D01*
X14769492Y-6827661D01*
X14769494Y-6827664D01*
X14769495Y-6827665D01*
X14867335Y-6925505D01*
X14987164Y-6994688D01*
X15120817Y-7030500D01*
X15120819Y-7030500D01*
X15259181Y-7030500D01*
X15259183Y-7030500D01*
X15392836Y-6994688D01*
X15512665Y-6925505D01*
X15610505Y-6827665D01*
X15610507Y-6827660D01*
X15613691Y-6823513D01*
X15670119Y-6782311D01*
X15712066Y-6775000D01*
X16320000Y-6775000D01*
X16320000Y-7275000D01*
X15620000Y-7275000D01*
X15620000Y-7673495D01*
X15658427Y-7866681D01*
X15658430Y-7866693D01*
X15733807Y-8048671D01*
X15733814Y-8048684D01*
X15843248Y-8212462D01*
X15843251Y-8212466D01*
X15982533Y-8351748D01*
X15982537Y-8351751D01*
X16146315Y-8461185D01*
X16146328Y-8461192D01*
X16328308Y-8536569D01*
X16370000Y-8544862D01*
X16370000Y-7741988D01*
X16379940Y-7759205D01*
X16435795Y-7815060D01*
X16504204Y-7854556D01*
X16580504Y-7875000D01*
X16659496Y-7875000D01*
X16735796Y-7854556D01*
X16804205Y-7815060D01*
X16860060Y-7759205D01*
X16870000Y-7741988D01*
X16870000Y-8544862D01*
X16911690Y-8536569D01*
X16911692Y-8536569D01*
X17093671Y-8461192D01*
X17093684Y-8461185D01*
X17257462Y-8351751D01*
X17257466Y-8351748D01*
X17396748Y-8212466D01*
X17396751Y-8212462D01*
X17506185Y-8048684D01*
X17506192Y-8048671D01*
X17581569Y-7866693D01*
X17581572Y-7866681D01*
X17619999Y-7673495D01*
X17620000Y-7673492D01*
X17620000Y-7275000D01*
X16920000Y-7275000D01*
X16920000Y-6775000D01*
X17620000Y-6775000D01*
X17620000Y-6376508D01*
X17619999Y-6376504D01*
X17581572Y-6183318D01*
X17581569Y-6183306D01*
X17506192Y-6001328D01*
X17506185Y-6001315D01*
X17396751Y-5837537D01*
X17396748Y-5837533D01*
X17257466Y-5698251D01*
X17257462Y-5698248D01*
X17093684Y-5588814D01*
X17093671Y-5588807D01*
X16911691Y-5513429D01*
X16911683Y-5513427D01*
X16870000Y-5505135D01*
X16870000Y-6308011D01*
X16860060Y-6290795D01*
X16804205Y-6234940D01*
X16735796Y-6195444D01*
X16659496Y-6175000D01*
X16580504Y-6175000D01*
X16504204Y-6195444D01*
X16435795Y-6234940D01*
X16379940Y-6290795D01*
X16370000Y-6308011D01*
X16370000Y-5505136D01*
X16369999Y-5505135D01*
X16328316Y-5513427D01*
X16328308Y-5513429D01*
X16146328Y-5588807D01*
X16146315Y-5588814D01*
X15982537Y-5698248D01*
X15982533Y-5698251D01*
X15843251Y-5837533D01*
X15843248Y-5837537D01*
X15733814Y-6001315D01*
X15733808Y-6001327D01*
X15715694Y-6045057D01*
X15671852Y-6099459D01*
X15605558Y-6121523D01*
X15537859Y-6104243D01*
X15513453Y-6085283D01*
X15512666Y-6084496D01*
X15512661Y-6084492D01*
X15392838Y-6015313D01*
X15392837Y-6015312D01*
X15392836Y-6015312D01*
X15259183Y-5979500D01*
X15120817Y-5979500D01*
X14987164Y-6015312D01*
X14987161Y-6015313D01*
X14867338Y-6084492D01*
X14867333Y-6084496D01*
X14769496Y-6182333D01*
X14769492Y-6182338D01*
X14700313Y-6302161D01*
X14700312Y-6302164D01*
X14664500Y-6435817D01*
X9935500Y-6435817D01*
X9899688Y-6302164D01*
X9860876Y-6234940D01*
X9830507Y-6182338D01*
X9830503Y-6182333D01*
X9732666Y-6084496D01*
X9732661Y-6084492D01*
X9612838Y-6015313D01*
X9612837Y-6015312D01*
X9612836Y-6015312D01*
X9479183Y-5979500D01*
X9340817Y-5979500D01*
X9207164Y-6015312D01*
X9207161Y-6015313D01*
X9087338Y-6084492D01*
X9087334Y-6084495D01*
X9086540Y-6085290D01*
X9085706Y-6085745D01*
X9080890Y-6089441D01*
X9080313Y-6088689D01*
X9025214Y-6118770D01*
X8955523Y-6113780D01*
X8899592Y-6071905D01*
X8884304Y-6045055D01*
X8866190Y-6001324D01*
X8866185Y-6001315D01*
X8756751Y-5837537D01*
X8756748Y-5837533D01*
X8617466Y-5698251D01*
X8617462Y-5698248D01*
X8453684Y-5588814D01*
X8453671Y-5588807D01*
X8271691Y-5513429D01*
X8271683Y-5513427D01*
X8230000Y-5505135D01*
X8230000Y-6308011D01*
X8220060Y-6290795D01*
X8164205Y-6234940D01*
X8095796Y-6195444D01*
X8019496Y-6175000D01*
X7940504Y-6175000D01*
X7864204Y-6195444D01*
X7795795Y-6234940D01*
X7739940Y-6290795D01*
X7730000Y-6308011D01*
X7730000Y-5505136D01*
X7729999Y-5505135D01*
X7688316Y-5513427D01*
X7688308Y-5513429D01*
X7506328Y-5588807D01*
X7506315Y-5588814D01*
X7342537Y-5698248D01*
X7342533Y-5698251D01*
X7203251Y-5837533D01*
X7203248Y-5837537D01*
X7093814Y-6001315D01*
X7093807Y-6001328D01*
X7018430Y-6183306D01*
X7018427Y-6183318D01*
X6980000Y-6376504D01*
X1200500Y-6376504D01*
X1200500Y-4003479D01*
X1200695Y-3996526D01*
X1207353Y-3877973D01*
X2449500Y-3877973D01*
X2449500Y-4122026D01*
X2487678Y-4363072D01*
X2563097Y-4595187D01*
X2673896Y-4812642D01*
X2817339Y-5010076D01*
X2817343Y-5010081D01*
X2989918Y-5182656D01*
X2989923Y-5182660D01*
X3162136Y-5307779D01*
X3187361Y-5326106D01*
X3404815Y-5436904D01*
X3636924Y-5512321D01*
X3877973Y-5550500D01*
X3877974Y-5550500D01*
X4122026Y-5550500D01*
X4122027Y-5550500D01*
X4363076Y-5512321D01*
X4595185Y-5436904D01*
X4812639Y-5326106D01*
X5010083Y-5182655D01*
X5182655Y-5010083D01*
X5326106Y-4812639D01*
X5436904Y-4595185D01*
X5512321Y-4363076D01*
X5550500Y-4122027D01*
X5550500Y-3877973D01*
X5512321Y-3636924D01*
X5436904Y-3404815D01*
X5326106Y-3187361D01*
X5307779Y-3162136D01*
X5182660Y-2989923D01*
X5182656Y-2989918D01*
X5010081Y-2817343D01*
X5010076Y-2817339D01*
X4812642Y-2673896D01*
X4812641Y-2673895D01*
X4812639Y-2673894D01*
X4595185Y-2563096D01*
X4363076Y-2487679D01*
X4363074Y-2487678D01*
X4363072Y-2487678D01*
X4194769Y-2461021D01*
X4122027Y-2449500D01*
X3877973Y-2449500D01*
X3822093Y-2458350D01*
X3636927Y-2487678D01*
X3404812Y-2563097D01*
X3187357Y-2673896D01*
X2989923Y-2817339D01*
X2989918Y-2817343D01*
X2817343Y-2989918D01*
X2817339Y-2989923D01*
X2673896Y-3187357D01*
X2563097Y-3404812D01*
X2487678Y-3636927D01*
X2449500Y-3877973D01*
X1207353Y-3877973D01*
X1208224Y-3862462D01*
X1217713Y-3693494D01*
X1219267Y-3679700D01*
X1269523Y-3383915D01*
X1272616Y-3370363D01*
X1281135Y-3340796D01*
X1355673Y-3082068D01*
X1360265Y-3068948D01*
X1450347Y-2851469D01*
X1475075Y-2791768D01*
X1481097Y-2779262D01*
X1626230Y-2516665D01*
X1633625Y-2504897D01*
X1645842Y-2487679D01*
X1807245Y-2260201D01*
X1815896Y-2249354D01*
X2015816Y-2025645D01*
X2025647Y-2015815D01*
X2249354Y-1815896D01*
X2260201Y-1807245D01*
X2504902Y-1633621D01*
X2516665Y-1626230D01*
X2779262Y-1481097D01*
X2791768Y-1475075D01*
X3068948Y-1360265D01*
X3082068Y-1355673D01*
X3370369Y-1272614D01*
X3383915Y-1269523D01*
X3679700Y-1219267D01*
X3693496Y-1217713D01*
X3879933Y-1207242D01*
X3996552Y-1200694D01*
X4003504Y-1200499D01*
X7751157Y-1200499D01*
X7818196Y-1220184D01*
G37*
%TD.AperFunction*%
%TD*%
%TA.AperFunction,Conductor*%
%TO.N,/PA6*%
G36*
X12160857Y-41231585D02*
G01*
X12167166Y-41237939D01*
X12167667Y-41245311D01*
X12039195Y-41741427D01*
X12033804Y-41748577D01*
X12024936Y-41749820D01*
X12019596Y-41746767D01*
X11823554Y-41550725D01*
X11821045Y-41546995D01*
X11694355Y-41246329D01*
X11694301Y-41237374D01*
X11700592Y-41231005D01*
X11926201Y-41137166D01*
X11935155Y-41137154D01*
X12160857Y-41231585D01*
G37*
%TD.AperFunction*%
%TD*%
%TA.AperFunction,Conductor*%
%TO.N,Net-(F1-Pad1)*%
G36*
X14695266Y-8604189D02*
G01*
X14699903Y-8611850D01*
X14700037Y-8613584D01*
X14701000Y-8959999D01*
X14701000Y-8960065D01*
X14700037Y-9306415D01*
X14696587Y-9314678D01*
X14688304Y-9318082D01*
X14686570Y-9317948D01*
X13989933Y-9211517D01*
X13982272Y-9206880D01*
X13980000Y-9199951D01*
X13980000Y-8720048D01*
X13983427Y-8711775D01*
X13989931Y-8708482D01*
X14686572Y-8602051D01*
X14695266Y-8604189D01*
G37*
%TD.AperFunction*%
%TD*%
%TA.AperFunction,Conductor*%
%TO.N,/PA1*%
G36*
X9587940Y-48394795D02*
G01*
X9591305Y-48397143D01*
X9792856Y-48598694D01*
X9796283Y-48606967D01*
X9795564Y-48611006D01*
X9279498Y-50013861D01*
X9273425Y-50020443D01*
X9264478Y-50020803D01*
X9264051Y-50020636D01*
X8493785Y-49702562D01*
X8487447Y-49696238D01*
X8169363Y-48925948D01*
X8169372Y-48916993D01*
X8175711Y-48910668D01*
X8176124Y-48910506D01*
X9578995Y-48394435D01*
X9587940Y-48394795D01*
G37*
%TD.AperFunction*%
%TD*%
%TA.AperFunction,Conductor*%
%TO.N,/PA6*%
G36*
X10714901Y-42669511D02*
G01*
X10913660Y-42868270D01*
X10917087Y-42876543D01*
X10915211Y-42882897D01*
X10692070Y-43227927D01*
X10684700Y-43233013D01*
X10677807Y-43232398D01*
X10541484Y-43176497D01*
X10450406Y-43139149D01*
X10444053Y-43132841D01*
X10350773Y-42905363D01*
X10350805Y-42896409D01*
X10355241Y-42891103D01*
X10700275Y-42667959D01*
X10709082Y-42666344D01*
X10714901Y-42669511D01*
G37*
%TD.AperFunction*%
%TD*%
%TA.AperFunction,Conductor*%
%TO.N,/TX*%
G36*
X9841247Y-21405748D02*
G01*
X9847556Y-21412102D01*
X9848171Y-21418995D01*
X9761984Y-21820754D01*
X9756898Y-21828124D01*
X9750544Y-21830000D01*
X9469456Y-21830000D01*
X9461183Y-21826573D01*
X9458016Y-21820754D01*
X9371828Y-21418995D01*
X9373444Y-21410187D01*
X9378749Y-21405749D01*
X9605484Y-21310888D01*
X9614439Y-21310857D01*
X9841247Y-21405748D01*
G37*
%TD.AperFunction*%
%TD*%
%TA.AperFunction,Conductor*%
%TO.N,/UD+*%
G36*
X12052207Y-13007128D02*
G01*
X12058970Y-13012995D01*
X12060205Y-13018226D01*
X12060205Y-13201363D01*
X12056778Y-13209636D01*
X12052206Y-13212462D01*
X11650005Y-13346568D01*
X11641073Y-13345934D01*
X11635511Y-13339985D01*
X11541093Y-13114310D01*
X11541062Y-13105356D01*
X11541094Y-13105279D01*
X11577515Y-13018226D01*
X11635512Y-12879602D01*
X11641865Y-12873295D01*
X11650005Y-12873021D01*
X12052207Y-13007128D01*
G37*
%TD.AperFunction*%
%TD*%
%TA.AperFunction,Conductor*%
%TO.N,/PA7*%
G36*
X11498817Y-37018427D02*
G01*
X11501984Y-37024246D01*
X11588171Y-37426004D01*
X11586555Y-37434812D01*
X11581247Y-37439251D01*
X11354516Y-37534110D01*
X11345561Y-37534142D01*
X11345484Y-37534110D01*
X11118752Y-37439251D01*
X11112443Y-37432897D01*
X11111828Y-37426005D01*
X11198016Y-37024244D01*
X11203102Y-37016876D01*
X11209456Y-37015000D01*
X11490544Y-37015000D01*
X11498817Y-37018427D01*
G37*
%TD.AperFunction*%
%TD*%
%TA.AperFunction,Conductor*%
%TO.N,/PA1*%
G36*
X10061247Y-42075748D02*
G01*
X10067556Y-42082102D01*
X10068171Y-42088995D01*
X9981984Y-42490754D01*
X9976898Y-42498124D01*
X9970544Y-42500000D01*
X9689456Y-42500000D01*
X9681183Y-42496573D01*
X9678016Y-42490754D01*
X9591828Y-42088995D01*
X9593444Y-42080187D01*
X9598749Y-42075749D01*
X9825484Y-41980888D01*
X9834439Y-41980857D01*
X10061247Y-42075748D01*
G37*
%TD.AperFunction*%
%TD*%
%TA.AperFunction,Conductor*%
%TO.N,Net-(F1-Pad1)*%
G36*
X9923420Y-8602050D02*
G01*
X10620068Y-8708482D01*
X10627728Y-8713119D01*
X10630000Y-8720048D01*
X10630000Y-9199951D01*
X10626573Y-9208224D01*
X10620067Y-9211517D01*
X9923429Y-9317948D01*
X9914733Y-9315810D01*
X9910096Y-9308149D01*
X9909962Y-9306414D01*
X9909698Y-9211517D01*
X9909000Y-8960000D01*
X9909962Y-8613584D01*
X9913412Y-8605321D01*
X9921694Y-8601917D01*
X9923420Y-8602050D01*
G37*
%TD.AperFunction*%
%TD*%
%TA.AperFunction,Conductor*%
%TO.N,/RX*%
G36*
X10541247Y-21405748D02*
G01*
X10547556Y-21412102D01*
X10548171Y-21418995D01*
X10461984Y-21820754D01*
X10456898Y-21828124D01*
X10450544Y-21830000D01*
X10169456Y-21830000D01*
X10161183Y-21826573D01*
X10158016Y-21820754D01*
X10071828Y-21418995D01*
X10073444Y-21410187D01*
X10078749Y-21405749D01*
X10305484Y-21310888D01*
X10314439Y-21310857D01*
X10541247Y-21405748D01*
G37*
%TD.AperFunction*%
%TD*%
%TA.AperFunction,Conductor*%
%TO.N,/PA2*%
G36*
X14035896Y-41453623D02*
G01*
X14036097Y-41453707D01*
X14262142Y-41548279D01*
X14268450Y-41554632D01*
X14268418Y-41563587D01*
X14267986Y-41564506D01*
X14072285Y-41937492D01*
X14065409Y-41943224D01*
X14061927Y-41943754D01*
X13780812Y-41943754D01*
X13772539Y-41940327D01*
X13769112Y-41932054D01*
X13769113Y-41931942D01*
X13772652Y-41563587D01*
X13773596Y-41465249D01*
X13777102Y-41457010D01*
X13785248Y-41453662D01*
X14031335Y-41452716D01*
X14035896Y-41453623D01*
G37*
%TD.AperFunction*%
%TD*%
%TA.AperFunction,Conductor*%
%TO.N,/UD+*%
G36*
X14020556Y-13045364D02*
G01*
X14160779Y-13115459D01*
X14399783Y-13234935D01*
X14405651Y-13241698D01*
X14405377Y-13249838D01*
X14312564Y-13476178D01*
X14306255Y-13482532D01*
X14306178Y-13482564D01*
X14079838Y-13575377D01*
X14070883Y-13575345D01*
X14064935Y-13569784D01*
X13875364Y-13190556D01*
X13874730Y-13181624D01*
X13877554Y-13177054D01*
X14007053Y-13047555D01*
X14015325Y-13044129D01*
X14020556Y-13045364D01*
G37*
%TD.AperFunction*%
%TD*%
%TA.AperFunction,Conductor*%
%TO.N,GND1*%
G36*
X3660000Y-36566988D02*
G01*
X3602993Y-36534075D01*
X3475826Y-36500000D01*
X3344174Y-36500000D01*
X3217007Y-36534075D01*
X3160000Y-36566988D01*
X3160000Y-34893012D01*
X3217007Y-34925925D01*
X3344174Y-34960000D01*
X3475826Y-34960000D01*
X3602993Y-34925925D01*
X3660000Y-34893012D01*
X3660000Y-36566988D01*
G37*
%TD.AperFunction*%
%TA.AperFunction,Conductor*%
G36*
X21440000Y-36566988D02*
G01*
X21382993Y-36534075D01*
X21255826Y-36500000D01*
X21124174Y-36500000D01*
X20997007Y-36534075D01*
X20940000Y-36566988D01*
X20940000Y-34893012D01*
X20997007Y-34925925D01*
X21124174Y-34960000D01*
X21255826Y-34960000D01*
X21382993Y-34925925D01*
X21440000Y-34893012D01*
X21440000Y-36566988D01*
G37*
%TD.AperFunction*%
%TA.AperFunction,Conductor*%
G36*
X4547539Y-29919685D02*
G01*
X4593294Y-29972489D01*
X4604500Y-30024000D01*
X4604500Y-31772870D01*
X4604501Y-31772876D01*
X4610908Y-31832483D01*
X4661202Y-31967328D01*
X4661206Y-31967335D01*
X4747452Y-32082544D01*
X4747455Y-32082547D01*
X4862664Y-32168793D01*
X4862671Y-32168797D01*
X4997517Y-32219091D01*
X4997516Y-32219091D01*
X5004444Y-32219835D01*
X5057127Y-32225500D01*
X6852872Y-32225499D01*
X6912483Y-32219091D01*
X7047331Y-32168796D01*
X7162546Y-32082546D01*
X7248796Y-31967331D01*
X7297810Y-31835916D01*
X7339681Y-31779984D01*
X7405145Y-31755566D01*
X7473418Y-31770417D01*
X7501673Y-31791569D01*
X7623599Y-31913495D01*
X7720384Y-31981265D01*
X7817165Y-32049032D01*
X7817167Y-32049033D01*
X7817170Y-32049035D01*
X8031337Y-32148903D01*
X8259592Y-32210063D01*
X8436034Y-32225500D01*
X8494999Y-32230659D01*
X8495000Y-32230659D01*
X8495001Y-32230659D01*
X8553966Y-32225500D01*
X8730408Y-32210063D01*
X8958663Y-32148903D01*
X9172830Y-32049035D01*
X9366401Y-31913495D01*
X9533495Y-31746401D01*
X9663425Y-31560842D01*
X9718002Y-31517217D01*
X9787500Y-31510023D01*
X9849855Y-31541546D01*
X9866575Y-31560842D01*
X9996281Y-31746082D01*
X9996505Y-31746401D01*
X10163599Y-31913495D01*
X10260384Y-31981265D01*
X10357165Y-32049032D01*
X10357167Y-32049033D01*
X10357170Y-32049035D01*
X10571337Y-32148903D01*
X10799592Y-32210063D01*
X10976034Y-32225500D01*
X11034999Y-32230659D01*
X11035000Y-32230659D01*
X11035001Y-32230659D01*
X11093966Y-32225500D01*
X11270408Y-32210063D01*
X11498663Y-32148903D01*
X11712830Y-32049035D01*
X11906401Y-31913495D01*
X12073495Y-31746401D01*
X12203425Y-31560842D01*
X12258002Y-31517217D01*
X12327500Y-31510023D01*
X12389855Y-31541546D01*
X12406575Y-31560842D01*
X12536281Y-31746082D01*
X12536505Y-31746401D01*
X12703599Y-31913495D01*
X12800384Y-31981265D01*
X12897165Y-32049032D01*
X12897167Y-32049033D01*
X12897170Y-32049035D01*
X13111337Y-32148903D01*
X13339592Y-32210063D01*
X13516034Y-32225500D01*
X13574999Y-32230659D01*
X13575000Y-32230659D01*
X13575001Y-32230659D01*
X13633966Y-32225500D01*
X13810408Y-32210063D01*
X14038663Y-32148903D01*
X14252830Y-32049035D01*
X14446401Y-31913495D01*
X14613495Y-31746401D01*
X14743425Y-31560842D01*
X14798002Y-31517217D01*
X14867500Y-31510023D01*
X14929855Y-31541546D01*
X14946575Y-31560842D01*
X15076281Y-31746082D01*
X15076505Y-31746401D01*
X15243599Y-31913495D01*
X15340384Y-31981265D01*
X15437165Y-32049032D01*
X15437167Y-32049033D01*
X15437170Y-32049035D01*
X15651337Y-32148903D01*
X15879592Y-32210063D01*
X16056034Y-32225500D01*
X16114999Y-32230659D01*
X16115000Y-32230659D01*
X16115001Y-32230659D01*
X16173966Y-32225500D01*
X16350408Y-32210063D01*
X16578663Y-32148903D01*
X16792830Y-32049035D01*
X16986401Y-31913495D01*
X17153495Y-31746401D01*
X17283730Y-31560405D01*
X17338307Y-31516781D01*
X17407805Y-31509587D01*
X17470160Y-31541110D01*
X17486879Y-31560405D01*
X17616890Y-31746078D01*
X17783917Y-31913105D01*
X17977421Y-32048600D01*
X18191507Y-32148429D01*
X18191516Y-32148433D01*
X18405000Y-32205634D01*
X18405000Y-31308012D01*
X18462007Y-31340925D01*
X18589174Y-31375000D01*
X18720826Y-31375000D01*
X18847993Y-31340925D01*
X18905000Y-31308012D01*
X18905000Y-32205633D01*
X19118483Y-32148433D01*
X19118492Y-32148429D01*
X19332578Y-32048600D01*
X19526082Y-31913105D01*
X19693105Y-31746082D01*
X19828600Y-31552578D01*
X19928429Y-31338492D01*
X19928432Y-31338486D01*
X19985636Y-31125000D01*
X19088012Y-31125000D01*
X19120925Y-31067993D01*
X19155000Y-30940826D01*
X19155000Y-30809174D01*
X19120925Y-30682007D01*
X19088012Y-30625000D01*
X19985636Y-30625000D01*
X19985635Y-30624999D01*
X19928432Y-30411513D01*
X19928429Y-30411507D01*
X19828600Y-30197422D01*
X19828599Y-30197420D01*
X19756970Y-30095123D01*
X19734643Y-30028917D01*
X19751653Y-29961150D01*
X19802601Y-29913337D01*
X19858545Y-29900000D01*
X23275499Y-29900000D01*
X23342538Y-29919685D01*
X23388293Y-29972489D01*
X23399499Y-30024000D01*
X23399499Y-38323907D01*
X23398902Y-38336061D01*
X23385334Y-38473818D01*
X23380592Y-38497659D01*
X23342185Y-38624270D01*
X23332882Y-38646729D01*
X23270516Y-38763406D01*
X23257011Y-38783617D01*
X23173078Y-38885890D01*
X23155890Y-38903078D01*
X23053619Y-38987010D01*
X23033408Y-39000515D01*
X22916727Y-39062883D01*
X22894268Y-39072186D01*
X22767660Y-39110592D01*
X22743819Y-39115334D01*
X22606062Y-39128902D01*
X22593908Y-39129499D01*
X22560119Y-39129499D01*
X22560118Y-39129499D01*
X19410117Y-39129501D01*
X19355518Y-39129501D01*
X19293306Y-39139354D01*
X19168880Y-39159062D01*
X18989170Y-39217452D01*
X18989167Y-39217453D01*
X18820797Y-39303244D01*
X18667933Y-39414305D01*
X18667928Y-39414309D01*
X18534308Y-39547929D01*
X18534304Y-39547934D01*
X18423243Y-39700798D01*
X18337455Y-39869166D01*
X18279060Y-40048886D01*
X18249501Y-40235513D01*
X18249501Y-40290118D01*
X18249500Y-50960117D01*
X18249500Y-50993907D01*
X18248903Y-51006061D01*
X18235335Y-51143819D01*
X18230593Y-51167661D01*
X18192186Y-51294271D01*
X18182883Y-51316728D01*
X18120517Y-51433406D01*
X18107012Y-51453618D01*
X18023079Y-51555891D01*
X18005891Y-51573079D01*
X17903618Y-51657012D01*
X17883406Y-51670517D01*
X17766728Y-51732883D01*
X17744271Y-51742186D01*
X17617661Y-51780593D01*
X17593819Y-51785335D01*
X17456062Y-51798903D01*
X17443908Y-51799500D01*
X7156092Y-51799500D01*
X7143938Y-51798903D01*
X7006180Y-51785335D01*
X6982340Y-51780593D01*
X6855728Y-51742186D01*
X6833271Y-51732883D01*
X6716593Y-51670517D01*
X6696381Y-51657012D01*
X6594108Y-51573079D01*
X6576920Y-51555891D01*
X6492986Y-51453616D01*
X6479482Y-51433406D01*
X6417116Y-51316728D01*
X6407815Y-51294277D01*
X6369404Y-51167652D01*
X6364665Y-51143824D01*
X6351097Y-51006060D01*
X6350500Y-50993907D01*
X6350500Y-50935456D01*
X6350499Y-50935450D01*
X6350499Y-44619999D01*
X7134341Y-44619999D01*
X7134341Y-44620000D01*
X7154936Y-44855403D01*
X7154938Y-44855413D01*
X7216094Y-45083655D01*
X7216096Y-45083659D01*
X7216097Y-45083663D01*
X7315965Y-45297830D01*
X7315967Y-45297834D01*
X7451501Y-45491395D01*
X7451506Y-45491402D01*
X7618597Y-45658493D01*
X7618603Y-45658498D01*
X7804158Y-45788425D01*
X7847783Y-45843002D01*
X7854977Y-45912500D01*
X7823454Y-45974855D01*
X7804158Y-45991575D01*
X7618597Y-46121505D01*
X7451505Y-46288597D01*
X7315965Y-46482169D01*
X7315964Y-46482171D01*
X7216098Y-46696335D01*
X7216094Y-46696344D01*
X7154938Y-46924586D01*
X7154936Y-46924596D01*
X7134341Y-47159999D01*
X7134341Y-47160000D01*
X7154936Y-47395403D01*
X7154938Y-47395413D01*
X7216094Y-47623655D01*
X7216096Y-47623659D01*
X7216097Y-47623663D01*
X7251105Y-47698738D01*
X7315965Y-47837830D01*
X7315967Y-47837834D01*
X7451501Y-48031395D01*
X7451506Y-48031402D01*
X7618597Y-48198493D01*
X7618603Y-48198498D01*
X7804158Y-48328425D01*
X7847783Y-48383002D01*
X7854977Y-48452500D01*
X7823454Y-48514855D01*
X7804158Y-48531575D01*
X7618597Y-48661505D01*
X7451505Y-48828597D01*
X7315965Y-49022169D01*
X7315964Y-49022171D01*
X7216098Y-49236335D01*
X7216094Y-49236344D01*
X7154938Y-49464586D01*
X7154936Y-49464596D01*
X7134341Y-49699999D01*
X7134341Y-49700000D01*
X7154936Y-49935403D01*
X7154938Y-49935413D01*
X7216094Y-50163655D01*
X7216096Y-50163659D01*
X7216097Y-50163663D01*
X7238890Y-50212542D01*
X7315965Y-50377830D01*
X7315967Y-50377834D01*
X7424281Y-50532521D01*
X7451505Y-50571401D01*
X7618599Y-50738495D01*
X7715384Y-50806265D01*
X7812165Y-50874032D01*
X7812167Y-50874033D01*
X7812170Y-50874035D01*
X8026337Y-50973903D01*
X8254592Y-51035063D01*
X8442918Y-51051539D01*
X8489999Y-51055659D01*
X8490000Y-51055659D01*
X8490001Y-51055659D01*
X8529234Y-51052226D01*
X8725408Y-51035063D01*
X8953663Y-50973903D01*
X9167830Y-50874035D01*
X9361401Y-50738495D01*
X9528495Y-50571401D01*
X9664035Y-50377830D01*
X9741117Y-50212525D01*
X9744395Y-50206005D01*
X9753915Y-50188384D01*
X9757869Y-50177631D01*
X9761862Y-50168038D01*
X9763903Y-50163663D01*
X9764846Y-50160142D01*
X9768238Y-50149447D01*
X10228889Y-48897229D01*
X10257578Y-48852365D01*
X10335276Y-48774669D01*
X10406465Y-48668127D01*
X10455501Y-48549744D01*
X10462281Y-48515659D01*
X10480500Y-48424069D01*
X10480500Y-44008889D01*
X10500185Y-43941850D01*
X10552989Y-43896095D01*
X10590615Y-43885669D01*
X10616884Y-43882710D01*
X10778642Y-43826108D01*
X10923750Y-43734931D01*
X11044931Y-43613750D01*
X11105410Y-43517494D01*
X11113929Y-43506028D01*
X11113870Y-43505984D01*
X11116529Y-43502453D01*
X11116533Y-43502445D01*
X11116537Y-43502442D01*
X11321509Y-43185504D01*
X11337937Y-43165179D01*
X12435276Y-42067841D01*
X12506465Y-41961299D01*
X12520448Y-41927541D01*
X13263632Y-41927541D01*
X13266210Y-41980000D01*
X13266510Y-41986100D01*
X13267117Y-41990129D01*
X13268500Y-42008600D01*
X13268500Y-47573069D01*
X13268500Y-47573071D01*
X13268499Y-47573071D01*
X13293497Y-47698738D01*
X13293499Y-47698744D01*
X13342534Y-47817125D01*
X13413726Y-47923673D01*
X13413727Y-47923674D01*
X14342414Y-48852360D01*
X14371108Y-48897230D01*
X14729231Y-49870737D01*
X14831760Y-50149450D01*
X14835157Y-50160156D01*
X14836097Y-50163663D01*
X14836098Y-50163665D01*
X14838124Y-50168010D01*
X14842114Y-50177596D01*
X14846088Y-50188397D01*
X14849702Y-50197923D01*
X14849720Y-50197970D01*
X14849725Y-50197982D01*
X14849892Y-50198409D01*
X14876734Y-50256058D01*
X14880006Y-50261533D01*
X14879843Y-50261630D01*
X14888641Y-50276345D01*
X14935966Y-50377832D01*
X15026166Y-50506650D01*
X15071505Y-50571401D01*
X15238599Y-50738495D01*
X15335384Y-50806265D01*
X15432165Y-50874032D01*
X15432167Y-50874033D01*
X15432170Y-50874035D01*
X15646337Y-50973903D01*
X15874592Y-51035063D01*
X16062918Y-51051539D01*
X16109999Y-51055659D01*
X16110000Y-51055659D01*
X16110001Y-51055659D01*
X16149234Y-51052226D01*
X16345408Y-51035063D01*
X16573663Y-50973903D01*
X16787830Y-50874035D01*
X16981401Y-50738495D01*
X17148495Y-50571401D01*
X17284035Y-50377830D01*
X17383903Y-50163663D01*
X17445063Y-49935408D01*
X17465659Y-49700000D01*
X17445063Y-49464592D01*
X17383903Y-49236337D01*
X17284035Y-49022171D01*
X17178634Y-48871641D01*
X17148494Y-48828597D01*
X16981402Y-48661506D01*
X16981396Y-48661501D01*
X16795842Y-48531575D01*
X16752217Y-48476998D01*
X16745023Y-48407500D01*
X16776546Y-48345145D01*
X16795842Y-48328425D01*
X16818026Y-48312891D01*
X16981401Y-48198495D01*
X17148495Y-48031401D01*
X17284035Y-47837830D01*
X17383903Y-47623663D01*
X17445063Y-47395408D01*
X17465659Y-47160000D01*
X17445063Y-46924592D01*
X17383903Y-46696337D01*
X17284035Y-46482171D01*
X17148495Y-46288599D01*
X17148494Y-46288597D01*
X16981402Y-46121506D01*
X16981396Y-46121501D01*
X16795842Y-45991575D01*
X16752217Y-45936998D01*
X16745023Y-45867500D01*
X16776546Y-45805145D01*
X16795842Y-45788425D01*
X16818026Y-45772891D01*
X16981401Y-45658495D01*
X17148495Y-45491401D01*
X17284035Y-45297830D01*
X17383903Y-45083663D01*
X17445063Y-44855408D01*
X17465659Y-44620000D01*
X17445063Y-44384592D01*
X17383903Y-44156337D01*
X17284035Y-43942171D01*
X17283811Y-43941850D01*
X17148494Y-43748597D01*
X16981402Y-43581506D01*
X16981401Y-43581505D01*
X16795405Y-43451269D01*
X16751781Y-43396692D01*
X16744588Y-43327193D01*
X16776110Y-43264839D01*
X16795405Y-43248119D01*
X16981082Y-43118105D01*
X17148105Y-42951082D01*
X17283600Y-42757578D01*
X17383429Y-42543492D01*
X17383432Y-42543486D01*
X17440636Y-42330000D01*
X16543012Y-42330000D01*
X16575925Y-42272993D01*
X16610000Y-42145826D01*
X16610000Y-42014174D01*
X16575925Y-41887007D01*
X16543012Y-41830000D01*
X17440636Y-41830000D01*
X17440635Y-41829999D01*
X17383432Y-41616513D01*
X17383429Y-41616507D01*
X17283600Y-41402422D01*
X17283599Y-41402420D01*
X17148113Y-41208926D01*
X17148108Y-41208920D01*
X16981082Y-41041894D01*
X16787578Y-40906399D01*
X16573492Y-40806570D01*
X16573486Y-40806567D01*
X16360000Y-40749364D01*
X16360000Y-41646988D01*
X16302993Y-41614075D01*
X16175826Y-41580000D01*
X16044174Y-41580000D01*
X15917007Y-41614075D01*
X15860000Y-41646988D01*
X15860000Y-40749364D01*
X15859999Y-40749364D01*
X15646513Y-40806567D01*
X15646507Y-40806570D01*
X15432422Y-40906399D01*
X15432420Y-40906400D01*
X15238926Y-41041886D01*
X15238920Y-41041891D01*
X15071891Y-41208920D01*
X15071890Y-41208922D01*
X14998501Y-41313732D01*
X14943924Y-41357357D01*
X14874425Y-41364549D01*
X14812071Y-41333027D01*
X14779884Y-41283562D01*
X14779831Y-41283411D01*
X14779831Y-41283409D01*
X14723229Y-41121651D01*
X14632052Y-40976543D01*
X14510871Y-40855362D01*
X14433214Y-40806567D01*
X14365762Y-40764184D01*
X14203999Y-40707581D01*
X14033711Y-40688395D01*
X14033703Y-40688395D01*
X13863414Y-40707581D01*
X13701651Y-40764184D01*
X13556542Y-40855362D01*
X13435362Y-40976542D01*
X13344184Y-41121651D01*
X13287581Y-41283414D01*
X13268285Y-41454677D01*
X13268138Y-41458294D01*
X13267175Y-41558730D01*
X13267175Y-41558731D01*
X13263636Y-41926942D01*
X13263637Y-41926943D01*
X13263636Y-41927086D01*
X13263633Y-41927429D01*
X13263632Y-41927541D01*
X12520448Y-41927541D01*
X12555501Y-41842916D01*
X12566392Y-41788165D01*
X12568105Y-41779555D01*
X12580500Y-41717243D01*
X12580500Y-41683343D01*
X12584460Y-41652257D01*
X12657024Y-41372042D01*
X12662394Y-41349668D01*
X12662526Y-41349699D01*
X12666555Y-41333642D01*
X12676124Y-41306298D01*
X12676125Y-41306290D01*
X12695312Y-41136003D01*
X12695312Y-41135996D01*
X12676125Y-40965707D01*
X12676124Y-40965705D01*
X12676124Y-40965702D01*
X12619522Y-40803944D01*
X12528345Y-40658836D01*
X12407164Y-40537655D01*
X12262055Y-40446477D01*
X12100292Y-40389874D01*
X11930004Y-40370688D01*
X11929996Y-40370688D01*
X11759707Y-40389874D01*
X11597944Y-40446477D01*
X11452835Y-40537655D01*
X11331655Y-40658835D01*
X11240477Y-40803944D01*
X11183874Y-40965707D01*
X11164688Y-41135996D01*
X11164688Y-41136003D01*
X11183874Y-41306292D01*
X11183876Y-41306300D01*
X11202999Y-41360951D01*
X11206560Y-41430730D01*
X11173638Y-41489586D01*
X10786286Y-41876938D01*
X10724963Y-41910423D01*
X10655271Y-41905439D01*
X10599338Y-41863567D01*
X10580461Y-41815861D01*
X10577676Y-41816498D01*
X10576126Y-41809710D01*
X10576124Y-41809705D01*
X10576124Y-41809702D01*
X10519522Y-41647944D01*
X10428345Y-41502836D01*
X10307164Y-41381655D01*
X10256257Y-41349668D01*
X10162055Y-41290477D01*
X10000292Y-41233874D01*
X9942951Y-41227413D01*
X9878537Y-41200345D01*
X9838983Y-41142750D01*
X9836239Y-41129982D01*
X9835876Y-41130068D01*
X9834092Y-41122520D01*
X9783797Y-40987671D01*
X9783793Y-40987664D01*
X9697547Y-40872455D01*
X9697544Y-40872452D01*
X9582335Y-40786206D01*
X9582328Y-40786202D01*
X9447482Y-40735908D01*
X9447483Y-40735908D01*
X9387883Y-40729501D01*
X9387881Y-40729500D01*
X9387873Y-40729500D01*
X9387864Y-40729500D01*
X7592129Y-40729500D01*
X7592123Y-40729501D01*
X7532516Y-40735908D01*
X7397671Y-40786202D01*
X7397664Y-40786206D01*
X7282455Y-40872452D01*
X7282452Y-40872455D01*
X7196206Y-40987664D01*
X7196202Y-40987671D01*
X7145908Y-41122517D01*
X7139501Y-41182116D01*
X7139500Y-41182135D01*
X7139500Y-42977870D01*
X7139501Y-42977876D01*
X7145908Y-43037483D01*
X7196202Y-43172328D01*
X7196206Y-43172335D01*
X7282452Y-43287544D01*
X7282455Y-43287547D01*
X7397664Y-43373793D01*
X7397671Y-43373797D01*
X7529081Y-43422810D01*
X7585015Y-43464681D01*
X7609432Y-43530145D01*
X7594580Y-43598418D01*
X7573430Y-43626673D01*
X7451503Y-43748600D01*
X7315965Y-43942169D01*
X7315964Y-43942171D01*
X7216098Y-44156335D01*
X7216094Y-44156344D01*
X7154938Y-44384586D01*
X7154936Y-44384596D01*
X7134341Y-44619999D01*
X6350499Y-44619999D01*
X6350499Y-40235513D01*
X6320939Y-40048886D01*
X6320939Y-40048883D01*
X6262546Y-39869169D01*
X6176759Y-39700802D01*
X6150923Y-39665241D01*
X6065695Y-39547934D01*
X6065691Y-39547929D01*
X5932071Y-39414309D01*
X5932066Y-39414305D01*
X5779202Y-39303244D01*
X5779201Y-39303243D01*
X5779199Y-39303242D01*
X5725259Y-39275758D01*
X5610832Y-39217453D01*
X5610829Y-39217452D01*
X5431119Y-39159062D01*
X5337800Y-39144281D01*
X5244482Y-39129501D01*
X5244481Y-39129501D01*
X5189883Y-39129501D01*
X2039881Y-39129499D01*
X2006092Y-39129499D01*
X1993938Y-39128902D01*
X1856180Y-39115334D01*
X1832339Y-39110592D01*
X1705731Y-39072186D01*
X1683272Y-39062883D01*
X1566591Y-39000515D01*
X1546380Y-38987010D01*
X1444109Y-38903078D01*
X1426921Y-38885890D01*
X1342988Y-38783617D01*
X1329483Y-38763406D01*
X1272695Y-38657164D01*
X1267114Y-38646721D01*
X1257814Y-38624270D01*
X1219405Y-38497653D01*
X1214666Y-38473823D01*
X1201098Y-38336060D01*
X1200501Y-38323907D01*
X1200501Y-38265456D01*
X1200500Y-38265450D01*
X1200500Y-33562155D01*
X2060000Y-33562155D01*
X2060000Y-34210000D01*
X2976988Y-34210000D01*
X2944075Y-34267007D01*
X2910000Y-34394174D01*
X2910000Y-34525826D01*
X2944075Y-34652993D01*
X2976988Y-34710000D01*
X2060000Y-34710000D01*
X2060000Y-35357844D01*
X2066401Y-35417372D01*
X2066403Y-35417379D01*
X2116645Y-35552086D01*
X2116649Y-35552093D01*
X2202809Y-35667187D01*
X2202812Y-35667190D01*
X2317906Y-35753350D01*
X2317913Y-35753354D01*
X2449986Y-35802614D01*
X2505920Y-35844485D01*
X2530337Y-35909949D01*
X2515486Y-35978222D01*
X2494335Y-36006477D01*
X2371886Y-36128926D01*
X2236400Y-36322420D01*
X2236399Y-36322422D01*
X2136570Y-36536507D01*
X2136567Y-36536513D01*
X2079364Y-36749999D01*
X2079364Y-36750000D01*
X2976988Y-36750000D01*
X2944075Y-36807007D01*
X2910000Y-36934174D01*
X2910000Y-37065826D01*
X2944075Y-37192993D01*
X2976988Y-37250000D01*
X2079364Y-37250000D01*
X2136567Y-37463486D01*
X2136570Y-37463492D01*
X2236399Y-37677578D01*
X2371894Y-37871082D01*
X2538917Y-38038105D01*
X2732421Y-38173600D01*
X2946507Y-38273429D01*
X2946516Y-38273433D01*
X3160000Y-38330634D01*
X3160000Y-37433012D01*
X3217007Y-37465925D01*
X3344174Y-37500000D01*
X3475826Y-37500000D01*
X3602993Y-37465925D01*
X3660000Y-37433012D01*
X3660000Y-38330633D01*
X3873483Y-38273433D01*
X3873492Y-38273429D01*
X4087578Y-38173600D01*
X4281082Y-38038105D01*
X4448105Y-37871082D01*
X4583600Y-37677578D01*
X4683429Y-37463492D01*
X4683432Y-37463486D01*
X4740636Y-37250000D01*
X3843012Y-37250000D01*
X3875925Y-37192993D01*
X3910000Y-37065826D01*
X3910000Y-36934174D01*
X3875925Y-36807007D01*
X3843012Y-36750000D01*
X4740636Y-36750000D01*
X4740635Y-36749999D01*
X4683432Y-36536513D01*
X4683429Y-36536507D01*
X4583600Y-36322422D01*
X4583599Y-36322420D01*
X4448113Y-36128926D01*
X4448108Y-36128920D01*
X4325665Y-36006477D01*
X4292180Y-35945154D01*
X4297164Y-35875462D01*
X4339036Y-35819529D01*
X4370013Y-35802614D01*
X4502086Y-35753354D01*
X4502093Y-35753350D01*
X4617187Y-35667190D01*
X4617190Y-35667187D01*
X4703350Y-35552093D01*
X4703354Y-35552086D01*
X4704134Y-35549996D01*
X10584688Y-35549996D01*
X10584688Y-35550003D01*
X10603875Y-35720296D01*
X10603876Y-35720300D01*
X10612217Y-35744139D01*
X10616261Y-35760779D01*
X10616645Y-35760697D01*
X10617572Y-35765021D01*
X10617573Y-35765026D01*
X10685081Y-36079707D01*
X10696742Y-36134066D01*
X10699500Y-36160075D01*
X10699500Y-36924923D01*
X10696742Y-36950932D01*
X10617552Y-37320070D01*
X10616415Y-37325569D01*
X10612029Y-37341398D01*
X10603876Y-37364699D01*
X10603875Y-37364703D01*
X10584688Y-37534996D01*
X10584688Y-37535003D01*
X10603874Y-37705292D01*
X10660477Y-37867055D01*
X10750108Y-38009702D01*
X10751655Y-38012164D01*
X10872836Y-38133345D01*
X11017944Y-38224522D01*
X11179702Y-38281124D01*
X11179705Y-38281124D01*
X11179707Y-38281125D01*
X11349996Y-38300312D01*
X11350000Y-38300312D01*
X11350004Y-38300312D01*
X11520292Y-38281125D01*
X11520293Y-38281124D01*
X11520298Y-38281124D01*
X11682056Y-38224522D01*
X11827164Y-38133345D01*
X11948345Y-38012164D01*
X12039522Y-37867056D01*
X12096124Y-37705298D01*
X12096125Y-37705292D01*
X12115312Y-37535003D01*
X12115312Y-37534996D01*
X12096125Y-37364709D01*
X12096124Y-37364702D01*
X12087783Y-37340866D01*
X12083741Y-37324223D01*
X12083355Y-37324306D01*
X12003258Y-36950934D01*
X12000500Y-36924925D01*
X12000500Y-36249996D01*
X12374688Y-36249996D01*
X12374688Y-36250003D01*
X12393875Y-36420296D01*
X12393876Y-36420300D01*
X12402217Y-36444139D01*
X12406261Y-36460779D01*
X12406645Y-36460697D01*
X12407572Y-36465021D01*
X12407573Y-36465026D01*
X12468708Y-36750000D01*
X12486742Y-36834066D01*
X12489500Y-36860075D01*
X12489500Y-38074071D01*
X12506598Y-38160024D01*
X12506598Y-38160025D01*
X12514497Y-38199736D01*
X12514500Y-38199748D01*
X12552324Y-38291063D01*
X12560983Y-38324630D01*
X12563874Y-38350292D01*
X12620477Y-38512055D01*
X12620478Y-38512056D01*
X12711655Y-38657164D01*
X12832836Y-38778345D01*
X12977944Y-38869522D01*
X13139702Y-38926124D01*
X13139705Y-38926124D01*
X13139707Y-38926125D01*
X13309996Y-38945312D01*
X13310000Y-38945312D01*
X13310004Y-38945312D01*
X13480292Y-38926125D01*
X13480293Y-38926124D01*
X13480298Y-38926124D01*
X13642056Y-38869522D01*
X13787164Y-38778345D01*
X13908345Y-38657164D01*
X13999522Y-38512056D01*
X14056124Y-38350298D01*
X14057728Y-38336061D01*
X14075312Y-38180003D01*
X14075312Y-38179996D01*
X14056125Y-38009707D01*
X14056124Y-38009705D01*
X14056124Y-38009702D01*
X13999522Y-37847944D01*
X13908345Y-37702836D01*
X13903956Y-37698447D01*
X13892774Y-37685613D01*
X13815637Y-37583725D01*
X13790866Y-37518394D01*
X13790500Y-37508878D01*
X13790500Y-36860073D01*
X13793258Y-36834064D01*
X13872426Y-36465025D01*
X13873581Y-36459440D01*
X13877965Y-36443611D01*
X13886124Y-36420298D01*
X13897152Y-36322422D01*
X13905312Y-36250003D01*
X13905312Y-36249996D01*
X13886125Y-36079707D01*
X13886124Y-36079705D01*
X13886124Y-36079702D01*
X13829522Y-35917944D01*
X13738345Y-35772836D01*
X13617164Y-35651655D01*
X13472055Y-35560477D01*
X13310292Y-35503874D01*
X13140004Y-35484688D01*
X13139996Y-35484688D01*
X12969707Y-35503874D01*
X12807944Y-35560477D01*
X12662835Y-35651655D01*
X12541655Y-35772835D01*
X12450477Y-35917944D01*
X12393874Y-36079707D01*
X12374688Y-36249996D01*
X12000500Y-36249996D01*
X12000500Y-36160073D01*
X12003258Y-36134064D01*
X12004360Y-36128926D01*
X12082426Y-35765025D01*
X12083581Y-35759440D01*
X12087965Y-35743611D01*
X12096124Y-35720298D01*
X12102108Y-35667190D01*
X12115312Y-35550003D01*
X12115312Y-35549996D01*
X12096125Y-35379707D01*
X12096124Y-35379705D01*
X12096124Y-35379702D01*
X12039522Y-35217944D01*
X11948345Y-35072836D01*
X11827164Y-34951655D01*
X11786215Y-34925925D01*
X11682055Y-34860477D01*
X11520292Y-34803874D01*
X11350004Y-34784688D01*
X11349996Y-34784688D01*
X11179707Y-34803874D01*
X11017944Y-34860477D01*
X10872835Y-34951655D01*
X10751655Y-35072835D01*
X10660477Y-35217944D01*
X10603874Y-35379707D01*
X10584688Y-35549996D01*
X4704134Y-35549996D01*
X4753596Y-35417379D01*
X4753598Y-35417372D01*
X4759999Y-35357844D01*
X4760000Y-35357827D01*
X4760000Y-34710000D01*
X3843012Y-34710000D01*
X3875925Y-34652993D01*
X3910000Y-34525826D01*
X3910000Y-34394174D01*
X3875925Y-34267007D01*
X3843012Y-34210000D01*
X4760000Y-34210000D01*
X4760000Y-33562172D01*
X4759999Y-33562155D01*
X19840000Y-33562155D01*
X19840000Y-34210000D01*
X20756988Y-34210000D01*
X20724075Y-34267007D01*
X20690000Y-34394174D01*
X20690000Y-34525826D01*
X20724075Y-34652993D01*
X20756988Y-34710000D01*
X19840000Y-34710000D01*
X19840000Y-35357844D01*
X19846401Y-35417372D01*
X19846403Y-35417379D01*
X19896645Y-35552086D01*
X19896649Y-35552093D01*
X19982809Y-35667187D01*
X19982812Y-35667190D01*
X20097906Y-35753350D01*
X20097913Y-35753354D01*
X20229986Y-35802614D01*
X20285920Y-35844485D01*
X20310337Y-35909949D01*
X20295486Y-35978222D01*
X20274335Y-36006477D01*
X20151886Y-36128926D01*
X20016400Y-36322420D01*
X20016399Y-36322422D01*
X19916570Y-36536507D01*
X19916567Y-36536513D01*
X19859364Y-36749999D01*
X19859364Y-36750000D01*
X20756988Y-36750000D01*
X20724075Y-36807007D01*
X20690000Y-36934174D01*
X20690000Y-37065826D01*
X20724075Y-37192993D01*
X20756988Y-37250000D01*
X19859364Y-37250000D01*
X19916567Y-37463486D01*
X19916570Y-37463492D01*
X20016399Y-37677578D01*
X20151894Y-37871082D01*
X20318917Y-38038105D01*
X20512421Y-38173600D01*
X20726507Y-38273429D01*
X20726516Y-38273433D01*
X20940000Y-38330634D01*
X20940000Y-37433012D01*
X20997007Y-37465925D01*
X21124174Y-37500000D01*
X21255826Y-37500000D01*
X21382993Y-37465925D01*
X21440000Y-37433012D01*
X21440000Y-38330633D01*
X21653483Y-38273433D01*
X21653492Y-38273429D01*
X21867578Y-38173600D01*
X22061082Y-38038105D01*
X22228105Y-37871082D01*
X22363600Y-37677578D01*
X22463429Y-37463492D01*
X22463432Y-37463486D01*
X22520636Y-37250000D01*
X21623012Y-37250000D01*
X21655925Y-37192993D01*
X21690000Y-37065826D01*
X21690000Y-36934174D01*
X21655925Y-36807007D01*
X21623012Y-36750000D01*
X22520636Y-36750000D01*
X22520635Y-36749999D01*
X22463432Y-36536513D01*
X22463429Y-36536507D01*
X22363600Y-36322422D01*
X22363599Y-36322420D01*
X22228113Y-36128926D01*
X22228108Y-36128920D01*
X22105665Y-36006477D01*
X22072180Y-35945154D01*
X22077164Y-35875462D01*
X22119036Y-35819529D01*
X22150013Y-35802614D01*
X22282086Y-35753354D01*
X22282093Y-35753350D01*
X22397187Y-35667190D01*
X22397190Y-35667187D01*
X22483350Y-35552093D01*
X22483354Y-35552086D01*
X22533596Y-35417379D01*
X22533598Y-35417372D01*
X22539999Y-35357844D01*
X22540000Y-35357827D01*
X22540000Y-34710000D01*
X21623012Y-34710000D01*
X21655925Y-34652993D01*
X21690000Y-34525826D01*
X21690000Y-34394174D01*
X21655925Y-34267007D01*
X21623012Y-34210000D01*
X22540000Y-34210000D01*
X22540000Y-33562172D01*
X22539999Y-33562155D01*
X22533598Y-33502627D01*
X22533596Y-33502620D01*
X22483354Y-33367913D01*
X22483350Y-33367906D01*
X22397190Y-33252812D01*
X22397187Y-33252809D01*
X22282093Y-33166649D01*
X22282086Y-33166645D01*
X22147379Y-33116403D01*
X22147372Y-33116401D01*
X22087844Y-33110000D01*
X21440000Y-33110000D01*
X21440000Y-34026988D01*
X21382993Y-33994075D01*
X21255826Y-33960000D01*
X21124174Y-33960000D01*
X20997007Y-33994075D01*
X20940000Y-34026988D01*
X20940000Y-33110000D01*
X20292155Y-33110000D01*
X20232627Y-33116401D01*
X20232620Y-33116403D01*
X20097913Y-33166645D01*
X20097906Y-33166649D01*
X19982812Y-33252809D01*
X19982809Y-33252812D01*
X19896649Y-33367906D01*
X19896645Y-33367913D01*
X19846403Y-33502620D01*
X19846401Y-33502627D01*
X19840000Y-33562155D01*
X4759999Y-33562155D01*
X4753598Y-33502627D01*
X4753596Y-33502620D01*
X4703354Y-33367913D01*
X4703350Y-33367906D01*
X4617190Y-33252812D01*
X4617187Y-33252809D01*
X4502093Y-33166649D01*
X4502086Y-33166645D01*
X4367379Y-33116403D01*
X4367372Y-33116401D01*
X4307844Y-33110000D01*
X3660000Y-33110000D01*
X3660000Y-34026988D01*
X3602993Y-33994075D01*
X3475826Y-33960000D01*
X3344174Y-33960000D01*
X3217007Y-33994075D01*
X3160000Y-34026988D01*
X3160000Y-33110000D01*
X2512155Y-33110000D01*
X2452627Y-33116401D01*
X2452620Y-33116403D01*
X2317913Y-33166645D01*
X2317906Y-33166649D01*
X2202812Y-33252809D01*
X2202809Y-33252812D01*
X2116649Y-33367906D01*
X2116645Y-33367913D01*
X2066403Y-33502620D01*
X2066401Y-33502627D01*
X2060000Y-33562155D01*
X1200500Y-33562155D01*
X1200500Y-30024000D01*
X1220185Y-29956961D01*
X1272989Y-29911206D01*
X1324500Y-29900000D01*
X4480500Y-29900000D01*
X4547539Y-29919685D01*
G37*
%TD.AperFunction*%
%TD*%
%TA.AperFunction,Conductor*%
%TO.N,/PA2*%
G36*
X15021001Y-48394434D02*
G01*
X16341286Y-48880124D01*
X16423861Y-48910501D01*
X16430443Y-48916574D01*
X16430803Y-48925521D01*
X16430636Y-48925948D01*
X16112562Y-49696214D01*
X16106237Y-49702553D01*
X16106214Y-49702562D01*
X15335948Y-50020636D01*
X15326993Y-50020627D01*
X15320668Y-50014288D01*
X15320501Y-50013861D01*
X15203649Y-49696214D01*
X14804435Y-48611004D01*
X14804795Y-48602059D01*
X14807140Y-48598697D01*
X15008695Y-48397142D01*
X15016967Y-48393716D01*
X15021001Y-48394434D01*
G37*
%TD.AperFunction*%
%TD*%
%TA.AperFunction,Conductor*%
%TO.N,/TX*%
G36*
X9758817Y-22453427D02*
G01*
X9761984Y-22459246D01*
X9848171Y-22861004D01*
X9846555Y-22869812D01*
X9841247Y-22874251D01*
X9614516Y-22969110D01*
X9605561Y-22969142D01*
X9605484Y-22969110D01*
X9378752Y-22874251D01*
X9372443Y-22867897D01*
X9371828Y-22861005D01*
X9458016Y-22459244D01*
X9463102Y-22451876D01*
X9469456Y-22450000D01*
X9750544Y-22450000D01*
X9758817Y-22453427D01*
G37*
%TD.AperFunction*%
%TD*%
M02*
