%TF.GenerationSoftware,KiCad,Pcbnew,8.0.8*%
%TF.CreationDate,2025-02-23T10:22:01-05:00*%
%TF.ProjectId,attinyx12_dev,61747469-6e79-4783-9132-5f6465762e6b,rev?*%
%TF.SameCoordinates,Original*%
%TF.FileFunction,Soldermask,Top*%
%TF.FilePolarity,Negative*%
%FSLAX46Y46*%
G04 Gerber Fmt 4.6, Leading zero omitted, Abs format (unit mm)*
G04 Created by KiCad (PCBNEW 8.0.8) date 2025-02-23 10:22:01*
%MOMM*%
%LPD*%
G01*
G04 APERTURE LIST*
G04 Aperture macros list*
%AMRoundRect*
0 Rectangle with rounded corners*
0 $1 Rounding radius*
0 $2 $3 $4 $5 $6 $7 $8 $9 X,Y pos of 4 corners*
0 Add a 4 corners polygon primitive as box body*
4,1,4,$2,$3,$4,$5,$6,$7,$8,$9,$2,$3,0*
0 Add four circle primitives for the rounded corners*
1,1,$1+$1,$2,$3*
1,1,$1+$1,$4,$5*
1,1,$1+$1,$6,$7*
1,1,$1+$1,$8,$9*
0 Add four rect primitives between the rounded corners*
20,1,$1+$1,$2,$3,$4,$5,0*
20,1,$1+$1,$4,$5,$6,$7,0*
20,1,$1+$1,$6,$7,$8,$9,0*
20,1,$1+$1,$8,$9,$2,$3,0*%
G04 Aperture macros list end*
%ADD10RoundRect,0.218750X-0.218750X-0.256250X0.218750X-0.256250X0.218750X0.256250X-0.218750X0.256250X0*%
%ADD11RoundRect,0.225000X0.225000X0.250000X-0.225000X0.250000X-0.225000X-0.250000X0.225000X-0.250000X0*%
%ADD12RoundRect,0.200000X0.200000X0.275000X-0.200000X0.275000X-0.200000X-0.275000X0.200000X-0.275000X0*%
%ADD13RoundRect,0.150000X-0.825000X-0.150000X0.825000X-0.150000X0.825000X0.150000X-0.825000X0.150000X0*%
%ADD14RoundRect,0.150000X0.150000X-0.512500X0.150000X0.512500X-0.150000X0.512500X-0.150000X-0.512500X0*%
%ADD15R,1.200000X1.200000*%
%ADD16C,2.700000*%
%ADD17RoundRect,0.250000X-0.262500X-0.450000X0.262500X-0.450000X0.262500X0.450000X-0.262500X0.450000X0*%
%ADD18R,1.700000X1.700000*%
%ADD19O,1.700000X1.700000*%
%ADD20C,0.650000*%
%ADD21R,0.600000X1.210000*%
%ADD22R,0.600000X1.240000*%
%ADD23R,0.300000X1.240000*%
%ADD24O,1.000000X2.100000*%
%ADD25O,1.000000X1.800000*%
%ADD26RoundRect,0.150000X-0.150000X0.687500X-0.150000X-0.687500X0.150000X-0.687500X0.150000X0.687500X0*%
%ADD27R,3.300000X2.100000*%
%ADD28RoundRect,0.243750X-0.243750X-0.456250X0.243750X-0.456250X0.243750X0.456250X-0.243750X0.456250X0*%
%ADD29RoundRect,0.225000X-0.225000X-0.250000X0.225000X-0.250000X0.225000X0.250000X-0.225000X0.250000X0*%
%ADD30RoundRect,0.225000X-0.250000X0.225000X-0.250000X-0.225000X0.250000X-0.225000X0.250000X0.225000X0*%
G04 APERTURE END LIST*
D10*
%TO.C,D1*%
X3212500Y-9520000D03*
X4787500Y-9520000D03*
%TD*%
D11*
%TO.C,C2*%
X7935000Y-15300000D03*
X6385000Y-15300000D03*
%TD*%
D12*
%TO.C,R4*%
X18255000Y-14740000D03*
X16605000Y-14740000D03*
%TD*%
D13*
%TO.C,U2*%
X9825000Y-34995000D03*
X9825000Y-36265000D03*
X9825000Y-37535000D03*
X9825000Y-38805000D03*
X14775000Y-38805000D03*
X14775000Y-37535000D03*
X14775000Y-36265000D03*
X14775000Y-34995000D03*
%TD*%
D12*
%TO.C,R2*%
X18255000Y-13030000D03*
X16605000Y-13030000D03*
%TD*%
D14*
%TO.C,U1*%
X11350000Y-12187500D03*
X12300000Y-12187500D03*
X13250000Y-12187500D03*
X13250000Y-9912500D03*
X12300000Y-9912500D03*
X11350000Y-9912500D03*
%TD*%
D15*
%TO.C,D3*%
X19597500Y-18970000D03*
X16797500Y-18970000D03*
%TD*%
D12*
%TO.C,R3*%
X18255000Y-11320000D03*
X16605000Y-11320000D03*
%TD*%
D16*
%TO.C,H2*%
X20600000Y-4000000D03*
%TD*%
D17*
%TO.C,R5*%
X17857500Y-16670000D03*
X19682500Y-16670000D03*
%TD*%
D18*
%TO.C,J4*%
X5955000Y-30875000D03*
D19*
X5955000Y-28335000D03*
X8495000Y-30875000D03*
X8495000Y-28335000D03*
X11035000Y-30875000D03*
X11035000Y-28335000D03*
X13575000Y-30875000D03*
X13575000Y-28335000D03*
X16115000Y-30875000D03*
X16115000Y-28335000D03*
X18655000Y-30875000D03*
X18655000Y-28335000D03*
%TD*%
D11*
%TO.C,C5*%
X12865000Y-22140000D03*
X11315000Y-22140000D03*
%TD*%
D20*
%TO.C,J1*%
X15190000Y-6505000D03*
X9410000Y-6505000D03*
D21*
X15500000Y-7640000D03*
D22*
X14700000Y-7625000D03*
D23*
X13550000Y-7625000D03*
X12550000Y-7625000D03*
X12050000Y-7625000D03*
X11050000Y-7625000D03*
D22*
X9900000Y-7625000D03*
D21*
X9100000Y-7640000D03*
X9100000Y-7640000D03*
D22*
X9900000Y-7625000D03*
D23*
X10550000Y-7625000D03*
X11550000Y-7625000D03*
X13050000Y-7625000D03*
X14050000Y-7625000D03*
D22*
X14700000Y-7625000D03*
D21*
X15500000Y-7640000D03*
D24*
X16620000Y-7025000D03*
D25*
X16620000Y-2825000D03*
D24*
X7980000Y-7025000D03*
D25*
X7980000Y-2825000D03*
%TD*%
D10*
%TO.C,D4*%
X19812500Y-9520000D03*
X21387500Y-9520000D03*
%TD*%
D11*
%TO.C,C1*%
X7935000Y-13590000D03*
X6385000Y-13590000D03*
%TD*%
D15*
%TO.C,D2*%
X7940000Y-21640000D03*
X7940000Y-18840000D03*
%TD*%
D16*
%TO.C,H1*%
X4000000Y-4000000D03*
%TD*%
D26*
%TO.C,U3*%
X14310000Y-14800000D03*
X13310000Y-14800000D03*
X12310000Y-14800000D03*
X11310000Y-14800000D03*
X10310000Y-14800000D03*
X10310000Y-20075000D03*
X11310000Y-20075000D03*
X12310000Y-20075000D03*
X13310000Y-20075000D03*
X14310000Y-20075000D03*
D27*
X12310000Y-17437500D03*
%TD*%
D28*
%TO.C,F1*%
X6022500Y-11660000D03*
X7897500Y-11660000D03*
%TD*%
D12*
%TO.C,R1*%
X7985000Y-17010000D03*
X6335000Y-17010000D03*
%TD*%
D29*
%TO.C,C4*%
X16655000Y-21050000D03*
X18205000Y-21050000D03*
%TD*%
D30*
%TO.C,C3*%
X7370000Y-34995000D03*
X7370000Y-36545000D03*
%TD*%
D18*
%TO.C,J6*%
X21190000Y-34460000D03*
D19*
X21190000Y-37000000D03*
%TD*%
D18*
%TO.C,J5*%
X3410000Y-34460000D03*
D19*
X3410000Y-37000000D03*
%TD*%
D18*
%TO.C,J2*%
X8490000Y-42080000D03*
D19*
X8490000Y-44620000D03*
X8490000Y-47160000D03*
X8490000Y-49700000D03*
%TD*%
%TO.C,J3*%
X16110000Y-42080000D03*
X16110000Y-44620000D03*
X16110000Y-47160000D03*
X16110000Y-49700000D03*
%TD*%
M02*
