%TF.GenerationSoftware,KiCad,Pcbnew,8.0.8*%
%TF.CreationDate,2025-02-23T09:20:06-05:00*%
%TF.ProjectId,attinyx12_dev,61747469-6e79-4783-9132-5f6465762e6b,rev?*%
%TF.SameCoordinates,Original*%
%TF.FileFunction,Copper,L1,Top*%
%TF.FilePolarity,Positive*%
%FSLAX46Y46*%
G04 Gerber Fmt 4.6, Leading zero omitted, Abs format (unit mm)*
G04 Created by KiCad (PCBNEW 8.0.8) date 2025-02-23 09:20:06*
%MOMM*%
%LPD*%
G01*
G04 APERTURE LIST*
G04 Aperture macros list*
%AMRoundRect*
0 Rectangle with rounded corners*
0 $1 Rounding radius*
0 $2 $3 $4 $5 $6 $7 $8 $9 X,Y pos of 4 corners*
0 Add a 4 corners polygon primitive as box body*
4,1,4,$2,$3,$4,$5,$6,$7,$8,$9,$2,$3,0*
0 Add four circle primitives for the rounded corners*
1,1,$1+$1,$2,$3*
1,1,$1+$1,$4,$5*
1,1,$1+$1,$6,$7*
1,1,$1+$1,$8,$9*
0 Add four rect primitives between the rounded corners*
20,1,$1+$1,$2,$3,$4,$5,0*
20,1,$1+$1,$4,$5,$6,$7,0*
20,1,$1+$1,$6,$7,$8,$9,0*
20,1,$1+$1,$8,$9,$2,$3,0*%
G04 Aperture macros list end*
%TA.AperFunction,SMDPad,CuDef*%
%ADD10RoundRect,0.218750X-0.218750X-0.256250X0.218750X-0.256250X0.218750X0.256250X-0.218750X0.256250X0*%
%TD*%
%TA.AperFunction,SMDPad,CuDef*%
%ADD11RoundRect,0.225000X0.225000X0.250000X-0.225000X0.250000X-0.225000X-0.250000X0.225000X-0.250000X0*%
%TD*%
%TA.AperFunction,SMDPad,CuDef*%
%ADD12RoundRect,0.200000X0.200000X0.275000X-0.200000X0.275000X-0.200000X-0.275000X0.200000X-0.275000X0*%
%TD*%
%TA.AperFunction,SMDPad,CuDef*%
%ADD13RoundRect,0.150000X-0.825000X-0.150000X0.825000X-0.150000X0.825000X0.150000X-0.825000X0.150000X0*%
%TD*%
%TA.AperFunction,SMDPad,CuDef*%
%ADD14RoundRect,0.150000X0.150000X-0.512500X0.150000X0.512500X-0.150000X0.512500X-0.150000X-0.512500X0*%
%TD*%
%TA.AperFunction,SMDPad,CuDef*%
%ADD15R,1.200000X1.200000*%
%TD*%
%TA.AperFunction,SMDPad,CuDef*%
%ADD16RoundRect,0.250000X-0.262500X-0.450000X0.262500X-0.450000X0.262500X0.450000X-0.262500X0.450000X0*%
%TD*%
%TA.AperFunction,ComponentPad*%
%ADD17R,1.700000X1.700000*%
%TD*%
%TA.AperFunction,ComponentPad*%
%ADD18O,1.700000X1.700000*%
%TD*%
%TA.AperFunction,SMDPad,CuDef*%
%ADD19R,0.600000X1.210000*%
%TD*%
%TA.AperFunction,SMDPad,CuDef*%
%ADD20R,0.600000X1.240000*%
%TD*%
%TA.AperFunction,SMDPad,CuDef*%
%ADD21R,0.300000X1.240000*%
%TD*%
%TA.AperFunction,ComponentPad*%
%ADD22O,1.000000X2.100000*%
%TD*%
%TA.AperFunction,ComponentPad*%
%ADD23O,1.000000X1.800000*%
%TD*%
%TA.AperFunction,SMDPad,CuDef*%
%ADD24RoundRect,0.150000X-0.150000X0.687500X-0.150000X-0.687500X0.150000X-0.687500X0.150000X0.687500X0*%
%TD*%
%TA.AperFunction,HeatsinkPad*%
%ADD25R,3.300000X2.100000*%
%TD*%
%TA.AperFunction,SMDPad,CuDef*%
%ADD26RoundRect,0.243750X-0.243750X-0.456250X0.243750X-0.456250X0.243750X0.456250X-0.243750X0.456250X0*%
%TD*%
%TA.AperFunction,SMDPad,CuDef*%
%ADD27RoundRect,0.225000X-0.225000X-0.250000X0.225000X-0.250000X0.225000X0.250000X-0.225000X0.250000X0*%
%TD*%
%TA.AperFunction,SMDPad,CuDef*%
%ADD28RoundRect,0.225000X-0.250000X0.225000X-0.250000X-0.225000X0.250000X-0.225000X0.250000X0.225000X0*%
%TD*%
%TA.AperFunction,ViaPad*%
%ADD29C,0.600000*%
%TD*%
%TA.AperFunction,ViaPad*%
%ADD30C,0.800000*%
%TD*%
%TA.AperFunction,ViaPad*%
%ADD31C,0.450000*%
%TD*%
%TA.AperFunction,Conductor*%
%ADD32C,0.500000*%
%TD*%
%TA.AperFunction,Conductor*%
%ADD33C,0.300000*%
%TD*%
%TA.AperFunction,Conductor*%
%ADD34C,0.250000*%
%TD*%
%TA.AperFunction,Conductor*%
%ADD35C,0.200000*%
%TD*%
G04 APERTURE END LIST*
D10*
%TO.P,D1,1,K*%
%TO.N,GND*%
X3212500Y-9520000D03*
%TO.P,D1,2,A*%
%TO.N,Net-(D1-A)*%
X4787500Y-9520000D03*
%TD*%
D11*
%TO.P,C2,1*%
%TO.N,VBUS*%
X7935000Y-15300000D03*
%TO.P,C2,2*%
%TO.N,GND*%
X6385000Y-15300000D03*
%TD*%
D12*
%TO.P,R4,1*%
%TO.N,Net-(D4-K)*%
X18255000Y-14740000D03*
%TO.P,R4,2*%
%TO.N,GND*%
X16605000Y-14740000D03*
%TD*%
D13*
%TO.P,U2,1,VCC*%
%TO.N,+5VA*%
X9825000Y-34995000D03*
%TO.P,U2,2,PA6*%
%TO.N,/PA6*%
X9825000Y-36265000D03*
%TO.P,U2,3,PA7*%
%TO.N,/PA7*%
X9825000Y-37535000D03*
%TO.P,U2,4,PA1*%
%TO.N,/PA1*%
X9825000Y-38805000D03*
%TO.P,U2,5,PA2*%
%TO.N,/PA2*%
X14775000Y-38805000D03*
%TO.P,U2,6,~{RESET}/PA0*%
%TO.N,/PA0*%
X14775000Y-37535000D03*
%TO.P,U2,7,PA3*%
%TO.N,/PA3*%
X14775000Y-36265000D03*
%TO.P,U2,8,GND*%
%TO.N,GND1*%
X14775000Y-34995000D03*
%TD*%
D12*
%TO.P,R2,1*%
%TO.N,Net-(J1-CC1)*%
X18255000Y-13030000D03*
%TO.P,R2,2*%
%TO.N,GND*%
X16605000Y-13030000D03*
%TD*%
D14*
%TO.P,U1,1,I/O1*%
%TO.N,/UD+*%
X11350000Y-12187500D03*
%TO.P,U1,2,GND*%
%TO.N,GND*%
X12300000Y-12187500D03*
%TO.P,U1,3,I/O2*%
%TO.N,/UD-*%
X13250000Y-12187500D03*
%TO.P,U1,4,I/O2*%
%TO.N,/D-*%
X13250000Y-9912500D03*
%TO.P,U1,5,VBUS*%
%TO.N,VBUS*%
X12300000Y-9912500D03*
%TO.P,U1,6,I/O1*%
%TO.N,/D+*%
X11350000Y-9912500D03*
%TD*%
D15*
%TO.P,D3,1,K*%
%TO.N,Net-(D3-K)*%
X19597500Y-18970000D03*
%TO.P,D3,2,A*%
%TO.N,Net-(D3-A)*%
X16797500Y-18970000D03*
%TD*%
D12*
%TO.P,R3,1*%
%TO.N,Net-(J1-CC2)*%
X18255000Y-11320000D03*
%TO.P,R3,2*%
%TO.N,GND*%
X16605000Y-11320000D03*
%TD*%
D16*
%TO.P,R5,1*%
%TO.N,Net-(D3-A)*%
X17857500Y-16670000D03*
%TO.P,R5,2*%
%TO.N,/UPDI*%
X19682500Y-16670000D03*
%TD*%
D17*
%TO.P,J4,1,Pin_1*%
%TO.N,+5VA*%
X5955000Y-30875000D03*
D18*
%TO.P,J4,2,Pin_2*%
%TO.N,+5V*%
X5955000Y-28335000D03*
%TO.P,J4,3,Pin_3*%
%TO.N,/PA7*%
X8495000Y-30875000D03*
%TO.P,J4,4,Pin_4*%
%TO.N,/TX*%
X8495000Y-28335000D03*
%TO.P,J4,5,Pin_5*%
%TO.N,/PA6*%
X11035000Y-30875000D03*
%TO.P,J4,6,Pin_6*%
%TO.N,/RX*%
X11035000Y-28335000D03*
%TO.P,J4,7,Pin_7*%
%TO.N,/PA0*%
X13575000Y-30875000D03*
%TO.P,J4,8,Pin_8*%
%TO.N,/UPDI*%
X13575000Y-28335000D03*
%TO.P,J4,9,Pin_9*%
%TO.N,/PA3*%
X16115000Y-30875000D03*
%TO.P,J4,10,Pin_10*%
%TO.N,/LED*%
X16115000Y-28335000D03*
%TO.P,J4,11,Pin_11*%
%TO.N,GND1*%
X18655000Y-30875000D03*
%TO.P,J4,12,Pin_12*%
%TO.N,GND*%
X18655000Y-28335000D03*
%TD*%
D11*
%TO.P,C5,1*%
%TO.N,GND*%
X12865000Y-22140000D03*
%TO.P,C5,2*%
%TO.N,+5V*%
X11315000Y-22140000D03*
%TD*%
D19*
%TO.P,J1,A1,GND*%
%TO.N,GND*%
X15500000Y-7640000D03*
D20*
%TO.P,J1,A4,VBUS*%
%TO.N,Net-(F1-Pad1)*%
X14700000Y-7625000D03*
D21*
%TO.P,J1,A5,CC1*%
%TO.N,Net-(J1-CC1)*%
X13550000Y-7625000D03*
%TO.P,J1,A6,D+*%
%TO.N,/D+*%
X12550000Y-7625000D03*
%TO.P,J1,A7,D-*%
%TO.N,/D-*%
X12050000Y-7625000D03*
%TO.P,J1,A8,SBU1*%
%TO.N,unconnected-(J1-SBU1-PadA8)*%
X11050000Y-7625000D03*
D20*
%TO.P,J1,A9,VBUS*%
%TO.N,Net-(F1-Pad1)*%
X9900000Y-7625000D03*
D19*
%TO.P,J1,A12,GND*%
%TO.N,GND*%
X9100000Y-7640000D03*
%TO.P,J1,B1,GND*%
X9100000Y-7640000D03*
D20*
%TO.P,J1,B4,VBUS*%
%TO.N,Net-(F1-Pad1)*%
X9900000Y-7625000D03*
D21*
%TO.P,J1,B5,CC2*%
%TO.N,Net-(J1-CC2)*%
X10550000Y-7625000D03*
%TO.P,J1,B6,D+*%
%TO.N,/D+*%
X11550000Y-7625000D03*
%TO.P,J1,B7,D-*%
%TO.N,/D-*%
X13050000Y-7625000D03*
%TO.P,J1,B8,SBU2*%
%TO.N,unconnected-(J1-SBU2-PadB8)*%
X14050000Y-7625000D03*
D20*
%TO.P,J1,B9,VBUS*%
%TO.N,Net-(F1-Pad1)*%
X14700000Y-7625000D03*
D19*
%TO.P,J1,B12,GND*%
%TO.N,GND*%
X15500000Y-7640000D03*
D22*
%TO.P,J1,S1,SHIELD*%
X16620000Y-7025000D03*
D23*
X16620000Y-2825000D03*
D22*
X7980000Y-7025000D03*
D23*
X7980000Y-2825000D03*
%TD*%
D10*
%TO.P,D4,1,K*%
%TO.N,Net-(D4-K)*%
X19812500Y-9520000D03*
%TO.P,D4,2,A*%
%TO.N,/LED*%
X21387500Y-9520000D03*
%TD*%
D11*
%TO.P,C1,1*%
%TO.N,VBUS*%
X7935000Y-13590000D03*
%TO.P,C1,2*%
%TO.N,GND*%
X6385000Y-13590000D03*
%TD*%
D15*
%TO.P,D2,1,K*%
%TO.N,+5V*%
X7940000Y-21640000D03*
%TO.P,D2,2,A*%
%TO.N,VBUS*%
X7940000Y-18840000D03*
%TD*%
D24*
%TO.P,U3,1,UD+*%
%TO.N,/UD+*%
X14310000Y-14800000D03*
%TO.P,U3,2,UD-*%
%TO.N,/UD-*%
X13310000Y-14800000D03*
%TO.P,U3,3,GND*%
%TO.N,GND*%
X12310000Y-14800000D03*
%TO.P,U3,4,Vcc*%
%TO.N,VBUS*%
X11310000Y-14800000D03*
%TO.P,U3,5,TXD1*%
%TO.N,/TX*%
X10310000Y-14800000D03*
%TO.P,U3,6,RXD1*%
%TO.N,/RX*%
X10310000Y-20075000D03*
%TO.P,U3,7,VIO*%
%TO.N,+5V*%
X11310000Y-20075000D03*
%TO.P,U3,8,TXD0*%
%TO.N,Net-(D3-K)*%
X12310000Y-20075000D03*
%TO.P,U3,9,RXD0*%
%TO.N,Net-(D3-A)*%
X13310000Y-20075000D03*
%TO.P,U3,10,V3*%
%TO.N,Net-(U3-V3)*%
X14310000Y-20075000D03*
D25*
%TO.P,U3,11,GND*%
%TO.N,GND*%
X12310000Y-17437500D03*
%TD*%
D26*
%TO.P,F1,1*%
%TO.N,Net-(F1-Pad1)*%
X6022500Y-11660000D03*
%TO.P,F1,2*%
%TO.N,VBUS*%
X7897500Y-11660000D03*
%TD*%
D12*
%TO.P,R1,1*%
%TO.N,VBUS*%
X7985000Y-17010000D03*
%TO.P,R1,2*%
%TO.N,Net-(D1-A)*%
X6335000Y-17010000D03*
%TD*%
D27*
%TO.P,C4,1*%
%TO.N,Net-(U3-V3)*%
X16655000Y-21050000D03*
%TO.P,C4,2*%
%TO.N,GND*%
X18205000Y-21050000D03*
%TD*%
D28*
%TO.P,C3,1*%
%TO.N,+5VA*%
X7370000Y-34995000D03*
%TO.P,C3,2*%
%TO.N,GND1*%
X7370000Y-36545000D03*
%TD*%
D17*
%TO.P,J6,1,Pin_1*%
%TO.N,GND1*%
X21190000Y-34460000D03*
D18*
%TO.P,J6,2,Pin_2*%
X21190000Y-37000000D03*
%TD*%
D17*
%TO.P,J5,1,Pin_1*%
%TO.N,GND1*%
X3410000Y-34460000D03*
D18*
%TO.P,J5,2,Pin_2*%
X3410000Y-37000000D03*
%TD*%
D17*
%TO.P,J2,1,Pin_1*%
%TO.N,+5VA*%
X8490000Y-42080000D03*
D18*
%TO.P,J2,2,Pin_2*%
%TO.N,/PA6*%
X8490000Y-44620000D03*
%TO.P,J2,3,Pin_3*%
%TO.N,/PA7*%
X8490000Y-47160000D03*
%TO.P,J2,4,Pin_4*%
%TO.N,/PA1*%
X8490000Y-49700000D03*
%TD*%
%TO.P,J3,1,Pin_1*%
%TO.N,GND1*%
X16110000Y-42080000D03*
%TO.P,J3,2,Pin_2*%
%TO.N,/PA3*%
X16110000Y-44620000D03*
%TO.P,J3,3,Pin_3*%
%TO.N,/PA0*%
X16110000Y-47160000D03*
%TO.P,J3,4,Pin_4*%
%TO.N,/PA2*%
X16110000Y-49700000D03*
%TD*%
D29*
%TO.N,GND*%
X13650000Y-22880000D03*
D30*
X12310000Y-17437500D03*
X11310000Y-17437500D03*
D29*
X5230000Y-15300000D03*
X8600000Y-8870000D03*
X5230000Y-13580000D03*
X19420000Y-21050000D03*
X3200000Y-10690000D03*
X15500000Y-13020000D03*
D30*
X13310000Y-17437500D03*
D29*
X15500000Y-14740000D03*
X15510000Y-11320000D03*
X16000000Y-8870000D03*
%TO.N,GND1*%
X7370000Y-37700000D03*
X16460000Y-35000000D03*
D31*
%TO.N,/PA1*%
X9984999Y-42785001D03*
%TO.N,/PA6*%
X12194000Y-41400000D03*
X11044001Y-42539172D03*
%TO.N,/PA7*%
X11619000Y-37530000D03*
X11619000Y-35690000D03*
%TO.N,/PA2*%
X13919000Y-41568413D03*
%TO.N,/PA3*%
X13344000Y-36250000D03*
X13344000Y-38110000D03*
%TO.N,/TX*%
X9610000Y-22815000D03*
X9610000Y-21465000D03*
%TO.N,/RX*%
X10310000Y-21465000D03*
X10310000Y-22815000D03*
D29*
%TO.N,Net-(F1-Pad1)*%
X9910000Y-8960000D03*
X14700000Y-8960000D03*
D31*
%TO.N,/UD+*%
X11625000Y-13194591D03*
X14310000Y-13480000D03*
%TD*%
D32*
%TO.N,VBUS*%
X7935000Y-13590000D02*
X7935000Y-11697500D01*
X10988315Y-13512500D02*
X8012500Y-13512500D01*
X8482500Y-11075000D02*
X11875000Y-11075000D01*
X11875000Y-11075000D02*
X12300000Y-10650000D01*
X11310000Y-13834185D02*
X10988315Y-13512500D01*
X7985000Y-18795000D02*
X7940000Y-18840000D01*
X7935000Y-13590000D02*
X7935000Y-15300000D01*
X7935000Y-16960000D02*
X7985000Y-17010000D01*
X7985000Y-17010000D02*
X7985000Y-18795000D01*
X8012500Y-13512500D02*
X7935000Y-13590000D01*
X7897500Y-11660000D02*
X8482500Y-11075000D01*
X7935000Y-15300000D02*
X7935000Y-16960000D01*
X12300000Y-10650000D02*
X12300000Y-9912500D01*
X11310000Y-14800000D02*
X11310000Y-13834185D01*
X7935000Y-11697500D02*
X7897500Y-11660000D01*
%TO.N,GND*%
X16605000Y-13030000D02*
X15510000Y-13030000D01*
X6385000Y-13590000D02*
X5240000Y-13590000D01*
X15500000Y-7625000D02*
X15500000Y-8370000D01*
X16605000Y-14740000D02*
X15500000Y-14740000D01*
X16605000Y-11320000D02*
X15510000Y-11320000D01*
X12910000Y-22140000D02*
X12865000Y-22140000D01*
X3212500Y-10677500D02*
X3200000Y-10690000D01*
X18205000Y-21050000D02*
X19420000Y-21050000D01*
X3212500Y-9520000D02*
X3212500Y-10677500D01*
X12300000Y-14790000D02*
X12310000Y-14800000D01*
X15500000Y-8370000D02*
X16000000Y-8870000D01*
X9100000Y-8370000D02*
X8600000Y-8870000D01*
X12310000Y-14800000D02*
X12310000Y-17437500D01*
X13650000Y-22880000D02*
X12910000Y-22140000D01*
X5240000Y-13590000D02*
X5230000Y-13580000D01*
X9100000Y-7625000D02*
X9100000Y-8370000D01*
X6385000Y-15300000D02*
X5230000Y-15300000D01*
X12300000Y-12187500D02*
X12300000Y-14790000D01*
%TO.N,+5V*%
X7940000Y-21640000D02*
X7940000Y-23732082D01*
X5955000Y-28335000D02*
X5955000Y-25717082D01*
X11315000Y-22140000D02*
X8440000Y-22140000D01*
X5955000Y-25717082D02*
X7940000Y-23732082D01*
X8440000Y-22140000D02*
X7940000Y-21640000D01*
X11310000Y-22135000D02*
X11315000Y-22140000D01*
X11310000Y-20075000D02*
X11310000Y-22135000D01*
%TO.N,Net-(U3-V3)*%
X14310000Y-20830000D02*
X14310000Y-20075000D01*
X16655000Y-21050000D02*
X14530000Y-21050000D01*
X14530000Y-21050000D02*
X14310000Y-20830000D01*
%TO.N,GND1*%
X7370000Y-36545000D02*
X7370000Y-37700000D01*
X14775000Y-34995000D02*
X16455000Y-34995000D01*
X16455000Y-34995000D02*
X16460000Y-35000000D01*
D33*
%TO.N,Net-(D3-A)*%
X13310000Y-20075000D02*
X13310000Y-19237501D01*
X16707500Y-18880000D02*
X16797500Y-18970000D01*
X13310000Y-19237501D02*
X13667501Y-18880000D01*
X16797500Y-18970000D02*
X16797500Y-17730000D01*
X16797500Y-17730000D02*
X17857500Y-16670000D01*
X13667501Y-18880000D02*
X16707500Y-18880000D01*
%TO.N,Net-(D3-K)*%
X14662035Y-21875000D02*
X19514239Y-21875000D01*
X19514239Y-21875000D02*
X20070000Y-21319239D01*
X12310000Y-20075000D02*
X12310000Y-20912499D01*
X12712501Y-21315000D02*
X14102035Y-21315000D01*
X12310000Y-20912499D02*
X12712501Y-21315000D01*
X14102035Y-21315000D02*
X14662035Y-21875000D01*
X20070000Y-21319239D02*
X20070000Y-19442500D01*
X20070000Y-19442500D02*
X19597500Y-18970000D01*
D34*
%TO.N,Net-(J1-CC1)*%
X13550000Y-6705000D02*
X13550000Y-7625000D01*
X14615000Y-5640000D02*
X13550000Y-6705000D01*
X17040000Y-5640000D02*
X14615000Y-5640000D01*
X18255000Y-13030000D02*
X17470000Y-12245000D01*
X17470000Y-12245000D02*
X17470000Y-6070000D01*
X17470000Y-6070000D02*
X17040000Y-5640000D01*
%TO.N,Net-(J1-CC2)*%
X17810000Y-5929167D02*
X17180833Y-5300000D01*
X11920000Y-5300000D02*
X10550000Y-6670000D01*
X18255000Y-11320000D02*
X17810000Y-10875000D01*
X17180833Y-5300000D02*
X11920000Y-5300000D01*
X10550000Y-6670000D02*
X10550000Y-7625000D01*
X17810000Y-10875000D02*
X17810000Y-5929167D01*
D33*
%TO.N,/PA1*%
X9825000Y-38805000D02*
X10995000Y-38805000D01*
X10995000Y-38805000D02*
X11229000Y-39039000D01*
X11229000Y-39039000D02*
X11229000Y-41541000D01*
X11229000Y-41541000D02*
X9984999Y-42785001D01*
%TO.N,/PA6*%
X12189000Y-36265000D02*
X12189000Y-36101000D01*
X12189000Y-36265000D02*
X12194000Y-36270000D01*
X9825000Y-36265000D02*
X12189000Y-36265000D01*
X12194000Y-36096000D02*
X12194000Y-32034000D01*
X8490000Y-44620000D02*
X8963173Y-44620000D01*
X12194000Y-41400000D02*
X12194000Y-36270000D01*
X12194000Y-32034000D02*
X11035000Y-30875000D01*
X8963173Y-44620000D02*
X11044001Y-42539172D01*
X12189000Y-36101000D02*
X12194000Y-36096000D01*
%TO.N,/PA7*%
X11619000Y-33999000D02*
X8495000Y-30875000D01*
X9825000Y-37535000D02*
X11614000Y-37535000D01*
X11619000Y-35690000D02*
X11619000Y-33999000D01*
X11614000Y-37535000D02*
X11619000Y-37530000D01*
X11619000Y-44031000D02*
X8490000Y-47160000D01*
X11619000Y-37530000D02*
X11619000Y-44031000D01*
%TO.N,/UPDI*%
X15725000Y-26185000D02*
X13575000Y-28335000D01*
X15725000Y-23263456D02*
X15725000Y-26185000D01*
X16688456Y-22300000D02*
X15725000Y-23263456D01*
X19640783Y-22300000D02*
X16688456Y-22300000D01*
X20547500Y-21393283D02*
X19640783Y-22300000D01*
X20547500Y-17535000D02*
X20547500Y-21393283D01*
X19682500Y-16670000D02*
X20547500Y-17535000D01*
%TO.N,/PA2*%
X13919000Y-39661000D02*
X13919000Y-41568413D01*
X14775000Y-38805000D02*
X13919000Y-39661000D01*
%TO.N,/PA3*%
X14775000Y-36265000D02*
X13359000Y-36265000D01*
X13344000Y-33646000D02*
X16115000Y-30875000D01*
X13344000Y-41854000D02*
X16110000Y-44620000D01*
X13359000Y-36265000D02*
X13344000Y-36250000D01*
X13344000Y-38110000D02*
X13344000Y-41854000D01*
X13344000Y-36250000D02*
X13344000Y-33646000D01*
D34*
%TO.N,/D-*%
X12075000Y-6680000D02*
X13025000Y-6680000D01*
D35*
X13250000Y-9912500D02*
X13050000Y-9712500D01*
D34*
X13050000Y-6705000D02*
X13050000Y-7625000D01*
X12050000Y-6705000D02*
X12075000Y-6680000D01*
D35*
X13050000Y-9712500D02*
X13050000Y-7625000D01*
D34*
X12050000Y-7625000D02*
X12050000Y-6705000D01*
X13025000Y-6680000D02*
X13050000Y-6705000D01*
%TO.N,/D+*%
X11550000Y-8545000D02*
X11575000Y-8570000D01*
X11550000Y-7625000D02*
X11550000Y-8545000D01*
X11550000Y-9712500D02*
X11350000Y-9912500D01*
X12525000Y-8570000D02*
X12550000Y-8545000D01*
X11550000Y-7625000D02*
X11550000Y-9712500D01*
X12550000Y-8545000D02*
X12550000Y-7625000D01*
X11575000Y-8570000D02*
X12525000Y-8570000D01*
D33*
%TO.N,/TX*%
X10310000Y-14800000D02*
X9920000Y-14800000D01*
X9610000Y-22815000D02*
X9610000Y-27220000D01*
X9920000Y-14800000D02*
X9610000Y-15110000D01*
X9610000Y-15110000D02*
X9610000Y-21465000D01*
X9610000Y-27220000D02*
X8495000Y-28335000D01*
%TO.N,/RX*%
X10310000Y-20075000D02*
X10310000Y-21465000D01*
X10310000Y-22815000D02*
X10310000Y-27610000D01*
X10310000Y-27610000D02*
X11035000Y-28335000D01*
D32*
%TO.N,+5VA*%
X7370000Y-32290000D02*
X7370000Y-34995000D01*
X8490000Y-42080000D02*
X8400000Y-41990000D01*
X9825000Y-34995000D02*
X8400000Y-34995000D01*
X8400000Y-34995000D02*
X7370000Y-34995000D01*
X5955000Y-30875000D02*
X7370000Y-32290000D01*
X8400000Y-41990000D02*
X8400000Y-34995000D01*
D34*
%TO.N,Net-(D1-A)*%
X7160000Y-16185000D02*
X7160000Y-13105948D01*
X7160000Y-13105948D02*
X6739052Y-12685000D01*
X5536412Y-12685000D02*
X4787500Y-11936088D01*
X4787500Y-11936088D02*
X4787500Y-9520000D01*
X6335000Y-17010000D02*
X7160000Y-16185000D01*
X6739052Y-12685000D02*
X5536412Y-12685000D01*
D33*
%TO.N,Net-(D4-K)*%
X18255000Y-14740000D02*
X19140000Y-14740000D01*
X19140000Y-14740000D02*
X19812500Y-14067500D01*
X19812500Y-14067500D02*
X19812500Y-9520000D01*
D32*
%TO.N,Net-(F1-Pad1)*%
X6520000Y-9870000D02*
X9000000Y-9870000D01*
X6022500Y-10367500D02*
X6520000Y-9870000D01*
X6022500Y-11660000D02*
X6022500Y-10367500D01*
X9900000Y-8950000D02*
X9910000Y-8960000D01*
X9000000Y-9870000D02*
X9910000Y-8960000D01*
X9900000Y-7625000D02*
X9900000Y-8950000D01*
X14700000Y-8960000D02*
X14700000Y-7625000D01*
D33*
%TO.N,/LED*%
X19802327Y-22690000D02*
X20937500Y-21554827D01*
X20937500Y-21554827D02*
X20937500Y-9970000D01*
X20937500Y-9970000D02*
X21387500Y-9520000D01*
X16850000Y-22690000D02*
X19802327Y-22690000D01*
X16115000Y-23425000D02*
X16850000Y-22690000D01*
X16115000Y-28335000D02*
X16115000Y-23425000D01*
D35*
%TO.N,/UD+*%
X14310000Y-13480000D02*
X14310000Y-14800000D01*
X11350000Y-12919591D02*
X11625000Y-13194591D01*
X11350000Y-12187500D02*
X11350000Y-12919591D01*
%TO.N,/UD-*%
X13250000Y-12187500D02*
X13250000Y-14740000D01*
X13250000Y-14740000D02*
X13310000Y-14800000D01*
D33*
%TO.N,/PA0*%
X16110000Y-47160000D02*
X12769000Y-43819000D01*
X12769000Y-43819000D02*
X12769000Y-37540000D01*
X12769000Y-31681000D02*
X13575000Y-30875000D01*
X14775000Y-37535000D02*
X12774000Y-37535000D01*
X12774000Y-37535000D02*
X12769000Y-37540000D01*
X12769000Y-37540000D02*
X12769000Y-31681000D01*
%TD*%
%TA.AperFunction,Conductor*%
%TO.N,/D+*%
G36*
X11559984Y-7667732D02*
G01*
X11561373Y-7671084D01*
X11699173Y-8241576D01*
X11699500Y-8244323D01*
X11699500Y-8247031D01*
X11699341Y-8248954D01*
X11676630Y-8385223D01*
X11671890Y-8392821D01*
X11665089Y-8395000D01*
X11434911Y-8395000D01*
X11426638Y-8391573D01*
X11423370Y-8385223D01*
X11400659Y-8248954D01*
X11400500Y-8247031D01*
X11400500Y-8244323D01*
X11400827Y-8241576D01*
X11538627Y-7671084D01*
X11543901Y-7663847D01*
X11552747Y-7662458D01*
X11559984Y-7667732D01*
G37*
%TD.AperFunction*%
%TD*%
%TA.AperFunction,Conductor*%
%TO.N,GND*%
G36*
X8812343Y-7623104D02*
G01*
X9092941Y-7638857D01*
X9101007Y-7642742D01*
X9103309Y-7646625D01*
X9314210Y-8240936D01*
X9314113Y-8249026D01*
X9159474Y-8653663D01*
X9153320Y-8660167D01*
X9144368Y-8660415D01*
X9140272Y-8657759D01*
X8802910Y-8320397D01*
X8799483Y-8312125D01*
X8799990Y-7634776D01*
X8803423Y-7626508D01*
X8811699Y-7623087D01*
X8812343Y-7623104D01*
G37*
%TD.AperFunction*%
%TD*%
%TA.AperFunction,Conductor*%
%TO.N,Net-(F1-Pad1)*%
G36*
X9905089Y-7640361D02*
G01*
X9910535Y-7645807D01*
X10198335Y-8241553D01*
X10199500Y-8246642D01*
X10199500Y-8247031D01*
X10199341Y-8248954D01*
X10151630Y-8535223D01*
X10146890Y-8542821D01*
X10140089Y-8545000D01*
X9659911Y-8545000D01*
X9651638Y-8541573D01*
X9648370Y-8535223D01*
X9600659Y-8248954D01*
X9600500Y-8247031D01*
X9600500Y-8246642D01*
X9601665Y-8241553D01*
X9889465Y-7645807D01*
X9896149Y-7639848D01*
X9905089Y-7640361D01*
G37*
%TD.AperFunction*%
%TD*%
%TA.AperFunction,Conductor*%
%TO.N,Net-(F1-Pad1)*%
G36*
X14705089Y-7640361D02*
G01*
X14710535Y-7645807D01*
X14998335Y-8241553D01*
X14999500Y-8246642D01*
X14999500Y-8247031D01*
X14999341Y-8248954D01*
X14951630Y-8535223D01*
X14946890Y-8542821D01*
X14940089Y-8545000D01*
X14459911Y-8545000D01*
X14451638Y-8541573D01*
X14448370Y-8535223D01*
X14400659Y-8248954D01*
X14400500Y-8247031D01*
X14400500Y-8246642D01*
X14401665Y-8241553D01*
X14689465Y-7645807D01*
X14696149Y-7639848D01*
X14705089Y-7640361D01*
G37*
%TD.AperFunction*%
%TD*%
%TA.AperFunction,Conductor*%
%TO.N,Net-(J1-CC2)*%
G36*
X10673362Y-6858427D02*
G01*
X10676630Y-6864777D01*
X10699341Y-7001046D01*
X10699500Y-7002969D01*
X10699500Y-7005676D01*
X10699173Y-7008423D01*
X10561373Y-7578915D01*
X10556099Y-7586152D01*
X10547253Y-7587541D01*
X10540016Y-7582267D01*
X10538627Y-7578915D01*
X10400827Y-7008423D01*
X10400500Y-7005676D01*
X10400500Y-7002969D01*
X10400659Y-7001046D01*
X10423370Y-6864777D01*
X10428110Y-6857179D01*
X10434911Y-6855000D01*
X10665089Y-6855000D01*
X10673362Y-6858427D01*
G37*
%TD.AperFunction*%
%TD*%
%TA.AperFunction,Conductor*%
%TO.N,/D-*%
G36*
X13173362Y-6858427D02*
G01*
X13176630Y-6864777D01*
X13199341Y-7001046D01*
X13199500Y-7002969D01*
X13199500Y-7005676D01*
X13199173Y-7008423D01*
X13061373Y-7578915D01*
X13056099Y-7586152D01*
X13047253Y-7587541D01*
X13040016Y-7582267D01*
X13038627Y-7578915D01*
X12900827Y-7008423D01*
X12900500Y-7005676D01*
X12900500Y-7002969D01*
X12900659Y-7001046D01*
X12923370Y-6864777D01*
X12928110Y-6857179D01*
X12934911Y-6855000D01*
X13165089Y-6855000D01*
X13173362Y-6858427D01*
G37*
%TD.AperFunction*%
%TD*%
%TA.AperFunction,Conductor*%
%TO.N,/D-*%
G36*
X12173362Y-6858427D02*
G01*
X12176630Y-6864777D01*
X12199341Y-7001046D01*
X12199500Y-7002969D01*
X12199500Y-7005676D01*
X12199173Y-7008423D01*
X12061373Y-7578915D01*
X12056099Y-7586152D01*
X12047253Y-7587541D01*
X12040016Y-7582267D01*
X12038627Y-7578915D01*
X11900827Y-7008423D01*
X11900500Y-7005676D01*
X11900500Y-7002969D01*
X11900659Y-7001046D01*
X11923370Y-6864777D01*
X11928110Y-6857179D01*
X11934911Y-6855000D01*
X12165089Y-6855000D01*
X12173362Y-6858427D01*
G37*
%TD.AperFunction*%
%TD*%
%TA.AperFunction,NonConductor*%
G36*
X14609199Y-6208640D02*
G01*
X14665133Y-6250511D01*
X14689550Y-6315976D01*
X14685641Y-6356914D01*
X14664500Y-6435815D01*
X14664500Y-6435817D01*
X14664500Y-6574183D01*
X14684388Y-6648409D01*
X14682726Y-6718256D01*
X14643564Y-6776119D01*
X14579336Y-6803623D01*
X14564614Y-6804500D01*
X14380252Y-6804500D01*
X14324190Y-6815651D01*
X14275810Y-6815651D01*
X14219748Y-6804500D01*
X14210189Y-6804500D01*
X14143150Y-6784815D01*
X14097395Y-6732011D01*
X14087451Y-6662853D01*
X14116476Y-6599297D01*
X14122508Y-6592819D01*
X14295794Y-6419533D01*
X14478187Y-6237139D01*
X14539508Y-6203656D01*
X14609199Y-6208640D01*
G37*
%TD.AperFunction*%
%TA.AperFunction,NonConductor*%
G36*
X13936850Y-5645185D02*
G01*
X13982605Y-5697989D01*
X13992549Y-5767147D01*
X13963524Y-5830703D01*
X13957492Y-5837181D01*
X13386786Y-6407886D01*
X13325463Y-6441371D01*
X13255771Y-6436387D01*
X13232088Y-6423271D01*
X13231900Y-6423599D01*
X13224863Y-6419536D01*
X13224862Y-6419535D01*
X13191267Y-6400139D01*
X13150640Y-6376682D01*
X13076862Y-6356914D01*
X13067853Y-6354500D01*
X12032147Y-6354500D01*
X11949362Y-6376682D01*
X11949359Y-6376683D01*
X11893198Y-6409108D01*
X11875141Y-6419533D01*
X11875135Y-6419537D01*
X11789537Y-6505135D01*
X11789533Y-6505141D01*
X11746681Y-6579361D01*
X11746682Y-6579362D01*
X11724500Y-6662147D01*
X11724500Y-6680500D01*
X11704815Y-6747539D01*
X11652011Y-6793294D01*
X11600500Y-6804500D01*
X11380252Y-6804500D01*
X11324190Y-6815651D01*
X11275810Y-6815651D01*
X11219748Y-6804500D01*
X11175188Y-6804500D01*
X11108149Y-6784815D01*
X11062394Y-6732011D01*
X11052450Y-6662853D01*
X11081475Y-6599297D01*
X11087507Y-6592819D01*
X12018507Y-5661819D01*
X12079830Y-5628334D01*
X12106188Y-5625500D01*
X13869811Y-5625500D01*
X13936850Y-5645185D01*
G37*
%TD.AperFunction*%
%TA.AperFunction,NonConductor*%
G36*
X10880249Y-8445500D02*
G01*
X11100500Y-8445500D01*
X11167539Y-8465185D01*
X11213294Y-8517989D01*
X11224500Y-8569500D01*
X11224500Y-8933842D01*
X11204815Y-9000881D01*
X11152011Y-9046636D01*
X11118378Y-9056546D01*
X11098608Y-9059426D01*
X10993514Y-9110803D01*
X10910803Y-9193514D01*
X10859426Y-9298608D01*
X10853083Y-9342146D01*
X10849500Y-9366740D01*
X10849500Y-10458260D01*
X10851507Y-10472032D01*
X10853050Y-10482624D01*
X10843235Y-10551801D01*
X10797579Y-10604690D01*
X10730576Y-10624500D01*
X8423191Y-10624500D01*
X8348546Y-10644500D01*
X8348547Y-10644501D01*
X8308611Y-10655201D01*
X8205886Y-10714511D01*
X8205883Y-10714513D01*
X8197216Y-10723181D01*
X8135893Y-10756666D01*
X8109535Y-10759500D01*
X7600232Y-10759500D01*
X7570230Y-10762313D01*
X7570218Y-10762315D01*
X7443821Y-10806544D01*
X7443819Y-10806545D01*
X7336069Y-10886069D01*
X7256545Y-10993819D01*
X7256544Y-10993821D01*
X7212315Y-11120218D01*
X7212313Y-11120230D01*
X7209500Y-11150231D01*
X7209500Y-12169768D01*
X7212313Y-12199769D01*
X7212315Y-12199781D01*
X7256544Y-12326178D01*
X7256545Y-12326180D01*
X7336069Y-12433930D01*
X7391575Y-12474895D01*
X7434134Y-12506306D01*
X7476384Y-12561953D01*
X7484500Y-12606075D01*
X7484500Y-12670759D01*
X7464815Y-12737798D01*
X7412011Y-12783553D01*
X7342853Y-12793497D01*
X7279297Y-12764472D01*
X7272819Y-12758440D01*
X6938916Y-12424537D01*
X6938914Y-12424535D01*
X6894479Y-12398880D01*
X6864692Y-12381682D01*
X6792035Y-12362214D01*
X6732375Y-12325848D01*
X6701846Y-12263001D01*
X6706596Y-12207263D01*
X6706075Y-12207150D01*
X6706946Y-12203158D01*
X6707090Y-12201478D01*
X6707685Y-12199777D01*
X6707685Y-12199776D01*
X6707686Y-12199774D01*
X6710500Y-12169764D01*
X6710500Y-11150236D01*
X6710473Y-11149953D01*
X6708527Y-11129197D01*
X6707686Y-11120226D01*
X6707684Y-11120222D01*
X6707684Y-11120218D01*
X6663455Y-10993821D01*
X6663454Y-10993819D01*
X6583929Y-10886069D01*
X6523365Y-10841369D01*
X6481115Y-10785721D01*
X6473000Y-10741600D01*
X6473000Y-10605465D01*
X6492685Y-10538426D01*
X6509319Y-10517784D01*
X6670284Y-10356819D01*
X6731607Y-10323334D01*
X6757965Y-10320500D01*
X9059308Y-10320500D01*
X9059309Y-10320500D01*
X9149673Y-10296286D01*
X9173887Y-10289799D01*
X9276614Y-10230489D01*
X10051094Y-9456007D01*
X10103842Y-9424712D01*
X10120053Y-9419953D01*
X10120055Y-9419951D01*
X10120057Y-9419951D01*
X10208182Y-9363315D01*
X10241128Y-9342143D01*
X10335377Y-9233373D01*
X10395165Y-9102457D01*
X10415647Y-8960000D01*
X10395165Y-8817543D01*
X10361704Y-8744275D01*
X10350500Y-8692766D01*
X10350500Y-8599650D01*
X10353754Y-8575085D01*
X10353333Y-8575015D01*
X10357650Y-8549114D01*
X10388089Y-8486223D01*
X10447696Y-8449772D01*
X10479963Y-8445500D01*
X10719750Y-8445500D01*
X10775808Y-8434349D01*
X10824192Y-8434349D01*
X10880249Y-8445500D01*
G37*
%TD.AperFunction*%
%TA.AperFunction,NonConductor*%
G36*
X10792539Y-11545185D02*
G01*
X10838294Y-11597989D01*
X10849500Y-11649500D01*
X10849500Y-12733260D01*
X10859426Y-12801391D01*
X10859427Y-12801393D01*
X10891900Y-12867819D01*
X10899586Y-12883540D01*
X10911344Y-12952413D01*
X10884001Y-13016710D01*
X10826237Y-13056017D01*
X10788185Y-13062000D01*
X8535110Y-13062000D01*
X8468071Y-13042315D01*
X8447429Y-13025681D01*
X8421819Y-13000071D01*
X8388334Y-12938748D01*
X8385500Y-12912390D01*
X8385500Y-12550721D01*
X8405185Y-12483682D01*
X8435862Y-12450954D01*
X8458930Y-12433930D01*
X8538455Y-12326179D01*
X8560562Y-12263001D01*
X8582684Y-12199781D01*
X8582685Y-12199777D01*
X8582686Y-12199774D01*
X8585500Y-12169764D01*
X8585500Y-11660465D01*
X8605185Y-11593426D01*
X8621819Y-11572784D01*
X8632784Y-11561819D01*
X8694107Y-11528334D01*
X8720465Y-11525500D01*
X10725500Y-11525500D01*
X10792539Y-11545185D01*
G37*
%TD.AperFunction*%
%TA.AperFunction,NonConductor*%
G36*
X10853334Y-15692362D02*
G01*
X10897681Y-15720863D01*
X10953514Y-15776696D01*
X10953515Y-15776696D01*
X10953517Y-15776698D01*
X11058607Y-15828073D01*
X11092673Y-15833036D01*
X11126739Y-15838000D01*
X11126740Y-15838000D01*
X11493261Y-15838000D01*
X11517858Y-15834416D01*
X11561393Y-15828073D01*
X11666483Y-15776698D01*
X11666483Y-15776697D01*
X11675714Y-15772185D01*
X11676724Y-15774252D01*
X11729440Y-15755931D01*
X11797361Y-15772316D01*
X11845642Y-15822821D01*
X11859500Y-15879783D01*
X11859500Y-16063000D01*
X11839815Y-16130039D01*
X11787011Y-16175794D01*
X11735500Y-16187000D01*
X10640247Y-16187000D01*
X10581770Y-16198631D01*
X10581769Y-16198632D01*
X10515447Y-16242947D01*
X10471132Y-16309269D01*
X10471131Y-16309270D01*
X10459500Y-16367747D01*
X10459500Y-18507252D01*
X10471131Y-18565729D01*
X10471132Y-18565730D01*
X10515447Y-18632052D01*
X10581769Y-18676367D01*
X10581770Y-18676368D01*
X10640247Y-18687999D01*
X10640250Y-18688000D01*
X10640252Y-18688000D01*
X13064457Y-18688000D01*
X13131496Y-18707685D01*
X13177251Y-18760489D01*
X13187195Y-18829647D01*
X13158170Y-18893203D01*
X13152138Y-18899681D01*
X13029532Y-19022286D01*
X13029527Y-19022292D01*
X13017200Y-19043644D01*
X12966632Y-19091859D01*
X12964274Y-19093043D01*
X12953515Y-19098302D01*
X12897681Y-19154137D01*
X12836358Y-19187622D01*
X12766666Y-19182638D01*
X12722319Y-19154137D01*
X12666485Y-19098303D01*
X12659499Y-19094888D01*
X12561393Y-19046927D01*
X12561391Y-19046926D01*
X12493261Y-19037000D01*
X12493260Y-19037000D01*
X12126740Y-19037000D01*
X12126739Y-19037000D01*
X12058608Y-19046926D01*
X11953514Y-19098303D01*
X11897681Y-19154137D01*
X11836358Y-19187622D01*
X11766666Y-19182638D01*
X11722319Y-19154137D01*
X11666485Y-19098303D01*
X11659499Y-19094888D01*
X11561393Y-19046927D01*
X11561391Y-19046926D01*
X11493261Y-19037000D01*
X11493260Y-19037000D01*
X11126740Y-19037000D01*
X11126739Y-19037000D01*
X11058608Y-19046926D01*
X10953514Y-19098303D01*
X10897681Y-19154137D01*
X10836358Y-19187622D01*
X10766666Y-19182638D01*
X10722319Y-19154137D01*
X10666485Y-19098303D01*
X10659499Y-19094888D01*
X10561393Y-19046927D01*
X10561391Y-19046926D01*
X10493261Y-19037000D01*
X10493260Y-19037000D01*
X10126740Y-19037000D01*
X10102375Y-19040549D01*
X10033199Y-19030735D01*
X9980310Y-18985079D01*
X9960500Y-18918076D01*
X9960500Y-15957154D01*
X9980185Y-15890115D01*
X10032989Y-15844360D01*
X10102144Y-15834416D01*
X10126740Y-15838000D01*
X10126742Y-15838000D01*
X10493261Y-15838000D01*
X10517858Y-15834416D01*
X10561393Y-15828073D01*
X10666483Y-15776698D01*
X10692681Y-15750500D01*
X10722319Y-15720863D01*
X10783642Y-15687378D01*
X10853334Y-15692362D01*
G37*
%TD.AperFunction*%
%TA.AperFunction,NonConductor*%
G36*
X15683834Y-26824361D02*
G01*
X15739767Y-26866233D01*
X15764184Y-26931697D01*
X15764500Y-26940543D01*
X15764500Y-27256873D01*
X15744815Y-27323912D01*
X15698954Y-27366231D01*
X15617228Y-27409914D01*
X15528550Y-27457315D01*
X15528548Y-27457316D01*
X15528547Y-27457317D01*
X15368589Y-27588589D01*
X15237317Y-27748547D01*
X15139769Y-27931043D01*
X15079699Y-28129067D01*
X15059417Y-28335000D01*
X15079699Y-28540932D01*
X15079700Y-28540934D01*
X15139768Y-28738954D01*
X15237315Y-28921450D01*
X15237317Y-28921452D01*
X15368589Y-29081410D01*
X15488901Y-29180146D01*
X15528236Y-29237892D01*
X15530107Y-29307736D01*
X15493920Y-29367505D01*
X15431164Y-29398221D01*
X15410237Y-29400000D01*
X14279763Y-29400000D01*
X14212724Y-29380315D01*
X14166969Y-29327511D01*
X14157025Y-29258353D01*
X14186050Y-29194797D01*
X14201099Y-29180146D01*
X14321410Y-29081410D01*
X14452685Y-28921450D01*
X14550232Y-28738954D01*
X14610300Y-28540934D01*
X14630583Y-28335000D01*
X14610300Y-28129066D01*
X14554210Y-27944163D01*
X14553588Y-27874298D01*
X14585189Y-27820491D01*
X15552820Y-26852861D01*
X15614142Y-26819377D01*
X15683834Y-26824361D01*
G37*
%TD.AperFunction*%
%TA.AperFunction,NonConductor*%
G36*
X11943562Y-21048657D02*
G01*
X11944283Y-21047184D01*
X11953516Y-21051697D01*
X11953517Y-21051698D01*
X11964271Y-21056955D01*
X12015854Y-21104080D01*
X12017201Y-21106357D01*
X12029527Y-21127707D01*
X12029531Y-21127712D01*
X12327354Y-21425534D01*
X12360839Y-21486857D01*
X12355855Y-21556548D01*
X12327355Y-21600895D01*
X12291476Y-21636774D01*
X12291473Y-21636778D01*
X12230279Y-21756878D01*
X12214500Y-21856506D01*
X12214500Y-22423493D01*
X12230279Y-22523121D01*
X12230280Y-22523124D01*
X12230281Y-22523126D01*
X12274640Y-22610185D01*
X12291473Y-22643221D01*
X12291476Y-22643225D01*
X12386774Y-22738523D01*
X12386778Y-22738526D01*
X12386780Y-22738528D01*
X12506874Y-22799719D01*
X12506876Y-22799719D01*
X12506878Y-22799720D01*
X12606507Y-22815500D01*
X12606512Y-22815500D01*
X12897035Y-22815500D01*
X12964074Y-22835185D01*
X12984716Y-22851819D01*
X13156984Y-23024087D01*
X13182097Y-23060256D01*
X13224623Y-23153373D01*
X13318872Y-23262143D01*
X13439947Y-23339953D01*
X13439950Y-23339954D01*
X13439949Y-23339954D01*
X13578036Y-23380499D01*
X13578038Y-23380500D01*
X13578039Y-23380500D01*
X13721962Y-23380500D01*
X13721962Y-23380499D01*
X13860053Y-23339953D01*
X13981128Y-23262143D01*
X14075377Y-23153373D01*
X14135165Y-23022457D01*
X14155647Y-22880000D01*
X14135165Y-22737543D01*
X14075377Y-22606627D01*
X13981128Y-22497857D01*
X13886714Y-22437181D01*
X13860052Y-22420046D01*
X13843836Y-22415285D01*
X13791092Y-22383989D01*
X13551819Y-22144716D01*
X13518334Y-22083393D01*
X13515500Y-22057035D01*
X13515500Y-21856511D01*
X13507959Y-21808897D01*
X13516915Y-21739603D01*
X13561912Y-21686152D01*
X13628663Y-21665513D01*
X13630433Y-21665500D01*
X13905491Y-21665500D01*
X13972530Y-21685185D01*
X13993172Y-21701819D01*
X14446823Y-22155470D01*
X14522755Y-22199309D01*
X14526747Y-22201614D01*
X14615891Y-22225500D01*
X14615892Y-22225500D01*
X14708179Y-22225500D01*
X15967912Y-22225500D01*
X16034951Y-22245185D01*
X16080706Y-22297989D01*
X16090650Y-22367147D01*
X16061625Y-22430703D01*
X16055593Y-22437181D01*
X15444531Y-23048242D01*
X15444527Y-23048247D01*
X15415581Y-23098385D01*
X15415581Y-23098386D01*
X15398386Y-23128167D01*
X15374500Y-23217312D01*
X15374500Y-25988455D01*
X15354815Y-26055494D01*
X15338181Y-26076136D01*
X14089508Y-27324808D01*
X14028185Y-27358293D01*
X13965833Y-27355788D01*
X13780934Y-27299700D01*
X13780932Y-27299699D01*
X13780934Y-27299699D01*
X13575000Y-27279417D01*
X13369067Y-27299699D01*
X13224500Y-27343553D01*
X13175909Y-27358293D01*
X13171043Y-27359769D01*
X13060898Y-27418643D01*
X12988550Y-27457315D01*
X12988548Y-27457316D01*
X12988547Y-27457317D01*
X12828589Y-27588589D01*
X12697317Y-27748547D01*
X12599769Y-27931043D01*
X12539699Y-28129067D01*
X12519417Y-28335000D01*
X12539699Y-28540932D01*
X12539700Y-28540934D01*
X12599768Y-28738954D01*
X12697315Y-28921450D01*
X12697317Y-28921452D01*
X12828589Y-29081410D01*
X12948901Y-29180146D01*
X12988236Y-29237892D01*
X12990107Y-29307736D01*
X12953920Y-29367505D01*
X12891164Y-29398221D01*
X12870237Y-29400000D01*
X11739763Y-29400000D01*
X11672724Y-29380315D01*
X11626969Y-29327511D01*
X11617025Y-29258353D01*
X11646050Y-29194797D01*
X11661099Y-29180146D01*
X11781410Y-29081410D01*
X11912685Y-28921450D01*
X12010232Y-28738954D01*
X12070300Y-28540934D01*
X12090583Y-28335000D01*
X12070300Y-28129066D01*
X12010232Y-27931046D01*
X11912685Y-27748550D01*
X11783458Y-27591085D01*
X11781410Y-27588589D01*
X11621452Y-27457317D01*
X11621453Y-27457317D01*
X11621450Y-27457315D01*
X11438954Y-27359768D01*
X11240934Y-27299700D01*
X11240932Y-27299699D01*
X11240934Y-27299699D01*
X11035000Y-27279417D01*
X10829068Y-27299699D01*
X10822896Y-27301571D01*
X10820491Y-27302301D01*
X10750625Y-27302922D01*
X10691513Y-27265672D01*
X10661924Y-27202377D01*
X10660500Y-27183639D01*
X10660500Y-23094119D01*
X10674015Y-23037824D01*
X10719719Y-22948126D01*
X10719719Y-22948124D01*
X10719720Y-22948123D01*
X10719720Y-22948122D01*
X10732480Y-22867558D01*
X10762409Y-22804423D01*
X10821720Y-22767491D01*
X10891583Y-22768489D01*
X10911240Y-22776467D01*
X10956874Y-22799719D01*
X10956875Y-22799719D01*
X10956877Y-22799720D01*
X11056507Y-22815500D01*
X11056512Y-22815500D01*
X11573493Y-22815500D01*
X11673121Y-22799720D01*
X11673121Y-22799719D01*
X11673126Y-22799719D01*
X11793220Y-22738528D01*
X11888528Y-22643220D01*
X11949719Y-22523126D01*
X11951325Y-22512989D01*
X11965500Y-22423493D01*
X11965500Y-21856506D01*
X11949720Y-21756878D01*
X11949719Y-21756876D01*
X11949719Y-21756874D01*
X11888528Y-21636780D01*
X11888526Y-21636778D01*
X11888523Y-21636774D01*
X11796819Y-21545070D01*
X11763334Y-21483747D01*
X11760500Y-21457389D01*
X11760500Y-21154783D01*
X11780185Y-21087744D01*
X11832989Y-21041989D01*
X11902147Y-21032045D01*
X11943562Y-21048657D01*
G37*
%TD.AperFunction*%
%TA.AperFunction,NonConductor*%
G36*
X9878981Y-27549213D02*
G01*
X9934914Y-27591085D01*
X9958585Y-27649200D01*
X9959499Y-27656139D01*
X9975063Y-27714226D01*
X9983385Y-27745286D01*
X10029527Y-27825208D01*
X10034476Y-27831657D01*
X10031959Y-27833587D01*
X10058293Y-27881813D01*
X10055788Y-27944166D01*
X9999699Y-28129067D01*
X9979417Y-28335000D01*
X9999699Y-28540932D01*
X9999700Y-28540934D01*
X10059768Y-28738954D01*
X10157315Y-28921450D01*
X10157317Y-28921452D01*
X10288589Y-29081410D01*
X10408901Y-29180146D01*
X10448236Y-29237892D01*
X10450107Y-29307736D01*
X10413920Y-29367505D01*
X10351164Y-29398221D01*
X10330237Y-29400000D01*
X9199763Y-29400000D01*
X9132724Y-29380315D01*
X9086969Y-29327511D01*
X9077025Y-29258353D01*
X9106050Y-29194797D01*
X9121099Y-29180146D01*
X9241410Y-29081410D01*
X9372685Y-28921450D01*
X9470232Y-28738954D01*
X9530300Y-28540934D01*
X9550583Y-28335000D01*
X9530300Y-28129066D01*
X9474210Y-27944163D01*
X9473588Y-27874298D01*
X9505189Y-27820491D01*
X9747969Y-27577711D01*
X9809289Y-27544229D01*
X9878981Y-27549213D01*
G37*
%TD.AperFunction*%
%TA.AperFunction,NonConductor*%
G36*
X9136607Y-22610185D02*
G01*
X9182362Y-22662989D01*
X9192306Y-22732147D01*
X9192041Y-22733898D01*
X9179196Y-22814997D01*
X9179196Y-22815002D01*
X9200279Y-22948123D01*
X9245985Y-23037824D01*
X9259500Y-23094119D01*
X9259500Y-27023455D01*
X9239815Y-27090494D01*
X9223181Y-27111136D01*
X9009508Y-27324808D01*
X8948185Y-27358293D01*
X8885833Y-27355788D01*
X8700934Y-27299700D01*
X8700932Y-27299699D01*
X8700934Y-27299699D01*
X8495000Y-27279417D01*
X8289067Y-27299699D01*
X8144500Y-27343553D01*
X8095909Y-27358293D01*
X8091043Y-27359769D01*
X7980898Y-27418643D01*
X7908550Y-27457315D01*
X7908548Y-27457316D01*
X7908547Y-27457317D01*
X7748589Y-27588589D01*
X7617317Y-27748547D01*
X7519769Y-27931043D01*
X7459699Y-28129067D01*
X7439417Y-28335000D01*
X7459699Y-28540932D01*
X7459700Y-28540934D01*
X7519768Y-28738954D01*
X7617315Y-28921450D01*
X7617317Y-28921452D01*
X7748589Y-29081410D01*
X7868901Y-29180146D01*
X7908236Y-29237892D01*
X7910107Y-29307736D01*
X7873920Y-29367505D01*
X7811164Y-29398221D01*
X7790237Y-29400000D01*
X6659763Y-29400000D01*
X6592724Y-29380315D01*
X6546969Y-29327511D01*
X6537025Y-29258353D01*
X6566050Y-29194797D01*
X6581099Y-29180146D01*
X6701410Y-29081410D01*
X6832685Y-28921450D01*
X6930232Y-28738954D01*
X6990300Y-28540934D01*
X7010583Y-28335000D01*
X6990300Y-28129066D01*
X6930232Y-27931046D01*
X6832685Y-27748550D01*
X6703458Y-27591085D01*
X6701410Y-27588589D01*
X6541450Y-27457315D01*
X6471045Y-27419681D01*
X6421201Y-27370718D01*
X6405500Y-27310324D01*
X6405500Y-25955047D01*
X6425185Y-25888008D01*
X6441819Y-25867366D01*
X6868720Y-25440465D01*
X8300489Y-24008696D01*
X8359799Y-23905969D01*
X8366285Y-23881757D01*
X8366286Y-23881757D01*
X8366286Y-23881753D01*
X8390500Y-23791391D01*
X8390500Y-22714500D01*
X8410185Y-22647461D01*
X8462989Y-22601706D01*
X8514500Y-22590500D01*
X9069568Y-22590500D01*
X9136607Y-22610185D01*
G37*
%TD.AperFunction*%
%TA.AperFunction,NonConductor*%
G36*
X20535455Y-1200500D02*
G01*
X20560118Y-1200500D01*
X20596519Y-1200500D01*
X20603472Y-1200695D01*
X20906503Y-1217713D01*
X20920301Y-1219267D01*
X21216080Y-1269522D01*
X21229636Y-1272616D01*
X21517927Y-1355672D01*
X21531051Y-1360265D01*
X21755073Y-1453057D01*
X21808219Y-1475071D01*
X21808222Y-1475072D01*
X21820744Y-1481101D01*
X22023184Y-1592986D01*
X22083328Y-1626227D01*
X22095102Y-1633625D01*
X22192353Y-1702628D01*
X22339789Y-1807239D01*
X22350657Y-1815907D01*
X22574352Y-2015815D01*
X22584184Y-2025647D01*
X22784092Y-2249342D01*
X22792763Y-2260214D01*
X22966374Y-2504897D01*
X22973772Y-2516671D01*
X23118894Y-2779248D01*
X23124927Y-2791777D01*
X23239734Y-3068948D01*
X23244327Y-3082072D01*
X23327383Y-3370363D01*
X23330477Y-3383920D01*
X23380730Y-3679689D01*
X23382287Y-3693507D01*
X23399304Y-3996525D01*
X23399499Y-4003478D01*
X23399499Y-29276000D01*
X23379814Y-29343039D01*
X23327010Y-29388794D01*
X23275499Y-29400000D01*
X19359763Y-29400000D01*
X19292724Y-29380315D01*
X19246969Y-29327511D01*
X19237025Y-29258353D01*
X19266050Y-29194797D01*
X19281099Y-29180146D01*
X19401410Y-29081410D01*
X19532685Y-28921450D01*
X19630232Y-28738954D01*
X19690300Y-28540934D01*
X19710583Y-28335000D01*
X19690300Y-28129066D01*
X19630232Y-27931046D01*
X19532685Y-27748550D01*
X19403458Y-27591085D01*
X19401410Y-27588589D01*
X19241452Y-27457317D01*
X19241453Y-27457317D01*
X19241450Y-27457315D01*
X19058954Y-27359768D01*
X18860934Y-27299700D01*
X18860932Y-27299699D01*
X18860934Y-27299699D01*
X18655000Y-27279417D01*
X18449067Y-27299699D01*
X18304500Y-27343553D01*
X18255909Y-27358293D01*
X18251043Y-27359769D01*
X18140898Y-27418643D01*
X18068550Y-27457315D01*
X18068548Y-27457316D01*
X18068547Y-27457317D01*
X17908589Y-27588589D01*
X17777317Y-27748547D01*
X17679769Y-27931043D01*
X17619699Y-28129067D01*
X17599417Y-28335000D01*
X17619699Y-28540932D01*
X17619700Y-28540934D01*
X17679768Y-28738954D01*
X17777315Y-28921450D01*
X17777317Y-28921452D01*
X17908589Y-29081410D01*
X18028901Y-29180146D01*
X18068236Y-29237892D01*
X18070107Y-29307736D01*
X18033920Y-29367505D01*
X17971164Y-29398221D01*
X17950237Y-29400000D01*
X16819763Y-29400000D01*
X16752724Y-29380315D01*
X16706969Y-29327511D01*
X16697025Y-29258353D01*
X16726050Y-29194797D01*
X16741099Y-29180146D01*
X16861410Y-29081410D01*
X16992685Y-28921450D01*
X17090232Y-28738954D01*
X17150300Y-28540934D01*
X17170583Y-28335000D01*
X17150300Y-28129066D01*
X17090232Y-27931046D01*
X16992685Y-27748550D01*
X16863458Y-27591085D01*
X16861410Y-27588589D01*
X16701452Y-27457317D01*
X16701453Y-27457317D01*
X16701450Y-27457315D01*
X16539440Y-27370718D01*
X16531046Y-27366231D01*
X16481202Y-27317268D01*
X16465500Y-27256873D01*
X16465500Y-23621544D01*
X16485185Y-23554505D01*
X16501819Y-23533863D01*
X16958863Y-23076819D01*
X17020186Y-23043334D01*
X17046544Y-23040500D01*
X19848469Y-23040500D01*
X19848471Y-23040500D01*
X19937615Y-23016614D01*
X19937622Y-23016610D01*
X19947099Y-23011139D01*
X19987765Y-22987659D01*
X20017539Y-22970470D01*
X21217970Y-21770039D01*
X21264114Y-21690115D01*
X21265575Y-21684660D01*
X21268498Y-21673754D01*
X21268498Y-21673752D01*
X21283702Y-21617011D01*
X21288000Y-21600971D01*
X21288000Y-10319500D01*
X21307685Y-10252461D01*
X21360489Y-10206706D01*
X21412000Y-10195500D01*
X21639251Y-10195500D01*
X21737417Y-10179952D01*
X21737418Y-10179951D01*
X21737420Y-10179951D01*
X21855751Y-10119658D01*
X21949658Y-10025751D01*
X22009951Y-9907420D01*
X22009951Y-9907418D01*
X22009952Y-9907417D01*
X22025500Y-9809251D01*
X22025500Y-9230748D01*
X22009952Y-9132582D01*
X21972677Y-9059427D01*
X21949658Y-9014249D01*
X21949654Y-9014245D01*
X21949653Y-9014243D01*
X21855756Y-8920346D01*
X21855753Y-8920344D01*
X21855751Y-8920342D01*
X21737420Y-8860049D01*
X21737419Y-8860048D01*
X21737416Y-8860047D01*
X21737417Y-8860047D01*
X21639251Y-8844500D01*
X21639246Y-8844500D01*
X21135754Y-8844500D01*
X21135749Y-8844500D01*
X21037582Y-8860047D01*
X20983314Y-8887699D01*
X20919249Y-8920342D01*
X20919248Y-8920343D01*
X20919243Y-8920346D01*
X20825346Y-9014243D01*
X20825343Y-9014248D01*
X20825342Y-9014249D01*
X20808840Y-9046636D01*
X20765047Y-9132582D01*
X20749500Y-9230748D01*
X20749500Y-9610956D01*
X20729815Y-9677995D01*
X20713181Y-9698637D01*
X20662181Y-9749637D01*
X20600858Y-9783122D01*
X20531166Y-9778138D01*
X20475233Y-9736266D01*
X20450816Y-9670802D01*
X20450500Y-9661956D01*
X20450500Y-9230748D01*
X20434952Y-9132582D01*
X20397677Y-9059427D01*
X20374658Y-9014249D01*
X20374654Y-9014245D01*
X20374653Y-9014243D01*
X20280756Y-8920346D01*
X20280753Y-8920344D01*
X20280751Y-8920342D01*
X20162420Y-8860049D01*
X20162419Y-8860048D01*
X20162416Y-8860047D01*
X20162417Y-8860047D01*
X20064251Y-8844500D01*
X20064246Y-8844500D01*
X19560754Y-8844500D01*
X19560749Y-8844500D01*
X19462582Y-8860047D01*
X19408314Y-8887699D01*
X19344249Y-8920342D01*
X19344248Y-8920343D01*
X19344243Y-8920346D01*
X19250346Y-9014243D01*
X19250343Y-9014248D01*
X19250342Y-9014249D01*
X19233840Y-9046636D01*
X19190047Y-9132582D01*
X19174500Y-9230748D01*
X19174500Y-9809251D01*
X19190047Y-9907417D01*
X19209364Y-9945329D01*
X19250342Y-10025751D01*
X19250344Y-10025753D01*
X19250346Y-10025756D01*
X19344243Y-10119653D01*
X19344247Y-10119656D01*
X19344249Y-10119658D01*
X19394296Y-10145158D01*
X19445091Y-10193131D01*
X19462000Y-10255642D01*
X19462000Y-13870956D01*
X19442315Y-13937995D01*
X19425681Y-13958637D01*
X19031137Y-14353181D01*
X18969814Y-14386666D01*
X18943456Y-14389500D01*
X18942010Y-14389500D01*
X18874971Y-14369815D01*
X18831526Y-14321796D01*
X18798999Y-14257959D01*
X18783050Y-14226658D01*
X18783047Y-14226655D01*
X18783045Y-14226652D01*
X18693347Y-14136954D01*
X18693344Y-14136952D01*
X18693342Y-14136950D01*
X18607527Y-14093225D01*
X18580301Y-14079352D01*
X18486524Y-14064500D01*
X18023482Y-14064500D01*
X17952086Y-14075808D01*
X17929696Y-14079354D01*
X17816658Y-14136950D01*
X17816657Y-14136951D01*
X17816652Y-14136954D01*
X17726954Y-14226652D01*
X17726951Y-14226657D01*
X17726950Y-14226658D01*
X17723770Y-14232899D01*
X17669352Y-14339698D01*
X17654500Y-14433475D01*
X17654500Y-15046517D01*
X17661466Y-15090499D01*
X17669354Y-15140304D01*
X17726950Y-15253342D01*
X17726952Y-15253344D01*
X17726954Y-15253347D01*
X17816652Y-15343045D01*
X17816654Y-15343046D01*
X17816658Y-15343050D01*
X17929694Y-15400645D01*
X17929698Y-15400647D01*
X18023475Y-15415499D01*
X18023481Y-15415500D01*
X18486518Y-15415499D01*
X18580304Y-15400646D01*
X18693342Y-15343050D01*
X18783050Y-15253342D01*
X18815070Y-15190500D01*
X18831526Y-15158204D01*
X18879500Y-15107409D01*
X18942010Y-15090500D01*
X19186142Y-15090500D01*
X19186144Y-15090500D01*
X19275288Y-15066614D01*
X19283869Y-15061660D01*
X19283873Y-15061658D01*
X19355205Y-15020474D01*
X19355204Y-15020474D01*
X19355212Y-15020470D01*
X20092970Y-14282712D01*
X20139114Y-14202788D01*
X20163000Y-14113643D01*
X20163000Y-14021356D01*
X20163000Y-10255642D01*
X20182685Y-10188603D01*
X20230703Y-10145158D01*
X20280751Y-10119658D01*
X20309526Y-10090883D01*
X20375319Y-10025091D01*
X20436642Y-9991606D01*
X20506334Y-9996590D01*
X20562267Y-10038462D01*
X20586684Y-10103926D01*
X20587000Y-10112772D01*
X20587000Y-15960922D01*
X20567315Y-16027961D01*
X20514511Y-16073716D01*
X20445353Y-16083660D01*
X20381797Y-16054635D01*
X20354313Y-16014178D01*
X20352133Y-16015331D01*
X20347792Y-16007117D01*
X20324458Y-15975500D01*
X20267150Y-15897850D01*
X20157882Y-15817207D01*
X20157880Y-15817206D01*
X20029700Y-15772353D01*
X19999270Y-15769500D01*
X19999266Y-15769500D01*
X19365734Y-15769500D01*
X19365730Y-15769500D01*
X19335300Y-15772353D01*
X19335298Y-15772353D01*
X19207119Y-15817206D01*
X19207117Y-15817207D01*
X19097850Y-15897850D01*
X19017207Y-16007117D01*
X19017206Y-16007119D01*
X18972353Y-16135298D01*
X18972353Y-16135300D01*
X18969500Y-16165730D01*
X18969500Y-17174269D01*
X18972353Y-17204699D01*
X18972353Y-17204701D01*
X19011481Y-17316518D01*
X19017207Y-17332882D01*
X19097850Y-17442150D01*
X19207118Y-17522793D01*
X19249845Y-17537744D01*
X19335299Y-17567646D01*
X19365730Y-17570500D01*
X19365734Y-17570500D01*
X19999265Y-17570500D01*
X19999266Y-17570500D01*
X20021728Y-17568393D01*
X20090311Y-17581730D01*
X20120988Y-17604170D01*
X20160681Y-17643863D01*
X20194166Y-17705186D01*
X20197000Y-17731544D01*
X20197000Y-18045500D01*
X20177315Y-18112539D01*
X20124511Y-18158294D01*
X20073000Y-18169500D01*
X18977747Y-18169500D01*
X18919270Y-18181131D01*
X18919269Y-18181132D01*
X18852947Y-18225447D01*
X18808632Y-18291769D01*
X18808631Y-18291770D01*
X18797000Y-18350247D01*
X18797000Y-19589752D01*
X18808631Y-19648229D01*
X18808632Y-19648230D01*
X18852947Y-19714552D01*
X18919269Y-19758867D01*
X18919270Y-19758868D01*
X18977747Y-19770499D01*
X18977750Y-19770500D01*
X18977752Y-19770500D01*
X19595500Y-19770500D01*
X19662539Y-19790185D01*
X19708294Y-19842989D01*
X19719500Y-19894500D01*
X19719500Y-20450666D01*
X19699815Y-20517705D01*
X19647011Y-20563460D01*
X19577853Y-20573404D01*
X19560566Y-20569643D01*
X19491964Y-20549500D01*
X19491961Y-20549500D01*
X19348039Y-20549500D01*
X19348036Y-20549500D01*
X19201437Y-20592545D01*
X19201004Y-20591073D01*
X19162273Y-20599500D01*
X18880012Y-20599500D01*
X18812973Y-20579815D01*
X18779689Y-20548379D01*
X18778529Y-20546782D01*
X18778528Y-20546780D01*
X18778525Y-20546777D01*
X18778523Y-20546774D01*
X18683225Y-20451476D01*
X18683221Y-20451473D01*
X18683220Y-20451472D01*
X18563126Y-20390281D01*
X18563124Y-20390280D01*
X18563121Y-20390279D01*
X18463493Y-20374500D01*
X18463488Y-20374500D01*
X17946512Y-20374500D01*
X17946507Y-20374500D01*
X17846878Y-20390279D01*
X17726778Y-20451473D01*
X17726774Y-20451476D01*
X17631476Y-20546774D01*
X17631473Y-20546778D01*
X17570279Y-20666878D01*
X17554500Y-20766506D01*
X17554500Y-21333488D01*
X17562041Y-21381103D01*
X17553085Y-21450397D01*
X17508088Y-21503848D01*
X17441337Y-21524487D01*
X17439567Y-21524500D01*
X17420433Y-21524500D01*
X17353394Y-21504815D01*
X17307639Y-21452011D01*
X17297695Y-21382853D01*
X17297959Y-21381103D01*
X17305500Y-21333488D01*
X17305500Y-20766506D01*
X17289720Y-20666878D01*
X17289719Y-20666876D01*
X17289719Y-20666874D01*
X17228528Y-20546780D01*
X17228526Y-20546778D01*
X17228523Y-20546774D01*
X17133225Y-20451476D01*
X17133221Y-20451473D01*
X17133220Y-20451472D01*
X17013126Y-20390281D01*
X17013124Y-20390280D01*
X17013121Y-20390279D01*
X16913493Y-20374500D01*
X16913488Y-20374500D01*
X16396512Y-20374500D01*
X16396507Y-20374500D01*
X16296878Y-20390279D01*
X16176778Y-20451473D01*
X16176774Y-20451476D01*
X16081476Y-20546774D01*
X16080311Y-20548379D01*
X16078392Y-20549858D01*
X16074571Y-20553680D01*
X16074077Y-20553186D01*
X16024983Y-20591048D01*
X15979988Y-20599500D01*
X14934500Y-20599500D01*
X14867461Y-20579815D01*
X14821706Y-20527011D01*
X14810500Y-20475500D01*
X14810500Y-19354500D01*
X14830185Y-19287461D01*
X14882989Y-19241706D01*
X14934500Y-19230500D01*
X15873000Y-19230500D01*
X15940039Y-19250185D01*
X15985794Y-19302989D01*
X15997000Y-19354500D01*
X15997000Y-19589752D01*
X16008631Y-19648229D01*
X16008632Y-19648230D01*
X16052947Y-19714552D01*
X16119269Y-19758867D01*
X16119270Y-19758868D01*
X16177747Y-19770499D01*
X16177750Y-19770500D01*
X16177752Y-19770500D01*
X17417250Y-19770500D01*
X17417251Y-19770499D01*
X17432068Y-19767552D01*
X17475729Y-19758868D01*
X17475729Y-19758867D01*
X17475731Y-19758867D01*
X17542052Y-19714552D01*
X17586367Y-19648231D01*
X17586367Y-19648229D01*
X17586368Y-19648229D01*
X17597999Y-19589752D01*
X17598000Y-19589750D01*
X17598000Y-18350249D01*
X17597999Y-18350247D01*
X17586368Y-18291770D01*
X17586367Y-18291769D01*
X17542052Y-18225447D01*
X17475730Y-18181132D01*
X17475729Y-18181131D01*
X17417252Y-18169500D01*
X17417248Y-18169500D01*
X17272000Y-18169500D01*
X17204961Y-18149815D01*
X17159206Y-18097011D01*
X17148000Y-18045500D01*
X17148000Y-17926543D01*
X17167685Y-17859504D01*
X17184319Y-17838862D01*
X17291637Y-17731544D01*
X17419012Y-17604168D01*
X17480333Y-17570685D01*
X17518268Y-17568393D01*
X17540734Y-17570500D01*
X18174270Y-17570500D01*
X18204699Y-17567646D01*
X18204701Y-17567646D01*
X18268790Y-17545219D01*
X18332882Y-17522793D01*
X18442150Y-17442150D01*
X18522793Y-17332882D01*
X18545219Y-17268790D01*
X18567646Y-17204701D01*
X18567646Y-17204699D01*
X18570500Y-17174269D01*
X18570500Y-16165730D01*
X18567646Y-16135300D01*
X18567646Y-16135298D01*
X18522793Y-16007119D01*
X18522792Y-16007117D01*
X18499458Y-15975500D01*
X18442150Y-15897850D01*
X18332882Y-15817207D01*
X18332880Y-15817206D01*
X18204700Y-15772353D01*
X18174270Y-15769500D01*
X18174266Y-15769500D01*
X17540734Y-15769500D01*
X17540730Y-15769500D01*
X17510300Y-15772353D01*
X17510298Y-15772353D01*
X17382119Y-15817206D01*
X17382117Y-15817207D01*
X17272850Y-15897850D01*
X17192207Y-16007117D01*
X17192206Y-16007119D01*
X17147353Y-16135298D01*
X17147353Y-16135300D01*
X17144500Y-16165730D01*
X17144500Y-16835956D01*
X17124815Y-16902995D01*
X17108181Y-16923637D01*
X16517031Y-17514786D01*
X16517029Y-17514788D01*
X16512088Y-17523347D01*
X16471146Y-17594262D01*
X16471143Y-17594268D01*
X16470885Y-17594714D01*
X16447000Y-17683856D01*
X16447000Y-18045500D01*
X16427315Y-18112539D01*
X16374511Y-18158294D01*
X16323000Y-18169500D01*
X16177747Y-18169500D01*
X16119270Y-18181131D01*
X16119269Y-18181132D01*
X16052947Y-18225447D01*
X16008632Y-18291769D01*
X16008631Y-18291770D01*
X15997000Y-18350247D01*
X15997000Y-18405500D01*
X15977315Y-18472539D01*
X15924511Y-18518294D01*
X15873000Y-18529500D01*
X14284500Y-18529500D01*
X14217461Y-18509815D01*
X14171706Y-18457011D01*
X14160500Y-18405500D01*
X14160500Y-16367749D01*
X14160499Y-16367747D01*
X14148868Y-16309270D01*
X14148867Y-16309269D01*
X14104552Y-16242947D01*
X14038230Y-16198632D01*
X14038229Y-16198631D01*
X13979752Y-16187000D01*
X13979748Y-16187000D01*
X12884500Y-16187000D01*
X12817461Y-16167315D01*
X12771706Y-16114511D01*
X12760500Y-16063000D01*
X12760500Y-15879783D01*
X12780185Y-15812744D01*
X12832989Y-15766989D01*
X12902147Y-15757045D01*
X12943565Y-15773658D01*
X12944286Y-15772185D01*
X12953516Y-15776697D01*
X12953517Y-15776698D01*
X13058607Y-15828073D01*
X13092673Y-15833036D01*
X13126739Y-15838000D01*
X13126740Y-15838000D01*
X13493261Y-15838000D01*
X13517858Y-15834416D01*
X13561393Y-15828073D01*
X13666483Y-15776698D01*
X13692681Y-15750500D01*
X13722319Y-15720863D01*
X13783642Y-15687378D01*
X13853334Y-15692362D01*
X13897681Y-15720863D01*
X13953514Y-15776696D01*
X13953515Y-15776696D01*
X13953517Y-15776698D01*
X14058607Y-15828073D01*
X14092673Y-15833036D01*
X14126739Y-15838000D01*
X14126740Y-15838000D01*
X14493261Y-15838000D01*
X14517858Y-15834416D01*
X14561393Y-15828073D01*
X14666483Y-15776698D01*
X14749198Y-15693983D01*
X14800573Y-15588893D01*
X14810500Y-15520760D01*
X14810500Y-15005043D01*
X14830185Y-14938004D01*
X14882989Y-14892249D01*
X14952147Y-14882305D01*
X15015703Y-14911330D01*
X15047294Y-14953532D01*
X15074620Y-15013369D01*
X15074623Y-15013373D01*
X15168872Y-15122143D01*
X15289947Y-15199953D01*
X15289950Y-15199954D01*
X15289949Y-15199954D01*
X15428036Y-15240499D01*
X15428038Y-15240500D01*
X15428039Y-15240500D01*
X15571962Y-15240500D01*
X15571962Y-15240499D01*
X15624797Y-15224985D01*
X15718563Y-15197455D01*
X15718995Y-15198926D01*
X15757727Y-15190500D01*
X15968943Y-15190500D01*
X16035982Y-15210185D01*
X16069206Y-15246906D01*
X16071214Y-15245448D01*
X16076950Y-15253343D01*
X16166652Y-15343045D01*
X16166654Y-15343046D01*
X16166658Y-15343050D01*
X16279694Y-15400645D01*
X16279698Y-15400647D01*
X16373475Y-15415499D01*
X16373481Y-15415500D01*
X16836518Y-15415499D01*
X16930304Y-15400646D01*
X17043342Y-15343050D01*
X17133050Y-15253342D01*
X17190646Y-15140304D01*
X17190646Y-15140302D01*
X17190647Y-15140301D01*
X17205499Y-15046524D01*
X17205500Y-15046519D01*
X17205499Y-14433482D01*
X17190646Y-14339696D01*
X17133050Y-14226658D01*
X17133046Y-14226654D01*
X17133045Y-14226652D01*
X17043347Y-14136954D01*
X17043344Y-14136952D01*
X17043342Y-14136950D01*
X16957527Y-14093225D01*
X16930301Y-14079352D01*
X16836524Y-14064500D01*
X16373482Y-14064500D01*
X16302086Y-14075808D01*
X16279696Y-14079354D01*
X16166658Y-14136950D01*
X16166657Y-14136951D01*
X16166652Y-14136954D01*
X16076950Y-14226657D01*
X16071214Y-14234552D01*
X16068940Y-14232899D01*
X16031454Y-14272591D01*
X15968943Y-14289500D01*
X15757727Y-14289500D01*
X15718995Y-14281073D01*
X15718563Y-14282545D01*
X15571963Y-14239500D01*
X15571961Y-14239500D01*
X15428039Y-14239500D01*
X15428036Y-14239500D01*
X15289949Y-14280045D01*
X15168873Y-14357856D01*
X15074623Y-14466626D01*
X15074622Y-14466628D01*
X15047294Y-14526468D01*
X15001539Y-14579272D01*
X14934499Y-14598956D01*
X14867460Y-14579271D01*
X14821705Y-14526467D01*
X14810500Y-14474956D01*
X14810500Y-14079238D01*
X14800573Y-14011108D01*
X14800573Y-14011107D01*
X14749198Y-13906017D01*
X14749196Y-13906015D01*
X14749196Y-13906014D01*
X14694511Y-13851329D01*
X14661026Y-13790006D01*
X14666010Y-13720314D01*
X14671707Y-13707354D01*
X14719719Y-13613126D01*
X14719720Y-13613121D01*
X14740804Y-13480002D01*
X14740804Y-13479997D01*
X14719720Y-13346878D01*
X14719719Y-13346876D01*
X14719719Y-13346874D01*
X14658528Y-13226780D01*
X14658526Y-13226778D01*
X14658523Y-13226774D01*
X14563225Y-13131476D01*
X14563221Y-13131473D01*
X14563220Y-13131472D01*
X14443126Y-13070281D01*
X14443124Y-13070280D01*
X14443121Y-13070279D01*
X14310002Y-13049196D01*
X14309998Y-13049196D01*
X14176878Y-13070279D01*
X14056778Y-13131473D01*
X14056774Y-13131476D01*
X13961476Y-13226774D01*
X13961473Y-13226778D01*
X13900279Y-13346878D01*
X13879196Y-13479997D01*
X13879196Y-13480002D01*
X13900279Y-13613123D01*
X13948292Y-13707354D01*
X13961188Y-13776023D01*
X13934911Y-13840763D01*
X13925490Y-13851328D01*
X13897683Y-13879136D01*
X13836360Y-13912622D01*
X13766669Y-13907639D01*
X13722319Y-13879137D01*
X13666484Y-13823302D01*
X13620039Y-13800596D01*
X13568457Y-13753468D01*
X13550500Y-13689196D01*
X13550500Y-13092997D01*
X13570185Y-13025958D01*
X13602450Y-12992077D01*
X13606477Y-12989200D01*
X13606483Y-12989198D01*
X13689198Y-12906483D01*
X13740573Y-12801393D01*
X13750500Y-12733260D01*
X13750500Y-11641740D01*
X13740573Y-11573607D01*
X13689198Y-11468517D01*
X13689196Y-11468515D01*
X13689196Y-11468514D01*
X13606485Y-11385803D01*
X13501391Y-11334426D01*
X13433261Y-11324500D01*
X13433260Y-11324500D01*
X13066740Y-11324500D01*
X13066739Y-11324500D01*
X12998608Y-11334426D01*
X12893514Y-11385803D01*
X12862681Y-11416637D01*
X12801358Y-11450122D01*
X12731666Y-11445138D01*
X12687319Y-11416637D01*
X12656485Y-11385803D01*
X12551391Y-11334426D01*
X12535219Y-11332070D01*
X12471719Y-11302925D01*
X12434056Y-11244075D01*
X12434188Y-11174206D01*
X12465417Y-11121686D01*
X12660490Y-10926614D01*
X12719799Y-10823887D01*
X12726632Y-10798386D01*
X12726932Y-10797265D01*
X12763288Y-10737600D01*
X12826130Y-10707061D01*
X12895506Y-10715345D01*
X12901163Y-10717935D01*
X12998607Y-10765573D01*
X13032673Y-10770536D01*
X13066739Y-10775500D01*
X13066740Y-10775500D01*
X13433261Y-10775500D01*
X13455971Y-10772191D01*
X13501393Y-10765573D01*
X13606483Y-10714198D01*
X13689198Y-10631483D01*
X13740573Y-10526393D01*
X13750500Y-10458260D01*
X13750500Y-9366740D01*
X13740573Y-9298607D01*
X13689198Y-9193517D01*
X13689196Y-9193515D01*
X13689196Y-9193514D01*
X13606485Y-9110803D01*
X13501391Y-9059426D01*
X13456621Y-9052903D01*
X13393120Y-9023758D01*
X13355457Y-8964909D01*
X13350500Y-8930199D01*
X13350500Y-8569500D01*
X13370185Y-8502461D01*
X13422989Y-8456706D01*
X13474500Y-8445500D01*
X13719750Y-8445500D01*
X13775808Y-8434349D01*
X13824192Y-8434349D01*
X13880249Y-8445500D01*
X14120038Y-8445500D01*
X14187077Y-8465185D01*
X14232832Y-8517989D01*
X14242351Y-8549116D01*
X14245664Y-8569000D01*
X14245865Y-8569809D01*
X14246043Y-8571273D01*
X14246457Y-8573754D01*
X14246348Y-8573772D01*
X14249500Y-8599614D01*
X14249500Y-8714663D01*
X14238294Y-8766174D01*
X14214835Y-8817541D01*
X14214834Y-8817542D01*
X14194353Y-8960000D01*
X14214834Y-9102456D01*
X14256420Y-9193514D01*
X14274623Y-9233373D01*
X14368872Y-9342143D01*
X14489947Y-9419953D01*
X14489950Y-9419954D01*
X14489949Y-9419954D01*
X14628036Y-9460499D01*
X14628038Y-9460500D01*
X14628039Y-9460500D01*
X14771962Y-9460500D01*
X14771962Y-9460499D01*
X14910053Y-9419953D01*
X15031128Y-9342143D01*
X15125377Y-9233373D01*
X15185165Y-9102457D01*
X15201473Y-8989029D01*
X15230498Y-8925474D01*
X15289276Y-8887699D01*
X15359145Y-8887699D01*
X15411888Y-8918992D01*
X15506986Y-9014090D01*
X15532096Y-9050255D01*
X15536285Y-9059427D01*
X15574623Y-9143373D01*
X15668872Y-9252143D01*
X15789947Y-9329953D01*
X15789950Y-9329954D01*
X15789949Y-9329954D01*
X15848045Y-9347012D01*
X15915233Y-9366740D01*
X15928036Y-9370499D01*
X15928038Y-9370500D01*
X15928039Y-9370500D01*
X16071962Y-9370500D01*
X16071962Y-9370499D01*
X16210053Y-9329953D01*
X16331128Y-9252143D01*
X16425377Y-9143373D01*
X16485165Y-9012457D01*
X16505647Y-8870000D01*
X16485165Y-8727543D01*
X16425377Y-8596627D01*
X16331128Y-8487857D01*
X16331125Y-8487855D01*
X16331123Y-8487853D01*
X16296128Y-8465363D01*
X16250373Y-8412560D01*
X16240429Y-8343401D01*
X16269454Y-8279845D01*
X16328232Y-8242071D01*
X16398102Y-8242071D01*
X16410618Y-8246486D01*
X16415672Y-8248580D01*
X16415676Y-8248580D01*
X16415677Y-8248581D01*
X16551004Y-8275500D01*
X16551007Y-8275500D01*
X16688995Y-8275500D01*
X16780041Y-8257389D01*
X16824328Y-8248580D01*
X16951811Y-8195775D01*
X16951816Y-8195771D01*
X16957186Y-8192902D01*
X16957764Y-8193985D01*
X17018275Y-8175032D01*
X17085657Y-8193511D01*
X17132352Y-8245485D01*
X17144500Y-8299012D01*
X17144500Y-10566142D01*
X17124815Y-10633181D01*
X17072011Y-10678936D01*
X17002853Y-10688880D01*
X16964207Y-10676628D01*
X16930302Y-10659353D01*
X16930301Y-10659352D01*
X16836524Y-10644500D01*
X16373482Y-10644500D01*
X16292519Y-10657323D01*
X16279696Y-10659354D01*
X16166658Y-10716950D01*
X16166657Y-10716951D01*
X16166652Y-10716954D01*
X16076950Y-10806657D01*
X16071214Y-10814552D01*
X16068940Y-10812899D01*
X16031454Y-10852591D01*
X15968943Y-10869500D01*
X15767727Y-10869500D01*
X15728995Y-10861073D01*
X15728563Y-10862545D01*
X15581963Y-10819500D01*
X15581961Y-10819500D01*
X15438039Y-10819500D01*
X15438036Y-10819500D01*
X15299949Y-10860045D01*
X15178873Y-10937856D01*
X15084623Y-11046626D01*
X15084622Y-11046628D01*
X15024834Y-11177543D01*
X15004353Y-11320000D01*
X15024834Y-11462456D01*
X15084622Y-11593371D01*
X15084623Y-11593373D01*
X15178872Y-11702143D01*
X15299947Y-11779953D01*
X15299950Y-11779954D01*
X15299949Y-11779954D01*
X15438036Y-11820499D01*
X15438038Y-11820500D01*
X15438039Y-11820500D01*
X15581962Y-11820500D01*
X15581962Y-11820499D01*
X15647484Y-11801261D01*
X15728563Y-11777455D01*
X15728995Y-11778926D01*
X15767727Y-11770500D01*
X15968943Y-11770500D01*
X16035982Y-11790185D01*
X16069206Y-11826906D01*
X16071214Y-11825448D01*
X16076950Y-11833343D01*
X16166652Y-11923045D01*
X16166654Y-11923046D01*
X16166658Y-11923050D01*
X16272050Y-11976750D01*
X16279698Y-11980647D01*
X16373475Y-11995499D01*
X16373481Y-11995500D01*
X16836518Y-11995499D01*
X16930304Y-11980646D01*
X16964207Y-11963371D01*
X17032873Y-11950475D01*
X17097613Y-11976750D01*
X17137871Y-12033856D01*
X17144500Y-12073856D01*
X17144500Y-12276142D01*
X17124815Y-12343181D01*
X17072011Y-12388936D01*
X17002853Y-12398880D01*
X16964207Y-12386628D01*
X16930302Y-12369353D01*
X16930301Y-12369352D01*
X16836524Y-12354500D01*
X16373482Y-12354500D01*
X16292519Y-12367323D01*
X16279696Y-12369354D01*
X16166658Y-12426950D01*
X16166657Y-12426951D01*
X16166652Y-12426954D01*
X16076950Y-12516657D01*
X16071214Y-12524552D01*
X16068940Y-12522899D01*
X16031454Y-12562591D01*
X15968943Y-12579500D01*
X15776733Y-12579500D01*
X15718700Y-12562460D01*
X15718120Y-12563731D01*
X15710048Y-12560044D01*
X15571963Y-12519500D01*
X15571961Y-12519500D01*
X15428039Y-12519500D01*
X15428036Y-12519500D01*
X15289949Y-12560045D01*
X15168873Y-12637856D01*
X15074623Y-12746626D01*
X15074622Y-12746628D01*
X15014834Y-12877543D01*
X14994353Y-13020000D01*
X15014834Y-13162456D01*
X15074622Y-13293371D01*
X15074623Y-13293373D01*
X15168872Y-13402143D01*
X15289947Y-13479953D01*
X15289950Y-13479954D01*
X15289949Y-13479954D01*
X15428036Y-13520499D01*
X15428038Y-13520500D01*
X15428039Y-13520500D01*
X15571961Y-13520500D01*
X15691084Y-13485522D01*
X15726017Y-13480500D01*
X15968943Y-13480500D01*
X16035982Y-13500185D01*
X16069206Y-13536906D01*
X16071214Y-13535448D01*
X16076950Y-13543343D01*
X16166652Y-13633045D01*
X16166654Y-13633046D01*
X16166658Y-13633050D01*
X16276850Y-13689196D01*
X16279698Y-13690647D01*
X16373475Y-13705499D01*
X16373481Y-13705500D01*
X16836518Y-13705499D01*
X16930304Y-13690646D01*
X17043342Y-13633050D01*
X17133050Y-13543342D01*
X17190646Y-13430304D01*
X17190646Y-13430302D01*
X17190647Y-13430301D01*
X17205499Y-13336524D01*
X17205500Y-13336519D01*
X17205499Y-12740186D01*
X17225183Y-12673148D01*
X17277987Y-12627393D01*
X17347146Y-12617449D01*
X17410702Y-12646474D01*
X17417172Y-12652498D01*
X17435433Y-12670759D01*
X17618181Y-12853507D01*
X17651666Y-12914830D01*
X17654500Y-12941188D01*
X17654500Y-13336517D01*
X17664894Y-13402143D01*
X17669354Y-13430304D01*
X17726950Y-13543342D01*
X17726952Y-13543344D01*
X17726954Y-13543347D01*
X17816652Y-13633045D01*
X17816654Y-13633046D01*
X17816658Y-13633050D01*
X17926850Y-13689196D01*
X17929698Y-13690647D01*
X18023475Y-13705499D01*
X18023481Y-13705500D01*
X18486518Y-13705499D01*
X18580304Y-13690646D01*
X18693342Y-13633050D01*
X18783050Y-13543342D01*
X18840646Y-13430304D01*
X18840646Y-13430302D01*
X18840647Y-13430301D01*
X18855499Y-13336524D01*
X18855500Y-13336519D01*
X18855499Y-12723482D01*
X18840646Y-12629696D01*
X18783050Y-12516658D01*
X18783046Y-12516654D01*
X18783045Y-12516652D01*
X18693347Y-12426954D01*
X18693344Y-12426952D01*
X18693342Y-12426950D01*
X18604499Y-12381682D01*
X18580301Y-12369352D01*
X18486524Y-12354500D01*
X18486519Y-12354500D01*
X18091189Y-12354500D01*
X18024150Y-12334815D01*
X18003508Y-12318181D01*
X17886197Y-12200870D01*
X17852712Y-12139547D01*
X17857696Y-12069855D01*
X17899568Y-12013922D01*
X17965032Y-11989505D01*
X17993274Y-11990715D01*
X18023481Y-11995500D01*
X18486518Y-11995499D01*
X18580304Y-11980646D01*
X18693342Y-11923050D01*
X18783050Y-11833342D01*
X18840646Y-11720304D01*
X18840646Y-11720302D01*
X18840647Y-11720301D01*
X18855499Y-11626524D01*
X18855500Y-11626519D01*
X18855499Y-11013482D01*
X18840646Y-10919696D01*
X18783050Y-10806658D01*
X18783046Y-10806654D01*
X18783045Y-10806652D01*
X18693347Y-10716954D01*
X18693344Y-10716952D01*
X18693342Y-10716950D01*
X18614206Y-10676628D01*
X18580301Y-10659352D01*
X18486524Y-10644500D01*
X18486519Y-10644500D01*
X18259500Y-10644500D01*
X18192461Y-10624815D01*
X18146706Y-10572011D01*
X18135500Y-10520500D01*
X18135500Y-5982022D01*
X18135501Y-5982009D01*
X18135501Y-5886316D01*
X18113317Y-5803526D01*
X18113315Y-5803523D01*
X18091443Y-5765640D01*
X18091441Y-5765637D01*
X18070467Y-5729308D01*
X18070466Y-5729307D01*
X18070465Y-5729305D01*
X18009862Y-5668702D01*
X18009861Y-5668701D01*
X18005531Y-5664371D01*
X18005520Y-5664361D01*
X17380697Y-5039537D01*
X17380696Y-5039536D01*
X17380695Y-5039535D01*
X17329671Y-5010076D01*
X17306473Y-4996682D01*
X17265079Y-4985591D01*
X17223686Y-4974500D01*
X17223685Y-4974500D01*
X11970465Y-4974500D01*
X11970449Y-4974499D01*
X11962853Y-4974499D01*
X11877148Y-4974499D01*
X11835755Y-4985590D01*
X11794360Y-4996682D01*
X11794355Y-4996685D01*
X11720144Y-5039530D01*
X11720136Y-5039536D01*
X10289537Y-6470135D01*
X10289535Y-6470138D01*
X10246682Y-6544361D01*
X10237304Y-6579361D01*
X10237304Y-6579362D01*
X10237303Y-6579361D01*
X10224500Y-6627145D01*
X10224500Y-6680500D01*
X10204815Y-6747539D01*
X10152011Y-6793294D01*
X10100500Y-6804500D01*
X10035386Y-6804500D01*
X9968347Y-6784815D01*
X9922592Y-6732011D01*
X9912648Y-6662853D01*
X9915607Y-6648423D01*
X9935500Y-6574183D01*
X9935500Y-6435817D01*
X9899688Y-6302164D01*
X9830505Y-6182335D01*
X9732665Y-6084495D01*
X9732664Y-6084494D01*
X9732661Y-6084492D01*
X9612838Y-6015313D01*
X9612837Y-6015312D01*
X9612836Y-6015312D01*
X9479183Y-5979500D01*
X9340817Y-5979500D01*
X9207164Y-6015312D01*
X9207161Y-6015313D01*
X9087338Y-6084492D01*
X9087333Y-6084496D01*
X8989496Y-6182333D01*
X8989492Y-6182338D01*
X8920313Y-6302161D01*
X8920312Y-6302162D01*
X8908462Y-6346390D01*
X8872096Y-6406050D01*
X8809249Y-6436579D01*
X8739874Y-6428284D01*
X8685996Y-6383798D01*
X8667070Y-6338488D01*
X8653581Y-6270677D01*
X8653580Y-6270676D01*
X8653580Y-6270672D01*
X8616989Y-6182333D01*
X8600778Y-6143195D01*
X8600771Y-6143182D01*
X8524114Y-6028458D01*
X8524111Y-6028454D01*
X8426545Y-5930888D01*
X8426541Y-5930885D01*
X8311817Y-5854228D01*
X8311804Y-5854221D01*
X8184332Y-5801421D01*
X8184322Y-5801418D01*
X8048995Y-5774500D01*
X8048993Y-5774500D01*
X7911007Y-5774500D01*
X7911005Y-5774500D01*
X7775677Y-5801418D01*
X7775667Y-5801421D01*
X7648195Y-5854221D01*
X7648182Y-5854228D01*
X7533458Y-5930885D01*
X7533454Y-5930888D01*
X7435888Y-6028454D01*
X7435885Y-6028458D01*
X7359228Y-6143182D01*
X7359221Y-6143195D01*
X7306421Y-6270667D01*
X7306418Y-6270677D01*
X7279500Y-6406004D01*
X7279500Y-6406007D01*
X7279500Y-7643993D01*
X7279500Y-7643995D01*
X7279499Y-7643995D01*
X7306418Y-7779322D01*
X7306421Y-7779332D01*
X7359221Y-7906804D01*
X7359228Y-7906817D01*
X7435885Y-8021541D01*
X7435888Y-8021545D01*
X7533454Y-8119111D01*
X7533458Y-8119114D01*
X7648182Y-8195771D01*
X7648195Y-8195778D01*
X7759958Y-8242071D01*
X7775672Y-8248580D01*
X7775676Y-8248580D01*
X7775677Y-8248581D01*
X7911004Y-8275500D01*
X7911007Y-8275500D01*
X8048995Y-8275500D01*
X8140041Y-8257389D01*
X8184328Y-8248580D01*
X8189376Y-8246488D01*
X8258843Y-8239017D01*
X8321323Y-8270289D01*
X8356979Y-8330376D01*
X8354488Y-8400201D01*
X8314643Y-8457596D01*
X8303873Y-8465363D01*
X8268873Y-8487856D01*
X8174623Y-8596626D01*
X8174622Y-8596628D01*
X8114834Y-8727543D01*
X8094353Y-8870000D01*
X8114834Y-9012456D01*
X8174622Y-9143371D01*
X8174623Y-9143373D01*
X8236079Y-9214297D01*
X8265104Y-9277853D01*
X8255160Y-9347012D01*
X8209405Y-9399816D01*
X8142366Y-9419500D01*
X6460691Y-9419500D01*
X6370325Y-9443713D01*
X6370324Y-9443712D01*
X6346116Y-9450199D01*
X6346113Y-9450200D01*
X6243386Y-9509511D01*
X6243383Y-9509513D01*
X5662013Y-10090883D01*
X5662011Y-10090886D01*
X5602700Y-10193613D01*
X5602699Y-10193616D01*
X5596750Y-10215816D01*
X5596751Y-10215817D01*
X5572000Y-10308191D01*
X5572000Y-10741600D01*
X5552315Y-10808639D01*
X5521635Y-10841369D01*
X5461070Y-10886069D01*
X5381545Y-10993819D01*
X5381544Y-10993821D01*
X5354041Y-11072421D01*
X5313319Y-11129197D01*
X5248366Y-11154944D01*
X5179805Y-11141487D01*
X5129402Y-11093100D01*
X5113000Y-11031466D01*
X5113000Y-10268380D01*
X5132685Y-10201341D01*
X5180702Y-10157897D01*
X5255751Y-10119658D01*
X5349658Y-10025751D01*
X5409951Y-9907420D01*
X5409951Y-9907418D01*
X5409952Y-9907417D01*
X5425500Y-9809251D01*
X5425500Y-9230748D01*
X5409952Y-9132582D01*
X5372677Y-9059427D01*
X5349658Y-9014249D01*
X5349654Y-9014245D01*
X5349653Y-9014243D01*
X5255756Y-8920346D01*
X5255753Y-8920344D01*
X5255751Y-8920342D01*
X5137420Y-8860049D01*
X5137419Y-8860048D01*
X5137416Y-8860047D01*
X5137417Y-8860047D01*
X5039251Y-8844500D01*
X5039246Y-8844500D01*
X4535754Y-8844500D01*
X4535749Y-8844500D01*
X4437582Y-8860047D01*
X4383314Y-8887699D01*
X4319249Y-8920342D01*
X4319248Y-8920343D01*
X4319243Y-8920346D01*
X4225346Y-9014243D01*
X4225343Y-9014248D01*
X4225342Y-9014249D01*
X4208840Y-9046636D01*
X4165047Y-9132582D01*
X4149500Y-9230748D01*
X4149500Y-9809251D01*
X4165047Y-9907417D01*
X4184364Y-9945329D01*
X4225342Y-10025751D01*
X4225344Y-10025753D01*
X4225346Y-10025756D01*
X4319243Y-10119653D01*
X4319247Y-10119656D01*
X4319249Y-10119658D01*
X4394297Y-10157897D01*
X4445091Y-10205869D01*
X4462000Y-10268380D01*
X4462000Y-11978940D01*
X4484182Y-12061728D01*
X4505608Y-12098838D01*
X4527035Y-12135950D01*
X4897390Y-12506305D01*
X5258905Y-12867819D01*
X5292390Y-12929142D01*
X5287406Y-12998833D01*
X5245534Y-13054767D01*
X5180070Y-13079184D01*
X5171224Y-13079500D01*
X5158036Y-13079500D01*
X5019949Y-13120045D01*
X4898873Y-13197856D01*
X4804623Y-13306626D01*
X4804622Y-13306628D01*
X4744834Y-13437543D01*
X4724353Y-13580000D01*
X4744834Y-13722456D01*
X4804622Y-13853371D01*
X4804623Y-13853373D01*
X4898872Y-13962143D01*
X5019947Y-14039953D01*
X5019950Y-14039954D01*
X5019949Y-14039954D01*
X5127107Y-14071417D01*
X5154129Y-14079352D01*
X5158036Y-14080499D01*
X5158038Y-14080500D01*
X5158039Y-14080500D01*
X5301961Y-14080500D01*
X5421084Y-14045522D01*
X5456017Y-14040500D01*
X5709988Y-14040500D01*
X5777027Y-14060185D01*
X5810311Y-14091621D01*
X5811476Y-14093225D01*
X5906774Y-14188523D01*
X5906778Y-14188526D01*
X5906780Y-14188528D01*
X6026874Y-14249719D01*
X6026876Y-14249719D01*
X6026878Y-14249720D01*
X6126507Y-14265500D01*
X6126512Y-14265500D01*
X6643492Y-14265500D01*
X6691101Y-14257959D01*
X6760394Y-14266913D01*
X6813847Y-14311909D01*
X6834487Y-14378660D01*
X6834500Y-14380432D01*
X6834500Y-14509567D01*
X6814815Y-14576606D01*
X6762011Y-14622361D01*
X6692853Y-14632305D01*
X6691103Y-14632041D01*
X6643488Y-14624500D01*
X6126512Y-14624500D01*
X6126507Y-14624500D01*
X6026878Y-14640279D01*
X5906778Y-14701473D01*
X5906774Y-14701476D01*
X5811476Y-14796774D01*
X5810311Y-14798379D01*
X5808392Y-14799858D01*
X5804571Y-14803680D01*
X5804077Y-14803186D01*
X5754983Y-14841048D01*
X5709988Y-14849500D01*
X5487727Y-14849500D01*
X5448995Y-14841073D01*
X5448563Y-14842545D01*
X5301963Y-14799500D01*
X5301961Y-14799500D01*
X5158039Y-14799500D01*
X5158036Y-14799500D01*
X5019949Y-14840045D01*
X4898873Y-14917856D01*
X4804623Y-15026626D01*
X4804622Y-15026628D01*
X4744834Y-15157543D01*
X4724353Y-15300000D01*
X4744834Y-15442456D01*
X4780595Y-15520760D01*
X4804623Y-15573373D01*
X4898872Y-15682143D01*
X5019947Y-15759953D01*
X5019950Y-15759954D01*
X5019949Y-15759954D01*
X5158036Y-15800499D01*
X5158038Y-15800500D01*
X5158039Y-15800500D01*
X5301962Y-15800500D01*
X5301962Y-15800499D01*
X5354797Y-15784985D01*
X5448563Y-15757455D01*
X5448995Y-15758926D01*
X5487727Y-15750500D01*
X5709988Y-15750500D01*
X5777027Y-15770185D01*
X5810311Y-15801621D01*
X5811476Y-15803225D01*
X5906774Y-15898523D01*
X5906778Y-15898526D01*
X5906780Y-15898528D01*
X6026874Y-15959719D01*
X6026876Y-15959719D01*
X6026878Y-15959720D01*
X6126507Y-15975500D01*
X6609811Y-15975500D01*
X6676850Y-15995185D01*
X6722605Y-16047989D01*
X6732549Y-16117147D01*
X6703524Y-16180703D01*
X6697511Y-16187160D01*
X6586489Y-16298183D01*
X6525168Y-16331666D01*
X6498810Y-16334500D01*
X6103482Y-16334500D01*
X6022519Y-16347323D01*
X6009696Y-16349354D01*
X5896658Y-16406950D01*
X5896657Y-16406951D01*
X5896652Y-16406954D01*
X5806954Y-16496652D01*
X5806951Y-16496657D01*
X5749352Y-16609698D01*
X5734500Y-16703475D01*
X5734500Y-17316517D01*
X5745292Y-17384657D01*
X5749354Y-17410304D01*
X5806950Y-17523342D01*
X5806952Y-17523344D01*
X5806954Y-17523347D01*
X5896652Y-17613045D01*
X5896654Y-17613046D01*
X5896658Y-17613050D01*
X6009694Y-17670645D01*
X6009698Y-17670647D01*
X6103475Y-17685499D01*
X6103481Y-17685500D01*
X6566518Y-17685499D01*
X6660304Y-17670646D01*
X6773342Y-17613050D01*
X6863050Y-17523342D01*
X6920646Y-17410304D01*
X6920646Y-17410302D01*
X6920647Y-17410301D01*
X6935499Y-17316524D01*
X6935500Y-17316519D01*
X6935499Y-16921187D01*
X6955183Y-16854149D01*
X6971813Y-16833512D01*
X7172820Y-16632506D01*
X7234142Y-16599022D01*
X7303834Y-16604006D01*
X7359767Y-16645878D01*
X7384184Y-16711342D01*
X7384500Y-16720188D01*
X7384500Y-17316517D01*
X7395292Y-17384657D01*
X7399354Y-17410304D01*
X7456950Y-17523342D01*
X7456952Y-17523344D01*
X7456953Y-17523346D01*
X7498180Y-17564572D01*
X7531666Y-17625895D01*
X7534500Y-17652254D01*
X7534500Y-17915500D01*
X7514815Y-17982539D01*
X7462011Y-18028294D01*
X7410500Y-18039500D01*
X7320247Y-18039500D01*
X7261770Y-18051131D01*
X7261769Y-18051132D01*
X7195447Y-18095447D01*
X7151132Y-18161769D01*
X7151131Y-18161770D01*
X7139500Y-18220247D01*
X7139500Y-19459752D01*
X7151131Y-19518229D01*
X7151132Y-19518230D01*
X7195447Y-19584552D01*
X7261769Y-19628867D01*
X7261770Y-19628868D01*
X7320247Y-19640499D01*
X7320250Y-19640500D01*
X7320252Y-19640500D01*
X8559750Y-19640500D01*
X8559751Y-19640499D01*
X8574568Y-19637552D01*
X8618229Y-19628868D01*
X8618229Y-19628867D01*
X8618231Y-19628867D01*
X8684552Y-19584552D01*
X8728867Y-19518231D01*
X8728867Y-19518229D01*
X8728868Y-19518229D01*
X8740499Y-19459752D01*
X8740500Y-19459750D01*
X8740500Y-18220249D01*
X8740499Y-18220247D01*
X8728868Y-18161770D01*
X8728867Y-18161769D01*
X8684552Y-18095447D01*
X8618230Y-18051132D01*
X8618229Y-18051131D01*
X8559752Y-18039500D01*
X8559748Y-18039500D01*
X8559500Y-18039500D01*
X8559373Y-18039462D01*
X8553688Y-18038903D01*
X8553794Y-18037824D01*
X8492461Y-18019815D01*
X8446706Y-17967011D01*
X8435500Y-17915500D01*
X8435500Y-17652254D01*
X8455185Y-17585215D01*
X8471820Y-17564572D01*
X8513046Y-17523346D01*
X8513050Y-17523342D01*
X8570646Y-17410304D01*
X8570646Y-17410302D01*
X8570647Y-17410301D01*
X8585499Y-17316524D01*
X8585500Y-17316519D01*
X8585499Y-16703482D01*
X8570646Y-16609696D01*
X8513050Y-16496658D01*
X8513046Y-16496654D01*
X8513045Y-16496652D01*
X8421819Y-16405426D01*
X8388334Y-16344103D01*
X8385500Y-16317745D01*
X8385500Y-15977611D01*
X8405185Y-15910572D01*
X8421819Y-15889930D01*
X8508523Y-15803225D01*
X8508528Y-15803220D01*
X8569719Y-15683126D01*
X8571661Y-15670864D01*
X8585500Y-15583493D01*
X8585500Y-15016506D01*
X8569720Y-14916878D01*
X8569719Y-14916876D01*
X8569719Y-14916874D01*
X8508528Y-14796780D01*
X8508526Y-14796778D01*
X8508523Y-14796774D01*
X8421819Y-14710070D01*
X8388334Y-14648747D01*
X8385500Y-14622389D01*
X8385500Y-14267611D01*
X8405185Y-14200572D01*
X8421819Y-14179930D01*
X8508523Y-14093225D01*
X8508528Y-14093220D01*
X8535390Y-14040500D01*
X8540382Y-14030704D01*
X8588356Y-13979909D01*
X8650866Y-13963000D01*
X9685500Y-13963000D01*
X9752539Y-13982685D01*
X9798294Y-14035489D01*
X9809500Y-14087000D01*
X9809500Y-14387483D01*
X9789815Y-14454522D01*
X9747500Y-14494870D01*
X9704791Y-14519527D01*
X9704786Y-14519531D01*
X9329529Y-14894788D01*
X9316211Y-14917857D01*
X9289636Y-14963887D01*
X9283386Y-14974712D01*
X9259500Y-15063856D01*
X9259500Y-21185880D01*
X9245985Y-21242174D01*
X9200279Y-21331876D01*
X9179196Y-21464997D01*
X9179196Y-21465002D01*
X9192041Y-21546102D01*
X9183086Y-21615396D01*
X9138090Y-21668847D01*
X9071339Y-21689487D01*
X9069568Y-21689500D01*
X8864500Y-21689500D01*
X8797461Y-21669815D01*
X8751706Y-21617011D01*
X8740500Y-21565500D01*
X8740500Y-21020249D01*
X8740499Y-21020247D01*
X8728868Y-20961770D01*
X8728867Y-20961769D01*
X8684552Y-20895447D01*
X8618230Y-20851132D01*
X8618229Y-20851131D01*
X8559752Y-20839500D01*
X8559748Y-20839500D01*
X7320252Y-20839500D01*
X7320247Y-20839500D01*
X7261770Y-20851131D01*
X7261769Y-20851132D01*
X7195447Y-20895447D01*
X7151132Y-20961769D01*
X7151131Y-20961770D01*
X7139500Y-21020247D01*
X7139500Y-22259752D01*
X7151131Y-22318229D01*
X7151132Y-22318230D01*
X7195447Y-22384552D01*
X7261769Y-22428867D01*
X7261770Y-22428868D01*
X7320247Y-22440499D01*
X7320250Y-22440500D01*
X7320252Y-22440500D01*
X7365500Y-22440500D01*
X7432539Y-22460185D01*
X7478294Y-22512989D01*
X7489500Y-22564500D01*
X7489500Y-23494117D01*
X7469815Y-23561156D01*
X7453181Y-23581798D01*
X5594513Y-25440465D01*
X5594509Y-25440471D01*
X5535201Y-25543194D01*
X5535200Y-25543199D01*
X5504500Y-25657773D01*
X5504500Y-27310324D01*
X5484815Y-27377363D01*
X5438955Y-27419681D01*
X5368549Y-27457315D01*
X5208589Y-27588589D01*
X5077317Y-27748547D01*
X4979769Y-27931043D01*
X4919699Y-28129067D01*
X4899417Y-28335000D01*
X4919699Y-28540932D01*
X4919700Y-28540934D01*
X4979768Y-28738954D01*
X5077315Y-28921450D01*
X5077317Y-28921452D01*
X5208589Y-29081410D01*
X5328901Y-29180146D01*
X5368236Y-29237892D01*
X5370107Y-29307736D01*
X5333920Y-29367505D01*
X5271164Y-29398221D01*
X5250237Y-29400000D01*
X1324501Y-29400000D01*
X1257462Y-29380315D01*
X1211707Y-29327511D01*
X1200501Y-29276000D01*
X1200500Y-9230748D01*
X2574500Y-9230748D01*
X2574500Y-9809251D01*
X2590047Y-9907417D01*
X2609364Y-9945329D01*
X2650342Y-10025751D01*
X2725682Y-10101091D01*
X2759166Y-10162412D01*
X2762000Y-10188771D01*
X2762000Y-10417292D01*
X2750794Y-10468803D01*
X2714835Y-10547541D01*
X2714834Y-10547542D01*
X2694353Y-10690000D01*
X2714834Y-10832456D01*
X2762970Y-10937857D01*
X2774623Y-10963373D01*
X2868872Y-11072143D01*
X2989947Y-11149953D01*
X2989950Y-11149954D01*
X2989949Y-11149954D01*
X3128036Y-11190499D01*
X3128038Y-11190500D01*
X3128039Y-11190500D01*
X3271962Y-11190500D01*
X3271962Y-11190499D01*
X3393055Y-11154944D01*
X3410050Y-11149954D01*
X3410050Y-11149953D01*
X3410053Y-11149953D01*
X3531128Y-11072143D01*
X3625377Y-10963373D01*
X3685165Y-10832457D01*
X3705647Y-10690000D01*
X3685165Y-10547543D01*
X3683201Y-10543242D01*
X3674205Y-10523542D01*
X3663000Y-10472032D01*
X3663000Y-10188771D01*
X3682685Y-10121732D01*
X3699314Y-10101094D01*
X3774658Y-10025751D01*
X3834951Y-9907420D01*
X3834951Y-9907418D01*
X3834952Y-9907417D01*
X3850500Y-9809251D01*
X3850500Y-9230748D01*
X3834952Y-9132582D01*
X3797677Y-9059427D01*
X3774658Y-9014249D01*
X3774654Y-9014245D01*
X3774653Y-9014243D01*
X3680756Y-8920346D01*
X3680753Y-8920344D01*
X3680751Y-8920342D01*
X3562420Y-8860049D01*
X3562419Y-8860048D01*
X3562416Y-8860047D01*
X3562417Y-8860047D01*
X3464251Y-8844500D01*
X3464246Y-8844500D01*
X2960754Y-8844500D01*
X2960749Y-8844500D01*
X2862582Y-8860047D01*
X2808314Y-8887699D01*
X2744249Y-8920342D01*
X2744248Y-8920343D01*
X2744243Y-8920346D01*
X2650346Y-9014243D01*
X2650343Y-9014248D01*
X2650342Y-9014249D01*
X2633840Y-9046636D01*
X2590047Y-9132582D01*
X2574500Y-9230748D01*
X1200500Y-9230748D01*
X1200500Y-4003461D01*
X1200695Y-3996508D01*
X1204683Y-3925500D01*
X1207352Y-3877973D01*
X2449500Y-3877973D01*
X2449500Y-4122026D01*
X2487678Y-4363072D01*
X2563097Y-4595187D01*
X2673896Y-4812642D01*
X2817339Y-5010076D01*
X2817343Y-5010081D01*
X2989918Y-5182656D01*
X2989923Y-5182660D01*
X3162136Y-5307779D01*
X3187361Y-5326106D01*
X3404815Y-5436904D01*
X3636924Y-5512321D01*
X3877973Y-5550500D01*
X3877974Y-5550500D01*
X4122026Y-5550500D01*
X4122027Y-5550500D01*
X4363076Y-5512321D01*
X4595185Y-5436904D01*
X4812639Y-5326106D01*
X5010083Y-5182655D01*
X5182655Y-5010083D01*
X5326106Y-4812639D01*
X5436904Y-4595185D01*
X5512321Y-4363076D01*
X5550500Y-4122027D01*
X5550500Y-3877973D01*
X5512321Y-3636924D01*
X5436904Y-3404815D01*
X5380439Y-3293995D01*
X7279499Y-3293995D01*
X7306418Y-3429322D01*
X7306421Y-3429332D01*
X7359221Y-3556804D01*
X7359228Y-3556817D01*
X7435885Y-3671541D01*
X7435888Y-3671545D01*
X7533454Y-3769111D01*
X7533458Y-3769114D01*
X7648182Y-3845771D01*
X7648195Y-3845778D01*
X7725922Y-3877973D01*
X7775672Y-3898580D01*
X7775676Y-3898580D01*
X7775677Y-3898581D01*
X7911004Y-3925500D01*
X7911007Y-3925500D01*
X8048995Y-3925500D01*
X8140041Y-3907389D01*
X8184328Y-3898580D01*
X8311811Y-3845775D01*
X8426542Y-3769114D01*
X8524114Y-3671542D01*
X8600775Y-3556811D01*
X8653580Y-3429328D01*
X8680500Y-3293995D01*
X15919499Y-3293995D01*
X15946418Y-3429322D01*
X15946421Y-3429332D01*
X15999221Y-3556804D01*
X15999228Y-3556817D01*
X16075885Y-3671541D01*
X16075888Y-3671545D01*
X16173454Y-3769111D01*
X16173458Y-3769114D01*
X16288182Y-3845771D01*
X16288195Y-3845778D01*
X16365922Y-3877973D01*
X16415672Y-3898580D01*
X16415676Y-3898580D01*
X16415677Y-3898581D01*
X16551004Y-3925500D01*
X16551007Y-3925500D01*
X16688995Y-3925500D01*
X16780041Y-3907389D01*
X16824328Y-3898580D01*
X16874078Y-3877973D01*
X19049500Y-3877973D01*
X19049500Y-4122026D01*
X19087678Y-4363072D01*
X19163097Y-4595187D01*
X19273896Y-4812642D01*
X19417339Y-5010076D01*
X19417343Y-5010081D01*
X19589918Y-5182656D01*
X19589923Y-5182660D01*
X19762136Y-5307779D01*
X19787361Y-5326106D01*
X20004815Y-5436904D01*
X20236924Y-5512321D01*
X20477973Y-5550500D01*
X20477974Y-5550500D01*
X20722026Y-5550500D01*
X20722027Y-5550500D01*
X20963076Y-5512321D01*
X21195185Y-5436904D01*
X21412639Y-5326106D01*
X21610083Y-5182655D01*
X21782655Y-5010083D01*
X21926106Y-4812639D01*
X22036904Y-4595185D01*
X22112321Y-4363076D01*
X22150500Y-4122027D01*
X22150500Y-3877973D01*
X22112321Y-3636924D01*
X22036904Y-3404815D01*
X21926106Y-3187361D01*
X21907779Y-3162136D01*
X21782660Y-2989923D01*
X21782656Y-2989918D01*
X21610081Y-2817343D01*
X21610076Y-2817339D01*
X21412642Y-2673896D01*
X21412641Y-2673895D01*
X21412639Y-2673894D01*
X21195185Y-2563096D01*
X20963076Y-2487679D01*
X20963074Y-2487678D01*
X20963072Y-2487678D01*
X20794769Y-2461021D01*
X20722027Y-2449500D01*
X20477973Y-2449500D01*
X20422093Y-2458350D01*
X20236927Y-2487678D01*
X20004812Y-2563097D01*
X19787357Y-2673896D01*
X19589923Y-2817339D01*
X19589918Y-2817343D01*
X19417343Y-2989918D01*
X19417339Y-2989923D01*
X19273896Y-3187357D01*
X19163097Y-3404812D01*
X19087678Y-3636927D01*
X19049500Y-3877973D01*
X16874078Y-3877973D01*
X16951811Y-3845775D01*
X17066542Y-3769114D01*
X17164114Y-3671542D01*
X17240775Y-3556811D01*
X17293580Y-3429328D01*
X17320500Y-3293993D01*
X17320500Y-2356007D01*
X17320500Y-2356004D01*
X17293581Y-2220677D01*
X17293580Y-2220676D01*
X17293580Y-2220672D01*
X17293578Y-2220667D01*
X17240778Y-2093195D01*
X17240771Y-2093182D01*
X17164114Y-1978458D01*
X17164111Y-1978454D01*
X17066545Y-1880888D01*
X17066541Y-1880885D01*
X16951817Y-1804228D01*
X16951804Y-1804221D01*
X16824332Y-1751421D01*
X16824322Y-1751418D01*
X16688995Y-1724500D01*
X16688993Y-1724500D01*
X16551007Y-1724500D01*
X16551005Y-1724500D01*
X16415677Y-1751418D01*
X16415667Y-1751421D01*
X16288195Y-1804221D01*
X16288182Y-1804228D01*
X16173458Y-1880885D01*
X16173454Y-1880888D01*
X16075888Y-1978454D01*
X16075885Y-1978458D01*
X15999228Y-2093182D01*
X15999221Y-2093195D01*
X15946421Y-2220667D01*
X15946418Y-2220677D01*
X15919500Y-2356004D01*
X15919500Y-2356007D01*
X15919500Y-3293993D01*
X15919500Y-3293995D01*
X15919499Y-3293995D01*
X8680500Y-3293995D01*
X8680500Y-3293993D01*
X8680500Y-2356007D01*
X8680500Y-2356004D01*
X8653581Y-2220677D01*
X8653580Y-2220676D01*
X8653580Y-2220672D01*
X8653578Y-2220667D01*
X8600778Y-2093195D01*
X8600771Y-2093182D01*
X8524114Y-1978458D01*
X8524111Y-1978454D01*
X8426545Y-1880888D01*
X8426541Y-1880885D01*
X8311817Y-1804228D01*
X8311804Y-1804221D01*
X8184332Y-1751421D01*
X8184322Y-1751418D01*
X8048995Y-1724500D01*
X8048993Y-1724500D01*
X7911007Y-1724500D01*
X7911005Y-1724500D01*
X7775677Y-1751418D01*
X7775667Y-1751421D01*
X7648195Y-1804221D01*
X7648182Y-1804228D01*
X7533458Y-1880885D01*
X7533454Y-1880888D01*
X7435888Y-1978454D01*
X7435885Y-1978458D01*
X7359228Y-2093182D01*
X7359221Y-2093195D01*
X7306421Y-2220667D01*
X7306418Y-2220677D01*
X7279500Y-2356004D01*
X7279500Y-2356007D01*
X7279500Y-3293993D01*
X7279500Y-3293995D01*
X7279499Y-3293995D01*
X5380439Y-3293995D01*
X5326106Y-3187361D01*
X5307779Y-3162136D01*
X5182660Y-2989923D01*
X5182656Y-2989918D01*
X5010081Y-2817343D01*
X5010076Y-2817339D01*
X4812642Y-2673896D01*
X4812641Y-2673895D01*
X4812639Y-2673894D01*
X4595185Y-2563096D01*
X4363076Y-2487679D01*
X4363074Y-2487678D01*
X4363072Y-2487678D01*
X4194769Y-2461021D01*
X4122027Y-2449500D01*
X3877973Y-2449500D01*
X3822093Y-2458350D01*
X3636927Y-2487678D01*
X3404812Y-2563097D01*
X3187357Y-2673896D01*
X2989923Y-2817339D01*
X2989918Y-2817343D01*
X2817343Y-2989918D01*
X2817339Y-2989923D01*
X2673896Y-3187357D01*
X2563097Y-3404812D01*
X2487678Y-3636927D01*
X2449500Y-3877973D01*
X1207352Y-3877973D01*
X1217712Y-3693494D01*
X1219266Y-3679700D01*
X1269522Y-3383914D01*
X1272615Y-3370362D01*
X1325339Y-3187357D01*
X1355672Y-3082067D01*
X1360264Y-3068946D01*
X1475077Y-2791761D01*
X1481097Y-2779262D01*
X1626239Y-2516645D01*
X1633616Y-2504906D01*
X1807238Y-2260210D01*
X1815884Y-2249367D01*
X2015823Y-2025635D01*
X2025635Y-2015823D01*
X2249367Y-1815884D01*
X2260214Y-1807236D01*
X2504906Y-1633616D01*
X2516645Y-1626239D01*
X2779262Y-1481097D01*
X2791761Y-1475077D01*
X3068950Y-1360262D01*
X3082067Y-1355672D01*
X3370368Y-1272613D01*
X3383914Y-1269522D01*
X3679700Y-1219266D01*
X3693494Y-1217712D01*
X3996526Y-1200694D01*
X4003479Y-1200499D01*
X20535451Y-1200499D01*
X20535455Y-1200500D01*
G37*
%TD.AperFunction*%
%TA.AperFunction,Conductor*%
%TO.N,GND*%
G36*
X8812343Y-7623104D02*
G01*
X9092941Y-7638857D01*
X9101007Y-7642742D01*
X9103309Y-7646625D01*
X9314210Y-8240936D01*
X9314113Y-8249026D01*
X9159474Y-8653663D01*
X9153320Y-8660167D01*
X9144368Y-8660415D01*
X9140272Y-8657759D01*
X8802910Y-8320397D01*
X8799483Y-8312125D01*
X8799990Y-7634776D01*
X8803423Y-7626508D01*
X8811699Y-7623087D01*
X8812343Y-7623104D01*
G37*
%TD.AperFunction*%
%TD*%
%TA.AperFunction,Conductor*%
%TO.N,Net-(F1-Pad1)*%
G36*
X9905089Y-7640361D02*
G01*
X9910535Y-7645807D01*
X10198335Y-8241553D01*
X10199500Y-8246642D01*
X10199500Y-8247031D01*
X10199341Y-8248954D01*
X10151630Y-8535223D01*
X10146890Y-8542821D01*
X10140089Y-8545000D01*
X9659911Y-8545000D01*
X9651638Y-8541573D01*
X9648370Y-8535223D01*
X9600659Y-8248954D01*
X9600500Y-8247031D01*
X9600500Y-8246642D01*
X9601665Y-8241553D01*
X9889465Y-7645807D01*
X9896149Y-7639848D01*
X9905089Y-7640361D01*
G37*
%TD.AperFunction*%
%TD*%
%TA.AperFunction,Conductor*%
%TO.N,/D-*%
G36*
X13059984Y-7667732D02*
G01*
X13061373Y-7671084D01*
X13199173Y-8241576D01*
X13199500Y-8244323D01*
X13199500Y-8244600D01*
X13198900Y-8248300D01*
X13152667Y-8387000D01*
X13146799Y-8393765D01*
X13141567Y-8395000D01*
X12958433Y-8395000D01*
X12950160Y-8391573D01*
X12947333Y-8387000D01*
X12901100Y-8248300D01*
X12900500Y-8244600D01*
X12900500Y-8244323D01*
X12900827Y-8241576D01*
X13038627Y-7671084D01*
X13043901Y-7663847D01*
X13052747Y-7662458D01*
X13059984Y-7667732D01*
G37*
%TD.AperFunction*%
%TD*%
%TA.AperFunction,Conductor*%
%TO.N,Net-(J1-CC1)*%
G36*
X13673362Y-6858427D02*
G01*
X13676630Y-6864777D01*
X13699341Y-7001046D01*
X13699500Y-7002969D01*
X13699500Y-7005676D01*
X13699173Y-7008423D01*
X13561372Y-7578915D01*
X13556098Y-7586152D01*
X13547252Y-7587541D01*
X13540015Y-7582267D01*
X13538627Y-7578919D01*
X13404454Y-7023442D01*
X13404149Y-7020011D01*
X13405000Y-7005676D01*
X13405000Y-7002969D01*
X13404301Y-6986035D01*
X13404142Y-6984112D01*
X13404070Y-6983534D01*
X13404137Y-6980173D01*
X13420165Y-6884007D01*
X13423371Y-6864776D01*
X13428112Y-6857179D01*
X13434912Y-6855000D01*
X13665089Y-6855000D01*
X13673362Y-6858427D01*
G37*
%TD.AperFunction*%
%TD*%
%TA.AperFunction,Conductor*%
%TO.N,GND*%
G36*
X15796105Y-7626063D02*
G01*
X15799991Y-7634131D01*
X15800009Y-7634778D01*
X15800516Y-8312115D01*
X15797095Y-8320391D01*
X15459727Y-8657759D01*
X15451454Y-8661186D01*
X15443181Y-8657759D01*
X15440525Y-8653663D01*
X15414016Y-8584298D01*
X15285886Y-8249024D01*
X15285790Y-8240939D01*
X15496691Y-7646622D01*
X15502686Y-7639974D01*
X15507055Y-7638857D01*
X15787653Y-7623105D01*
X15796105Y-7626063D01*
G37*
%TD.AperFunction*%
%TD*%
%TA.AperFunction,Conductor*%
%TO.N,/D+*%
G36*
X11559984Y-7667732D02*
G01*
X11561373Y-7671084D01*
X11699173Y-8241576D01*
X11699500Y-8244323D01*
X11699500Y-8247031D01*
X11699341Y-8248954D01*
X11676630Y-8385223D01*
X11671890Y-8392821D01*
X11665089Y-8395000D01*
X11434911Y-8395000D01*
X11426638Y-8391573D01*
X11423370Y-8385223D01*
X11400659Y-8248954D01*
X11400500Y-8247031D01*
X11400500Y-8244323D01*
X11400827Y-8241576D01*
X11538627Y-7671084D01*
X11543901Y-7663847D01*
X11552747Y-7662458D01*
X11559984Y-7667732D01*
G37*
%TD.AperFunction*%
%TD*%
%TA.AperFunction,Conductor*%
%TO.N,Net-(F1-Pad1)*%
G36*
X14705089Y-7640361D02*
G01*
X14710535Y-7645807D01*
X14998335Y-8241553D01*
X14999500Y-8246642D01*
X14999500Y-8247031D01*
X14999341Y-8248954D01*
X14951630Y-8535223D01*
X14946890Y-8542821D01*
X14940089Y-8545000D01*
X14459911Y-8545000D01*
X14451638Y-8541573D01*
X14448370Y-8535223D01*
X14400659Y-8248954D01*
X14400500Y-8247031D01*
X14400500Y-8246642D01*
X14401665Y-8241553D01*
X14689465Y-7645807D01*
X14696149Y-7639848D01*
X14705089Y-7640361D01*
G37*
%TD.AperFunction*%
%TD*%
%TA.AperFunction,Conductor*%
%TO.N,GND*%
G36*
X15796105Y-7626063D02*
G01*
X15799991Y-7634131D01*
X15800009Y-7634778D01*
X15800516Y-8312115D01*
X15797095Y-8320391D01*
X15459727Y-8657759D01*
X15451454Y-8661186D01*
X15443181Y-8657759D01*
X15440525Y-8653663D01*
X15414016Y-8584298D01*
X15285886Y-8249024D01*
X15285790Y-8240939D01*
X15496691Y-7646622D01*
X15502686Y-7639974D01*
X15507055Y-7638857D01*
X15787653Y-7623105D01*
X15796105Y-7626063D01*
G37*
%TD.AperFunction*%
%TD*%
%TA.AperFunction,NonConductor*%
G36*
X12827609Y-29919685D02*
G01*
X12873364Y-29972489D01*
X12883308Y-30041647D01*
X12854283Y-30105203D01*
X12839236Y-30119852D01*
X12828590Y-30128588D01*
X12697317Y-30288547D01*
X12599769Y-30471043D01*
X12539699Y-30669067D01*
X12519417Y-30875000D01*
X12539699Y-31080932D01*
X12595788Y-31265832D01*
X12596411Y-31335699D01*
X12564809Y-31389507D01*
X12488531Y-31465786D01*
X12488527Y-31465791D01*
X12438322Y-31552751D01*
X12436944Y-31551955D01*
X12398979Y-31599070D01*
X12332685Y-31621135D01*
X12264985Y-31603856D01*
X12240577Y-31584895D01*
X12045191Y-31389509D01*
X12011706Y-31328186D01*
X12014210Y-31265837D01*
X12070300Y-31080934D01*
X12090583Y-30875000D01*
X12070300Y-30669066D01*
X12010232Y-30471046D01*
X11912685Y-30288550D01*
X11852798Y-30215577D01*
X11781409Y-30128588D01*
X11770764Y-30119852D01*
X11731430Y-30062106D01*
X11729561Y-29992262D01*
X11765749Y-29932494D01*
X11828505Y-29901778D01*
X11849430Y-29900000D01*
X12760570Y-29900000D01*
X12827609Y-29919685D01*
G37*
%TD.AperFunction*%
%TA.AperFunction,NonConductor*%
G36*
X15367609Y-29919685D02*
G01*
X15413364Y-29972489D01*
X15423308Y-30041647D01*
X15394283Y-30105203D01*
X15379236Y-30119852D01*
X15368590Y-30128588D01*
X15237317Y-30288547D01*
X15139769Y-30471043D01*
X15079699Y-30669067D01*
X15059417Y-30875000D01*
X15079699Y-31080932D01*
X15135788Y-31265832D01*
X15136411Y-31335699D01*
X15104808Y-31389508D01*
X13331181Y-33163136D01*
X13269858Y-33196621D01*
X13200166Y-33191637D01*
X13144233Y-33149765D01*
X13119816Y-33084301D01*
X13119500Y-33075455D01*
X13119500Y-32001789D01*
X13139185Y-31934750D01*
X13191989Y-31888995D01*
X13261147Y-31879051D01*
X13279489Y-31883127D01*
X13369063Y-31910299D01*
X13369065Y-31910300D01*
X13387529Y-31912118D01*
X13575000Y-31930583D01*
X13780934Y-31910300D01*
X13978954Y-31850232D01*
X14161450Y-31752685D01*
X14321410Y-31621410D01*
X14452685Y-31461450D01*
X14550232Y-31278954D01*
X14610300Y-31080934D01*
X14630583Y-30875000D01*
X14610300Y-30669066D01*
X14550232Y-30471046D01*
X14452685Y-30288550D01*
X14392798Y-30215577D01*
X14321409Y-30128588D01*
X14310764Y-30119852D01*
X14271430Y-30062106D01*
X14269561Y-29992262D01*
X14305749Y-29932494D01*
X14368505Y-29901778D01*
X14389430Y-29900000D01*
X15300570Y-29900000D01*
X15367609Y-29919685D01*
G37*
%TD.AperFunction*%
%TA.AperFunction,NonConductor*%
G36*
X10287609Y-29919685D02*
G01*
X10333364Y-29972489D01*
X10343308Y-30041647D01*
X10314283Y-30105203D01*
X10299236Y-30119852D01*
X10288590Y-30128588D01*
X10157317Y-30288547D01*
X10059769Y-30471043D01*
X9999699Y-30669067D01*
X9979417Y-30875000D01*
X9999699Y-31080932D01*
X9999700Y-31080934D01*
X10059768Y-31278954D01*
X10157315Y-31461450D01*
X10160875Y-31465788D01*
X10288589Y-31621410D01*
X10385209Y-31700702D01*
X10448550Y-31752685D01*
X10631046Y-31850232D01*
X10829066Y-31910300D01*
X10829065Y-31910300D01*
X10847529Y-31912118D01*
X11035000Y-31930583D01*
X11240934Y-31910300D01*
X11425836Y-31854210D01*
X11495699Y-31853588D01*
X11549509Y-31885191D01*
X11807181Y-32142863D01*
X11840666Y-32204186D01*
X11843500Y-32230544D01*
X11843500Y-33428456D01*
X11823815Y-33495495D01*
X11771011Y-33541250D01*
X11701853Y-33551194D01*
X11638297Y-33522169D01*
X11631819Y-33516137D01*
X9505191Y-31389509D01*
X9471706Y-31328186D01*
X9474210Y-31265837D01*
X9530300Y-31080934D01*
X9550583Y-30875000D01*
X9530300Y-30669066D01*
X9470232Y-30471046D01*
X9372685Y-30288550D01*
X9312798Y-30215577D01*
X9241409Y-30128588D01*
X9230764Y-30119852D01*
X9191430Y-30062106D01*
X9189561Y-29992262D01*
X9225749Y-29932494D01*
X9288505Y-29901778D01*
X9309430Y-29900000D01*
X10220570Y-29900000D01*
X10287609Y-29919685D01*
G37*
%TD.AperFunction*%
%TA.AperFunction,NonConductor*%
G36*
X7747609Y-29919685D02*
G01*
X7793364Y-29972489D01*
X7803308Y-30041647D01*
X7774283Y-30105203D01*
X7759236Y-30119852D01*
X7748590Y-30128588D01*
X7617317Y-30288547D01*
X7519769Y-30471043D01*
X7459699Y-30669067D01*
X7439417Y-30875000D01*
X7459699Y-31080932D01*
X7459700Y-31080934D01*
X7519768Y-31278954D01*
X7617315Y-31461450D01*
X7620875Y-31465788D01*
X7748589Y-31621410D01*
X7845209Y-31700702D01*
X7908550Y-31752685D01*
X8091046Y-31850232D01*
X8289066Y-31910300D01*
X8289065Y-31910300D01*
X8307529Y-31912118D01*
X8495000Y-31930583D01*
X8700934Y-31910300D01*
X8885836Y-31854210D01*
X8955699Y-31853588D01*
X9009509Y-31885191D01*
X11232181Y-34107863D01*
X11265666Y-34169186D01*
X11268500Y-34195544D01*
X11268500Y-35410880D01*
X11254985Y-35467174D01*
X11209279Y-35556876D01*
X11188196Y-35689997D01*
X11188196Y-35690002D01*
X11201041Y-35771102D01*
X11192086Y-35840396D01*
X11147090Y-35893847D01*
X11080339Y-35914487D01*
X11078568Y-35914500D01*
X10996543Y-35914500D01*
X10929504Y-35894815D01*
X10908866Y-35878185D01*
X10856483Y-35825802D01*
X10751393Y-35774427D01*
X10751391Y-35774426D01*
X10683261Y-35764500D01*
X10683260Y-35764500D01*
X8974500Y-35764500D01*
X8907461Y-35744815D01*
X8861706Y-35692011D01*
X8850500Y-35640500D01*
X8850500Y-35619500D01*
X8870185Y-35552461D01*
X8922989Y-35506706D01*
X8974500Y-35495500D01*
X10683261Y-35495500D01*
X10705971Y-35492191D01*
X10751393Y-35485573D01*
X10856483Y-35434198D01*
X10939198Y-35351483D01*
X10990573Y-35246393D01*
X11000500Y-35178260D01*
X11000500Y-34811740D01*
X10990573Y-34743607D01*
X10939198Y-34638517D01*
X10939196Y-34638515D01*
X10939196Y-34638514D01*
X10856485Y-34555803D01*
X10751391Y-34504426D01*
X10683261Y-34494500D01*
X10683260Y-34494500D01*
X8966740Y-34494500D01*
X8966739Y-34494500D01*
X8898608Y-34504426D01*
X8842408Y-34531901D01*
X8787948Y-34544500D01*
X8047611Y-34544500D01*
X7980572Y-34524815D01*
X7959930Y-34508181D01*
X7873223Y-34421474D01*
X7871614Y-34420305D01*
X7870131Y-34418382D01*
X7866320Y-34414571D01*
X7866812Y-34414078D01*
X7828948Y-34364974D01*
X7820500Y-34319987D01*
X7820500Y-32230693D01*
X7820500Y-32230691D01*
X7789799Y-32116114D01*
X7789799Y-32116113D01*
X7730489Y-32013386D01*
X7041819Y-31324716D01*
X7008334Y-31263393D01*
X7005500Y-31237035D01*
X7005500Y-30024000D01*
X7025185Y-29956961D01*
X7077989Y-29911206D01*
X7129500Y-29900000D01*
X7680570Y-29900000D01*
X7747609Y-29919685D01*
G37*
%TD.AperFunction*%
%TA.AperFunction,NonConductor*%
G36*
X11786539Y-36635185D02*
G01*
X11832294Y-36687989D01*
X11843500Y-36739500D01*
X11843500Y-36989567D01*
X11823815Y-37056606D01*
X11771011Y-37102361D01*
X11701853Y-37112305D01*
X11700103Y-37112041D01*
X11663019Y-37106167D01*
X11619000Y-37099196D01*
X11618998Y-37099196D01*
X11618997Y-37099196D01*
X11485878Y-37120279D01*
X11485874Y-37120280D01*
X11485874Y-37120281D01*
X11386360Y-37170985D01*
X11330068Y-37184500D01*
X10996543Y-37184500D01*
X10929504Y-37164815D01*
X10908866Y-37148185D01*
X10856483Y-37095802D01*
X10751393Y-37044427D01*
X10751391Y-37044426D01*
X10683261Y-37034500D01*
X10683260Y-37034500D01*
X8974500Y-37034500D01*
X8907461Y-37014815D01*
X8861706Y-36962011D01*
X8850500Y-36910500D01*
X8850500Y-36889500D01*
X8870185Y-36822461D01*
X8922989Y-36776706D01*
X8974500Y-36765500D01*
X10683261Y-36765500D01*
X10705971Y-36762191D01*
X10751393Y-36755573D01*
X10856483Y-36704198D01*
X10908863Y-36651817D01*
X10970184Y-36618334D01*
X10996543Y-36615500D01*
X11719500Y-36615500D01*
X11786539Y-36635185D01*
G37*
%TD.AperFunction*%
%TA.AperFunction,NonConductor*%
G36*
X11211539Y-37905185D02*
G01*
X11257294Y-37957989D01*
X11268500Y-38009500D01*
X11268500Y-38353820D01*
X11248815Y-38420859D01*
X11196011Y-38466614D01*
X11126853Y-38476558D01*
X11112409Y-38473595D01*
X11041144Y-38454500D01*
X11041143Y-38454500D01*
X10996543Y-38454500D01*
X10929504Y-38434815D01*
X10908866Y-38418185D01*
X10856483Y-38365802D01*
X10751393Y-38314427D01*
X10751391Y-38314426D01*
X10683261Y-38304500D01*
X10683260Y-38304500D01*
X8974500Y-38304500D01*
X8907461Y-38284815D01*
X8861706Y-38232011D01*
X8850500Y-38180500D01*
X8850500Y-38159500D01*
X8870185Y-38092461D01*
X8922989Y-38046706D01*
X8974500Y-38035500D01*
X10683261Y-38035500D01*
X10705971Y-38032191D01*
X10751393Y-38025573D01*
X10856483Y-37974198D01*
X10908863Y-37921817D01*
X10970184Y-37888334D01*
X10996543Y-37885500D01*
X11144500Y-37885500D01*
X11211539Y-37905185D01*
G37*
%TD.AperFunction*%
%TA.AperFunction,NonConductor*%
G36*
X10805799Y-39307538D02*
G01*
X10858689Y-39353193D01*
X10878500Y-39420195D01*
X10878500Y-41344455D01*
X10858815Y-41411494D01*
X10842181Y-41432136D01*
X9936400Y-42337916D01*
X9875077Y-42371401D01*
X9868119Y-42372708D01*
X9851875Y-42375281D01*
X9851873Y-42375281D01*
X9851873Y-42375282D01*
X9731779Y-42436473D01*
X9731777Y-42436474D01*
X9723084Y-42440904D01*
X9721619Y-42438030D01*
X9671542Y-42455881D01*
X9603493Y-42440035D01*
X9554813Y-42389915D01*
X9540500Y-42332081D01*
X9540500Y-41210249D01*
X9540499Y-41210247D01*
X9528868Y-41151770D01*
X9528867Y-41151769D01*
X9484552Y-41085447D01*
X9418230Y-41041132D01*
X9418229Y-41041131D01*
X9359752Y-41029500D01*
X9359748Y-41029500D01*
X8974500Y-41029500D01*
X8907461Y-41009815D01*
X8861706Y-40957011D01*
X8850500Y-40905500D01*
X8850500Y-39429500D01*
X8870185Y-39362461D01*
X8922989Y-39316706D01*
X8974500Y-39305500D01*
X10683260Y-39305500D01*
X10736621Y-39297725D01*
X10805799Y-39307538D01*
G37*
%TD.AperFunction*%
%TA.AperFunction,NonConductor*%
G36*
X4847539Y-29919685D02*
G01*
X4893294Y-29972489D01*
X4904500Y-30024000D01*
X4904500Y-31744752D01*
X4916131Y-31803229D01*
X4916132Y-31803230D01*
X4960447Y-31869552D01*
X5026769Y-31913867D01*
X5026770Y-31913868D01*
X5085247Y-31925499D01*
X5085250Y-31925500D01*
X5085252Y-31925500D01*
X6317035Y-31925500D01*
X6384074Y-31945185D01*
X6404716Y-31961819D01*
X6883181Y-32440284D01*
X6916666Y-32501607D01*
X6919500Y-32527965D01*
X6919500Y-34319987D01*
X6899815Y-34387026D01*
X6868386Y-34420305D01*
X6866776Y-34421474D01*
X6771476Y-34516774D01*
X6771473Y-34516778D01*
X6710279Y-34636878D01*
X6694500Y-34736506D01*
X6694500Y-35253493D01*
X6710279Y-35353121D01*
X6710280Y-35353124D01*
X6710281Y-35353126D01*
X6771472Y-35473220D01*
X6771473Y-35473221D01*
X6771476Y-35473225D01*
X6866774Y-35568523D01*
X6866778Y-35568526D01*
X6866780Y-35568528D01*
X6986874Y-35629719D01*
X6986876Y-35629719D01*
X6986878Y-35629720D01*
X7086507Y-35645500D01*
X7086512Y-35645500D01*
X7653493Y-35645500D01*
X7753121Y-35629720D01*
X7753121Y-35629719D01*
X7753126Y-35629719D01*
X7769207Y-35621525D01*
X7837872Y-35608629D01*
X7902613Y-35634904D01*
X7942871Y-35692010D01*
X7949500Y-35732010D01*
X7949500Y-35807989D01*
X7929815Y-35875028D01*
X7877011Y-35920783D01*
X7807853Y-35930727D01*
X7769208Y-35918475D01*
X7753126Y-35910281D01*
X7753125Y-35910280D01*
X7753122Y-35910279D01*
X7653493Y-35894500D01*
X7653488Y-35894500D01*
X7086512Y-35894500D01*
X7086507Y-35894500D01*
X6986878Y-35910279D01*
X6986874Y-35910280D01*
X6986874Y-35910281D01*
X6919878Y-35944417D01*
X6866778Y-35971473D01*
X6866774Y-35971476D01*
X6771476Y-36066774D01*
X6771473Y-36066778D01*
X6710279Y-36186878D01*
X6694500Y-36286506D01*
X6694500Y-36803493D01*
X6710279Y-36903121D01*
X6710280Y-36903124D01*
X6710281Y-36903126D01*
X6771472Y-37023220D01*
X6771473Y-37023221D01*
X6771476Y-37023225D01*
X6866774Y-37118523D01*
X6866777Y-37118525D01*
X6866780Y-37118528D01*
X6866782Y-37118529D01*
X6868379Y-37119689D01*
X6869858Y-37121607D01*
X6873680Y-37125429D01*
X6873186Y-37125922D01*
X6911048Y-37175017D01*
X6919500Y-37220012D01*
X6919500Y-37454663D01*
X6908294Y-37506174D01*
X6884835Y-37557541D01*
X6884834Y-37557542D01*
X6864353Y-37700000D01*
X6884834Y-37842456D01*
X6913482Y-37905185D01*
X6944623Y-37973373D01*
X7038872Y-38082143D01*
X7159947Y-38159953D01*
X7159950Y-38159954D01*
X7159949Y-38159954D01*
X7298036Y-38200499D01*
X7298038Y-38200500D01*
X7298039Y-38200500D01*
X7441962Y-38200500D01*
X7441962Y-38200499D01*
X7580053Y-38159953D01*
X7701128Y-38082143D01*
X7731788Y-38046758D01*
X7790564Y-38008985D01*
X7860434Y-38008985D01*
X7919212Y-38046758D01*
X7948238Y-38110314D01*
X7949500Y-38127962D01*
X7949500Y-40905500D01*
X7929815Y-40972539D01*
X7877011Y-41018294D01*
X7825500Y-41029500D01*
X7620247Y-41029500D01*
X7561770Y-41041131D01*
X7561769Y-41041132D01*
X7495447Y-41085447D01*
X7451132Y-41151769D01*
X7451131Y-41151770D01*
X7439500Y-41210247D01*
X7439500Y-42949752D01*
X7451131Y-43008229D01*
X7451132Y-43008230D01*
X7495447Y-43074552D01*
X7561769Y-43118867D01*
X7561770Y-43118868D01*
X7620247Y-43130499D01*
X7620250Y-43130500D01*
X7620252Y-43130500D01*
X9359750Y-43130500D01*
X9359751Y-43130499D01*
X9374568Y-43127552D01*
X9418229Y-43118868D01*
X9418229Y-43118867D01*
X9418231Y-43118867D01*
X9484552Y-43074552D01*
X9484553Y-43074551D01*
X9490996Y-43068109D01*
X9552319Y-43034624D01*
X9622011Y-43039608D01*
X9666358Y-43068109D01*
X9731773Y-43133524D01*
X9731776Y-43133526D01*
X9731779Y-43133529D01*
X9731781Y-43133530D01*
X9739671Y-43139262D01*
X9738013Y-43141543D01*
X9777682Y-43178996D01*
X9794489Y-43246814D01*
X9771963Y-43312953D01*
X9758283Y-43329206D01*
X9303515Y-43783974D01*
X9242192Y-43817459D01*
X9172500Y-43812475D01*
X9137169Y-43792146D01*
X9076453Y-43742317D01*
X9076451Y-43742316D01*
X9076450Y-43742315D01*
X8921020Y-43659235D01*
X8893956Y-43644769D01*
X8893955Y-43644768D01*
X8893954Y-43644768D01*
X8695934Y-43584700D01*
X8695932Y-43584699D01*
X8695934Y-43584699D01*
X8490000Y-43564417D01*
X8284067Y-43584699D01*
X8108692Y-43637898D01*
X8099167Y-43640788D01*
X8086043Y-43644769D01*
X7975898Y-43703643D01*
X7903550Y-43742315D01*
X7903548Y-43742316D01*
X7903547Y-43742317D01*
X7743589Y-43873589D01*
X7612317Y-44033547D01*
X7612315Y-44033550D01*
X7589014Y-44077143D01*
X7514769Y-44216043D01*
X7454699Y-44414067D01*
X7434417Y-44620000D01*
X7454699Y-44825932D01*
X7454700Y-44825934D01*
X7514768Y-45023954D01*
X7612315Y-45206450D01*
X7612317Y-45206452D01*
X7743589Y-45366410D01*
X7840209Y-45445702D01*
X7903550Y-45497685D01*
X8086046Y-45595232D01*
X8284066Y-45655300D01*
X8284065Y-45655300D01*
X8302529Y-45657118D01*
X8490000Y-45675583D01*
X8695934Y-45655300D01*
X8893954Y-45595232D01*
X9076450Y-45497685D01*
X9236410Y-45366410D01*
X9367685Y-45206450D01*
X9465232Y-45023954D01*
X9525300Y-44825934D01*
X9545583Y-44620000D01*
X9543555Y-44599411D01*
X9556573Y-44530766D01*
X9579274Y-44499579D01*
X11056819Y-43022035D01*
X11118142Y-42988550D01*
X11187834Y-42993534D01*
X11243767Y-43035406D01*
X11268184Y-43100870D01*
X11268500Y-43109716D01*
X11268500Y-43834455D01*
X11248815Y-43901494D01*
X11232181Y-43922136D01*
X9004508Y-46149808D01*
X8943185Y-46183293D01*
X8880833Y-46180788D01*
X8695934Y-46124700D01*
X8695932Y-46124699D01*
X8695934Y-46124699D01*
X8490000Y-46104417D01*
X8284067Y-46124699D01*
X8108692Y-46177898D01*
X8090909Y-46183293D01*
X8086043Y-46184769D01*
X7975898Y-46243643D01*
X7903550Y-46282315D01*
X7903548Y-46282316D01*
X7903547Y-46282317D01*
X7743589Y-46413589D01*
X7612317Y-46573547D01*
X7514769Y-46756043D01*
X7454699Y-46954067D01*
X7434417Y-47160000D01*
X7454699Y-47365932D01*
X7454700Y-47365934D01*
X7514768Y-47563954D01*
X7612315Y-47746450D01*
X7612317Y-47746452D01*
X7743589Y-47906410D01*
X7840209Y-47985702D01*
X7903550Y-48037685D01*
X8086046Y-48135232D01*
X8284066Y-48195300D01*
X8284065Y-48195300D01*
X8302529Y-48197118D01*
X8490000Y-48215583D01*
X8695934Y-48195300D01*
X8893954Y-48135232D01*
X9076450Y-48037685D01*
X9236410Y-47906410D01*
X9367685Y-47746450D01*
X9465232Y-47563954D01*
X9525300Y-47365934D01*
X9545583Y-47160000D01*
X9525300Y-46954066D01*
X9469210Y-46769163D01*
X9468588Y-46699298D01*
X9500189Y-46645491D01*
X11899469Y-44246212D01*
X11945614Y-44166288D01*
X11969500Y-44077144D01*
X11969500Y-41940432D01*
X11989185Y-41873393D01*
X12041989Y-41827638D01*
X12111147Y-41817694D01*
X12112898Y-41817959D01*
X12193998Y-41830804D01*
X12194000Y-41830804D01*
X12194002Y-41830804D01*
X12275102Y-41817959D01*
X12344396Y-41826914D01*
X12397847Y-41871910D01*
X12418487Y-41938661D01*
X12418500Y-41940432D01*
X12418500Y-43865146D01*
X12426690Y-43895709D01*
X12426690Y-43895711D01*
X12426691Y-43895711D01*
X12426691Y-43895712D01*
X12428240Y-43901494D01*
X12442387Y-43954290D01*
X12488527Y-44034208D01*
X12488531Y-44034213D01*
X15099808Y-46645490D01*
X15133293Y-46706813D01*
X15130788Y-46769166D01*
X15074699Y-46954067D01*
X15054417Y-47160000D01*
X15074699Y-47365932D01*
X15074700Y-47365934D01*
X15134768Y-47563954D01*
X15232315Y-47746450D01*
X15232317Y-47746452D01*
X15363589Y-47906410D01*
X15460209Y-47985702D01*
X15523550Y-48037685D01*
X15706046Y-48135232D01*
X15904066Y-48195300D01*
X15904065Y-48195300D01*
X15922529Y-48197118D01*
X16110000Y-48215583D01*
X16315934Y-48195300D01*
X16513954Y-48135232D01*
X16696450Y-48037685D01*
X16856410Y-47906410D01*
X16987685Y-47746450D01*
X17085232Y-47563954D01*
X17145300Y-47365934D01*
X17165583Y-47160000D01*
X17145300Y-46954066D01*
X17085232Y-46756046D01*
X16987685Y-46573550D01*
X16935702Y-46510209D01*
X16856410Y-46413589D01*
X16696452Y-46282317D01*
X16696453Y-46282317D01*
X16696450Y-46282315D01*
X16513954Y-46184768D01*
X16315934Y-46124700D01*
X16315932Y-46124699D01*
X16315934Y-46124699D01*
X16110000Y-46104417D01*
X15904067Y-46124699D01*
X15719166Y-46180788D01*
X15649299Y-46181411D01*
X15595490Y-46149808D01*
X13155819Y-43710137D01*
X13122334Y-43648814D01*
X13119500Y-43622456D01*
X13119500Y-42424544D01*
X13139185Y-42357505D01*
X13191989Y-42311750D01*
X13261147Y-42301806D01*
X13324703Y-42330831D01*
X13331181Y-42336863D01*
X15099808Y-44105490D01*
X15133293Y-44166813D01*
X15130788Y-44229166D01*
X15074699Y-44414067D01*
X15054417Y-44620000D01*
X15074699Y-44825932D01*
X15074700Y-44825934D01*
X15134768Y-45023954D01*
X15232315Y-45206450D01*
X15232317Y-45206452D01*
X15363589Y-45366410D01*
X15460209Y-45445702D01*
X15523550Y-45497685D01*
X15706046Y-45595232D01*
X15904066Y-45655300D01*
X15904065Y-45655300D01*
X15922529Y-45657118D01*
X16110000Y-45675583D01*
X16315934Y-45655300D01*
X16513954Y-45595232D01*
X16696450Y-45497685D01*
X16856410Y-45366410D01*
X16987685Y-45206450D01*
X17085232Y-45023954D01*
X17145300Y-44825934D01*
X17165583Y-44620000D01*
X17145300Y-44414066D01*
X17085232Y-44216046D01*
X16987685Y-44033550D01*
X16935702Y-43970209D01*
X16856410Y-43873589D01*
X16696452Y-43742317D01*
X16696453Y-43742317D01*
X16696450Y-43742315D01*
X16526554Y-43651502D01*
X16513956Y-43644769D01*
X16513955Y-43644768D01*
X16513954Y-43644768D01*
X16315934Y-43584700D01*
X16315932Y-43584699D01*
X16315934Y-43584699D01*
X16110000Y-43564417D01*
X15904067Y-43584699D01*
X15719166Y-43640788D01*
X15649299Y-43641411D01*
X15595490Y-43609808D01*
X14114305Y-42128623D01*
X14087755Y-42080000D01*
X15054417Y-42080000D01*
X15074699Y-42285932D01*
X15099111Y-42366406D01*
X15134768Y-42483954D01*
X15232315Y-42666450D01*
X15232317Y-42666452D01*
X15363589Y-42826410D01*
X15456104Y-42902334D01*
X15523550Y-42957685D01*
X15706046Y-43055232D01*
X15904066Y-43115300D01*
X15904065Y-43115300D01*
X15922529Y-43117118D01*
X16110000Y-43135583D01*
X16315934Y-43115300D01*
X16513954Y-43055232D01*
X16696450Y-42957685D01*
X16856410Y-42826410D01*
X16987685Y-42666450D01*
X17085232Y-42483954D01*
X17145300Y-42285934D01*
X17165583Y-42080000D01*
X17145300Y-41874066D01*
X17085232Y-41676046D01*
X16987685Y-41493550D01*
X16865327Y-41344455D01*
X16856410Y-41333589D01*
X16706121Y-41210252D01*
X16696450Y-41202315D01*
X16513954Y-41104768D01*
X16315934Y-41044700D01*
X16315932Y-41044699D01*
X16315934Y-41044699D01*
X16110000Y-41024417D01*
X15904067Y-41044699D01*
X15706043Y-41104769D01*
X15618114Y-41151769D01*
X15523550Y-41202315D01*
X15523548Y-41202316D01*
X15523547Y-41202317D01*
X15363589Y-41333589D01*
X15232317Y-41493547D01*
X15134769Y-41676043D01*
X15074699Y-41874067D01*
X15054417Y-42080000D01*
X14087755Y-42080000D01*
X14080820Y-42067300D01*
X14085804Y-41997608D01*
X14127676Y-41941675D01*
X14145685Y-41930460D01*
X14172220Y-41916941D01*
X14267528Y-41821633D01*
X14328719Y-41701539D01*
X14349804Y-41568413D01*
X14349804Y-41568410D01*
X14328720Y-41435289D01*
X14283015Y-41345587D01*
X14269500Y-41289293D01*
X14269500Y-39857544D01*
X14289185Y-39790505D01*
X14305819Y-39769863D01*
X14733863Y-39341819D01*
X14795186Y-39308334D01*
X14821544Y-39305500D01*
X15633261Y-39305500D01*
X15655971Y-39302191D01*
X15701393Y-39295573D01*
X15806483Y-39244198D01*
X15889198Y-39161483D01*
X15940573Y-39056393D01*
X15950500Y-38988260D01*
X15950500Y-38621740D01*
X15940573Y-38553607D01*
X15889198Y-38448517D01*
X15889196Y-38448515D01*
X15889196Y-38448514D01*
X15806485Y-38365803D01*
X15701391Y-38314426D01*
X15633261Y-38304500D01*
X15633260Y-38304500D01*
X13916740Y-38304500D01*
X13909962Y-38305487D01*
X13906615Y-38305975D01*
X13837439Y-38296157D01*
X13784552Y-38250498D01*
X13764745Y-38183494D01*
X13766271Y-38163874D01*
X13766964Y-38159500D01*
X13770380Y-38137930D01*
X13800307Y-38074798D01*
X13859618Y-38037865D01*
X13910735Y-38034625D01*
X13916740Y-38035500D01*
X13916741Y-38035500D01*
X15633261Y-38035500D01*
X15655971Y-38032191D01*
X15701393Y-38025573D01*
X15806483Y-37974198D01*
X15889198Y-37891483D01*
X15940573Y-37786393D01*
X15950500Y-37718260D01*
X15950500Y-37351740D01*
X15940573Y-37283607D01*
X15889198Y-37178517D01*
X15889196Y-37178515D01*
X15889196Y-37178514D01*
X15806485Y-37095803D01*
X15701391Y-37044426D01*
X15633261Y-37034500D01*
X15633260Y-37034500D01*
X13916740Y-37034500D01*
X13916739Y-37034500D01*
X13848608Y-37044426D01*
X13743516Y-37095802D01*
X13727308Y-37112011D01*
X13691136Y-37148182D01*
X13629816Y-37181666D01*
X13603457Y-37184500D01*
X13243500Y-37184500D01*
X13176461Y-37164815D01*
X13130706Y-37112011D01*
X13119500Y-37060500D01*
X13119500Y-37000000D01*
X20134417Y-37000000D01*
X20154699Y-37205932D01*
X20178262Y-37283608D01*
X20214768Y-37403954D01*
X20312315Y-37586450D01*
X20312317Y-37586452D01*
X20443589Y-37746410D01*
X20540209Y-37825702D01*
X20603550Y-37877685D01*
X20786046Y-37975232D01*
X20984066Y-38035300D01*
X20984065Y-38035300D01*
X21002529Y-38037118D01*
X21190000Y-38055583D01*
X21395934Y-38035300D01*
X21593954Y-37975232D01*
X21776450Y-37877685D01*
X21936410Y-37746410D01*
X22067685Y-37586450D01*
X22165232Y-37403954D01*
X22225300Y-37205934D01*
X22245583Y-37000000D01*
X22225300Y-36794066D01*
X22165232Y-36596046D01*
X22067685Y-36413550D01*
X22015702Y-36350209D01*
X21936410Y-36253589D01*
X21776452Y-36122317D01*
X21776453Y-36122317D01*
X21776450Y-36122315D01*
X21593954Y-36024768D01*
X21395934Y-35964700D01*
X21395932Y-35964699D01*
X21395934Y-35964699D01*
X21190000Y-35944417D01*
X20984067Y-35964699D01*
X20786043Y-36024769D01*
X20679462Y-36081739D01*
X20603550Y-36122315D01*
X20603548Y-36122316D01*
X20603547Y-36122317D01*
X20443589Y-36253589D01*
X20312317Y-36413547D01*
X20214769Y-36596043D01*
X20154699Y-36794067D01*
X20134417Y-37000000D01*
X13119500Y-37000000D01*
X13119500Y-36790432D01*
X13139185Y-36723393D01*
X13191989Y-36677638D01*
X13261147Y-36667694D01*
X13262898Y-36667959D01*
X13343998Y-36680804D01*
X13344000Y-36680804D01*
X13344002Y-36680804D01*
X13477123Y-36659720D01*
X13477124Y-36659719D01*
X13477126Y-36659719D01*
X13525277Y-36635185D01*
X13537387Y-36629015D01*
X13593681Y-36615500D01*
X13603457Y-36615500D01*
X13670496Y-36635185D01*
X13691133Y-36651814D01*
X13743517Y-36704198D01*
X13848607Y-36755573D01*
X13882673Y-36760536D01*
X13916739Y-36765500D01*
X13916740Y-36765500D01*
X15633261Y-36765500D01*
X15655971Y-36762191D01*
X15701393Y-36755573D01*
X15806483Y-36704198D01*
X15889198Y-36621483D01*
X15940573Y-36516393D01*
X15950500Y-36448260D01*
X15950500Y-36081740D01*
X15948319Y-36066774D01*
X15940573Y-36013608D01*
X15940573Y-36013607D01*
X15889198Y-35908517D01*
X15889196Y-35908515D01*
X15889196Y-35908514D01*
X15806485Y-35825803D01*
X15701391Y-35774426D01*
X15633261Y-35764500D01*
X15633260Y-35764500D01*
X13916740Y-35764500D01*
X13916739Y-35764500D01*
X13839078Y-35775815D01*
X13838617Y-35772652D01*
X13785233Y-35773399D01*
X13725932Y-35736451D01*
X13696021Y-35673308D01*
X13694500Y-35653945D01*
X13694500Y-35606054D01*
X13714185Y-35539015D01*
X13766989Y-35493260D01*
X13836147Y-35483316D01*
X13841714Y-35484569D01*
X13916739Y-35495500D01*
X13916740Y-35495500D01*
X15633261Y-35495500D01*
X15655971Y-35492191D01*
X15701393Y-35485573D01*
X15757592Y-35458098D01*
X15812052Y-35445500D01*
X16191325Y-35445500D01*
X16242839Y-35456707D01*
X16249949Y-35459954D01*
X16357107Y-35491417D01*
X16382477Y-35498867D01*
X16388036Y-35500499D01*
X16388038Y-35500500D01*
X16388039Y-35500500D01*
X16531962Y-35500500D01*
X16531962Y-35500499D01*
X16670053Y-35459953D01*
X16791128Y-35382143D01*
X16885377Y-35273373D01*
X16945165Y-35142457D01*
X16965647Y-35000000D01*
X16945165Y-34857543D01*
X16885377Y-34726627D01*
X16791128Y-34617857D01*
X16670053Y-34540047D01*
X16670051Y-34540046D01*
X16670049Y-34540045D01*
X16670050Y-34540045D01*
X16531963Y-34499500D01*
X16531961Y-34499500D01*
X16388039Y-34499500D01*
X16388036Y-34499500D01*
X16251886Y-34539477D01*
X16216952Y-34544500D01*
X15812052Y-34544500D01*
X15757592Y-34531901D01*
X15743097Y-34524815D01*
X15701393Y-34504427D01*
X15701391Y-34504426D01*
X15633261Y-34494500D01*
X15633260Y-34494500D01*
X13916740Y-34494500D01*
X13916739Y-34494500D01*
X13839078Y-34505815D01*
X13838617Y-34502652D01*
X13785233Y-34503399D01*
X13725932Y-34466451D01*
X13696021Y-34403308D01*
X13694500Y-34383945D01*
X13694500Y-33842543D01*
X13714185Y-33775504D01*
X13730814Y-33754867D01*
X13895434Y-33590247D01*
X20139500Y-33590247D01*
X20139500Y-35329752D01*
X20151131Y-35388229D01*
X20151132Y-35388230D01*
X20195447Y-35454552D01*
X20261769Y-35498867D01*
X20261770Y-35498868D01*
X20320247Y-35510499D01*
X20320250Y-35510500D01*
X20320252Y-35510500D01*
X22059750Y-35510500D01*
X22059751Y-35510499D01*
X22078822Y-35506706D01*
X22118229Y-35498868D01*
X22118229Y-35498867D01*
X22118231Y-35498867D01*
X22184552Y-35454552D01*
X22228867Y-35388231D01*
X22228867Y-35388229D01*
X22228868Y-35388229D01*
X22240499Y-35329752D01*
X22240500Y-35329750D01*
X22240500Y-33590249D01*
X22240499Y-33590247D01*
X22228868Y-33531770D01*
X22228867Y-33531769D01*
X22184552Y-33465447D01*
X22118230Y-33421132D01*
X22118229Y-33421131D01*
X22059752Y-33409500D01*
X22059748Y-33409500D01*
X20320252Y-33409500D01*
X20320247Y-33409500D01*
X20261770Y-33421131D01*
X20261769Y-33421132D01*
X20195447Y-33465447D01*
X20151132Y-33531769D01*
X20151131Y-33531770D01*
X20139500Y-33590247D01*
X13895434Y-33590247D01*
X15600491Y-31885189D01*
X15661812Y-31851706D01*
X15724162Y-31854210D01*
X15909066Y-31910300D01*
X15909065Y-31910300D01*
X15927529Y-31912118D01*
X16115000Y-31930583D01*
X16320934Y-31910300D01*
X16518954Y-31850232D01*
X16701450Y-31752685D01*
X16861410Y-31621410D01*
X16992685Y-31461450D01*
X17090232Y-31278954D01*
X17150300Y-31080934D01*
X17170583Y-30875000D01*
X17150300Y-30669066D01*
X17090232Y-30471046D01*
X16992685Y-30288550D01*
X16932798Y-30215577D01*
X16861409Y-30128588D01*
X16850764Y-30119852D01*
X16811430Y-30062106D01*
X16809561Y-29992262D01*
X16845749Y-29932494D01*
X16908505Y-29901778D01*
X16929430Y-29900000D01*
X17840570Y-29900000D01*
X17907609Y-29919685D01*
X17953364Y-29972489D01*
X17963308Y-30041647D01*
X17934283Y-30105203D01*
X17919236Y-30119852D01*
X17908590Y-30128588D01*
X17777317Y-30288547D01*
X17679769Y-30471043D01*
X17619699Y-30669067D01*
X17599417Y-30875000D01*
X17619699Y-31080932D01*
X17619700Y-31080934D01*
X17679768Y-31278954D01*
X17777315Y-31461450D01*
X17780875Y-31465788D01*
X17908589Y-31621410D01*
X18005209Y-31700702D01*
X18068550Y-31752685D01*
X18251046Y-31850232D01*
X18449066Y-31910300D01*
X18449065Y-31910300D01*
X18467529Y-31912118D01*
X18655000Y-31930583D01*
X18860934Y-31910300D01*
X19058954Y-31850232D01*
X19241450Y-31752685D01*
X19401410Y-31621410D01*
X19532685Y-31461450D01*
X19630232Y-31278954D01*
X19690300Y-31080934D01*
X19710583Y-30875000D01*
X19690300Y-30669066D01*
X19630232Y-30471046D01*
X19532685Y-30288550D01*
X19472798Y-30215577D01*
X19401409Y-30128588D01*
X19390764Y-30119852D01*
X19351430Y-30062106D01*
X19349561Y-29992262D01*
X19385749Y-29932494D01*
X19448505Y-29901778D01*
X19469430Y-29900000D01*
X23275499Y-29900000D01*
X23342538Y-29919685D01*
X23388293Y-29972489D01*
X23399499Y-30024000D01*
X23399499Y-38323906D01*
X23398902Y-38336060D01*
X23385334Y-38473818D01*
X23380592Y-38497659D01*
X23342185Y-38624270D01*
X23332882Y-38646729D01*
X23270516Y-38763406D01*
X23257011Y-38783617D01*
X23173078Y-38885890D01*
X23155890Y-38903078D01*
X23053617Y-38987011D01*
X23033406Y-39000516D01*
X22916729Y-39062882D01*
X22894270Y-39072185D01*
X22767659Y-39110592D01*
X22743818Y-39115334D01*
X22606061Y-39128902D01*
X22593907Y-39129499D01*
X22560116Y-39129499D01*
X19410119Y-39129501D01*
X19355515Y-39129501D01*
X19168882Y-39159060D01*
X18989164Y-39217455D01*
X18820801Y-39303241D01*
X18767704Y-39341819D01*
X18667928Y-39414311D01*
X18667926Y-39414313D01*
X18667925Y-39414313D01*
X18534313Y-39547925D01*
X18534313Y-39547926D01*
X18534311Y-39547928D01*
X18486611Y-39613580D01*
X18423241Y-39700801D01*
X18337455Y-39869164D01*
X18279060Y-40048882D01*
X18249501Y-40235514D01*
X18249501Y-40290119D01*
X18249500Y-50960117D01*
X18249500Y-50993907D01*
X18248903Y-51006061D01*
X18235335Y-51143819D01*
X18230593Y-51167661D01*
X18192186Y-51294271D01*
X18182883Y-51316728D01*
X18120517Y-51433406D01*
X18107012Y-51453618D01*
X18023079Y-51555891D01*
X18005891Y-51573079D01*
X17903618Y-51657012D01*
X17883406Y-51670517D01*
X17766728Y-51732883D01*
X17744271Y-51742186D01*
X17617661Y-51780593D01*
X17593819Y-51785335D01*
X17456062Y-51798903D01*
X17443908Y-51799500D01*
X7156092Y-51799500D01*
X7143938Y-51798903D01*
X7006180Y-51785335D01*
X6982340Y-51780593D01*
X6855728Y-51742186D01*
X6833271Y-51732883D01*
X6716593Y-51670517D01*
X6696381Y-51657012D01*
X6594108Y-51573079D01*
X6576920Y-51555891D01*
X6492986Y-51453616D01*
X6479482Y-51433406D01*
X6417116Y-51316728D01*
X6407815Y-51294277D01*
X6369404Y-51167652D01*
X6364665Y-51143824D01*
X6351097Y-51006060D01*
X6350500Y-50993907D01*
X6350500Y-50935456D01*
X6350499Y-50935450D01*
X6350499Y-49700000D01*
X7434417Y-49700000D01*
X7454699Y-49905932D01*
X7454700Y-49905934D01*
X7514768Y-50103954D01*
X7612315Y-50286450D01*
X7612317Y-50286452D01*
X7743589Y-50446410D01*
X7840209Y-50525702D01*
X7903550Y-50577685D01*
X8086046Y-50675232D01*
X8284066Y-50735300D01*
X8284065Y-50735300D01*
X8302529Y-50737118D01*
X8490000Y-50755583D01*
X8695934Y-50735300D01*
X8893954Y-50675232D01*
X9076450Y-50577685D01*
X9236410Y-50446410D01*
X9367685Y-50286450D01*
X9465232Y-50103954D01*
X9525300Y-49905934D01*
X9545583Y-49700000D01*
X15054417Y-49700000D01*
X15074699Y-49905932D01*
X15074700Y-49905934D01*
X15134768Y-50103954D01*
X15232315Y-50286450D01*
X15232317Y-50286452D01*
X15363589Y-50446410D01*
X15460209Y-50525702D01*
X15523550Y-50577685D01*
X15706046Y-50675232D01*
X15904066Y-50735300D01*
X15904065Y-50735300D01*
X15922529Y-50737118D01*
X16110000Y-50755583D01*
X16315934Y-50735300D01*
X16513954Y-50675232D01*
X16696450Y-50577685D01*
X16856410Y-50446410D01*
X16987685Y-50286450D01*
X17085232Y-50103954D01*
X17145300Y-49905934D01*
X17165583Y-49700000D01*
X17145300Y-49494066D01*
X17085232Y-49296046D01*
X16987685Y-49113550D01*
X16935702Y-49050209D01*
X16856410Y-48953589D01*
X16696452Y-48822317D01*
X16696453Y-48822317D01*
X16696450Y-48822315D01*
X16513954Y-48724768D01*
X16315934Y-48664700D01*
X16315932Y-48664699D01*
X16315934Y-48664699D01*
X16110000Y-48644417D01*
X15904067Y-48664699D01*
X15706043Y-48724769D01*
X15595898Y-48783643D01*
X15523550Y-48822315D01*
X15523548Y-48822316D01*
X15523547Y-48822317D01*
X15363589Y-48953589D01*
X15232317Y-49113547D01*
X15134769Y-49296043D01*
X15074699Y-49494067D01*
X15054417Y-49700000D01*
X9545583Y-49700000D01*
X9525300Y-49494066D01*
X9465232Y-49296046D01*
X9367685Y-49113550D01*
X9315702Y-49050209D01*
X9236410Y-48953589D01*
X9076452Y-48822317D01*
X9076453Y-48822317D01*
X9076450Y-48822315D01*
X8893954Y-48724768D01*
X8695934Y-48664700D01*
X8695932Y-48664699D01*
X8695934Y-48664699D01*
X8490000Y-48644417D01*
X8284067Y-48664699D01*
X8086043Y-48724769D01*
X7975898Y-48783643D01*
X7903550Y-48822315D01*
X7903548Y-48822316D01*
X7903547Y-48822317D01*
X7743589Y-48953589D01*
X7612317Y-49113547D01*
X7514769Y-49296043D01*
X7454699Y-49494067D01*
X7434417Y-49700000D01*
X6350499Y-49700000D01*
X6350499Y-40235514D01*
X6320939Y-40048882D01*
X6262544Y-39869164D01*
X6176758Y-39700801D01*
X6150922Y-39665241D01*
X6065689Y-39547928D01*
X5932072Y-39414311D01*
X5779198Y-39303241D01*
X5764149Y-39295573D01*
X5610835Y-39217455D01*
X5431117Y-39159060D01*
X5244485Y-39129501D01*
X5244480Y-39129501D01*
X5189881Y-39129501D01*
X2039883Y-39129499D01*
X2006093Y-39129499D01*
X1993939Y-39128902D01*
X1856181Y-39115334D01*
X1832340Y-39110592D01*
X1705729Y-39072185D01*
X1683273Y-39062883D01*
X1566593Y-39000516D01*
X1546382Y-38987011D01*
X1444109Y-38903078D01*
X1426921Y-38885890D01*
X1342988Y-38783617D01*
X1329483Y-38763406D01*
X1267114Y-38646721D01*
X1257814Y-38624270D01*
X1257047Y-38621740D01*
X1219405Y-38497653D01*
X1214666Y-38473823D01*
X1201098Y-38336059D01*
X1200501Y-38323906D01*
X1200501Y-38265455D01*
X1200500Y-38265449D01*
X1200500Y-37000000D01*
X2354417Y-37000000D01*
X2374699Y-37205932D01*
X2398262Y-37283608D01*
X2434768Y-37403954D01*
X2532315Y-37586450D01*
X2532317Y-37586452D01*
X2663589Y-37746410D01*
X2760209Y-37825702D01*
X2823550Y-37877685D01*
X3006046Y-37975232D01*
X3204066Y-38035300D01*
X3204065Y-38035300D01*
X3222529Y-38037118D01*
X3410000Y-38055583D01*
X3615934Y-38035300D01*
X3813954Y-37975232D01*
X3996450Y-37877685D01*
X4156410Y-37746410D01*
X4287685Y-37586450D01*
X4385232Y-37403954D01*
X4445300Y-37205934D01*
X4465583Y-37000000D01*
X4445300Y-36794066D01*
X4385232Y-36596046D01*
X4287685Y-36413550D01*
X4235702Y-36350209D01*
X4156410Y-36253589D01*
X3996452Y-36122317D01*
X3996453Y-36122317D01*
X3996450Y-36122315D01*
X3813954Y-36024768D01*
X3615934Y-35964700D01*
X3615932Y-35964699D01*
X3615934Y-35964699D01*
X3410000Y-35944417D01*
X3204067Y-35964699D01*
X3006043Y-36024769D01*
X2899462Y-36081739D01*
X2823550Y-36122315D01*
X2823548Y-36122316D01*
X2823547Y-36122317D01*
X2663589Y-36253589D01*
X2532317Y-36413547D01*
X2434769Y-36596043D01*
X2374699Y-36794067D01*
X2354417Y-37000000D01*
X1200500Y-37000000D01*
X1200500Y-33590247D01*
X2359500Y-33590247D01*
X2359500Y-35329752D01*
X2371131Y-35388229D01*
X2371132Y-35388230D01*
X2415447Y-35454552D01*
X2481769Y-35498867D01*
X2481770Y-35498868D01*
X2540247Y-35510499D01*
X2540250Y-35510500D01*
X2540252Y-35510500D01*
X4279750Y-35510500D01*
X4279751Y-35510499D01*
X4298822Y-35506706D01*
X4338229Y-35498868D01*
X4338229Y-35498867D01*
X4338231Y-35498867D01*
X4404552Y-35454552D01*
X4448867Y-35388231D01*
X4448867Y-35388229D01*
X4448868Y-35388229D01*
X4460499Y-35329752D01*
X4460500Y-35329750D01*
X4460500Y-33590249D01*
X4460499Y-33590247D01*
X4448868Y-33531770D01*
X4448867Y-33531769D01*
X4404552Y-33465447D01*
X4338230Y-33421132D01*
X4338229Y-33421131D01*
X4279752Y-33409500D01*
X4279748Y-33409500D01*
X2540252Y-33409500D01*
X2540247Y-33409500D01*
X2481770Y-33421131D01*
X2481769Y-33421132D01*
X2415447Y-33465447D01*
X2371132Y-33531769D01*
X2371131Y-33531770D01*
X2359500Y-33590247D01*
X1200500Y-33590247D01*
X1200500Y-30024000D01*
X1220185Y-29956961D01*
X1272989Y-29911206D01*
X1324500Y-29900000D01*
X4780500Y-29900000D01*
X4847539Y-29919685D01*
G37*
%TD.AperFunction*%
%TA.AperFunction,Conductor*%
%TO.N,/D+*%
G36*
X12559983Y-7667732D02*
G01*
X12561372Y-7671084D01*
X12695543Y-8226551D01*
X12695849Y-8229990D01*
X12695000Y-8244306D01*
X12695000Y-8244601D01*
X12696534Y-8263653D01*
X12696413Y-8266515D01*
X12676629Y-8385223D01*
X12671889Y-8392821D01*
X12665088Y-8395000D01*
X12434911Y-8395000D01*
X12426638Y-8391573D01*
X12423370Y-8385223D01*
X12400659Y-8248954D01*
X12400500Y-8247031D01*
X12400500Y-8244323D01*
X12400827Y-8241576D01*
X12404456Y-8226551D01*
X12538627Y-7671081D01*
X12543900Y-7663847D01*
X12552746Y-7662458D01*
X12559983Y-7667732D01*
G37*
%TD.AperFunction*%
%TD*%
M02*
