M48
; DRILL file {KiCad 8.0.8} date 2025-02-23T09:20:05-0500
; FORMAT={-:-/ absolute / metric / decimal}
; #@! TF.CreationDate,2025-02-23T09:20:05-05:00
; #@! TF.GenerationSoftware,Kicad,Pcbnew,8.0.8
; #@! TF.FileFunction,MixedPlating,1,2
FMAT,2
METRIC
; #@! TA.AperFunction,Plated,PTH,ViaDrill
T1C0.200
; #@! TA.AperFunction,Plated,PTH,ViaDrill
T2C0.400
; #@! TA.AperFunction,Plated,PTH,ComponentDrill
T3C0.600
; #@! TA.AperFunction,Plated,PTH,ComponentDrill
T4C1.000
; #@! TA.AperFunction,NonPlated,NPTH,ComponentDrill
T5C0.650
; #@! TA.AperFunction,NonPlated,NPTH,ComponentDrill
T6C2.700
%
G90
G05
T1
X9.61Y-21.465
X9.61Y-22.815
X9.985Y-42.785
X10.31Y-21.465
X10.31Y-22.815
X11.044Y-42.539
X11.619Y-35.69
X11.619Y-37.53
X11.625Y-13.195
X12.194Y-41.4
X13.344Y-36.25
X13.344Y-38.11
X13.919Y-41.568
X14.31Y-13.48
T2
X3.2Y-10.69
X5.23Y-13.58
X5.23Y-15.3
X7.37Y-37.7
X8.6Y-8.87
X9.91Y-8.96
X11.31Y-17.438
X12.31Y-17.438
X13.31Y-17.438
X13.65Y-22.88
X14.7Y-8.96
X15.5Y-13.02
X15.5Y-14.74
X15.51Y-11.32
X16.0Y-8.87
X16.46Y-35.0
X19.42Y-21.05
T4
X3.41Y-34.46
X3.41Y-37.0
X5.955Y-28.335
X5.955Y-30.875
X8.49Y-42.08
X8.49Y-44.62
X8.49Y-47.16
X8.49Y-49.7
X8.495Y-28.335
X8.495Y-30.875
X11.035Y-28.335
X11.035Y-30.875
X13.575Y-28.335
X13.575Y-30.875
X16.11Y-42.08
X16.11Y-44.62
X16.11Y-47.16
X16.11Y-49.7
X16.115Y-28.335
X16.115Y-30.875
X18.655Y-28.335
X18.655Y-30.875
X21.19Y-34.46
X21.19Y-37.0
T5
X9.41Y-6.505
X15.19Y-6.505
T6
X4.0Y-4.0
X20.6Y-4.0
T3
X7.98Y-3.225G85X7.98Y-2.425
G05
X7.98Y-7.575G85X7.98Y-6.475
G05
X16.62Y-3.225G85X16.62Y-2.425
G05
X16.62Y-7.575G85X16.62Y-6.475
G05
M30
