%TF.GenerationSoftware,KiCad,Pcbnew,8.0.8*%
%TF.CreationDate,2025-02-23T09:20:06-05:00*%
%TF.ProjectId,attinyx12_dev,61747469-6e79-4783-9132-5f6465762e6b,rev?*%
%TF.SameCoordinates,Original*%
%TF.FileFunction,Legend,Top*%
%TF.FilePolarity,Positive*%
%FSLAX46Y46*%
G04 Gerber Fmt 4.6, Leading zero omitted, Abs format (unit mm)*
G04 Created by KiCad (PCBNEW 8.0.8) date 2025-02-23 09:20:06*
%MOMM*%
%LPD*%
G01*
G04 APERTURE LIST*
%ADD10C,0.153000*%
%ADD11C,0.150000*%
%ADD12C,0.120000*%
%ADD13C,0.010000*%
G04 APERTURE END LIST*
D10*
X4997282Y-36491904D02*
X4949663Y-36587142D01*
X4949663Y-36587142D02*
X4949663Y-36729999D01*
X4949663Y-36729999D02*
X4997282Y-36872856D01*
X4997282Y-36872856D02*
X5092520Y-36968094D01*
X5092520Y-36968094D02*
X5187758Y-37015713D01*
X5187758Y-37015713D02*
X5378234Y-37063332D01*
X5378234Y-37063332D02*
X5521091Y-37063332D01*
X5521091Y-37063332D02*
X5711567Y-37015713D01*
X5711567Y-37015713D02*
X5806805Y-36968094D01*
X5806805Y-36968094D02*
X5902044Y-36872856D01*
X5902044Y-36872856D02*
X5949663Y-36729999D01*
X5949663Y-36729999D02*
X5949663Y-36634761D01*
X5949663Y-36634761D02*
X5902044Y-36491904D01*
X5902044Y-36491904D02*
X5854424Y-36444285D01*
X5854424Y-36444285D02*
X5521091Y-36444285D01*
X5521091Y-36444285D02*
X5521091Y-36634761D01*
X5949663Y-36015713D02*
X4949663Y-36015713D01*
X4949663Y-36015713D02*
X5949663Y-35444285D01*
X5949663Y-35444285D02*
X4949663Y-35444285D01*
X5949663Y-34968094D02*
X4949663Y-34968094D01*
X4949663Y-34968094D02*
X4949663Y-34729999D01*
X4949663Y-34729999D02*
X4997282Y-34587142D01*
X4997282Y-34587142D02*
X5092520Y-34491904D01*
X5092520Y-34491904D02*
X5187758Y-34444285D01*
X5187758Y-34444285D02*
X5378234Y-34396666D01*
X5378234Y-34396666D02*
X5521091Y-34396666D01*
X5521091Y-34396666D02*
X5711567Y-34444285D01*
X5711567Y-34444285D02*
X5806805Y-34491904D01*
X5806805Y-34491904D02*
X5902044Y-34587142D01*
X5902044Y-34587142D02*
X5949663Y-34729999D01*
X5949663Y-34729999D02*
X5949663Y-34968094D01*
X12649054Y-45592045D02*
X13356161Y-44884938D01*
X13356161Y-44884938D02*
X13625535Y-45154312D01*
X13625535Y-45154312D02*
X13659207Y-45255327D01*
X13659207Y-45255327D02*
X13659207Y-45322671D01*
X13659207Y-45322671D02*
X13625535Y-45423686D01*
X13625535Y-45423686D02*
X13524520Y-45524701D01*
X13524520Y-45524701D02*
X13423504Y-45558373D01*
X13423504Y-45558373D02*
X13356161Y-45558373D01*
X13356161Y-45558373D02*
X13255146Y-45524701D01*
X13255146Y-45524701D02*
X12985772Y-45255327D01*
X13524520Y-46063449D02*
X13861237Y-46400167D01*
X13255146Y-46198136D02*
X14197955Y-45726732D01*
X14197955Y-45726732D02*
X13726550Y-46669541D01*
X14804046Y-46332823D02*
X14871390Y-46400167D01*
X14871390Y-46400167D02*
X14905062Y-46501182D01*
X14905062Y-46501182D02*
X14905062Y-46568526D01*
X14905062Y-46568526D02*
X14871390Y-46669541D01*
X14871390Y-46669541D02*
X14770375Y-46837900D01*
X14770375Y-46837900D02*
X14602016Y-47006259D01*
X14602016Y-47006259D02*
X14433657Y-47107274D01*
X14433657Y-47107274D02*
X14332642Y-47140946D01*
X14332642Y-47140946D02*
X14265298Y-47140946D01*
X14265298Y-47140946D02*
X14164283Y-47107274D01*
X14164283Y-47107274D02*
X14096940Y-47039930D01*
X14096940Y-47039930D02*
X14063268Y-46938915D01*
X14063268Y-46938915D02*
X14063268Y-46871572D01*
X14063268Y-46871572D02*
X14096940Y-46770556D01*
X14096940Y-46770556D02*
X14197955Y-46602198D01*
X14197955Y-46602198D02*
X14366314Y-46433839D01*
X14366314Y-46433839D02*
X14534672Y-46332823D01*
X14534672Y-46332823D02*
X14635688Y-46299152D01*
X14635688Y-46299152D02*
X14703031Y-46299152D01*
X14703031Y-46299152D02*
X14804046Y-46332823D01*
X9930640Y-41118137D02*
X9593922Y-41454854D01*
X9593922Y-41454854D02*
X9896968Y-41825243D01*
X9896968Y-41825243D02*
X9896968Y-41757900D01*
X9896968Y-41757900D02*
X9930640Y-41656885D01*
X9930640Y-41656885D02*
X10098998Y-41488526D01*
X10098998Y-41488526D02*
X10200014Y-41454854D01*
X10200014Y-41454854D02*
X10267357Y-41454854D01*
X10267357Y-41454854D02*
X10368372Y-41488526D01*
X10368372Y-41488526D02*
X10536731Y-41656885D01*
X10536731Y-41656885D02*
X10570403Y-41757900D01*
X10570403Y-41757900D02*
X10570403Y-41825243D01*
X10570403Y-41825243D02*
X10536731Y-41926259D01*
X10536731Y-41926259D02*
X10368372Y-42094617D01*
X10368372Y-42094617D02*
X10267357Y-42128289D01*
X10267357Y-42128289D02*
X10200014Y-42128289D01*
X10166342Y-40882434D02*
X11109151Y-41353839D01*
X11109151Y-41353839D02*
X10637746Y-40411030D01*
X12649054Y-48132045D02*
X13356161Y-47424938D01*
X13356161Y-47424938D02*
X13625535Y-47694312D01*
X13625535Y-47694312D02*
X13659207Y-47795327D01*
X13659207Y-47795327D02*
X13659207Y-47862671D01*
X13659207Y-47862671D02*
X13625535Y-47963686D01*
X13625535Y-47963686D02*
X13524520Y-48064701D01*
X13524520Y-48064701D02*
X13423504Y-48098373D01*
X13423504Y-48098373D02*
X13356161Y-48098373D01*
X13356161Y-48098373D02*
X13255146Y-48064701D01*
X13255146Y-48064701D02*
X12985772Y-47795327D01*
X13524520Y-48603449D02*
X13861237Y-48940167D01*
X13255146Y-48738136D02*
X14197955Y-48266732D01*
X14197955Y-48266732D02*
X13726550Y-49209541D01*
X14568344Y-48771808D02*
X14635688Y-48771808D01*
X14635688Y-48771808D02*
X14736703Y-48805480D01*
X14736703Y-48805480D02*
X14905062Y-48973839D01*
X14905062Y-48973839D02*
X14938733Y-49074854D01*
X14938733Y-49074854D02*
X14938733Y-49142198D01*
X14938733Y-49142198D02*
X14905062Y-49243213D01*
X14905062Y-49243213D02*
X14837718Y-49310556D01*
X14837718Y-49310556D02*
X14703031Y-49377900D01*
X14703031Y-49377900D02*
X13894909Y-49377900D01*
X13894909Y-49377900D02*
X14332642Y-49815633D01*
X2203948Y-28898866D02*
X2203948Y-28422676D01*
X2489663Y-28994104D02*
X1489663Y-28660771D01*
X1489663Y-28660771D02*
X2489663Y-28327438D01*
X1489663Y-28136961D02*
X1489663Y-27565533D01*
X2489663Y-27851247D02*
X1489663Y-27851247D01*
X1489663Y-27375056D02*
X1489663Y-26803628D01*
X2489663Y-27089342D02*
X1489663Y-27089342D01*
X2489663Y-26470294D02*
X1822996Y-26470294D01*
X1489663Y-26470294D02*
X1537282Y-26517913D01*
X1537282Y-26517913D02*
X1584901Y-26470294D01*
X1584901Y-26470294D02*
X1537282Y-26422675D01*
X1537282Y-26422675D02*
X1489663Y-26470294D01*
X1489663Y-26470294D02*
X1584901Y-26470294D01*
X1822996Y-25994104D02*
X2489663Y-25994104D01*
X1918234Y-25994104D02*
X1870615Y-25946485D01*
X1870615Y-25946485D02*
X1822996Y-25851247D01*
X1822996Y-25851247D02*
X1822996Y-25708390D01*
X1822996Y-25708390D02*
X1870615Y-25613152D01*
X1870615Y-25613152D02*
X1965853Y-25565533D01*
X1965853Y-25565533D02*
X2489663Y-25565533D01*
X1822996Y-25184580D02*
X2489663Y-24946485D01*
X1822996Y-24708390D02*
X2489663Y-24946485D01*
X2489663Y-24946485D02*
X2727758Y-25041723D01*
X2727758Y-25041723D02*
X2775377Y-25089342D01*
X2775377Y-25089342D02*
X2822996Y-25184580D01*
X1489663Y-24422675D02*
X2489663Y-23756009D01*
X1489663Y-23756009D02*
X2489663Y-24422675D01*
X2489663Y-22851247D02*
X2489663Y-23422675D01*
X2489663Y-23136961D02*
X1489663Y-23136961D01*
X1489663Y-23136961D02*
X1632520Y-23232199D01*
X1632520Y-23232199D02*
X1727758Y-23327437D01*
X1727758Y-23327437D02*
X1775377Y-23422675D01*
X1584901Y-22470294D02*
X1537282Y-22422675D01*
X1537282Y-22422675D02*
X1489663Y-22327437D01*
X1489663Y-22327437D02*
X1489663Y-22089342D01*
X1489663Y-22089342D02*
X1537282Y-21994104D01*
X1537282Y-21994104D02*
X1584901Y-21946485D01*
X1584901Y-21946485D02*
X1680139Y-21898866D01*
X1680139Y-21898866D02*
X1775377Y-21898866D01*
X1775377Y-21898866D02*
X1918234Y-21946485D01*
X1918234Y-21946485D02*
X2489663Y-22517913D01*
X2489663Y-22517913D02*
X2489663Y-21898866D01*
X2489663Y-20708389D02*
X1489663Y-20708389D01*
X1489663Y-20708389D02*
X1489663Y-20470294D01*
X1489663Y-20470294D02*
X1537282Y-20327437D01*
X1537282Y-20327437D02*
X1632520Y-20232199D01*
X1632520Y-20232199D02*
X1727758Y-20184580D01*
X1727758Y-20184580D02*
X1918234Y-20136961D01*
X1918234Y-20136961D02*
X2061091Y-20136961D01*
X2061091Y-20136961D02*
X2251567Y-20184580D01*
X2251567Y-20184580D02*
X2346805Y-20232199D01*
X2346805Y-20232199D02*
X2442044Y-20327437D01*
X2442044Y-20327437D02*
X2489663Y-20470294D01*
X2489663Y-20470294D02*
X2489663Y-20708389D01*
X2442044Y-19327437D02*
X2489663Y-19422675D01*
X2489663Y-19422675D02*
X2489663Y-19613151D01*
X2489663Y-19613151D02*
X2442044Y-19708389D01*
X2442044Y-19708389D02*
X2346805Y-19756008D01*
X2346805Y-19756008D02*
X1965853Y-19756008D01*
X1965853Y-19756008D02*
X1870615Y-19708389D01*
X1870615Y-19708389D02*
X1822996Y-19613151D01*
X1822996Y-19613151D02*
X1822996Y-19422675D01*
X1822996Y-19422675D02*
X1870615Y-19327437D01*
X1870615Y-19327437D02*
X1965853Y-19279818D01*
X1965853Y-19279818D02*
X2061091Y-19279818D01*
X2061091Y-19279818D02*
X2156329Y-19756008D01*
X1822996Y-18946484D02*
X2489663Y-18708389D01*
X2489663Y-18708389D02*
X1822996Y-18470294D01*
X1965853Y-16994103D02*
X2013472Y-16851246D01*
X2013472Y-16851246D02*
X2061091Y-16803627D01*
X2061091Y-16803627D02*
X2156329Y-16756008D01*
X2156329Y-16756008D02*
X2299186Y-16756008D01*
X2299186Y-16756008D02*
X2394424Y-16803627D01*
X2394424Y-16803627D02*
X2442044Y-16851246D01*
X2442044Y-16851246D02*
X2489663Y-16946484D01*
X2489663Y-16946484D02*
X2489663Y-17327436D01*
X2489663Y-17327436D02*
X1489663Y-17327436D01*
X1489663Y-17327436D02*
X1489663Y-16994103D01*
X1489663Y-16994103D02*
X1537282Y-16898865D01*
X1537282Y-16898865D02*
X1584901Y-16851246D01*
X1584901Y-16851246D02*
X1680139Y-16803627D01*
X1680139Y-16803627D02*
X1775377Y-16803627D01*
X1775377Y-16803627D02*
X1870615Y-16851246D01*
X1870615Y-16851246D02*
X1918234Y-16898865D01*
X1918234Y-16898865D02*
X1965853Y-16994103D01*
X1965853Y-16994103D02*
X1965853Y-17327436D01*
X2489663Y-16184579D02*
X2442044Y-16279817D01*
X2442044Y-16279817D02*
X2394424Y-16327436D01*
X2394424Y-16327436D02*
X2299186Y-16375055D01*
X2299186Y-16375055D02*
X2013472Y-16375055D01*
X2013472Y-16375055D02*
X1918234Y-16327436D01*
X1918234Y-16327436D02*
X1870615Y-16279817D01*
X1870615Y-16279817D02*
X1822996Y-16184579D01*
X1822996Y-16184579D02*
X1822996Y-16041722D01*
X1822996Y-16041722D02*
X1870615Y-15946484D01*
X1870615Y-15946484D02*
X1918234Y-15898865D01*
X1918234Y-15898865D02*
X2013472Y-15851246D01*
X2013472Y-15851246D02*
X2299186Y-15851246D01*
X2299186Y-15851246D02*
X2394424Y-15898865D01*
X2394424Y-15898865D02*
X2442044Y-15946484D01*
X2442044Y-15946484D02*
X2489663Y-16041722D01*
X2489663Y-16041722D02*
X2489663Y-16184579D01*
X2489663Y-14994103D02*
X1965853Y-14994103D01*
X1965853Y-14994103D02*
X1870615Y-15041722D01*
X1870615Y-15041722D02*
X1822996Y-15136960D01*
X1822996Y-15136960D02*
X1822996Y-15327436D01*
X1822996Y-15327436D02*
X1870615Y-15422674D01*
X2442044Y-14994103D02*
X2489663Y-15089341D01*
X2489663Y-15089341D02*
X2489663Y-15327436D01*
X2489663Y-15327436D02*
X2442044Y-15422674D01*
X2442044Y-15422674D02*
X2346805Y-15470293D01*
X2346805Y-15470293D02*
X2251567Y-15470293D01*
X2251567Y-15470293D02*
X2156329Y-15422674D01*
X2156329Y-15422674D02*
X2108710Y-15327436D01*
X2108710Y-15327436D02*
X2108710Y-15089341D01*
X2108710Y-15089341D02*
X2061091Y-14994103D01*
X2489663Y-14517912D02*
X1822996Y-14517912D01*
X2013472Y-14517912D02*
X1918234Y-14470293D01*
X1918234Y-14470293D02*
X1870615Y-14422674D01*
X1870615Y-14422674D02*
X1822996Y-14327436D01*
X1822996Y-14327436D02*
X1822996Y-14232198D01*
X2489663Y-13470293D02*
X1489663Y-13470293D01*
X2442044Y-13470293D02*
X2489663Y-13565531D01*
X2489663Y-13565531D02*
X2489663Y-13756007D01*
X2489663Y-13756007D02*
X2442044Y-13851245D01*
X2442044Y-13851245D02*
X2394424Y-13898864D01*
X2394424Y-13898864D02*
X2299186Y-13946483D01*
X2299186Y-13946483D02*
X2013472Y-13946483D01*
X2013472Y-13946483D02*
X1918234Y-13898864D01*
X1918234Y-13898864D02*
X1870615Y-13851245D01*
X1870615Y-13851245D02*
X1822996Y-13756007D01*
X1822996Y-13756007D02*
X1822996Y-13565531D01*
X1822996Y-13565531D02*
X1870615Y-13470293D01*
X5409663Y-26020057D02*
X5409663Y-26496247D01*
X5409663Y-26496247D02*
X5885853Y-26543866D01*
X5885853Y-26543866D02*
X5838234Y-26496247D01*
X5838234Y-26496247D02*
X5790615Y-26401009D01*
X5790615Y-26401009D02*
X5790615Y-26162914D01*
X5790615Y-26162914D02*
X5838234Y-26067676D01*
X5838234Y-26067676D02*
X5885853Y-26020057D01*
X5885853Y-26020057D02*
X5981091Y-25972438D01*
X5981091Y-25972438D02*
X6219186Y-25972438D01*
X6219186Y-25972438D02*
X6314424Y-26020057D01*
X6314424Y-26020057D02*
X6362044Y-26067676D01*
X6362044Y-26067676D02*
X6409663Y-26162914D01*
X6409663Y-26162914D02*
X6409663Y-26401009D01*
X6409663Y-26401009D02*
X6362044Y-26496247D01*
X6362044Y-26496247D02*
X6314424Y-26543866D01*
X5409663Y-25686723D02*
X6409663Y-25353390D01*
X6409663Y-25353390D02*
X5409663Y-25020057D01*
X2666667Y-8498463D02*
X2666667Y-7498463D01*
X2666667Y-7498463D02*
X3047619Y-7498463D01*
X3047619Y-7498463D02*
X3142857Y-7546082D01*
X3142857Y-7546082D02*
X3190476Y-7593701D01*
X3190476Y-7593701D02*
X3238095Y-7688939D01*
X3238095Y-7688939D02*
X3238095Y-7831796D01*
X3238095Y-7831796D02*
X3190476Y-7927034D01*
X3190476Y-7927034D02*
X3142857Y-7974653D01*
X3142857Y-7974653D02*
X3047619Y-8022272D01*
X3047619Y-8022272D02*
X2666667Y-8022272D01*
X3571429Y-7498463D02*
X3809524Y-8498463D01*
X3809524Y-8498463D02*
X4000000Y-7784177D01*
X4000000Y-7784177D02*
X4190476Y-8498463D01*
X4190476Y-8498463D02*
X4428572Y-7498463D01*
X5380952Y-8498463D02*
X5047619Y-8022272D01*
X4809524Y-8498463D02*
X4809524Y-7498463D01*
X4809524Y-7498463D02*
X5190476Y-7498463D01*
X5190476Y-7498463D02*
X5285714Y-7546082D01*
X5285714Y-7546082D02*
X5333333Y-7593701D01*
X5333333Y-7593701D02*
X5380952Y-7688939D01*
X5380952Y-7688939D02*
X5380952Y-7831796D01*
X5380952Y-7831796D02*
X5333333Y-7927034D01*
X5333333Y-7927034D02*
X5285714Y-7974653D01*
X5285714Y-7974653D02*
X5190476Y-8022272D01*
X5190476Y-8022272D02*
X4809524Y-8022272D01*
X10301029Y-47241961D02*
X9593922Y-46534854D01*
X9593922Y-46534854D02*
X9863296Y-46265480D01*
X9863296Y-46265480D02*
X9964311Y-46231808D01*
X9964311Y-46231808D02*
X10031655Y-46231808D01*
X10031655Y-46231808D02*
X10132670Y-46265480D01*
X10132670Y-46265480D02*
X10233685Y-46366495D01*
X10233685Y-46366495D02*
X10267357Y-46467511D01*
X10267357Y-46467511D02*
X10267357Y-46534854D01*
X10267357Y-46534854D02*
X10233685Y-46635869D01*
X10233685Y-46635869D02*
X9964311Y-46905243D01*
X10772433Y-46366495D02*
X11109151Y-46029778D01*
X10907120Y-46635869D02*
X10435716Y-45693060D01*
X10435716Y-45693060D02*
X11378525Y-46164465D01*
X10839777Y-45288999D02*
X11311181Y-44817595D01*
X11311181Y-44817595D02*
X11715242Y-45827747D01*
X18157282Y-25972438D02*
X18109663Y-26067676D01*
X18109663Y-26067676D02*
X18109663Y-26210533D01*
X18109663Y-26210533D02*
X18157282Y-26353390D01*
X18157282Y-26353390D02*
X18252520Y-26448628D01*
X18252520Y-26448628D02*
X18347758Y-26496247D01*
X18347758Y-26496247D02*
X18538234Y-26543866D01*
X18538234Y-26543866D02*
X18681091Y-26543866D01*
X18681091Y-26543866D02*
X18871567Y-26496247D01*
X18871567Y-26496247D02*
X18966805Y-26448628D01*
X18966805Y-26448628D02*
X19062044Y-26353390D01*
X19062044Y-26353390D02*
X19109663Y-26210533D01*
X19109663Y-26210533D02*
X19109663Y-26115295D01*
X19109663Y-26115295D02*
X19062044Y-25972438D01*
X19062044Y-25972438D02*
X19014424Y-25924819D01*
X19014424Y-25924819D02*
X18681091Y-25924819D01*
X18681091Y-25924819D02*
X18681091Y-26115295D01*
X19109663Y-25496247D02*
X18109663Y-25496247D01*
X18109663Y-25496247D02*
X19109663Y-24924819D01*
X19109663Y-24924819D02*
X18109663Y-24924819D01*
X19109663Y-24448628D02*
X18109663Y-24448628D01*
X18109663Y-24448628D02*
X18109663Y-24210533D01*
X18109663Y-24210533D02*
X18157282Y-24067676D01*
X18157282Y-24067676D02*
X18252520Y-23972438D01*
X18252520Y-23972438D02*
X18347758Y-23924819D01*
X18347758Y-23924819D02*
X18538234Y-23877200D01*
X18538234Y-23877200D02*
X18681091Y-23877200D01*
X18681091Y-23877200D02*
X18871567Y-23924819D01*
X18871567Y-23924819D02*
X18966805Y-23972438D01*
X18966805Y-23972438D02*
X19062044Y-24067676D01*
X19062044Y-24067676D02*
X19109663Y-24210533D01*
X19109663Y-24210533D02*
X19109663Y-24448628D01*
X11489663Y-25924819D02*
X11013472Y-26258152D01*
X11489663Y-26496247D02*
X10489663Y-26496247D01*
X10489663Y-26496247D02*
X10489663Y-26115295D01*
X10489663Y-26115295D02*
X10537282Y-26020057D01*
X10537282Y-26020057D02*
X10584901Y-25972438D01*
X10584901Y-25972438D02*
X10680139Y-25924819D01*
X10680139Y-25924819D02*
X10822996Y-25924819D01*
X10822996Y-25924819D02*
X10918234Y-25972438D01*
X10918234Y-25972438D02*
X10965853Y-26020057D01*
X10965853Y-26020057D02*
X11013472Y-26115295D01*
X11013472Y-26115295D02*
X11013472Y-26496247D01*
X10489663Y-25591485D02*
X11489663Y-24924819D01*
X10489663Y-24924819D02*
X11489663Y-25591485D01*
X10301029Y-44701961D02*
X9593922Y-43994854D01*
X9593922Y-43994854D02*
X9863296Y-43725480D01*
X9863296Y-43725480D02*
X9964311Y-43691808D01*
X9964311Y-43691808D02*
X10031655Y-43691808D01*
X10031655Y-43691808D02*
X10132670Y-43725480D01*
X10132670Y-43725480D02*
X10233685Y-43826495D01*
X10233685Y-43826495D02*
X10267357Y-43927511D01*
X10267357Y-43927511D02*
X10267357Y-43994854D01*
X10267357Y-43994854D02*
X10233685Y-44095869D01*
X10233685Y-44095869D02*
X9964311Y-44365243D01*
X10772433Y-43826495D02*
X11109151Y-43489778D01*
X10907120Y-44095869D02*
X10435716Y-43153060D01*
X10435716Y-43153060D02*
X11378525Y-43624465D01*
X11210166Y-42378610D02*
X11075479Y-42513297D01*
X11075479Y-42513297D02*
X11041807Y-42614312D01*
X11041807Y-42614312D02*
X11041807Y-42681656D01*
X11041807Y-42681656D02*
X11075479Y-42850014D01*
X11075479Y-42850014D02*
X11176494Y-43018373D01*
X11176494Y-43018373D02*
X11445868Y-43287747D01*
X11445868Y-43287747D02*
X11546884Y-43321419D01*
X11546884Y-43321419D02*
X11614227Y-43321419D01*
X11614227Y-43321419D02*
X11715242Y-43287747D01*
X11715242Y-43287747D02*
X11849929Y-43153060D01*
X11849929Y-43153060D02*
X11883601Y-43052045D01*
X11883601Y-43052045D02*
X11883601Y-42984701D01*
X11883601Y-42984701D02*
X11849929Y-42883686D01*
X11849929Y-42883686D02*
X11681571Y-42715327D01*
X11681571Y-42715327D02*
X11580555Y-42681656D01*
X11580555Y-42681656D02*
X11513212Y-42681656D01*
X11513212Y-42681656D02*
X11412197Y-42715327D01*
X11412197Y-42715327D02*
X11277510Y-42850014D01*
X11277510Y-42850014D02*
X11243838Y-42951030D01*
X11243838Y-42951030D02*
X11243838Y-43018373D01*
X11243838Y-43018373D02*
X11277510Y-43119388D01*
X12649054Y-43052045D02*
X13356161Y-42344938D01*
X13356161Y-42344938D02*
X13625535Y-42614312D01*
X13625535Y-42614312D02*
X13659207Y-42715327D01*
X13659207Y-42715327D02*
X13659207Y-42782671D01*
X13659207Y-42782671D02*
X13625535Y-42883686D01*
X13625535Y-42883686D02*
X13524520Y-42984701D01*
X13524520Y-42984701D02*
X13423504Y-43018373D01*
X13423504Y-43018373D02*
X13356161Y-43018373D01*
X13356161Y-43018373D02*
X13255146Y-42984701D01*
X13255146Y-42984701D02*
X12985772Y-42715327D01*
X13524520Y-43523449D02*
X13861237Y-43860167D01*
X13255146Y-43658136D02*
X14197955Y-43186732D01*
X14197955Y-43186732D02*
X13726550Y-44129541D01*
X14602016Y-43590793D02*
X15039749Y-44028526D01*
X15039749Y-44028526D02*
X14534672Y-44062198D01*
X14534672Y-44062198D02*
X14635688Y-44163213D01*
X14635688Y-44163213D02*
X14669359Y-44264228D01*
X14669359Y-44264228D02*
X14669359Y-44331572D01*
X14669359Y-44331572D02*
X14635688Y-44432587D01*
X14635688Y-44432587D02*
X14467329Y-44600946D01*
X14467329Y-44600946D02*
X14366314Y-44634617D01*
X14366314Y-44634617D02*
X14298970Y-44634617D01*
X14298970Y-44634617D02*
X14197955Y-44600946D01*
X14197955Y-44600946D02*
X13995924Y-44398915D01*
X13995924Y-44398915D02*
X13962253Y-44297900D01*
X13962253Y-44297900D02*
X13962253Y-44230556D01*
X13524520Y-40040641D02*
X13490848Y-39939625D01*
X13490848Y-39939625D02*
X13389833Y-39838610D01*
X13389833Y-39838610D02*
X13255146Y-39771266D01*
X13255146Y-39771266D02*
X13120459Y-39771266D01*
X13120459Y-39771266D02*
X13019444Y-39804938D01*
X13019444Y-39804938D02*
X12851085Y-39905954D01*
X12851085Y-39905954D02*
X12750070Y-40006969D01*
X12750070Y-40006969D02*
X12649054Y-40175328D01*
X12649054Y-40175328D02*
X12615383Y-40276343D01*
X12615383Y-40276343D02*
X12615383Y-40411030D01*
X12615383Y-40411030D02*
X12682726Y-40545717D01*
X12682726Y-40545717D02*
X12750070Y-40613060D01*
X12750070Y-40613060D02*
X12884757Y-40680404D01*
X12884757Y-40680404D02*
X12952100Y-40680404D01*
X12952100Y-40680404D02*
X13187802Y-40444702D01*
X13187802Y-40444702D02*
X13053115Y-40310015D01*
X13187802Y-41050793D02*
X13894909Y-40343686D01*
X13894909Y-40343686D02*
X13591863Y-41454854D01*
X13591863Y-41454854D02*
X14298970Y-40747747D01*
X13928581Y-41791572D02*
X14635688Y-41084465D01*
X14635688Y-41084465D02*
X14804046Y-41252824D01*
X14804046Y-41252824D02*
X14871390Y-41387511D01*
X14871390Y-41387511D02*
X14871390Y-41522198D01*
X14871390Y-41522198D02*
X14837718Y-41623213D01*
X14837718Y-41623213D02*
X14736703Y-41791572D01*
X14736703Y-41791572D02*
X14635688Y-41892587D01*
X14635688Y-41892587D02*
X14467329Y-41993602D01*
X14467329Y-41993602D02*
X14366314Y-42027274D01*
X14366314Y-42027274D02*
X14231627Y-42027274D01*
X14231627Y-42027274D02*
X14096940Y-41959930D01*
X14096940Y-41959930D02*
X13928581Y-41791572D01*
X18607282Y-36491904D02*
X18559663Y-36587142D01*
X18559663Y-36587142D02*
X18559663Y-36729999D01*
X18559663Y-36729999D02*
X18607282Y-36872856D01*
X18607282Y-36872856D02*
X18702520Y-36968094D01*
X18702520Y-36968094D02*
X18797758Y-37015713D01*
X18797758Y-37015713D02*
X18988234Y-37063332D01*
X18988234Y-37063332D02*
X19131091Y-37063332D01*
X19131091Y-37063332D02*
X19321567Y-37015713D01*
X19321567Y-37015713D02*
X19416805Y-36968094D01*
X19416805Y-36968094D02*
X19512044Y-36872856D01*
X19512044Y-36872856D02*
X19559663Y-36729999D01*
X19559663Y-36729999D02*
X19559663Y-36634761D01*
X19559663Y-36634761D02*
X19512044Y-36491904D01*
X19512044Y-36491904D02*
X19464424Y-36444285D01*
X19464424Y-36444285D02*
X19131091Y-36444285D01*
X19131091Y-36444285D02*
X19131091Y-36634761D01*
X19559663Y-36015713D02*
X18559663Y-36015713D01*
X18559663Y-36015713D02*
X19559663Y-35444285D01*
X19559663Y-35444285D02*
X18559663Y-35444285D01*
X19559663Y-34968094D02*
X18559663Y-34968094D01*
X18559663Y-34968094D02*
X18559663Y-34729999D01*
X18559663Y-34729999D02*
X18607282Y-34587142D01*
X18607282Y-34587142D02*
X18702520Y-34491904D01*
X18702520Y-34491904D02*
X18797758Y-34444285D01*
X18797758Y-34444285D02*
X18988234Y-34396666D01*
X18988234Y-34396666D02*
X19131091Y-34396666D01*
X19131091Y-34396666D02*
X19321567Y-34444285D01*
X19321567Y-34444285D02*
X19416805Y-34491904D01*
X19416805Y-34491904D02*
X19512044Y-34587142D01*
X19512044Y-34587142D02*
X19559663Y-34729999D01*
X19559663Y-34729999D02*
X19559663Y-34968094D01*
X10301029Y-49781961D02*
X9593922Y-49074854D01*
X9593922Y-49074854D02*
X9863296Y-48805480D01*
X9863296Y-48805480D02*
X9964311Y-48771808D01*
X9964311Y-48771808D02*
X10031655Y-48771808D01*
X10031655Y-48771808D02*
X10132670Y-48805480D01*
X10132670Y-48805480D02*
X10233685Y-48906495D01*
X10233685Y-48906495D02*
X10267357Y-49007511D01*
X10267357Y-49007511D02*
X10267357Y-49074854D01*
X10267357Y-49074854D02*
X10233685Y-49175869D01*
X10233685Y-49175869D02*
X9964311Y-49445243D01*
X10772433Y-48906495D02*
X11109151Y-48569778D01*
X10907120Y-49175869D02*
X10435716Y-48233060D01*
X10435716Y-48233060D02*
X11378525Y-48704465D01*
X11984617Y-48098373D02*
X11580555Y-48502434D01*
X11782586Y-48300404D02*
X11075479Y-47593297D01*
X11075479Y-47593297D02*
X11109151Y-47761656D01*
X11109151Y-47761656D02*
X11109151Y-47896343D01*
X11109151Y-47896343D02*
X11075479Y-47997358D01*
X16569663Y-26020057D02*
X16569663Y-26496247D01*
X16569663Y-26496247D02*
X15569663Y-26496247D01*
X16045853Y-25686723D02*
X16045853Y-25353390D01*
X16569663Y-25210533D02*
X16569663Y-25686723D01*
X16569663Y-25686723D02*
X15569663Y-25686723D01*
X15569663Y-25686723D02*
X15569663Y-25210533D01*
X16569663Y-24781961D02*
X15569663Y-24781961D01*
X15569663Y-24781961D02*
X15569663Y-24543866D01*
X15569663Y-24543866D02*
X15617282Y-24401009D01*
X15617282Y-24401009D02*
X15712520Y-24305771D01*
X15712520Y-24305771D02*
X15807758Y-24258152D01*
X15807758Y-24258152D02*
X15998234Y-24210533D01*
X15998234Y-24210533D02*
X16141091Y-24210533D01*
X16141091Y-24210533D02*
X16331567Y-24258152D01*
X16331567Y-24258152D02*
X16426805Y-24305771D01*
X16426805Y-24305771D02*
X16522044Y-24401009D01*
X16522044Y-24401009D02*
X16569663Y-24543866D01*
X16569663Y-24543866D02*
X16569663Y-24781961D01*
X19338095Y-7498463D02*
X19338095Y-8307986D01*
X19338095Y-8307986D02*
X19385714Y-8403224D01*
X19385714Y-8403224D02*
X19433333Y-8450844D01*
X19433333Y-8450844D02*
X19528571Y-8498463D01*
X19528571Y-8498463D02*
X19719047Y-8498463D01*
X19719047Y-8498463D02*
X19814285Y-8450844D01*
X19814285Y-8450844D02*
X19861904Y-8403224D01*
X19861904Y-8403224D02*
X19909523Y-8307986D01*
X19909523Y-8307986D02*
X19909523Y-7498463D01*
X20338095Y-8450844D02*
X20480952Y-8498463D01*
X20480952Y-8498463D02*
X20719047Y-8498463D01*
X20719047Y-8498463D02*
X20814285Y-8450844D01*
X20814285Y-8450844D02*
X20861904Y-8403224D01*
X20861904Y-8403224D02*
X20909523Y-8307986D01*
X20909523Y-8307986D02*
X20909523Y-8212748D01*
X20909523Y-8212748D02*
X20861904Y-8117510D01*
X20861904Y-8117510D02*
X20814285Y-8069891D01*
X20814285Y-8069891D02*
X20719047Y-8022272D01*
X20719047Y-8022272D02*
X20528571Y-7974653D01*
X20528571Y-7974653D02*
X20433333Y-7927034D01*
X20433333Y-7927034D02*
X20385714Y-7879415D01*
X20385714Y-7879415D02*
X20338095Y-7784177D01*
X20338095Y-7784177D02*
X20338095Y-7688939D01*
X20338095Y-7688939D02*
X20385714Y-7593701D01*
X20385714Y-7593701D02*
X20433333Y-7546082D01*
X20433333Y-7546082D02*
X20528571Y-7498463D01*
X20528571Y-7498463D02*
X20766666Y-7498463D01*
X20766666Y-7498463D02*
X20909523Y-7546082D01*
X21909523Y-8498463D02*
X21576190Y-8022272D01*
X21338095Y-8498463D02*
X21338095Y-7498463D01*
X21338095Y-7498463D02*
X21719047Y-7498463D01*
X21719047Y-7498463D02*
X21814285Y-7546082D01*
X21814285Y-7546082D02*
X21861904Y-7593701D01*
X21861904Y-7593701D02*
X21909523Y-7688939D01*
X21909523Y-7688939D02*
X21909523Y-7831796D01*
X21909523Y-7831796D02*
X21861904Y-7927034D01*
X21861904Y-7927034D02*
X21814285Y-7974653D01*
X21814285Y-7974653D02*
X21719047Y-8022272D01*
X21719047Y-8022272D02*
X21338095Y-8022272D01*
X13029663Y-26496247D02*
X13839186Y-26496247D01*
X13839186Y-26496247D02*
X13934424Y-26448628D01*
X13934424Y-26448628D02*
X13982044Y-26401009D01*
X13982044Y-26401009D02*
X14029663Y-26305771D01*
X14029663Y-26305771D02*
X14029663Y-26115295D01*
X14029663Y-26115295D02*
X13982044Y-26020057D01*
X13982044Y-26020057D02*
X13934424Y-25972438D01*
X13934424Y-25972438D02*
X13839186Y-25924819D01*
X13839186Y-25924819D02*
X13029663Y-25924819D01*
X14029663Y-25448628D02*
X13029663Y-25448628D01*
X13029663Y-25448628D02*
X13029663Y-25067676D01*
X13029663Y-25067676D02*
X13077282Y-24972438D01*
X13077282Y-24972438D02*
X13124901Y-24924819D01*
X13124901Y-24924819D02*
X13220139Y-24877200D01*
X13220139Y-24877200D02*
X13362996Y-24877200D01*
X13362996Y-24877200D02*
X13458234Y-24924819D01*
X13458234Y-24924819D02*
X13505853Y-24972438D01*
X13505853Y-24972438D02*
X13553472Y-25067676D01*
X13553472Y-25067676D02*
X13553472Y-25448628D01*
X14029663Y-24448628D02*
X13029663Y-24448628D01*
X13029663Y-24448628D02*
X13029663Y-24210533D01*
X13029663Y-24210533D02*
X13077282Y-24067676D01*
X13077282Y-24067676D02*
X13172520Y-23972438D01*
X13172520Y-23972438D02*
X13267758Y-23924819D01*
X13267758Y-23924819D02*
X13458234Y-23877200D01*
X13458234Y-23877200D02*
X13601091Y-23877200D01*
X13601091Y-23877200D02*
X13791567Y-23924819D01*
X13791567Y-23924819D02*
X13886805Y-23972438D01*
X13886805Y-23972438D02*
X13982044Y-24067676D01*
X13982044Y-24067676D02*
X14029663Y-24210533D01*
X14029663Y-24210533D02*
X14029663Y-24448628D01*
X14029663Y-23448628D02*
X13029663Y-23448628D01*
X7949663Y-26639104D02*
X7949663Y-26067676D01*
X8949663Y-26353390D02*
X7949663Y-26353390D01*
X7949663Y-25829580D02*
X8949663Y-25162914D01*
X7949663Y-25162914D02*
X8949663Y-25829580D01*
D11*
X4613333Y-15659580D02*
X4565714Y-15707200D01*
X4565714Y-15707200D02*
X4422857Y-15754819D01*
X4422857Y-15754819D02*
X4327619Y-15754819D01*
X4327619Y-15754819D02*
X4184762Y-15707200D01*
X4184762Y-15707200D02*
X4089524Y-15611961D01*
X4089524Y-15611961D02*
X4041905Y-15516723D01*
X4041905Y-15516723D02*
X3994286Y-15326247D01*
X3994286Y-15326247D02*
X3994286Y-15183390D01*
X3994286Y-15183390D02*
X4041905Y-14992914D01*
X4041905Y-14992914D02*
X4089524Y-14897676D01*
X4089524Y-14897676D02*
X4184762Y-14802438D01*
X4184762Y-14802438D02*
X4327619Y-14754819D01*
X4327619Y-14754819D02*
X4422857Y-14754819D01*
X4422857Y-14754819D02*
X4565714Y-14802438D01*
X4565714Y-14802438D02*
X4613333Y-14850057D01*
X4994286Y-14850057D02*
X5041905Y-14802438D01*
X5041905Y-14802438D02*
X5137143Y-14754819D01*
X5137143Y-14754819D02*
X5375238Y-14754819D01*
X5375238Y-14754819D02*
X5470476Y-14802438D01*
X5470476Y-14802438D02*
X5518095Y-14850057D01*
X5518095Y-14850057D02*
X5565714Y-14945295D01*
X5565714Y-14945295D02*
X5565714Y-15040533D01*
X5565714Y-15040533D02*
X5518095Y-15183390D01*
X5518095Y-15183390D02*
X4946667Y-15754819D01*
X4946667Y-15754819D02*
X5565714Y-15754819D01*
X19593333Y-15194819D02*
X19260000Y-14718628D01*
X19021905Y-15194819D02*
X19021905Y-14194819D01*
X19021905Y-14194819D02*
X19402857Y-14194819D01*
X19402857Y-14194819D02*
X19498095Y-14242438D01*
X19498095Y-14242438D02*
X19545714Y-14290057D01*
X19545714Y-14290057D02*
X19593333Y-14385295D01*
X19593333Y-14385295D02*
X19593333Y-14528152D01*
X19593333Y-14528152D02*
X19545714Y-14623390D01*
X19545714Y-14623390D02*
X19498095Y-14671009D01*
X19498095Y-14671009D02*
X19402857Y-14718628D01*
X19402857Y-14718628D02*
X19021905Y-14718628D01*
X20450476Y-14528152D02*
X20450476Y-15194819D01*
X20212381Y-14147200D02*
X19974286Y-14861485D01*
X19974286Y-14861485D02*
X20593333Y-14861485D01*
X11538095Y-32954819D02*
X11538095Y-33764342D01*
X11538095Y-33764342D02*
X11585714Y-33859580D01*
X11585714Y-33859580D02*
X11633333Y-33907200D01*
X11633333Y-33907200D02*
X11728571Y-33954819D01*
X11728571Y-33954819D02*
X11919047Y-33954819D01*
X11919047Y-33954819D02*
X12014285Y-33907200D01*
X12014285Y-33907200D02*
X12061904Y-33859580D01*
X12061904Y-33859580D02*
X12109523Y-33764342D01*
X12109523Y-33764342D02*
X12109523Y-32954819D01*
X12538095Y-33050057D02*
X12585714Y-33002438D01*
X12585714Y-33002438D02*
X12680952Y-32954819D01*
X12680952Y-32954819D02*
X12919047Y-32954819D01*
X12919047Y-32954819D02*
X13014285Y-33002438D01*
X13014285Y-33002438D02*
X13061904Y-33050057D01*
X13061904Y-33050057D02*
X13109523Y-33145295D01*
X13109523Y-33145295D02*
X13109523Y-33240533D01*
X13109523Y-33240533D02*
X13061904Y-33383390D01*
X13061904Y-33383390D02*
X12490476Y-33954819D01*
X12490476Y-33954819D02*
X13109523Y-33954819D01*
X19593333Y-13484819D02*
X19260000Y-13008628D01*
X19021905Y-13484819D02*
X19021905Y-12484819D01*
X19021905Y-12484819D02*
X19402857Y-12484819D01*
X19402857Y-12484819D02*
X19498095Y-12532438D01*
X19498095Y-12532438D02*
X19545714Y-12580057D01*
X19545714Y-12580057D02*
X19593333Y-12675295D01*
X19593333Y-12675295D02*
X19593333Y-12818152D01*
X19593333Y-12818152D02*
X19545714Y-12913390D01*
X19545714Y-12913390D02*
X19498095Y-12961009D01*
X19498095Y-12961009D02*
X19402857Y-13008628D01*
X19402857Y-13008628D02*
X19021905Y-13008628D01*
X19974286Y-12580057D02*
X20021905Y-12532438D01*
X20021905Y-12532438D02*
X20117143Y-12484819D01*
X20117143Y-12484819D02*
X20355238Y-12484819D01*
X20355238Y-12484819D02*
X20450476Y-12532438D01*
X20450476Y-12532438D02*
X20498095Y-12580057D01*
X20498095Y-12580057D02*
X20545714Y-12675295D01*
X20545714Y-12675295D02*
X20545714Y-12770533D01*
X20545714Y-12770533D02*
X20498095Y-12913390D01*
X20498095Y-12913390D02*
X19926667Y-13484819D01*
X19926667Y-13484819D02*
X20545714Y-13484819D01*
X9354819Y-11811904D02*
X10164342Y-11811904D01*
X10164342Y-11811904D02*
X10259580Y-11764285D01*
X10259580Y-11764285D02*
X10307200Y-11716666D01*
X10307200Y-11716666D02*
X10354819Y-11621428D01*
X10354819Y-11621428D02*
X10354819Y-11430952D01*
X10354819Y-11430952D02*
X10307200Y-11335714D01*
X10307200Y-11335714D02*
X10259580Y-11288095D01*
X10259580Y-11288095D02*
X10164342Y-11240476D01*
X10164342Y-11240476D02*
X9354819Y-11240476D01*
X10354819Y-10240476D02*
X10354819Y-10811904D01*
X10354819Y-10526190D02*
X9354819Y-10526190D01*
X9354819Y-10526190D02*
X9497676Y-10621428D01*
X9497676Y-10621428D02*
X9592914Y-10716666D01*
X9592914Y-10716666D02*
X9640533Y-10811904D01*
X20742505Y-19424819D02*
X20742505Y-18424819D01*
X20742505Y-18424819D02*
X20980600Y-18424819D01*
X20980600Y-18424819D02*
X21123457Y-18472438D01*
X21123457Y-18472438D02*
X21218695Y-18567676D01*
X21218695Y-18567676D02*
X21266314Y-18662914D01*
X21266314Y-18662914D02*
X21313933Y-18853390D01*
X21313933Y-18853390D02*
X21313933Y-18996247D01*
X21313933Y-18996247D02*
X21266314Y-19186723D01*
X21266314Y-19186723D02*
X21218695Y-19281961D01*
X21218695Y-19281961D02*
X21123457Y-19377200D01*
X21123457Y-19377200D02*
X20980600Y-19424819D01*
X20980600Y-19424819D02*
X20742505Y-19424819D01*
X21647267Y-18424819D02*
X22266314Y-18424819D01*
X22266314Y-18424819D02*
X21932981Y-18805771D01*
X21932981Y-18805771D02*
X22075838Y-18805771D01*
X22075838Y-18805771D02*
X22171076Y-18853390D01*
X22171076Y-18853390D02*
X22218695Y-18901009D01*
X22218695Y-18901009D02*
X22266314Y-18996247D01*
X22266314Y-18996247D02*
X22266314Y-19234342D01*
X22266314Y-19234342D02*
X22218695Y-19329580D01*
X22218695Y-19329580D02*
X22171076Y-19377200D01*
X22171076Y-19377200D02*
X22075838Y-19424819D01*
X22075838Y-19424819D02*
X21790124Y-19424819D01*
X21790124Y-19424819D02*
X21694886Y-19377200D01*
X21694886Y-19377200D02*
X21647267Y-19329580D01*
X19593333Y-11774819D02*
X19260000Y-11298628D01*
X19021905Y-11774819D02*
X19021905Y-10774819D01*
X19021905Y-10774819D02*
X19402857Y-10774819D01*
X19402857Y-10774819D02*
X19498095Y-10822438D01*
X19498095Y-10822438D02*
X19545714Y-10870057D01*
X19545714Y-10870057D02*
X19593333Y-10965295D01*
X19593333Y-10965295D02*
X19593333Y-11108152D01*
X19593333Y-11108152D02*
X19545714Y-11203390D01*
X19545714Y-11203390D02*
X19498095Y-11251009D01*
X19498095Y-11251009D02*
X19402857Y-11298628D01*
X19402857Y-11298628D02*
X19021905Y-11298628D01*
X19926667Y-10774819D02*
X20545714Y-10774819D01*
X20545714Y-10774819D02*
X20212381Y-11155771D01*
X20212381Y-11155771D02*
X20355238Y-11155771D01*
X20355238Y-11155771D02*
X20450476Y-11203390D01*
X20450476Y-11203390D02*
X20498095Y-11251009D01*
X20498095Y-11251009D02*
X20545714Y-11346247D01*
X20545714Y-11346247D02*
X20545714Y-11584342D01*
X20545714Y-11584342D02*
X20498095Y-11679580D01*
X20498095Y-11679580D02*
X20450476Y-11727200D01*
X20450476Y-11727200D02*
X20355238Y-11774819D01*
X20355238Y-11774819D02*
X20069524Y-11774819D01*
X20069524Y-11774819D02*
X19974286Y-11727200D01*
X19974286Y-11727200D02*
X19926667Y-11679580D01*
X21173333Y-17124819D02*
X20840000Y-16648628D01*
X20601905Y-17124819D02*
X20601905Y-16124819D01*
X20601905Y-16124819D02*
X20982857Y-16124819D01*
X20982857Y-16124819D02*
X21078095Y-16172438D01*
X21078095Y-16172438D02*
X21125714Y-16220057D01*
X21125714Y-16220057D02*
X21173333Y-16315295D01*
X21173333Y-16315295D02*
X21173333Y-16458152D01*
X21173333Y-16458152D02*
X21125714Y-16553390D01*
X21125714Y-16553390D02*
X21078095Y-16601009D01*
X21078095Y-16601009D02*
X20982857Y-16648628D01*
X20982857Y-16648628D02*
X20601905Y-16648628D01*
X22078095Y-16124819D02*
X21601905Y-16124819D01*
X21601905Y-16124819D02*
X21554286Y-16601009D01*
X21554286Y-16601009D02*
X21601905Y-16553390D01*
X21601905Y-16553390D02*
X21697143Y-16505771D01*
X21697143Y-16505771D02*
X21935238Y-16505771D01*
X21935238Y-16505771D02*
X22030476Y-16553390D01*
X22030476Y-16553390D02*
X22078095Y-16601009D01*
X22078095Y-16601009D02*
X22125714Y-16696247D01*
X22125714Y-16696247D02*
X22125714Y-16934342D01*
X22125714Y-16934342D02*
X22078095Y-17029580D01*
X22078095Y-17029580D02*
X22030476Y-17077200D01*
X22030476Y-17077200D02*
X21935238Y-17124819D01*
X21935238Y-17124819D02*
X21697143Y-17124819D01*
X21697143Y-17124819D02*
X21601905Y-17077200D01*
X21601905Y-17077200D02*
X21554286Y-17029580D01*
X14303333Y-22499580D02*
X14255714Y-22547200D01*
X14255714Y-22547200D02*
X14112857Y-22594819D01*
X14112857Y-22594819D02*
X14017619Y-22594819D01*
X14017619Y-22594819D02*
X13874762Y-22547200D01*
X13874762Y-22547200D02*
X13779524Y-22451961D01*
X13779524Y-22451961D02*
X13731905Y-22356723D01*
X13731905Y-22356723D02*
X13684286Y-22166247D01*
X13684286Y-22166247D02*
X13684286Y-22023390D01*
X13684286Y-22023390D02*
X13731905Y-21832914D01*
X13731905Y-21832914D02*
X13779524Y-21737676D01*
X13779524Y-21737676D02*
X13874762Y-21642438D01*
X13874762Y-21642438D02*
X14017619Y-21594819D01*
X14017619Y-21594819D02*
X14112857Y-21594819D01*
X14112857Y-21594819D02*
X14255714Y-21642438D01*
X14255714Y-21642438D02*
X14303333Y-21690057D01*
X15208095Y-21594819D02*
X14731905Y-21594819D01*
X14731905Y-21594819D02*
X14684286Y-22071009D01*
X14684286Y-22071009D02*
X14731905Y-22023390D01*
X14731905Y-22023390D02*
X14827143Y-21975771D01*
X14827143Y-21975771D02*
X15065238Y-21975771D01*
X15065238Y-21975771D02*
X15160476Y-22023390D01*
X15160476Y-22023390D02*
X15208095Y-22071009D01*
X15208095Y-22071009D02*
X15255714Y-22166247D01*
X15255714Y-22166247D02*
X15255714Y-22404342D01*
X15255714Y-22404342D02*
X15208095Y-22499580D01*
X15208095Y-22499580D02*
X15160476Y-22547200D01*
X15160476Y-22547200D02*
X15065238Y-22594819D01*
X15065238Y-22594819D02*
X14827143Y-22594819D01*
X14827143Y-22594819D02*
X14731905Y-22547200D01*
X14731905Y-22547200D02*
X14684286Y-22499580D01*
X4613333Y-13949580D02*
X4565714Y-13997200D01*
X4565714Y-13997200D02*
X4422857Y-14044819D01*
X4422857Y-14044819D02*
X4327619Y-14044819D01*
X4327619Y-14044819D02*
X4184762Y-13997200D01*
X4184762Y-13997200D02*
X4089524Y-13901961D01*
X4089524Y-13901961D02*
X4041905Y-13806723D01*
X4041905Y-13806723D02*
X3994286Y-13616247D01*
X3994286Y-13616247D02*
X3994286Y-13473390D01*
X3994286Y-13473390D02*
X4041905Y-13282914D01*
X4041905Y-13282914D02*
X4089524Y-13187676D01*
X4089524Y-13187676D02*
X4184762Y-13092438D01*
X4184762Y-13092438D02*
X4327619Y-13044819D01*
X4327619Y-13044819D02*
X4422857Y-13044819D01*
X4422857Y-13044819D02*
X4565714Y-13092438D01*
X4565714Y-13092438D02*
X4613333Y-13140057D01*
X5565714Y-14044819D02*
X4994286Y-14044819D01*
X5280000Y-14044819D02*
X5280000Y-13044819D01*
X5280000Y-13044819D02*
X5184762Y-13187676D01*
X5184762Y-13187676D02*
X5089524Y-13282914D01*
X5089524Y-13282914D02*
X4994286Y-13330533D01*
X6704819Y-20978094D02*
X5704819Y-20978094D01*
X5704819Y-20978094D02*
X5704819Y-20739999D01*
X5704819Y-20739999D02*
X5752438Y-20597142D01*
X5752438Y-20597142D02*
X5847676Y-20501904D01*
X5847676Y-20501904D02*
X5942914Y-20454285D01*
X5942914Y-20454285D02*
X6133390Y-20406666D01*
X6133390Y-20406666D02*
X6276247Y-20406666D01*
X6276247Y-20406666D02*
X6466723Y-20454285D01*
X6466723Y-20454285D02*
X6561961Y-20501904D01*
X6561961Y-20501904D02*
X6657200Y-20597142D01*
X6657200Y-20597142D02*
X6704819Y-20739999D01*
X6704819Y-20739999D02*
X6704819Y-20978094D01*
X5800057Y-20025713D02*
X5752438Y-19978094D01*
X5752438Y-19978094D02*
X5704819Y-19882856D01*
X5704819Y-19882856D02*
X5704819Y-19644761D01*
X5704819Y-19644761D02*
X5752438Y-19549523D01*
X5752438Y-19549523D02*
X5800057Y-19501904D01*
X5800057Y-19501904D02*
X5895295Y-19454285D01*
X5895295Y-19454285D02*
X5990533Y-19454285D01*
X5990533Y-19454285D02*
X6133390Y-19501904D01*
X6133390Y-19501904D02*
X6704819Y-20073332D01*
X6704819Y-20073332D02*
X6704819Y-19454285D01*
X15164819Y-18199404D02*
X15974342Y-18199404D01*
X15974342Y-18199404D02*
X16069580Y-18151785D01*
X16069580Y-18151785D02*
X16117200Y-18104166D01*
X16117200Y-18104166D02*
X16164819Y-18008928D01*
X16164819Y-18008928D02*
X16164819Y-17818452D01*
X16164819Y-17818452D02*
X16117200Y-17723214D01*
X16117200Y-17723214D02*
X16069580Y-17675595D01*
X16069580Y-17675595D02*
X15974342Y-17627976D01*
X15974342Y-17627976D02*
X15164819Y-17627976D01*
X15164819Y-17247023D02*
X15164819Y-16627976D01*
X15164819Y-16627976D02*
X15545771Y-16961309D01*
X15545771Y-16961309D02*
X15545771Y-16818452D01*
X15545771Y-16818452D02*
X15593390Y-16723214D01*
X15593390Y-16723214D02*
X15641009Y-16675595D01*
X15641009Y-16675595D02*
X15736247Y-16627976D01*
X15736247Y-16627976D02*
X15974342Y-16627976D01*
X15974342Y-16627976D02*
X16069580Y-16675595D01*
X16069580Y-16675595D02*
X16117200Y-16723214D01*
X16117200Y-16723214D02*
X16164819Y-16818452D01*
X16164819Y-16818452D02*
X16164819Y-17104166D01*
X16164819Y-17104166D02*
X16117200Y-17199404D01*
X16117200Y-17199404D02*
X16069580Y-17247023D01*
X4116666Y-11591009D02*
X3783333Y-11591009D01*
X3783333Y-12114819D02*
X3783333Y-11114819D01*
X3783333Y-11114819D02*
X4259523Y-11114819D01*
X5164285Y-12114819D02*
X4592857Y-12114819D01*
X4878571Y-12114819D02*
X4878571Y-11114819D01*
X4878571Y-11114819D02*
X4783333Y-11257676D01*
X4783333Y-11257676D02*
X4688095Y-11352914D01*
X4688095Y-11352914D02*
X4592857Y-11400533D01*
X4603333Y-17464819D02*
X4270000Y-16988628D01*
X4031905Y-17464819D02*
X4031905Y-16464819D01*
X4031905Y-16464819D02*
X4412857Y-16464819D01*
X4412857Y-16464819D02*
X4508095Y-16512438D01*
X4508095Y-16512438D02*
X4555714Y-16560057D01*
X4555714Y-16560057D02*
X4603333Y-16655295D01*
X4603333Y-16655295D02*
X4603333Y-16798152D01*
X4603333Y-16798152D02*
X4555714Y-16893390D01*
X4555714Y-16893390D02*
X4508095Y-16941009D01*
X4508095Y-16941009D02*
X4412857Y-16988628D01*
X4412857Y-16988628D02*
X4031905Y-16988628D01*
X5555714Y-17464819D02*
X4984286Y-17464819D01*
X5270000Y-17464819D02*
X5270000Y-16464819D01*
X5270000Y-16464819D02*
X5174762Y-16607676D01*
X5174762Y-16607676D02*
X5079524Y-16702914D01*
X5079524Y-16702914D02*
X4984286Y-16750533D01*
X19633333Y-21409580D02*
X19585714Y-21457200D01*
X19585714Y-21457200D02*
X19442857Y-21504819D01*
X19442857Y-21504819D02*
X19347619Y-21504819D01*
X19347619Y-21504819D02*
X19204762Y-21457200D01*
X19204762Y-21457200D02*
X19109524Y-21361961D01*
X19109524Y-21361961D02*
X19061905Y-21266723D01*
X19061905Y-21266723D02*
X19014286Y-21076247D01*
X19014286Y-21076247D02*
X19014286Y-20933390D01*
X19014286Y-20933390D02*
X19061905Y-20742914D01*
X19061905Y-20742914D02*
X19109524Y-20647676D01*
X19109524Y-20647676D02*
X19204762Y-20552438D01*
X19204762Y-20552438D02*
X19347619Y-20504819D01*
X19347619Y-20504819D02*
X19442857Y-20504819D01*
X19442857Y-20504819D02*
X19585714Y-20552438D01*
X19585714Y-20552438D02*
X19633333Y-20600057D01*
X20490476Y-20838152D02*
X20490476Y-21504819D01*
X20252381Y-20457200D02*
X20014286Y-21171485D01*
X20014286Y-21171485D02*
X20633333Y-21171485D01*
X7734580Y-38316666D02*
X7782200Y-38364285D01*
X7782200Y-38364285D02*
X7829819Y-38507142D01*
X7829819Y-38507142D02*
X7829819Y-38602380D01*
X7829819Y-38602380D02*
X7782200Y-38745237D01*
X7782200Y-38745237D02*
X7686961Y-38840475D01*
X7686961Y-38840475D02*
X7591723Y-38888094D01*
X7591723Y-38888094D02*
X7401247Y-38935713D01*
X7401247Y-38935713D02*
X7258390Y-38935713D01*
X7258390Y-38935713D02*
X7067914Y-38888094D01*
X7067914Y-38888094D02*
X6972676Y-38840475D01*
X6972676Y-38840475D02*
X6877438Y-38745237D01*
X6877438Y-38745237D02*
X6829819Y-38602380D01*
X6829819Y-38602380D02*
X6829819Y-38507142D01*
X6829819Y-38507142D02*
X6877438Y-38364285D01*
X6877438Y-38364285D02*
X6925057Y-38316666D01*
X6829819Y-37983332D02*
X6829819Y-37364285D01*
X6829819Y-37364285D02*
X7210771Y-37697618D01*
X7210771Y-37697618D02*
X7210771Y-37554761D01*
X7210771Y-37554761D02*
X7258390Y-37459523D01*
X7258390Y-37459523D02*
X7306009Y-37411904D01*
X7306009Y-37411904D02*
X7401247Y-37364285D01*
X7401247Y-37364285D02*
X7639342Y-37364285D01*
X7639342Y-37364285D02*
X7734580Y-37411904D01*
X7734580Y-37411904D02*
X7782200Y-37459523D01*
X7782200Y-37459523D02*
X7829819Y-37554761D01*
X7829819Y-37554761D02*
X7829819Y-37840475D01*
X7829819Y-37840475D02*
X7782200Y-37935713D01*
X7782200Y-37935713D02*
X7734580Y-37983332D01*
D12*
%TO.C,D1*%
X2515000Y-8785000D02*
X2515000Y-10255000D01*
X2515000Y-10255000D02*
X4800000Y-10255000D01*
X4800000Y-8785000D02*
X2515000Y-8785000D01*
%TO.C,C2*%
X7300580Y-14790000D02*
X7019420Y-14790000D01*
X7300580Y-15810000D02*
X7019420Y-15810000D01*
%TO.C,R4*%
X17667258Y-14217500D02*
X17192742Y-14217500D01*
X17667258Y-15262500D02*
X17192742Y-15262500D01*
%TO.C,U2*%
X12300000Y-34340000D02*
X10350000Y-34340000D01*
X12300000Y-34340000D02*
X14250000Y-34340000D01*
X12300000Y-39460000D02*
X10350000Y-39460000D01*
X12300000Y-39460000D02*
X14250000Y-39460000D01*
X9600000Y-34435000D02*
X9360000Y-34105000D01*
X9840000Y-34105000D01*
X9600000Y-34435000D01*
G36*
X9600000Y-34435000D02*
G01*
X9360000Y-34105000D01*
X9840000Y-34105000D01*
X9600000Y-34435000D01*
G37*
%TO.C,R2*%
X17667258Y-12507500D02*
X17192742Y-12507500D01*
X17667258Y-13552500D02*
X17192742Y-13552500D01*
%TO.C,U1*%
X10740000Y-11050000D02*
X10740000Y-10250000D01*
X10740000Y-11050000D02*
X10740000Y-11850000D01*
X13860000Y-11050000D02*
X13860000Y-10250000D01*
X13860000Y-11050000D02*
X13860000Y-11850000D01*
X10790000Y-12350000D02*
X10460000Y-12590000D01*
X10460000Y-12110000D01*
X10790000Y-12350000D01*
G36*
X10790000Y-12350000D02*
G01*
X10460000Y-12590000D01*
X10460000Y-12110000D01*
X10790000Y-12350000D01*
G37*
%TO.C,D3*%
X20457500Y-18020000D02*
X16797500Y-18020000D01*
X20457500Y-19920000D02*
X16797500Y-19920000D01*
X20457500Y-19920000D02*
X20457500Y-18020000D01*
%TO.C,R3*%
X17667258Y-10797500D02*
X17192742Y-10797500D01*
X17667258Y-11842500D02*
X17192742Y-11842500D01*
%TO.C,R5*%
X18542936Y-15935000D02*
X18997064Y-15935000D01*
X18542936Y-17405000D02*
X18997064Y-17405000D01*
%TO.C,J4*%
X4625000Y-27005000D02*
X19985000Y-27005000D01*
X4625000Y-29605000D02*
X4625000Y-27005000D01*
X4625000Y-32205000D02*
X4625000Y-30875000D01*
X5955000Y-32205000D02*
X4625000Y-32205000D01*
X7225000Y-29605000D02*
X4625000Y-29605000D01*
X7225000Y-32205000D02*
X7225000Y-29605000D01*
X7225000Y-32205000D02*
X19985000Y-32205000D01*
X19985000Y-32205000D02*
X19985000Y-27005000D01*
%TO.C,C5*%
X12230580Y-21630000D02*
X11949420Y-21630000D01*
X12230580Y-22650000D02*
X11949420Y-22650000D01*
%TO.C,J1*%
X7720000Y-3980000D02*
X7720000Y-5750000D01*
X16880000Y-5750000D02*
X16880000Y-3980000D01*
%TO.C,D4*%
X19115000Y-8785000D02*
X19115000Y-10255000D01*
X19115000Y-10255000D02*
X21400000Y-10255000D01*
X21400000Y-8785000D02*
X19115000Y-8785000D01*
%TO.C,C1*%
X7300580Y-13080000D02*
X7019420Y-13080000D01*
X7300580Y-14100000D02*
X7019420Y-14100000D01*
%TO.C,D2*%
X6990000Y-22500000D02*
X6990000Y-18840000D01*
X6990000Y-22500000D02*
X8890000Y-22500000D01*
X8890000Y-22500000D02*
X8890000Y-18840000D01*
%TO.C,U3*%
X9750000Y-17437500D02*
X9750000Y-15487500D01*
X9750000Y-17437500D02*
X9750000Y-19387500D01*
X14870000Y-17437500D02*
X14870000Y-15487500D01*
X14870000Y-17437500D02*
X14870000Y-19387500D01*
X15200000Y-14965000D02*
X14870000Y-14725000D01*
X15200000Y-14485000D01*
X15200000Y-14965000D01*
G36*
X15200000Y-14965000D02*
G01*
X14870000Y-14725000D01*
X15200000Y-14485000D01*
X15200000Y-14965000D01*
G37*
%TO.C,F1*%
X6701422Y-10950000D02*
X7218578Y-10950000D01*
X6701422Y-12370000D02*
X7218578Y-12370000D01*
D13*
%TO.C,G\u002A\u002A\u002A*%
X22313704Y-21873664D02*
X22354528Y-21899956D01*
X22399443Y-21939756D01*
X22444785Y-21989783D01*
X22486889Y-22046757D01*
X22490058Y-22051596D01*
X22542076Y-22146413D01*
X22577796Y-22247216D01*
X22598696Y-22359045D01*
X22605226Y-22444681D01*
X22604069Y-22559248D01*
X22590649Y-22671581D01*
X22563918Y-22785794D01*
X22522825Y-22905997D01*
X22466319Y-23036303D01*
X22440601Y-23089296D01*
X22376858Y-23209769D01*
X22310342Y-23318976D01*
X22236957Y-23422659D01*
X22152612Y-23526559D01*
X22053211Y-23636419D01*
X22042285Y-23647955D01*
X21987231Y-23708485D01*
X21942930Y-23764305D01*
X21904073Y-23823053D01*
X21865349Y-23892367D01*
X21845753Y-23930633D01*
X21822378Y-23974872D01*
X21800710Y-24011823D01*
X21784022Y-24036075D01*
X21778505Y-24041794D01*
X21770974Y-24051978D01*
X21764961Y-24072308D01*
X21760004Y-24105972D01*
X21755643Y-24156161D01*
X21751416Y-24226065D01*
X21751166Y-24230773D01*
X21746312Y-24298189D01*
X21738309Y-24381408D01*
X21727942Y-24473477D01*
X21716000Y-24567445D01*
X21703266Y-24656362D01*
X21702361Y-24662248D01*
X21689852Y-24743988D01*
X21677684Y-24825023D01*
X21666619Y-24900149D01*
X21657422Y-24964168D01*
X21650857Y-25011879D01*
X21649715Y-25020658D01*
X21636911Y-25101564D01*
X21618498Y-25191748D01*
X21595972Y-25285662D01*
X21570829Y-25377758D01*
X21544564Y-25462490D01*
X21518673Y-25534307D01*
X21499287Y-25578632D01*
X21469591Y-25633915D01*
X21440734Y-25675083D01*
X21406708Y-25710074D01*
X21387370Y-25726523D01*
X21350360Y-25755430D01*
X21316061Y-25780118D01*
X21292132Y-25795106D01*
X21249432Y-25811064D01*
X21204206Y-25818573D01*
X21166332Y-25816261D01*
X21158443Y-25813689D01*
X21136679Y-25798701D01*
X21105003Y-25769703D01*
X21067447Y-25731086D01*
X21028045Y-25687245D01*
X20990830Y-25642573D01*
X20959834Y-25601462D01*
X20949475Y-25586057D01*
X20931174Y-25554654D01*
X20905844Y-25507334D01*
X20876093Y-25449162D01*
X20844529Y-25385206D01*
X20824090Y-25342537D01*
X20763486Y-25204433D01*
X20717630Y-25075957D01*
X20684681Y-24950669D01*
X20662802Y-24822130D01*
X20655071Y-24750546D01*
X20651167Y-24688905D01*
X20648893Y-24614076D01*
X20648167Y-24531398D01*
X20648907Y-24446210D01*
X20651031Y-24363852D01*
X20653538Y-24309565D01*
X20866766Y-24309565D01*
X20866792Y-24406142D01*
X20868075Y-24490773D01*
X20869967Y-24577831D01*
X20872049Y-24646215D01*
X20874766Y-24700342D01*
X20878563Y-24744627D01*
X20883886Y-24783487D01*
X20891179Y-24821336D01*
X20900887Y-24862592D01*
X20908628Y-24893030D01*
X20929874Y-24962845D01*
X20960445Y-25046534D01*
X20997743Y-25138201D01*
X21039166Y-25231947D01*
X21082114Y-25321875D01*
X21123988Y-25402088D01*
X21160166Y-25463548D01*
X21189074Y-25505324D01*
X21220832Y-25545820D01*
X21251923Y-25581180D01*
X21278831Y-25607548D01*
X21298039Y-25621067D01*
X21304227Y-25621525D01*
X21311898Y-25608303D01*
X21323693Y-25578401D01*
X21337497Y-25537372D01*
X21342641Y-25520648D01*
X21373127Y-25411729D01*
X21399248Y-25301428D01*
X21422471Y-25182846D01*
X21444262Y-25049086D01*
X21447433Y-25027725D01*
X21459671Y-24944307D01*
X21473700Y-24848512D01*
X21487990Y-24750816D01*
X21501007Y-24661693D01*
X21504045Y-24640864D01*
X21519312Y-24523613D01*
X21531776Y-24399301D01*
X21541579Y-24265177D01*
X21548866Y-24118486D01*
X21553778Y-23956478D01*
X21556458Y-23776400D01*
X21557091Y-23618873D01*
X21557091Y-23232626D01*
X21514457Y-23295972D01*
X21491083Y-23326592D01*
X21454113Y-23370034D01*
X21406561Y-23423081D01*
X21351441Y-23482516D01*
X21291767Y-23545120D01*
X21230553Y-23607676D01*
X21170812Y-23666966D01*
X21131746Y-23704555D01*
X21098397Y-23738368D01*
X21056855Y-23783721D01*
X21013120Y-23833936D01*
X20983127Y-23869983D01*
X20896172Y-23976994D01*
X20879483Y-24101111D01*
X20872997Y-24160978D01*
X20868797Y-24229153D01*
X20866766Y-24309565D01*
X20653538Y-24309565D01*
X20654458Y-24289661D01*
X20659107Y-24228979D01*
X20663590Y-24194095D01*
X20670912Y-24151416D01*
X20551161Y-24202065D01*
X20488469Y-24227191D01*
X20419704Y-24252548D01*
X20355602Y-24274258D01*
X20327500Y-24282869D01*
X20276324Y-24296287D01*
X20216845Y-24309645D01*
X20154246Y-24322038D01*
X20093710Y-24332562D01*
X20040419Y-24340310D01*
X19999556Y-24344378D01*
X19977216Y-24344057D01*
X19976586Y-24336766D01*
X19991647Y-24320651D01*
X20018220Y-24298653D01*
X20052125Y-24273711D01*
X20089182Y-24248764D01*
X20125212Y-24226753D01*
X20156035Y-24210617D01*
X20177327Y-24203314D01*
X20303055Y-24184676D01*
X20412874Y-24164241D01*
X20505323Y-24142396D01*
X20578945Y-24119531D01*
X20632282Y-24096034D01*
X20662260Y-24074108D01*
X20673997Y-24057511D01*
X20684147Y-24032916D01*
X20693787Y-23996394D01*
X20703991Y-23944018D01*
X20713381Y-23887451D01*
X20733925Y-23774955D01*
X20932480Y-23774955D01*
X21095376Y-23609745D01*
X21177585Y-23523881D01*
X21244940Y-23447309D01*
X21300926Y-23375293D01*
X21349031Y-23303098D01*
X21392742Y-23225988D01*
X21424276Y-23163046D01*
X21451055Y-23100524D01*
X21479866Y-23021902D01*
X21508619Y-22933799D01*
X21535222Y-22842834D01*
X21557585Y-22755625D01*
X21568111Y-22707787D01*
X21580705Y-22658591D01*
X21595445Y-22629135D01*
X21614406Y-22616070D01*
X21625864Y-22614636D01*
X21644858Y-22608305D01*
X21675652Y-22591708D01*
X21711554Y-22568455D01*
X21746230Y-22545357D01*
X21774341Y-22528795D01*
X21789925Y-22522277D01*
X21790096Y-22522273D01*
X21793691Y-22533291D01*
X21795908Y-22564331D01*
X21796819Y-22612366D01*
X21796494Y-22674372D01*
X21795004Y-22747324D01*
X21792421Y-22828198D01*
X21788815Y-22913969D01*
X21784256Y-23001612D01*
X21778816Y-23088101D01*
X21775905Y-23128409D01*
X21773051Y-23176180D01*
X21770602Y-23236519D01*
X21768582Y-23305994D01*
X21767012Y-23381175D01*
X21765916Y-23458630D01*
X21765317Y-23534930D01*
X21765236Y-23606642D01*
X21765697Y-23670336D01*
X21766722Y-23722581D01*
X21768334Y-23759946D01*
X21770555Y-23779000D01*
X21771594Y-23780727D01*
X21782609Y-23773132D01*
X21804369Y-23753431D01*
X21826435Y-23731659D01*
X21898018Y-23655072D01*
X21971044Y-23570520D01*
X22038331Y-23486524D01*
X22076670Y-23434740D01*
X22124431Y-23361275D01*
X22175272Y-23272413D01*
X22225814Y-23174925D01*
X22272679Y-23075584D01*
X22312489Y-22981162D01*
X22337679Y-22911598D01*
X22355366Y-22855449D01*
X22367631Y-22809551D01*
X22375694Y-22766515D01*
X22380776Y-22718954D01*
X22384096Y-22659481D01*
X22385512Y-22621943D01*
X22386713Y-22529639D01*
X22382401Y-22453403D01*
X22371366Y-22386614D01*
X22352394Y-22322653D01*
X22324274Y-22254901D01*
X22314501Y-22234153D01*
X22285722Y-22183671D01*
X22248509Y-22131643D01*
X22207370Y-22083267D01*
X22166815Y-22043738D01*
X22131354Y-22018254D01*
X22124174Y-22014834D01*
X22107547Y-22010408D01*
X22086884Y-22010476D01*
X22059780Y-22015909D01*
X22023826Y-22027577D01*
X21976615Y-22046351D01*
X21915740Y-22073098D01*
X21838793Y-22108691D01*
X21756670Y-22147640D01*
X21681599Y-22184465D01*
X21623707Y-22215382D01*
X21578701Y-22242984D01*
X21542291Y-22269863D01*
X21516073Y-22292961D01*
X21442508Y-22374182D01*
X21370356Y-22476850D01*
X21300542Y-22599326D01*
X21233992Y-22739972D01*
X21171632Y-22897148D01*
X21165962Y-22912872D01*
X21135323Y-23001982D01*
X21103415Y-23100903D01*
X21071363Y-23205606D01*
X21040290Y-23312065D01*
X21011321Y-23416251D01*
X20985580Y-23514138D01*
X20964190Y-23601699D01*
X20948275Y-23674905D01*
X20939869Y-23723000D01*
X20932480Y-23774955D01*
X20733925Y-23774955D01*
X20735985Y-23763679D01*
X20765979Y-23627895D01*
X20802013Y-23484579D01*
X20842737Y-23338214D01*
X20886801Y-23193280D01*
X20932855Y-23054259D01*
X20979549Y-22925634D01*
X21025533Y-22811884D01*
X21060287Y-22735864D01*
X21121941Y-22617946D01*
X21183277Y-22518982D01*
X21247629Y-22435122D01*
X21318330Y-22362519D01*
X21398716Y-22297326D01*
X21492121Y-22235694D01*
X21495531Y-22233636D01*
X21571859Y-22189197D01*
X21655873Y-22142892D01*
X21744708Y-22096070D01*
X21835501Y-22050078D01*
X21925388Y-22006264D01*
X22011506Y-21965976D01*
X22090990Y-21930561D01*
X22160978Y-21901367D01*
X22218605Y-21879741D01*
X22261008Y-21867032D01*
X22280638Y-21864159D01*
X22313704Y-21873664D01*
G36*
X22313704Y-21873664D02*
G01*
X22354528Y-21899956D01*
X22399443Y-21939756D01*
X22444785Y-21989783D01*
X22486889Y-22046757D01*
X22490058Y-22051596D01*
X22542076Y-22146413D01*
X22577796Y-22247216D01*
X22598696Y-22359045D01*
X22605226Y-22444681D01*
X22604069Y-22559248D01*
X22590649Y-22671581D01*
X22563918Y-22785794D01*
X22522825Y-22905997D01*
X22466319Y-23036303D01*
X22440601Y-23089296D01*
X22376858Y-23209769D01*
X22310342Y-23318976D01*
X22236957Y-23422659D01*
X22152612Y-23526559D01*
X22053211Y-23636419D01*
X22042285Y-23647955D01*
X21987231Y-23708485D01*
X21942930Y-23764305D01*
X21904073Y-23823053D01*
X21865349Y-23892367D01*
X21845753Y-23930633D01*
X21822378Y-23974872D01*
X21800710Y-24011823D01*
X21784022Y-24036075D01*
X21778505Y-24041794D01*
X21770974Y-24051978D01*
X21764961Y-24072308D01*
X21760004Y-24105972D01*
X21755643Y-24156161D01*
X21751416Y-24226065D01*
X21751166Y-24230773D01*
X21746312Y-24298189D01*
X21738309Y-24381408D01*
X21727942Y-24473477D01*
X21716000Y-24567445D01*
X21703266Y-24656362D01*
X21702361Y-24662248D01*
X21689852Y-24743988D01*
X21677684Y-24825023D01*
X21666619Y-24900149D01*
X21657422Y-24964168D01*
X21650857Y-25011879D01*
X21649715Y-25020658D01*
X21636911Y-25101564D01*
X21618498Y-25191748D01*
X21595972Y-25285662D01*
X21570829Y-25377758D01*
X21544564Y-25462490D01*
X21518673Y-25534307D01*
X21499287Y-25578632D01*
X21469591Y-25633915D01*
X21440734Y-25675083D01*
X21406708Y-25710074D01*
X21387370Y-25726523D01*
X21350360Y-25755430D01*
X21316061Y-25780118D01*
X21292132Y-25795106D01*
X21249432Y-25811064D01*
X21204206Y-25818573D01*
X21166332Y-25816261D01*
X21158443Y-25813689D01*
X21136679Y-25798701D01*
X21105003Y-25769703D01*
X21067447Y-25731086D01*
X21028045Y-25687245D01*
X20990830Y-25642573D01*
X20959834Y-25601462D01*
X20949475Y-25586057D01*
X20931174Y-25554654D01*
X20905844Y-25507334D01*
X20876093Y-25449162D01*
X20844529Y-25385206D01*
X20824090Y-25342537D01*
X20763486Y-25204433D01*
X20717630Y-25075957D01*
X20684681Y-24950669D01*
X20662802Y-24822130D01*
X20655071Y-24750546D01*
X20651167Y-24688905D01*
X20648893Y-24614076D01*
X20648167Y-24531398D01*
X20648907Y-24446210D01*
X20651031Y-24363852D01*
X20653538Y-24309565D01*
X20866766Y-24309565D01*
X20866792Y-24406142D01*
X20868075Y-24490773D01*
X20869967Y-24577831D01*
X20872049Y-24646215D01*
X20874766Y-24700342D01*
X20878563Y-24744627D01*
X20883886Y-24783487D01*
X20891179Y-24821336D01*
X20900887Y-24862592D01*
X20908628Y-24893030D01*
X20929874Y-24962845D01*
X20960445Y-25046534D01*
X20997743Y-25138201D01*
X21039166Y-25231947D01*
X21082114Y-25321875D01*
X21123988Y-25402088D01*
X21160166Y-25463548D01*
X21189074Y-25505324D01*
X21220832Y-25545820D01*
X21251923Y-25581180D01*
X21278831Y-25607548D01*
X21298039Y-25621067D01*
X21304227Y-25621525D01*
X21311898Y-25608303D01*
X21323693Y-25578401D01*
X21337497Y-25537372D01*
X21342641Y-25520648D01*
X21373127Y-25411729D01*
X21399248Y-25301428D01*
X21422471Y-25182846D01*
X21444262Y-25049086D01*
X21447433Y-25027725D01*
X21459671Y-24944307D01*
X21473700Y-24848512D01*
X21487990Y-24750816D01*
X21501007Y-24661693D01*
X21504045Y-24640864D01*
X21519312Y-24523613D01*
X21531776Y-24399301D01*
X21541579Y-24265177D01*
X21548866Y-24118486D01*
X21553778Y-23956478D01*
X21556458Y-23776400D01*
X21557091Y-23618873D01*
X21557091Y-23232626D01*
X21514457Y-23295972D01*
X21491083Y-23326592D01*
X21454113Y-23370034D01*
X21406561Y-23423081D01*
X21351441Y-23482516D01*
X21291767Y-23545120D01*
X21230553Y-23607676D01*
X21170812Y-23666966D01*
X21131746Y-23704555D01*
X21098397Y-23738368D01*
X21056855Y-23783721D01*
X21013120Y-23833936D01*
X20983127Y-23869983D01*
X20896172Y-23976994D01*
X20879483Y-24101111D01*
X20872997Y-24160978D01*
X20868797Y-24229153D01*
X20866766Y-24309565D01*
X20653538Y-24309565D01*
X20654458Y-24289661D01*
X20659107Y-24228979D01*
X20663590Y-24194095D01*
X20670912Y-24151416D01*
X20551161Y-24202065D01*
X20488469Y-24227191D01*
X20419704Y-24252548D01*
X20355602Y-24274258D01*
X20327500Y-24282869D01*
X20276324Y-24296287D01*
X20216845Y-24309645D01*
X20154246Y-24322038D01*
X20093710Y-24332562D01*
X20040419Y-24340310D01*
X19999556Y-24344378D01*
X19977216Y-24344057D01*
X19976586Y-24336766D01*
X19991647Y-24320651D01*
X20018220Y-24298653D01*
X20052125Y-24273711D01*
X20089182Y-24248764D01*
X20125212Y-24226753D01*
X20156035Y-24210617D01*
X20177327Y-24203314D01*
X20303055Y-24184676D01*
X20412874Y-24164241D01*
X20505323Y-24142396D01*
X20578945Y-24119531D01*
X20632282Y-24096034D01*
X20662260Y-24074108D01*
X20673997Y-24057511D01*
X20684147Y-24032916D01*
X20693787Y-23996394D01*
X20703991Y-23944018D01*
X20713381Y-23887451D01*
X20733925Y-23774955D01*
X20932480Y-23774955D01*
X21095376Y-23609745D01*
X21177585Y-23523881D01*
X21244940Y-23447309D01*
X21300926Y-23375293D01*
X21349031Y-23303098D01*
X21392742Y-23225988D01*
X21424276Y-23163046D01*
X21451055Y-23100524D01*
X21479866Y-23021902D01*
X21508619Y-22933799D01*
X21535222Y-22842834D01*
X21557585Y-22755625D01*
X21568111Y-22707787D01*
X21580705Y-22658591D01*
X21595445Y-22629135D01*
X21614406Y-22616070D01*
X21625864Y-22614636D01*
X21644858Y-22608305D01*
X21675652Y-22591708D01*
X21711554Y-22568455D01*
X21746230Y-22545357D01*
X21774341Y-22528795D01*
X21789925Y-22522277D01*
X21790096Y-22522273D01*
X21793691Y-22533291D01*
X21795908Y-22564331D01*
X21796819Y-22612366D01*
X21796494Y-22674372D01*
X21795004Y-22747324D01*
X21792421Y-22828198D01*
X21788815Y-22913969D01*
X21784256Y-23001612D01*
X21778816Y-23088101D01*
X21775905Y-23128409D01*
X21773051Y-23176180D01*
X21770602Y-23236519D01*
X21768582Y-23305994D01*
X21767012Y-23381175D01*
X21765916Y-23458630D01*
X21765317Y-23534930D01*
X21765236Y-23606642D01*
X21765697Y-23670336D01*
X21766722Y-23722581D01*
X21768334Y-23759946D01*
X21770555Y-23779000D01*
X21771594Y-23780727D01*
X21782609Y-23773132D01*
X21804369Y-23753431D01*
X21826435Y-23731659D01*
X21898018Y-23655072D01*
X21971044Y-23570520D01*
X22038331Y-23486524D01*
X22076670Y-23434740D01*
X22124431Y-23361275D01*
X22175272Y-23272413D01*
X22225814Y-23174925D01*
X22272679Y-23075584D01*
X22312489Y-22981162D01*
X22337679Y-22911598D01*
X22355366Y-22855449D01*
X22367631Y-22809551D01*
X22375694Y-22766515D01*
X22380776Y-22718954D01*
X22384096Y-22659481D01*
X22385512Y-22621943D01*
X22386713Y-22529639D01*
X22382401Y-22453403D01*
X22371366Y-22386614D01*
X22352394Y-22322653D01*
X22324274Y-22254901D01*
X22314501Y-22234153D01*
X22285722Y-22183671D01*
X22248509Y-22131643D01*
X22207370Y-22083267D01*
X22166815Y-22043738D01*
X22131354Y-22018254D01*
X22124174Y-22014834D01*
X22107547Y-22010408D01*
X22086884Y-22010476D01*
X22059780Y-22015909D01*
X22023826Y-22027577D01*
X21976615Y-22046351D01*
X21915740Y-22073098D01*
X21838793Y-22108691D01*
X21756670Y-22147640D01*
X21681599Y-22184465D01*
X21623707Y-22215382D01*
X21578701Y-22242984D01*
X21542291Y-22269863D01*
X21516073Y-22292961D01*
X21442508Y-22374182D01*
X21370356Y-22476850D01*
X21300542Y-22599326D01*
X21233992Y-22739972D01*
X21171632Y-22897148D01*
X21165962Y-22912872D01*
X21135323Y-23001982D01*
X21103415Y-23100903D01*
X21071363Y-23205606D01*
X21040290Y-23312065D01*
X21011321Y-23416251D01*
X20985580Y-23514138D01*
X20964190Y-23601699D01*
X20948275Y-23674905D01*
X20939869Y-23723000D01*
X20932480Y-23774955D01*
X20733925Y-23774955D01*
X20735985Y-23763679D01*
X20765979Y-23627895D01*
X20802013Y-23484579D01*
X20842737Y-23338214D01*
X20886801Y-23193280D01*
X20932855Y-23054259D01*
X20979549Y-22925634D01*
X21025533Y-22811884D01*
X21060287Y-22735864D01*
X21121941Y-22617946D01*
X21183277Y-22518982D01*
X21247629Y-22435122D01*
X21318330Y-22362519D01*
X21398716Y-22297326D01*
X21492121Y-22235694D01*
X21495531Y-22233636D01*
X21571859Y-22189197D01*
X21655873Y-22142892D01*
X21744708Y-22096070D01*
X21835501Y-22050078D01*
X21925388Y-22006264D01*
X22011506Y-21965976D01*
X22090990Y-21930561D01*
X22160978Y-21901367D01*
X22218605Y-21879741D01*
X22261008Y-21867032D01*
X22280638Y-21864159D01*
X22313704Y-21873664D01*
G37*
D12*
%TO.C,R1*%
X7397258Y-16487500D02*
X6922742Y-16487500D01*
X7397258Y-17532500D02*
X6922742Y-17532500D01*
%TO.C,C4*%
X17289420Y-20540000D02*
X17570580Y-20540000D01*
X17289420Y-21560000D02*
X17570580Y-21560000D01*
%TO.C,C3*%
X6860000Y-35629420D02*
X6860000Y-35910580D01*
X7880000Y-35629420D02*
X7880000Y-35910580D01*
%TD*%
M02*
